<svg width="98" height="98" viewBox="0 0 98 98" fill="none" xmlns="http://www.w3.org/2000/svg">
<path d="M98 49C98 76.062 76.062 98 49 98C21.938 98 0 76.062 0 49C0 21.938 21.938 0 49 0C76.062 0 98 21.938 98 49Z" fill="#0D81FD"/>
<path d="M52.9473 30.1594C48.9099 32.0736 45.1248 34.3707 41.5921 37.0506C38.0594 39.7305 35.5866 42.3147 34.1735 44.8032C37.4034 45.4732 39.7249 46.8132 41.1379 48.8231C42.551 50.7373 43.2576 52.7951 43.2576 54.9965C43.2576 57.9636 42.1473 60.452 39.9267 62.462C37.7062 64.3762 35.1323 65.3333 32.2053 65.3333C29.0763 65.3333 26.452 64.2805 24.3324 62.1749C22.3137 60.0692 21.3043 57.6286 21.3043 54.8529C21.3043 51.8859 22.1118 48.9188 23.7268 45.9518C25.4427 42.9847 27.6632 40.2091 30.3884 37.6249C33.1137 35.0407 36.1922 32.7436 39.6239 30.7336C43.0557 28.628 46.5379 26.9052 50.0706 25.5652L52.9473 30.1594ZM80.9565 30.1594C76.9192 32.0736 73.1341 34.3707 69.6014 37.0506C66.0687 39.7305 63.5958 42.3147 62.1827 44.8032C65.4126 45.4732 67.7341 46.8132 69.1472 48.8231C70.5603 50.7373 71.2668 52.7951 71.2668 54.9965C71.2668 57.9636 70.1566 60.452 67.936 62.462C65.7154 64.3762 63.1416 65.3333 60.2145 65.3333C57.0856 65.3333 54.4613 64.2805 52.3416 62.1749C50.323 60.0692 49.3136 57.6286 49.3136 54.8529C49.3136 51.8859 50.1211 48.9188 51.736 45.9518C53.4519 42.9847 55.6725 40.2091 58.3977 37.6249C61.1229 35.0407 64.2014 32.7436 67.6332 30.7336C71.065 28.628 74.5472 26.9052 78.0799 25.5652L80.9565 30.1594Z" fill="white"/>
</svg>
