<svg width="22" height="23" viewBox="0 0 22 23" fill="none" xmlns="http://www.w3.org/2000/svg">
<g clip-path="url(#clip0_2073_3012)">
<path d="M3.05078 20.2656L1.28906 0.5H20.668L18.9062 20.2656L10.957 22.5" fill="#E34F26"/>
<path d="M11 20.7812L17.4023 19.0195L18.9062 2.08984H11" fill="#EF652A"/>
<path d="M11 9.4375H7.77734L7.5625 6.94531H11V4.53906H4.89844L5.54297 11.8867H11V9.4375ZM10.957 15.7539L8.25 15.0234L8.07812 13.0898H5.67188L5.97266 16.9141L10.957 18.2891V15.7539Z" fill="#EBEBEB"/>
<path d="M10.957 9.4375V11.8867H13.9648L13.6641 15.0234L10.957 15.7539V18.2891L15.9414 16.9141L16.6289 9.4375H10.957ZM10.957 4.53906V6.94531H16.8438L17.0586 4.53906H10.957Z" fill="white"/>
</g>
<defs>
<clipPath id="clip0_2073_3012">
<rect width="22" height="22" fill="white" transform="translate(0 0.5)"/>
</clipPath>
</defs>
</svg>
