<svg width="21" height="23" viewBox="0 0 21 23" fill="none" xmlns="http://www.w3.org/2000/svg">
<path d="M19.6734 5.37472L11.642 0.716145C11.1361 0.427952 10.4733 0.427952 9.96328 0.716145L1.86914 5.37472C1.34715 5.6751 0.992188 6.23966 0.992188 6.84352V16.1483C0.992188 16.7522 1.35461 17.3169 1.87678 17.6189L4.01075 18.8357C5.03453 19.3401 5.31817 19.3401 5.78394 19.3401C7.30023 19.3401 8.08767 18.4233 8.08767 16.8242V7.63805C8.08785 7.50833 8.16881 7.31529 8.04127 7.31529H7.0184C6.88886 7.31529 6.63233 7.50833 6.63233 7.63787V16.824C6.63233 17.5329 5.97443 18.2382 4.77618 17.6391L2.5707 16.3632C2.49392 16.3213 2.44771 16.2371 2.44771 16.1483V6.84352C2.44771 6.75582 2.53195 6.66777 2.60982 6.62283L10.6839 1.97226C10.7595 1.9295 10.8663 1.9295 10.9414 1.97226L18.94 6.62173C19.0166 6.66777 19.0044 6.7531 19.0044 6.84352V16.1483C19.0044 16.2371 19.0212 16.3235 18.9457 16.3663L10.9161 21.0196C10.8473 21.0609 10.7578 21.0609 10.6823 21.0196L8.6233 19.7916C8.56125 19.7556 8.48648 19.7427 8.4268 19.776C7.8546 20.1004 7.74835 20.1435 7.21162 20.3296C7.07935 20.3757 6.88431 20.4555 7.28586 20.6806L9.9782 22.2733C10.2358 22.4225 10.5289 22.5 10.8237 22.5C11.1224 22.5 11.4148 22.4225 11.6726 22.2733L19.6736 17.6189C20.196 17.3147 20.4599 16.7522 20.4599 16.1483V6.84352C20.4598 6.23966 20.1958 5.67656 19.6734 5.37472ZM13.3144 14.6739C11.1808 14.6739 10.7111 14.0853 10.5544 13.0244C10.5358 12.9101 10.4391 12.7735 10.3226 12.7735H9.2801C9.1511 12.7735 9.04722 12.93 9.04722 13.0584C9.04722 14.4168 9.78589 16.0626 13.3144 16.0626C15.8685 16.0626 17.3331 15.0701 17.3331 13.3137C17.3331 11.5721 16.1565 11.1151 13.6794 10.7872C11.1756 10.4563 10.9212 10.2891 10.9212 9.70252C10.9212 9.21893 11.1366 8.57395 12.9906 8.57395C14.647 8.57395 15.2576 8.92946 15.5088 10.046C15.5305 10.151 15.6263 10.2263 15.7346 10.2263H16.7815C16.8459 10.2263 16.9072 10.2003 16.9523 10.1543C16.9962 10.1048 17.0191 10.0428 17.0135 9.97616C16.851 8.05324 15.5738 7.15718 12.9904 7.15718C10.6921 7.15718 9.3214 8.12765 9.3214 9.75438C9.3214 11.5188 10.6854 12.0064 12.8914 12.2246C15.5305 12.4833 15.7357 12.869 15.7357 13.3881C15.7357 14.2898 15.0119 14.6739 13.3144 14.6739Z" fill="#83CD29"/>
</svg>
