<svg width="146" height="44" viewBox="0 0 146 44" fill="none" xmlns="http://www.w3.org/2000/svg">
<path d="M139.962 43.3301H5.08368C2.28115 43.3301 0 41.0425 0 38.2421V5.41053C0 2.60908 2.28115 0.330078 5.08368 0.330078H139.962C142.763 0.330078 145.125 2.60908 145.125 5.41053V38.2421C145.125 41.0425 142.763 43.3301 139.962 43.3301Z" fill="#A6A6A6"/>
<path d="M144.085 38.2435C144.085 40.5182 142.242 42.3607 139.963 42.3607H5.08396C2.80603 42.3607 0.957031 40.5182 0.957031 38.2435V5.40973C0.957031 3.13611 2.80603 1.28711 5.08396 1.28711H139.962C142.242 1.28711 144.084 3.13611 144.084 5.40973L144.085 38.2435Z" fill="black"/>
<path d="M32.3883 21.598C32.3571 18.1333 35.2252 16.4477 35.3563 16.3692C33.732 14.001 31.2144 13.6774 30.3296 13.6516C28.2151 13.4291 26.164 14.9169 25.0869 14.9169C23.9882 14.9169 22.3295 13.6731 20.5418 13.7096C18.2413 13.7451 16.0891 15.077 14.9088 17.1453C12.4728 21.3626 14.2896 27.5599 16.6234 30.9688C17.7908 32.6382 19.155 34.5023 20.9406 34.4367C22.6875 34.3647 23.34 33.323 25.4481 33.323C27.5368 33.323 28.1495 34.4367 29.9706 34.3948C31.8454 34.3647 33.0257 32.7178 34.1523 31.0333C35.5015 29.1198 36.0433 27.2353 36.0648 27.1385C36.0207 27.1235 32.4237 25.7507 32.3883 21.598Z" fill="white"/>
<path d="M28.9481 11.4093C29.8876 10.2344 30.5305 8.63585 30.352 7.01367C28.9921 7.07387 27.2915 7.9543 26.3122 9.10347C25.4457 10.1161 24.6717 11.7759 24.8717 13.3368C26.3992 13.4508 27.9677 12.566 28.9481 11.4093Z" fill="white"/>
<path d="M57.6675 34.1967H55.2261L53.8888 29.9946H49.2405L47.9667 34.1967H45.5898L50.1951 19.8906H53.0396L57.6675 34.1967ZM53.4857 28.2316L52.2763 24.4959C52.1484 24.1143 51.9087 23.2156 51.555 21.8009H51.512C51.3712 22.4094 51.1444 23.3081 50.8326 24.4959L49.6447 28.2316H53.4857Z" fill="white"/>
<path d="M69.5102 28.9122C69.5102 30.6666 69.0362 32.0534 68.088 33.0714C67.2388 33.9776 66.1842 34.4302 64.9254 34.4302C63.5666 34.4302 62.5905 33.9421 61.996 32.966H61.953V38.4002H59.6611V27.2771C59.6611 26.1742 59.6321 25.0422 59.5762 23.8812H61.5918L61.7197 25.5163H61.7627C62.527 24.2843 63.687 23.6694 65.2436 23.6694C66.4605 23.6694 67.4763 24.15 68.289 25.1121C69.1039 26.0753 69.5102 27.3416 69.5102 28.9122ZM67.1753 28.9961C67.1753 27.992 66.9496 27.1643 66.4959 26.5128C66.0004 25.8334 65.3349 25.4937 64.5007 25.4937C63.9353 25.4937 63.4214 25.6829 62.9624 26.0559C62.5023 26.4322 62.2013 26.9235 62.0605 27.5319C61.9895 27.8157 61.9541 28.0479 61.9541 28.2307V29.9507C61.9541 30.701 62.1841 31.3342 62.6442 31.8513C63.1043 32.3683 63.702 32.6263 64.4373 32.6263C65.3005 32.6263 65.9724 32.2931 66.4529 31.6287C66.9345 30.9633 67.1753 30.0861 67.1753 28.9961Z" fill="white"/>
<path d="M81.3744 28.9122C81.3744 30.6666 80.9003 32.0534 79.9511 33.0714C79.1029 33.9776 78.0484 34.4302 76.7895 34.4302C75.4307 34.4302 74.4546 33.9421 73.8612 32.966H73.8182V38.4002H71.5263V27.2771C71.5263 26.1742 71.4973 25.0422 71.4414 23.8812H73.457L73.585 25.5163H73.628C74.3912 24.2843 75.5511 23.6694 77.1088 23.6694C78.3246 23.6694 79.3405 24.15 80.1554 25.1121C80.967 26.0753 81.3744 27.3416 81.3744 28.9122ZM79.0395 28.9961C79.0395 27.992 78.8127 27.1643 78.359 26.5128C77.8635 25.8334 77.2002 25.4937 76.3649 25.4937C75.7984 25.4937 75.2856 25.6829 74.8255 26.0559C74.3654 26.4322 74.0655 26.9235 73.9247 27.5319C73.8548 27.8157 73.8182 28.0479 73.8182 28.2307V29.9507C73.8182 30.701 74.0483 31.3342 74.5062 31.8513C74.9663 32.3673 75.564 32.6263 76.3015 32.6263C77.1647 32.6263 77.8366 32.2931 78.3171 31.6287C78.7987 30.9633 79.0395 30.0861 79.0395 28.9961Z" fill="white"/>
<path d="M94.6408 30.185C94.6408 31.4019 94.2184 32.392 93.3702 33.1563C92.4382 33.9916 91.1406 34.4087 89.4733 34.4087C87.9339 34.4087 86.6998 34.112 85.7656 33.5175L86.2967 31.6072C87.3029 32.2157 88.4069 32.521 89.6098 32.521C90.4731 32.521 91.1449 32.3253 91.6276 31.9362C92.1081 31.547 92.3479 31.0246 92.3479 30.3731C92.3479 29.7926 92.1501 29.3035 91.7534 28.9068C91.3589 28.5101 90.6999 28.1414 89.7797 27.8006C87.2749 26.8665 86.0236 25.498 86.0236 23.6984C86.0236 22.5224 86.4622 21.5581 87.3405 20.8078C88.2156 20.0563 89.383 19.6812 90.8428 19.6812C92.1447 19.6812 93.2261 19.908 94.0894 20.3606L93.5164 22.2289C92.7101 21.7903 91.7985 21.571 90.7784 21.571C89.9721 21.571 89.3422 21.7699 88.8907 22.1655C88.509 22.5192 88.3177 22.9502 88.3177 23.4609C88.3177 24.0263 88.5359 24.4939 88.9745 24.8616C89.3561 25.2013 90.0495 25.5689 91.0557 25.9656C92.2866 26.4612 93.1907 27.0406 93.7722 27.705C94.3517 28.3672 94.6408 29.196 94.6408 30.185Z" fill="white"/>
<path d="M102.22 25.6009H99.6935V30.6093C99.6935 31.8832 100.139 32.5196 101.031 32.5196C101.44 32.5196 101.78 32.4841 102.049 32.4131L102.112 34.1536C101.661 34.3223 101.066 34.4073 100.33 34.4073C99.4248 34.4073 98.7175 34.131 98.2068 33.5795C97.6984 33.027 97.4425 32.1003 97.4425 30.7985V25.5987H95.9375V23.8787H97.4425V21.9899L99.6935 21.3105V23.8787H102.22V25.6009Z" fill="white"/>
<path d="M113.616 28.954C113.616 30.5397 113.162 31.8415 112.257 32.8595C111.308 33.9076 110.048 34.4301 108.477 34.4301C106.964 34.4301 105.758 33.9281 104.86 32.924C103.961 31.92 103.512 30.6525 103.512 29.125C103.512 27.5264 103.974 26.2171 104.902 25.1991C105.827 24.18 107.076 23.6704 108.647 23.6704C110.161 23.6704 111.379 24.1724 112.298 25.1776C113.177 26.1526 113.616 27.4114 113.616 28.954ZM111.238 29.0282C111.238 28.0768 111.035 27.2609 110.623 26.5804C110.142 25.757 109.455 25.3463 108.565 25.3463C107.644 25.3463 106.944 25.7581 106.464 26.5804C106.052 27.262 105.849 28.0908 105.849 29.0712C105.849 30.0226 106.052 30.8385 106.464 31.5179C106.959 32.3414 107.652 32.752 108.545 32.752C109.42 32.752 110.107 32.3328 110.602 31.4964C111.025 30.803 111.238 29.9785 111.238 29.0282Z" fill="white"/>
<path d="M121.066 25.8968C120.839 25.8549 120.597 25.8334 120.344 25.8334C119.537 25.8334 118.914 26.1376 118.475 26.7472C118.094 27.2847 117.902 27.9641 117.902 28.7843V34.1969H115.611L115.633 27.1299C115.633 25.9409 115.604 24.8584 115.547 23.8823H117.543L117.627 25.856H117.69C117.932 25.1777 118.314 24.6316 118.836 24.222C119.347 23.8533 119.898 23.6694 120.493 23.6694C120.705 23.6694 120.896 23.6845 121.066 23.7114V25.8968Z" fill="white"/>
<path d="M131.316 28.5508C131.316 28.9615 131.289 29.3076 131.232 29.5904H124.356C124.383 30.6095 124.716 31.3888 125.354 31.9263C125.934 32.4069 126.683 32.6477 127.603 32.6477C128.621 32.6477 129.55 32.4853 130.385 32.1596L130.744 33.7506C129.768 34.1763 128.616 34.3881 127.286 34.3881C125.686 34.3881 124.431 33.9172 123.517 32.9766C122.605 32.036 122.148 30.7729 122.148 29.1883C122.148 27.6328 122.573 26.3374 123.423 25.3043C124.313 24.2014 125.516 23.6499 127.03 23.6499C128.517 23.6499 129.642 24.2014 130.407 25.3043C131.012 26.1805 131.316 27.2641 131.316 28.5508ZM129.131 27.9564C129.146 27.277 128.996 26.69 128.686 26.1944C128.289 25.557 127.679 25.2388 126.859 25.2388C126.11 25.2388 125.5 25.5494 125.035 26.1729C124.653 26.6685 124.426 27.263 124.356 27.9553H129.131V27.9564Z" fill="white"/>
<path d="M52.7302 11.0897C52.7302 12.355 52.3507 13.3074 51.5928 13.947C50.8909 14.5372 49.8933 14.8328 48.6011 14.8328C47.9604 14.8328 47.4121 14.8049 46.9531 14.749V7.83565C47.5519 7.7389 48.1969 7.68945 48.8935 7.68945C50.1244 7.68945 51.0521 7.95713 51.6778 8.49248C52.3787 9.0977 52.7302 9.96308 52.7302 11.0897ZM51.5423 11.1209C51.5423 10.3006 51.3252 9.67175 50.8909 9.23315C50.4566 8.79563 49.8223 8.57633 48.987 8.57633C48.6323 8.57633 48.3302 8.59998 48.0797 8.64943V13.9051C48.2184 13.9266 48.4721 13.9363 48.8408 13.9363C49.703 13.9363 50.3684 13.6966 50.8371 13.2171C51.3058 12.7377 51.5423 12.0389 51.5423 11.1209Z" fill="white"/>
<path d="M59.0297 12.1951C59.0297 12.9745 58.8072 13.6131 58.3621 14.114C57.8956 14.6289 57.2774 14.8859 56.5056 14.8859C55.7617 14.8859 55.1694 14.6397 54.7275 14.1452C54.2868 13.6518 54.0664 13.0293 54.0664 12.279C54.0664 11.4942 54.2932 10.8503 54.749 10.3504C55.2048 9.85057 55.8176 9.6001 56.5894 9.6001C57.3333 9.6001 57.931 9.84627 58.3836 10.3397C58.8136 10.8191 59.0297 11.4383 59.0297 12.1951ZM57.8612 12.2317C57.8612 11.7641 57.7601 11.3631 57.5591 11.0288C57.3226 10.6246 56.9861 10.4225 56.5486 10.4225C56.096 10.4225 55.752 10.6246 55.5155 11.0288C55.3134 11.3631 55.2134 11.7705 55.2134 12.2521C55.2134 12.7197 55.3145 13.1207 55.5155 13.455C55.7595 13.8592 56.0992 14.0613 56.5378 14.0613C56.9678 14.0613 57.3054 13.856 57.5483 13.4443C57.7569 13.1035 57.8612 12.6993 57.8612 12.2317Z" fill="white"/>
<path d="M67.4731 9.70312L65.8875 14.7707H64.8555L64.1987 12.5701C64.032 12.0208 63.8966 11.4747 63.7912 10.9329H63.7708C63.673 11.4898 63.5375 12.0348 63.3634 12.5701L62.6657 14.7707H61.6219L60.1309 9.70312H61.2886L61.8616 12.1122C62.0003 12.682 62.1142 13.2248 62.2056 13.7387H62.226C62.3099 13.3151 62.4486 12.7755 62.6442 12.123L63.3634 9.7042H64.2814L64.9705 12.0714C65.1371 12.6486 65.2726 13.2044 65.3769 13.7398H65.408C65.4844 13.2184 65.5994 12.6626 65.752 12.0714L66.3669 9.7042H67.4731V9.70312Z" fill="white"/>
<path d="M73.313 14.7707H72.1864V11.8682C72.1864 10.9738 71.8467 10.5266 71.1651 10.5266C70.8308 10.5266 70.561 10.6491 70.3514 10.8953C70.1439 11.1415 70.0385 11.4317 70.0385 11.7639V14.7696H68.9119V11.1511C68.9119 10.7061 68.898 10.2234 68.8711 9.70095H69.8612L69.9138 10.4932H69.945C70.0762 10.2471 70.2718 10.0439 70.5287 9.88156C70.834 9.69236 71.1759 9.59668 71.55 9.59668C72.023 9.59668 72.4164 9.74933 72.7293 10.0557C73.1184 10.4309 73.313 10.991 73.313 11.7349V14.7707Z" fill="white"/>
<path d="M76.4204 14.7707H75.2949V7.37793H76.4204V14.7707Z" fill="white"/>
<path d="M83.0531 12.1951C83.0531 12.9745 82.8306 13.6131 82.3855 14.114C81.919 14.6289 81.2998 14.8859 80.529 14.8859C79.784 14.8859 79.1917 14.6397 78.751 14.1452C78.3102 13.6518 78.0898 13.0293 78.0898 12.279C78.0898 11.4942 78.3167 10.8503 78.7725 10.3504C79.2283 9.85057 79.841 9.6001 80.6118 9.6001C81.3568 9.6001 81.9534 9.84627 82.407 10.3397C82.837 10.8191 83.0531 11.4383 83.0531 12.1951ZM81.8835 12.2317C81.8835 11.7641 81.7825 11.3631 81.5814 11.0288C81.346 10.6246 81.0085 10.4225 80.572 10.4225C80.1184 10.4225 79.7744 10.6246 79.5389 11.0288C79.3368 11.3631 79.2369 11.7705 79.2369 12.2521C79.2369 12.7197 79.3379 13.1207 79.5389 13.455C79.783 13.8592 80.1227 14.0613 80.5613 14.0613C80.9913 14.0613 81.3277 13.856 81.5707 13.4443C81.7803 13.1035 81.8835 12.6993 81.8835 12.2317Z" fill="white"/>
<path d="M88.506 14.7708H87.4944L87.4105 14.1871H87.3794C87.0332 14.6526 86.5398 14.8859 85.8991 14.8859C85.4207 14.8859 85.0337 14.7321 84.7424 14.4268C84.4779 14.1495 84.3457 13.8044 84.3457 13.3948C84.3457 12.7756 84.6037 12.3037 85.1229 11.9769C85.6411 11.6501 86.3699 11.4899 87.3084 11.4975V11.4029C87.3084 10.7353 86.958 10.402 86.256 10.402C85.7561 10.402 85.3154 10.5278 84.9348 10.7772L84.7058 10.0376C85.1767 9.7463 85.7583 9.6001 86.4441 9.6001C87.7685 9.6001 88.4329 10.2988 88.4329 11.6963V13.5625C88.4329 14.0689 88.4576 14.472 88.506 14.7708ZM87.3364 13.0293V12.2478C86.0937 12.2263 85.4723 12.5671 85.4723 13.2691C85.4723 13.5335 85.5433 13.7313 85.6884 13.8635C85.8335 13.9958 86.0184 14.0613 86.2388 14.0613C86.486 14.0613 86.7172 13.9829 86.9279 13.827C87.1396 13.67 87.2697 13.4712 87.3181 13.2271C87.3299 13.1723 87.3364 13.1057 87.3364 13.0293Z" fill="white"/>
<path d="M94.9078 14.7707H93.9081L93.8554 13.9569H93.8242C93.5049 14.5761 92.961 14.8857 92.1967 14.8857C91.5861 14.8857 91.0776 14.646 90.6745 14.1666C90.2713 13.6871 90.0703 13.0647 90.0703 12.3004C90.0703 11.4801 90.2885 10.8158 90.7271 10.3084C91.1518 9.83538 91.6721 9.59888 92.2913 9.59888C92.9717 9.59888 93.448 9.82785 93.7189 10.2869H93.7404V7.37793H94.868V13.4055C94.868 13.8989 94.8809 14.3536 94.9078 14.7707ZM93.7404 12.6336V11.7887C93.7404 11.6425 93.7296 11.5242 93.7092 11.4339C93.6458 11.163 93.5092 10.9351 93.3018 10.7513C93.0921 10.5675 92.8395 10.475 92.5482 10.475C92.1279 10.475 91.7989 10.6416 91.557 10.976C91.3173 11.3103 91.1958 11.7371 91.1958 12.2584C91.1958 12.7594 91.3109 13.1657 91.542 13.4786C91.786 13.8118 92.115 13.9784 92.5267 13.9784C92.8965 13.9784 93.1921 13.8398 93.4168 13.5613C93.6339 13.3044 93.7404 12.9948 93.7404 12.6336Z" fill="white"/>
<path d="M104.543 12.1951C104.543 12.9745 104.321 13.6131 103.876 14.114C103.409 14.6289 102.792 14.8859 102.019 14.8859C101.276 14.8859 100.684 14.6397 100.241 14.1452C99.8005 13.6518 99.5801 13.0293 99.5801 12.279C99.5801 11.4942 99.8069 10.8503 100.263 10.3504C100.719 9.85057 101.331 9.6001 102.104 9.6001C102.847 9.6001 103.446 9.84627 103.897 10.3397C104.327 10.8191 104.543 11.4383 104.543 12.1951ZM103.376 12.2317C103.376 11.7641 103.275 11.3631 103.074 11.0288C102.836 10.6246 102.501 10.4225 102.062 10.4225C101.611 10.4225 101.267 10.6246 101.029 11.0288C100.827 11.3631 100.727 11.7705 100.727 12.2521C100.727 12.7197 100.828 13.1207 101.029 13.455C101.273 13.8592 101.613 14.0613 102.052 14.0613C102.482 14.0613 102.82 13.856 103.063 13.4443C103.271 13.1035 103.376 12.6993 103.376 12.2317Z" fill="white"/>
<path d="M110.601 14.7707H109.475V11.8682C109.475 10.9738 109.136 10.5266 108.453 10.5266C108.119 10.5266 107.849 10.6491 107.64 10.8953C107.432 11.1415 107.328 11.4317 107.328 11.7639V14.7696H106.2V11.1511C106.2 10.7061 106.187 10.2234 106.16 9.70095H107.149L107.202 10.4932H107.233C107.365 10.2471 107.561 10.0439 107.817 9.88156C108.123 9.69236 108.464 9.59668 108.839 9.59668C109.311 9.59668 109.704 9.74933 110.017 10.0557C110.407 10.4309 110.601 10.991 110.601 11.7349V14.7707Z" fill="white"/>
<path d="M118.182 10.5473H116.941V13.0091C116.941 13.6347 117.162 13.9476 117.598 13.9476C117.8 13.9476 117.968 13.9304 118.1 13.8949L118.129 14.7495C117.907 14.8334 117.614 14.8753 117.254 14.8753C116.809 14.8753 116.463 14.7398 116.213 14.4689C115.961 14.198 115.836 13.7422 115.836 13.1026V10.5473H115.096V9.70346H115.836V8.77466L116.94 8.44141V9.70238H118.181V10.5473H118.182Z" fill="white"/>
<path d="M124.147 14.7707H123.019V11.8897C123.019 10.9813 122.68 10.5266 121.999 10.5266C121.477 10.5266 121.12 10.79 120.924 11.3167C120.891 11.4275 120.872 11.5629 120.872 11.722V14.7696H119.746V7.37793H120.872V10.432H120.893C121.248 9.87623 121.756 9.59888 122.415 9.59888C122.882 9.59888 123.268 9.75153 123.574 10.0579C123.956 10.4395 124.147 11.0071 124.147 11.7575V14.7707Z" fill="white"/>
<path d="M130.298 11.9973C130.298 12.1994 130.283 12.3692 130.256 12.5079H126.878C126.893 13.0088 127.054 13.3905 127.367 13.6549C127.653 13.8914 128.021 14.0097 128.473 14.0097C128.973 14.0097 129.429 13.9301 129.839 13.7699L130.016 14.5525C129.535 14.7611 128.97 14.8654 128.315 14.8654C127.53 14.8654 126.912 14.6342 126.465 14.172C126.015 13.7097 125.793 13.0895 125.793 12.3112C125.793 11.5468 126 10.9104 126.419 10.403C126.855 9.86123 127.445 9.59033 128.19 9.59033C128.919 9.59033 129.473 9.86123 129.847 10.403C130.149 10.833 130.298 11.3652 130.298 11.9973ZM129.223 11.7059C129.232 11.3716 129.158 11.0835 129.005 10.8406C128.809 10.5277 128.512 10.3708 128.109 10.3708C127.741 10.3708 127.441 10.5234 127.212 10.8298C127.025 11.0738 126.914 11.3652 126.878 11.7059H129.223Z" fill="white"/>
</svg>
