<svg xmlns="http://www.w3.org/2000/svg" width="200" height="200" viewBox="0 0 200 200" fill="none">
<path d="M216.9 183.197L166.195 164.709L166.081 164.666C163.418 163.66 160.627 162.894 157.764 162.384C154.988 161.887 152.14 161.618 149.221 161.618C148.994 161.618 148.754 161.618 148.527 161.632C144.334 161.689 140.267 162.284 136.4 163.348C136.385 163.348 136.371 163.362 136.357 163.362C135.337 163.645 134.331 163.957 133.34 164.312C131.653 164.794 129.925 165.191 128.168 165.503C126.241 165.857 124.301 166.112 122.317 166.254C120.871 166.368 119.426 166.424 117.953 166.424C86.6561 166.424 61.2823 141.031 61.2823 109.712C61.2823 78.393 86.6561 53 117.953 53C141.457 53 161.632 67.334 170.204 87.736C171.366 90.487 172.315 93.365 173.038 96.328C172.697 100.78 169.877 104.551 165.953 106.238C164.522 106.848 162.964 107.188 161.32 107.188C157.538 107.188 154.166 105.402 152.027 102.609C151.488 100 150.667 97.491 149.575 95.137C144.135 83.256 132.135 75.004 118.223 75.004C99.1662 75.004 83.724 90.458 83.724 109.528C83.724 128.214 98.5576 143.428 117.075 144.037C117.458 144.051 117.84 144.051 118.223 144.051C122.869 144.051 127.318 143.13 131.37 141.457C131.639 141.343 131.922 141.23 132.192 141.102C134.388 140.209 136.811 139.713 139.375 139.67C143.582 139.599 147.479 140.961 150.609 143.314H150.624L151.771 144.009L159.309 148.532L216.9 183.197Z" fill="#222222"/>
<path d="M199.05 164.765L163.658 143.286L145.552 132.312L144.9 131.915C144.816 131.858 144.716 131.801 144.631 131.759C141.911 130.228 138.765 129.349 135.422 129.349C132.943 129.349 130.563 129.831 128.395 130.71C128.366 130.724 128.353 130.724 128.324 130.738C127.842 130.979 127.346 131.206 126.85 131.404C126.836 131.404 126.822 131.419 126.808 131.419C126.695 131.461 126.581 131.518 126.468 131.56C123.832 132.595 120.956 133.163 117.953 133.163C105.018 133.163 94.5475 122.671 94.5475 109.74C94.5475 96.8101 105.032 86.3181 117.953 86.3181C124.824 86.3181 131.002 89.2811 135.281 93.9891C137.476 96.4131 139.176 99.3051 140.21 102.481C139.517 105.827 136.555 108.323 133.013 108.323C131.724 108.323 130.52 107.996 129.457 107.401C128.933 104.821 127.573 102.538 125.66 100.879C123.592 99.0641 120.886 97.9731 117.939 97.9731C111.45 97.9731 106.194 103.247 106.194 109.726C106.194 116.22 111.45 121.494 117.939 121.494C120.475 121.494 122.813 120.686 124.739 119.325C124.867 119.24 124.994 119.14 125.108 119.055C125.93 118.432 126.893 117.964 127.942 117.737C128.083 117.708 128.211 117.68 128.366 117.652C128.409 117.638 128.465 117.638 128.508 117.623C128.607 117.609 128.707 117.595 128.791 117.595C128.919 117.581 129.046 117.567 129.174 117.567C129.302 117.552 129.429 117.552 129.556 117.552C130.648 117.567 131.682 117.794 132.616 118.219C132.744 118.29 132.872 118.346 132.999 118.417C133.013 118.417 133.013 118.417 133.028 118.432L133.056 118.446L134.458 119.438L134.487 119.467L165.188 141.031L199.05 164.765Z" fill="#222"/>
</svg>