<svg width="120" height="27" viewBox="0 0 120 27" fill="none" xmlns="http://www.w3.org/2000/svg">
<g clip-path="url(#clip0_2170_1187)">
<path fill-rule="evenodd" clip-rule="evenodd" d="M19.4551 5.63247C18.3565 4.67369 17.2379 4.39404 15.7798 4.39404C14.062 4.39404 11.7849 5.15308 11.7849 7.35027C11.7849 9.50752 13.9222 10.1467 15.6999 10.2865C17.0382 10.3664 17.5775 10.6261 17.5775 11.2853C17.5775 11.9844 16.7586 12.4438 15.8597 12.4238C14.8011 12.4038 13.263 11.8445 12.6038 11.1055L11.4453 12.7834C12.8236 14.2215 14.3216 14.4812 15.8197 14.4812C18.5163 14.4812 19.8945 13.043 19.8945 11.3652C19.8945 8.84838 17.6374 8.44887 15.8397 8.32904C14.6213 8.24913 14.0819 7.90957 14.0819 7.29036C14.0819 6.69111 14.7012 6.35155 15.7998 6.35155C16.6986 6.35155 17.4776 6.57128 18.1368 7.19049L19.4551 5.63247Z" fill="#F89522"/>
<path fill-rule="evenodd" clip-rule="evenodd" d="M22.5117 2.23672V4.67362H20.7539V6.69104H22.5117V10.7858C22.5117 13.1428 23.85 14.3213 25.9073 14.2414C26.6264 14.2214 27.1658 14.1016 27.8448 13.8419L27.1857 11.8445C26.8461 12.0243 26.4267 12.1241 26.0472 12.1241C25.3081 12.1241 24.8287 11.6847 24.8287 10.7858V6.69104H27.4654V4.67362H24.8487V1.97705L22.5117 2.23672Z" fill="#F89522"/>
<path fill-rule="evenodd" clip-rule="evenodd" d="M33.4971 6.53109C37.1725 6.53109 37.1725 12.2638 33.4971 12.2638C31.939 12.2638 30.7006 11.1851 30.7006 9.38745C30.6808 7.56975 31.939 6.53109 33.4971 6.53109ZM36.2935 5.9718C35.7542 5.03299 34.5556 4.43377 33.2774 4.43377C30.521 4.41378 28.3438 6.13158 28.3438 9.38745C28.3438 12.7032 30.4211 14.441 33.2175 14.421C34.2761 14.4011 35.7542 13.8617 36.2935 12.7432L36.4133 14.1214H38.6306V4.65347H36.3935L36.2935 5.9718Z" fill="#F89522"/>
<path fill-rule="evenodd" clip-rule="evenodd" d="M40.1094 4.65376V14.1217H42.4462V9.12806C42.4462 7.39026 43.5849 6.73109 44.8033 6.73109C45.5623 6.73109 46.0217 6.95082 46.5011 7.3503L47.5597 5.31292C47.0404 4.79358 46.1016 4.41406 45.1229 4.41406C44.164 4.41406 43.1854 4.59384 42.4462 5.75235L42.2666 4.65376H40.1094Z" fill="#F89522"/>
<path fill-rule="evenodd" clip-rule="evenodd" d="M50.4354 2.23672V4.67362H48.6777V6.69104H50.4354V10.7858C50.4354 13.1428 51.7738 14.3213 53.831 14.2414C54.5502 14.2214 55.0895 14.1016 55.7686 13.8419L55.1096 11.8445C54.7699 12.0243 54.3506 12.1241 53.9711 12.1241C53.2319 12.1241 52.7524 11.6847 52.7524 10.7858V6.69104H55.3891V4.67362H52.7725V1.97705L50.4354 2.23672Z" fill="#F89522"/>
<path fill-rule="evenodd" clip-rule="evenodd" d="M57.127 4.65381V9.62749C57.127 12.5637 58.7847 14.2815 61.0418 14.2815C62.3602 14.2815 63.2589 13.8221 64.2579 12.8634L64.4174 14.1218H66.5148V4.65381H64.1978V9.48766C64.1978 10.9458 63.2191 12.1443 61.7808 12.1443C60.2829 12.1443 59.5038 11.0457 59.5038 9.6075V4.65381H57.127Z" fill="#F89522"/>
<path fill-rule="evenodd" clip-rule="evenodd" d="M70.2106 18.0767V13.0032C70.8897 14.0418 72.3679 14.3415 73.3666 14.3415C76.4028 14.3415 78.1404 12.1443 78.1404 9.38777C78.1404 6.61132 76.2028 4.43408 73.2866 4.43408C72.208 4.43408 70.9496 4.89348 70.2106 5.95215L70.0508 4.65379H67.8535V18.0767H70.2106ZM73.1068 12.0843C71.5089 12.0843 70.4103 10.8858 70.4103 9.38777C70.4103 7.90966 71.409 6.6912 73.1068 6.6912C74.8046 6.6912 75.8033 7.90966 75.8033 9.38777C75.7835 10.8858 74.6849 12.0843 73.1068 12.0843Z" fill="#F89522"/>
<path fill-rule="evenodd" clip-rule="evenodd" d="M79.1992 1.99705C79.1992 3.81474 81.9556 3.81474 81.9556 1.99705C81.9756 0.179368 79.1992 0.179368 79.1992 1.99705ZM81.756 14.1216H79.4189V4.61373H81.756V14.1216Z" fill="#F89522"/>
<path fill-rule="evenodd" clip-rule="evenodd" d="M92.5619 14.1218V9.14819C92.5619 6.172 90.7842 4.49414 88.5471 4.49414C87.3485 4.49414 86.3899 4.97353 85.431 5.91231L85.2712 4.63394H83.1738V14.1218H85.4909V9.28802C85.4909 7.84985 86.4698 6.63139 87.9078 6.63139C89.406 6.63139 90.1851 7.72999 90.1851 9.16818V14.1218H92.5619Z" fill="#F89522"/>
<path fill-rule="evenodd" clip-rule="evenodd" d="M101.69 0.698687V5.932C101.13 4.95327 99.5724 4.41396 98.5737 4.41396C95.817 4.41396 93.7598 6.11178 93.7598 9.36763C93.7598 12.4837 95.8571 14.3213 98.6336 14.3213C99.7921 14.3213 100.951 13.9418 101.69 12.8033L101.849 14.1016H104.047V0.678711H101.69V0.698687ZM98.7934 6.61116C100.272 6.61116 101.53 7.72972 101.53 9.36763C101.53 11.0655 100.272 12.1441 98.7934 12.1441C97.2952 12.1441 96.0968 11.0056 96.0968 9.36763C96.1166 7.66981 97.2952 6.61116 98.7934 6.61116Z" fill="#F89522"/>
<path fill-rule="evenodd" clip-rule="evenodd" d="M105.766 1.99705C105.766 3.81474 108.522 3.81474 108.522 1.99705C108.522 0.179368 105.766 0.179368 105.766 1.99705Z" fill="#A4CD39"/>
<path d="M108.321 4.61377H105.984V14.1216H108.321V4.61377Z" fill="#3DC5F2"/>
<path fill-rule="evenodd" clip-rule="evenodd" d="M114.714 6.53109C118.389 6.53109 118.389 12.2638 114.714 12.2638C113.156 12.2638 111.917 11.1851 111.917 9.38745C111.917 7.56975 113.176 6.53109 114.714 6.53109ZM117.53 5.9718C116.991 5.03299 115.792 4.43377 114.514 4.43377C111.757 4.41378 109.58 6.13158 109.58 9.38745C109.58 12.7032 111.657 14.441 114.454 14.421C115.513 14.4011 116.991 13.8617 117.53 12.7432L117.65 14.1214H119.847V4.65347H117.61L117.53 5.9718Z" fill="#F89522"/>
<path d="M108.342 15.5796H97.1562V17.8767H108.342V15.5796Z" fill="#A4CD39"/>
<path d="M99.3941 15.5996H97.1172V26.8053H99.3941V15.5996Z" fill="#A4CD39"/>
<path d="M99.3938 24.5083H88.248V26.8054H99.3938V24.5083Z" fill="#A4CD39"/>
<path d="M5.5729 3.07568L4.97365 5.45264H6.71145L7.31067 3.07568H9.42799L8.84873 5.47264H9.98726V7.31028H8.38931L7.65024 10.2066H8.90865V12.0642H7.23079L6.71145 14.2215H4.55418L5.07352 12.0642H3.31579L2.79645 14.2215H0.679133L1.19847 12.0642H0V10.2066H1.67786L2.41692 7.29032H1.0986V5.47264H2.85636L3.43562 3.09566H5.5729V3.07568ZM4.43435 7.17045L3.63536 10.3264H5.63282L6.43181 7.17045H4.43435Z" fill="#F89522"/>
</g>
<defs>
<clipPath id="clip0_2170_1187">
<rect width="120" height="26.1717" fill="white" transform="translate(0 0.633789)"/>
</clipPath>
</defs>
</svg>
