<svg width="230" height="110" viewBox="0 0 230 110" fill="none" xmlns="http://www.w3.org/2000/svg">
<rect x="0.2" y="0.2" width="229.6" height="109.6" fill="white"/>
<path d="M147.508 81.0341C148.15 81.1387 148.113 81.2433 148.195 81.2545C148.293 81.2674 149.452 80.6854 149.452 80.6854C149.452 80.6854 152.881 78.9929 153.063 78.8947L155.538 75.7789L157.445 76.6608C157.445 76.6608 154.662 79.9712 154.485 80.117C154.309 80.2627 149.393 81.987 148.966 82.1534C148.966 82.1534 148.534 82.5473 148.255 82.7854C147.977 83.0235 147.604 83.1175 147.515 83.1716C147.275 83.2921 147.021 83.3812 146.759 83.4368C146.384 83.5185 146.696 83.2639 146.696 83.2639C146.696 83.2639 147.36 82.9841 147.327 82.9335C147.301 82.8941 146.949 83.0693 146.536 83.164C146.43 83.1881 146.324 83.2122 146.228 83.2328C145.974 83.2874 145.863 83.1422 146.117 83.0411C146.232 82.9932 146.35 82.9539 146.47 82.9235C146.593 82.8977 146.696 82.833 146.796 82.7954C146.91 82.7579 147.022 82.7131 147.131 82.6613C147.12 82.6525 147.148 82.6084 147.034 82.6308C146.898 82.6578 146.623 82.7807 146.417 82.8036C146.3 82.8171 146.061 82.8624 146.061 82.8624C146.061 82.8624 145.635 82.9029 145.632 82.8436C145.626 82.7131 145.888 82.6408 146.049 82.6437C146.163 82.6013 146.281 82.5715 146.402 82.5549C146.402 82.5549 146.895 82.3597 146.866 82.2868C146.855 82.258 146.556 82.3027 146.24 82.3245C145.905 82.3474 145.662 82.3474 145.644 82.2821C145.615 82.1793 145.882 82.1404 145.882 82.1404C145.882 82.1404 146.117 82.1064 146.194 82.0887C146.284 82.0681 146.547 81.9847 146.547 81.9847C146.547 81.9847 147.455 81.6513 147.422 81.5849C147.389 81.5185 147.239 81.3774 147.175 81.378C147.111 81.3786 146.999 81.442 146.933 81.4426C146.867 81.4432 146.731 81.4303 146.722 81.3498C146.712 81.2692 147.067 81.1028 147.067 81.1028C147.067 81.1028 147.323 81.0041 147.508 81.0341Z" fill="#F8A492"/>
<path d="M153.815 77.7095C153.815 77.7095 154.433 78.2704 154.69 78.455C154.903 78.6084 155.944 79.1099 155.944 79.1099C155.944 79.1099 156.979 77.5226 157.431 76.7301C157.98 75.7654 158.361 74.3315 158.231 74.2927C157.866 74.1834 157.365 74.1164 156.903 74.3292C155.301 75.064 153.815 77.7095 153.815 77.7095Z" fill="#355389"/>
<path d="M148.108 81.8624C147.833 81.9059 147.552 81.8536 147.43 81.6019C147.403 81.9006 147.855 82.0488 148.108 81.8624Z" fill="#FE875E"/>
<path d="M71.3636 70.7443C71.4018 69.8213 71.266 68.9095 70.855 68.0506C70.5023 67.311 69.6258 66.8913 68.8274 66.8907C66.2924 66.8872 65.9703 70.251 64.3565 71.5485C63.8633 71.9447 63.3118 72.2675 62.8457 72.6955C61.1226 74.2739 61.8986 77.1963 63.4806 78.5808C64.5787 79.5408 66.3024 80.0869 67.6546 79.3356C68.36 78.9441 68.8968 78.2927 69.2789 77.5784C69.8209 76.5655 70.1707 75.3968 70.5558 74.3168C70.9691 73.1675 71.3124 71.9712 71.3636 70.7443Z" fill="#13375B"/>
<path d="M71.7774 75.214C70.9855 72.8119 69.9403 72.8495 69.9403 72.8495L70.7851 77.9641C71.2736 77.8306 71.9103 77.5332 72.3988 77.395C72.2371 76.6355 71.9738 75.8054 71.7774 75.214Z" fill="#F7CC7F"/>
<path d="M75.7791 83.4073L72.8844 81.1992C72.8844 81.1992 72.5905 79.1387 72.203 77.311C71.7145 77.4485 71.2736 77.8318 70.7851 77.9653L71.5211 82.0593L75.3153 84.017L76.3864 85.3938L76.6304 83.9829L75.7791 83.4073Z" fill="#F48C7F"/>
<path d="M102.166 79.957C103.032 79.9562 103.883 80.1807 104.636 80.6084C104.732 80.6625 104.832 80.7106 104.934 80.7524C107.159 81.666 109.593 79.9741 109.593 77.569V65.7425H97.7684C95.3634 65.7425 93.6715 63.3081 94.585 61.0841C94.6268 60.9815 94.6749 60.8815 94.7291 60.7849C95.1703 60.0045 95.3943 59.1201 95.3777 58.2238C95.3611 57.3275 95.1045 56.452 94.6347 55.6885C94.1648 54.925 93.4989 54.3014 92.7063 53.8827C91.9136 53.4639 91.0232 53.2654 90.1277 53.3076C87.5233 53.4252 85.4246 55.5674 85.3535 58.1735C85.3269 59.0627 85.5381 59.9429 85.9654 60.7232C86.0193 60.8212 86.0668 60.9225 86.1077 61.0265C87.0142 63.2875 85.2953 65.7425 82.8596 65.7425H71.1366V92.6906C71.1366 99.0475 76.29 104.2 82.6468 104.2H109.595V92.4132C109.595 89.9964 107.153 88.2938 104.915 89.2045C104.812 89.2458 104.712 89.2936 104.615 89.3473C103.946 89.7217 103.2 89.9379 102.435 89.9791C101.67 90.0203 100.905 89.8856 100.2 89.5853C99.495 89.2849 98.8681 88.8269 98.3676 88.2465C97.8671 87.6661 97.5063 86.9786 97.3129 86.237C97.1195 85.4953 97.0987 84.7192 97.2521 83.9683C97.4054 83.2174 97.7289 82.5116 98.1975 81.9052C98.6662 81.2987 99.2677 80.8078 99.9557 80.4701C100.644 80.1324 101.4 79.9569 102.166 79.957Z" fill="#222222"/>
<path d="M127.799 73.3968C127.837 72.5313 128.101 71.6909 128.563 70.9583C128.622 70.8636 128.674 70.7654 128.721 70.6643C129.737 68.485 128.161 65.9748 125.759 65.8625L113.942 65.3099L113.39 77.1264C113.278 79.5285 110.767 81.1046 108.588 80.0881C108.487 80.0417 108.389 79.989 108.294 79.9306C107.535 79.4526 106.662 79.1869 105.765 79.1611C104.869 79.1354 103.982 79.3507 103.196 79.7844C102.411 80.2181 101.757 80.8545 101.301 81.6272C100.846 82.3998 100.606 83.2805 100.607 84.1775C100.607 86.7847 102.644 88.9793 105.245 89.1745C106.133 89.2424 107.023 89.0715 107.822 88.6795C107.923 88.6309 108.027 88.5883 108.133 88.5519C110.434 87.7518 112.805 89.5837 112.692 92.0169L112.144 103.729L139.063 104.987C145.412 105.281 150.801 100.377 151.098 94.0275L152.356 67.1088L140.582 66.5585C138.168 66.4457 136.353 68.8048 137.158 71.0853C137.195 71.1898 137.238 71.2921 137.287 71.3915C137.629 72.077 137.811 72.832 137.816 73.5984C137.822 74.3648 137.651 75.1223 137.318 75.8126C136.985 76.503 136.499 77.1078 135.895 77.5807C135.292 78.0536 134.589 78.3819 133.839 78.5404C133.089 78.699 132.313 78.6836 131.57 78.4953C130.827 78.3071 130.137 77.9511 129.553 77.4546C128.969 76.9581 128.507 76.3344 128.202 75.6314C127.896 74.9284 127.756 74.1648 127.792 73.3992L127.799 73.3968Z" fill="#3697FD"/>
<path d="M94.8802 54.7955C94.9243 55.661 94.7419 56.523 94.3511 57.2964C94.3017 57.3954 94.2587 57.4975 94.2223 57.6021C93.4216 59.8696 95.2335 62.2158 97.632 62.0947L109.444 61.5009L108.85 49.6891C108.733 47.2876 111.075 45.4752 113.343 46.2759C113.447 46.3122 113.549 46.3552 113.648 46.4046C114.45 46.8087 115.346 46.9899 116.242 46.9295C117.138 46.869 118.001 46.5691 118.742 46.061C119.482 45.5529 120.072 44.8553 120.451 44.0411C120.83 43.2268 120.983 42.3259 120.894 41.4323C120.643 38.8374 118.401 36.8503 115.795 36.9085C114.904 36.9267 114.035 37.1828 113.276 37.6504C113.182 37.7089 113.083 37.7616 112.982 37.808C110.77 38.8268 108.232 37.233 108.11 34.8003L107.522 23.0902L80.6045 24.4424C74.2554 24.7616 69.3677 30.1672 69.6869 36.5158L71.039 63.4298L82.8114 62.8378C85.2253 62.7167 86.8032 60.1923 85.7809 58.0024C85.7345 57.9013 85.6819 57.8031 85.6233 57.7085C85.2159 57.0594 84.9626 56.3255 84.883 55.5632C84.8035 54.801 84.8997 54.0306 85.1642 53.3113C85.4288 52.5921 85.8547 51.943 86.4093 51.414C86.9639 50.885 87.6323 50.4902 88.3632 50.2598C89.0942 50.0294 89.8682 49.9696 90.6259 50.0851C91.3835 50.2005 92.1047 50.4881 92.7339 50.9257C93.363 51.3632 93.8836 51.9392 94.2554 52.6094C94.6273 53.2795 94.8406 54.026 94.879 54.7914L94.8802 54.7955Z" fill="#3697FD"/>
<path d="M119.056 48.2764C118.19 48.2778 117.338 48.0533 116.584 47.6251C116.488 47.5708 116.388 47.5227 116.286 47.481C114.062 46.5675 111.627 48.2594 111.627 50.6644V62.4909H123.454C125.859 62.4909 127.551 64.9254 126.637 67.1499C126.596 67.2524 126.547 67.3522 126.493 67.4486C126.051 68.2291 125.826 69.1138 125.843 70.0107C125.859 70.9075 126.115 71.7835 126.585 72.5475C127.055 73.3115 127.722 73.9354 128.515 74.3542C129.308 74.7731 130.199 74.9715 131.095 74.9288C133.699 74.8113 135.798 72.669 135.869 70.0629C135.895 69.1725 135.683 68.2911 135.254 67.5103C135.201 67.4122 135.153 67.3109 135.112 67.207C134.206 64.946 135.925 62.4909 138.361 62.4909H150.086V35.5428C150.086 29.186 144.93 24.0309 138.575 24.0309H111.627V35.818C111.627 38.2348 114.069 39.9373 116.307 39.0267C116.41 38.9852 116.511 38.9375 116.608 38.8838C117.277 38.5098 118.022 38.2941 118.787 38.2531C119.552 38.2121 120.316 38.347 121.021 38.6474C121.726 38.9478 122.353 39.4058 122.853 39.986C123.353 40.5663 123.714 41.2535 123.907 41.9949C124.1 42.7363 124.121 43.5121 123.968 44.2627C123.815 45.0134 123.492 45.719 123.023 46.3253C122.555 46.9316 121.954 47.4225 121.266 47.7603C120.578 48.0982 119.823 48.2739 119.056 48.2741V48.2764Z" fill="#222222"/>
<path d="M63.4394 100.461C63.4394 100.461 63.2631 101.703 62.9532 102.103C62.8504 102.238 62.6593 102.408 62.5382 102.651C62.3454 103.029 62.4518 103.592 62.594 103.903C62.6669 104.062 62.5888 104.062 62.7551 104.113C62.9942 104.183 63.2507 104.164 63.4762 104.057C63.7016 103.951 63.8803 103.766 63.9785 103.537C64.1238 103.202 64.2051 102.844 64.2184 102.479C64.2707 101.351 64.6205 100.778 64.6205 100.778L63.4394 100.461Z" fill="#F7A491"/>
<path d="M68.8145 101.029C68.8145 101.029 68.925 102.429 68.835 102.884C68.7874 103.128 68.5205 103.629 68.6428 103.859C68.7651 104.088 68.905 104.145 68.905 104.145L72.0796 104.197C72.2524 104.197 72.1384 104.088 71.9985 103.985C71.7704 103.817 71.5869 103.706 70.858 103.353C70.8103 103.33 70.6375 103.219 70.5752 103.181C70.4058 103.069 70.2529 102.934 70.1207 102.779C69.8932 102.525 69.8733 101.292 69.8733 101.292L68.8145 101.029Z" fill="#F7A491"/>
<path d="M71.2947 82.4191C71.2947 82.4191 71.6939 84.6919 71.4317 86.1816C71.1695 87.6713 69.9103 101.486 69.9103 101.486L68.5111 101.565C68.5111 101.565 68.2172 95.7947 68.2701 94.9922C68.323 94.1898 68.7404 92.847 68.7404 92.847L68.6017 88.188L70.3653 82.0675L71.2947 82.4191Z" fill="#355389"/>
<path d="M67.1819 81.9406C67.1819 81.9406 66.0802 83.6031 65.8174 84.9788C65.5546 86.3544 66.0103 90.5819 65.5053 92.3861C65.2325 93.3614 64.1966 94.8688 64.0397 96.1298C63.8827 97.3908 63.2648 100.691 63.2648 100.691L64.6634 100.969L67.9138 92.72L70.4635 85.2639L71.1172 81.4238L67.1819 81.9406Z" fill="#466EB6"/>
<path d="M68.0737 72.4832C68.0737 72.4832 66.6152 72.3903 66.0379 73.0206C65.4606 73.6508 67.3183 78.639 67.4229 79.4415C67.5276 80.2439 66.888 82.3774 66.888 82.3774C66.888 82.3774 70.3153 83.0687 71.2971 82.4191C71.2971 82.4191 71.4018 76.6484 71.2971 76.0752C71.1925 75.502 70.3177 73.1711 70.1072 72.9418C69.8968 72.7125 68.0737 72.4832 68.0737 72.4832Z" fill="#F7CC7F"/>
<path d="M68.5593 70.5326C68.5593 70.5326 68.5517 70.5755 68.5382 70.6502C68.4735 71.0029 68.2231 72.1681 68.0537 72.4885C67.8492 72.8765 68.7539 74.1117 69.6246 73.9582C69.8832 73.913 69.4053 72.823 69.4282 72.7072C69.4723 72.4862 69.5317 72.1846 69.5928 71.8754C69.6275 71.699 69.6622 71.5226 69.6951 71.3574L69.8638 70.4985L68.5593 70.5326Z" fill="#F7A491"/>
<path d="M68.5382 70.6455C68.5517 70.5726 68.5593 70.5279 68.5593 70.5279L69.8638 70.495L69.6951 71.3557C69.6622 71.5209 69.6275 71.6972 69.5934 71.8707C69.3599 71.8289 69.1435 71.72 68.9708 71.5573C68.7552 71.3673 68.593 71.124 68.5005 70.8519C68.5146 70.7713 68.5282 70.7002 68.5382 70.6455Z" fill="#F47458"/>
<path d="M69.4376 67.5573C69.4376 67.5573 68.8227 67.4862 68.4382 67.9859C68.0537 68.4856 67.6375 70.0306 68.5952 70.8707C69.5529 71.7108 70.4988 70.7596 70.6387 69.7537C70.7786 68.7478 70.8327 67.5209 69.4376 67.5573Z" fill="#F7A491"/>
<path d="M70.9209 69.7366C70.8068 69.9594 70.6146 70.0829 70.4923 70.0124C70.37 69.9418 70.3635 69.7037 70.4776 69.4833C70.5916 69.2628 70.7839 69.1376 70.9062 69.2081C71.0284 69.2787 71.0331 69.5138 70.9209 69.7366Z" fill="#F7A491"/>
<path d="M69.5046 67.3921C69.5046 67.3921 68.6816 68.8619 68.0937 68.9295C67.5058 68.9971 67.4288 69.7778 67.4288 69.7778C67.4288 69.7778 67.6387 67.9789 68.2207 67.632C68.8027 67.2852 69.5046 67.3921 69.5046 67.3921Z" fill="#13375B"/>
<path d="M64.0737 103.289C63.3095 103.428 62.8039 102.982 62.5405 102.647C62.3465 103.026 62.2519 103.591 62.3948 103.903C62.52 104.177 62.8868 104.169 63.1755 104.18C63.4812 104.191 63.7175 104.022 63.8686 103.755C63.9526 103.607 64.0213 103.451 64.0737 103.289Z" fill="#F47458"/>
<path d="M70.5734 103.181C69.7339 103.397 69.1137 103.25 68.7668 103.11C68.6775 103.364 68.5587 103.683 68.6216 103.866C68.6987 104.092 68.8086 104.143 68.905 104.145C69.6693 104.166 71.7128 104.193 72.2977 104.2C72.3159 104.2 72.3338 104.195 72.3492 104.185C72.3646 104.176 72.3769 104.162 72.3847 104.145C72.3924 104.129 72.3953 104.111 72.3931 104.092C72.3908 104.074 72.3834 104.057 72.3718 104.043C72.2266 103.87 70.6357 103.219 70.5734 103.181Z" fill="#F47458"/>
<path d="M68.2513 69.2981C68.2989 69.5591 68.2031 69.7984 68.0367 69.8325C67.8703 69.8666 67.6963 69.6831 67.6487 69.4209C67.6011 69.1587 67.6969 68.9207 67.8633 68.8866C68.0296 68.8525 68.2037 69.0376 68.2513 69.2981Z" fill="#F7A491"/>
<path d="M69.2107 70.2022L69.9526 70.2357C69.9526 70.2357 69.9226 70.5167 69.5964 70.5114C69.1978 70.505 69.2107 70.2022 69.2107 70.2022Z" fill="white"/>
<path d="M132.467 11.0539C132.56 11.0574 132.813 11.142 133.183 11.8416C133.654 12.7352 134.347 15.4336 134.347 15.4336L132.284 16.2014L132.019 15.6382L131.583 11.302C131.583 11.302 132.44 11.0527 132.467 11.0539Z" fill="#DD513A"/>
<path d="M129.739 10.6647C130.327 10.6647 131.788 10.8375 132.465 11.0539C132.465 11.0539 132.963 15.3296 132.017 18.5788C131.806 19.306 132.193 21.5935 132.193 21.5935L126.083 21.5129C126.083 21.5129 126.807 15.9827 126.534 15.0891C126.261 14.1955 126.255 11.0827 126.255 11.0827C126.255 11.0827 126.297 11.0762 127.628 10.8475C128.326 10.7327 129.031 10.6716 129.739 10.6647Z" fill="#F47458"/>
<path d="M129.027 29.5299C129.027 29.5299 129.162 31.0902 129.411 31.5223C129.659 31.9544 129.398 32.6887 129.385 32.7898C129.372 32.8909 128.862 33.0343 128.05 32.9479C127.239 32.8615 127.252 32.6746 127.318 32.3718C127.384 32.069 127.815 31.6804 127.841 31.3924C127.868 31.1043 127.592 30.0679 127.592 30.0679L129.027 29.5299Z" fill="#F7A491"/>
<path d="M131.502 20.306C131.502 20.306 135.721 20.0709 136.663 20.6423C137.605 21.2137 135.995 24.012 135.995 24.012C135.995 24.012 133.06 23.8768 127.311 24.209C125.949 24.2872 125.832 20.6593 126.086 20.3589C126.341 20.0585 131.502 20.306 131.502 20.306Z" fill="#E0973F"/>
<path d="M127.949 33.069C127.114 32.9803 127.217 32.5699 127.284 32.2583C127.327 32.0631 127.567 31.8333 127.709 31.6164C127.784 31.6751 127.905 31.7804 128.268 31.888C128.645 31.9991 129.161 31.7786 129.49 31.641C129.576 31.9934 129.613 32.3557 129.601 32.7181C129.587 32.8221 128.784 33.1584 127.949 33.069Z" fill="#DD513A"/>
<path d="M128.411 23.3254C128.58 24.6005 129.414 30.9491 129.414 30.9491L127.478 31.189C127.478 31.189 125.097 22.8998 125.219 21.6352C125.341 20.3707 126.232 20.2613 126.232 20.2613C126.232 20.2613 127.964 19.948 128.411 23.3254Z" fill="#F7CC7F"/>
<path d="M126.187 11.5577C126.758 11.3437 127.038 16.4912 127.115 18.6123C128.127 18.7099 129.891 18.6123 130.329 18.58C130.536 18.5647 131.012 18.3901 131.217 18.3636C131.384 18.3348 131.554 18.3267 131.722 18.3395C131.76 18.346 132.815 18.7775 132.905 18.8722C133.017 18.9897 133.316 19.2837 133.268 19.413C133.22 19.5423 132.687 19.0568 132.687 19.0568L132.427 18.911C132.75 19.2267 133.368 19.6417 133.277 19.7928C133.187 19.9439 132.635 19.5188 132.239 19.2319C132.579 19.5382 133.003 20.0873 132.903 20.1726C132.816 20.2496 132.336 19.6141 131.823 19.4312C131.634 19.3636 131.444 19.5488 131.294 19.5741C131.184 19.5906 131.015 19.6258 130.907 19.5953L130.352 19.4383C130.163 19.4553 130.158 19.567 129.967 19.6076C129.745 19.6546 129.379 19.7046 129.099 19.7734C127.473 20.1708 126.931 20.3554 126.433 20.3554C124.925 20.3519 124.837 12.0644 126.187 11.5577Z" fill="#F7A491"/>
<path d="M125.103 16.3883C124.996 14.2179 125.012 11.543 126.229 11.0868C126.708 10.9063 127.555 11.9892 127.404 16.4324C126.753 16.4883 125.799 16.5318 125.103 16.3883Z" fill="#DD513A"/>
<path d="M134.689 30.8644C134.689 30.8644 134.52 31.4059 134.822 31.7645C135.125 32.1231 136.381 32.4741 136.547 32.6681C136.712 32.8621 136.7 33.0255 136.7 33.0255L133.173 32.9285L133.211 31.8627L133.374 31.0984L134.689 30.8644Z" fill="#F7A491"/>
<path d="M135.042 31.9432C135.042 31.9432 134.135 32.3095 133.697 32.0925C133.259 31.8756 133.273 31.8151 133.146 31.8962C133.019 31.9773 132.974 32.9761 132.974 32.9761L136.94 33.0937C137.217 33.0872 137.356 32.8838 137.132 32.7098C136.995 32.613 136.85 32.5271 136.699 32.4529C136.389 32.2736 135.042 31.9432 135.042 31.9432Z" fill="#DD513A"/>
<path d="M134.555 21.306C134.828 20.7322 135.448 19.985 136.539 20.4348C137.579 20.8639 137.859 21.9186 137.531 22.9985C137.203 24.0785 135.04 30.4276 134.965 31.3007L133.239 31.3118C133.239 31.3118 133.553 26.2848 133.63 25.0697C133.702 23.9003 134.083 22.2989 134.555 21.306Z" fill="#F7CC7F"/>
<path d="M137.357 15.4583H131.585C131.511 15.4585 131.438 15.481 131.376 15.5229C131.314 15.5648 131.265 15.6241 131.237 15.6935L129.461 20.0409H126.28C126.259 20.041 126.238 20.0452 126.219 20.0534C126.199 20.0615 126.181 20.0735 126.167 20.0885C126.152 20.1035 126.14 20.1213 126.132 20.1409C126.124 20.1604 126.12 20.1814 126.12 20.2025C126.12 20.2452 126.137 20.286 126.167 20.3162C126.197 20.3464 126.238 20.3635 126.28 20.3636H135.334C135.456 20.3636 135.575 20.3282 135.677 20.2617C135.78 20.1953 135.86 20.1006 135.91 19.9891L137.699 15.9915C137.725 15.9342 137.736 15.8712 137.731 15.8084C137.727 15.7456 137.707 15.6849 137.673 15.6319C137.639 15.5789 137.592 15.5352 137.537 15.5049C137.482 15.4746 137.42 15.4586 137.357 15.4583Z" fill="black"/>
<path d="M134.25 17.9897C134.211 18.1849 134.042 18.3154 133.871 18.2837C133.701 18.2519 133.594 18.0632 133.633 17.868C133.672 17.6729 133.842 17.5424 134.013 17.5741C134.183 17.6059 134.29 17.7946 134.25 17.9897Z" fill="white"/>
<path d="M131.11 5.44249C130.936 5.385 130.766 5.31668 130.6 5.23791C130.413 5.14796 130.171 5.04214 130.018 5.01863C129.696 4.96866 129.143 5.00217 128.837 5.33315C128.457 5.74467 127.779 5.40781 127.917 7.57005C128.071 10.0174 129.432 9.74876 129.465 9.70702C129.498 9.66528 130.678 8.14148 130.678 8.14148C130.678 8.14148 131.09 9.04447 131.09 9.01155C131.09 8.97863 133.199 6.1456 131.11 5.44249Z" fill="#0E2E35"/>
<path d="M130.077 9.88809L130.194 10.7623C130.194 10.7623 130.458 12.0221 130.119 12.2649C129.781 12.5077 128.679 10.7264 128.679 10.7264L128.797 8.51067L130.077 9.88809Z" fill="#F7A491"/>
<path d="M128.758 9.22907C129.038 9.9845 129.704 10.4507 130.174 10.6271L130.075 9.88574L128.796 8.51067L128.758 9.22907Z" fill="#F47458"/>
<path d="M130.008 6.10034C130.176 6.07449 130.347 6.08573 130.511 6.13326C130.674 6.1808 130.825 6.26349 130.953 6.37552C131.081 6.48755 131.183 6.62622 131.251 6.78179C131.32 6.93737 131.354 7.10608 131.35 7.27611C131.342 7.65172 131.309 8.02639 131.252 8.3978C131.096 9.4072 130.407 10.2961 129.952 10.2167C129.497 10.1373 128.351 9.26669 128.552 7.83048C128.677 6.94572 129.255 6.22085 130.008 6.10034Z" fill="#F7A491"/>
<path d="M128.869 8.00391C128.831 8.22613 128.652 8.38016 128.471 8.349C128.29 8.31784 128.177 8.11385 128.214 7.88986C128.25 7.66588 128.43 7.51362 128.611 7.54477C128.792 7.57593 128.907 7.78228 128.869 8.00391Z" fill="#F7A491"/>
<path d="M128.611 7.54477C128.611 7.54477 129.162 7.68175 129.366 7.32784C129.57 6.97394 130.301 6.21086 131.229 6.52597C132.157 6.84107 130.412 5.75584 130.338 5.75584L129.372 5.74937C129.372 5.74937 128.685 6.31492 128.66 6.37723C128.635 6.43955 128.437 7.1162 128.437 7.1162L128.611 7.54477Z" fill="#0E2E35"/>
<path d="M129.618 9.02272L130.618 9.21378C130.618 9.21378 130.522 9.59121 130.079 9.52008C129.541 9.43307 129.618 9.02272 129.618 9.02272Z" fill="white"/>
<path d="M112.671 78.7736C112.695 78.8664 112.732 78.9555 112.78 79.0382C113.094 79.6102 113.823 80.4262 113.823 80.4262L114.387 79.1557C114.387 79.1557 114.295 78.7566 114.136 78.1863C113.591 78.3286 113.072 78.4103 112.671 78.7736Z" fill="#F8A492"/>
<path d="M115.904 77.6719C115.904 77.6719 112.759 79.024 112.657 79.0005C112.592 78.9835 111.367 76.9341 111.354 75.0064C111.348 74.1164 112.273 73.0453 113.304 73.2575C113.824 73.3639 113.815 73.5085 114.584 74.6249C115.352 75.7413 115.904 77.6719 115.904 77.6719Z" fill="#13375B"/>
<path d="M118.588 101.953L118.514 103.188C118.486 103.345 118.378 103.732 118.378 103.875C118.378 104.411 120.921 103.42 120.351 103.183C120.3 103.161 120.029 102.999 120.012 102.817C119.986 102.536 119.92 101.967 119.92 101.967L118.588 101.953Z" fill="#F7A491"/>
<path d="M120.345 103.181C120.345 103.181 119.748 103.344 119.442 103.385C119.136 103.427 118.733 103.082 118.517 103.175C118.282 103.277 118.288 104.2 118.288 104.2C118.288 104.2 121.49 104.463 122.39 104.191C122.747 104.083 121.565 103.562 120.345 103.181Z" fill="#DD513A"/>
<path d="M113.386 101.953C113.386 101.953 113.312 103.188 113.311 103.188C113.284 103.345 113.176 103.732 113.176 103.875C113.176 104.411 115.719 103.42 115.149 103.183C115.098 103.161 114.747 102.878 114.73 102.695C114.704 102.415 114.718 101.967 114.718 101.967L113.386 101.953Z" fill="#F7A491"/>
<path d="M115.143 103.181C115.143 103.181 114.546 103.344 114.24 103.385C113.934 103.427 113.531 103.082 113.314 103.175C113.079 103.277 113.067 104.2 113.067 104.2C113.067 104.2 116.283 104.507 117.188 104.191C117.539 104.069 116.363 103.562 115.143 103.181Z" fill="#DD513A"/>
<path d="M114.163 79.4585L116.403 76.3204C116.413 76.2933 116.433 76.2369 116.462 76.1511C116.575 75.8395 116.809 75.1916 117.014 74.5473V74.5403C117.079 74.3151 117.215 73.9224 117.346 73.5409C117.493 73.1182 117.674 72.5938 117.681 72.5044C117.675 72.4891 117.665 72.4615 117.651 72.425C117.568 72.2122 117.457 71.7043 117.416 71.4844C117.391 71.3439 117.366 71.0018 117.533 71.0018C117.795 71.0018 117.671 71.3433 117.792 71.5562C117.868 71.3236 117.929 71.0861 117.973 70.8454L118.018 70.1781C118.026 70.1282 117.972 69.7602 118.157 69.7602H118.166C118.331 69.7725 118.327 70.1634 118.396 70.8254C118.418 70.749 118.44 70.6573 118.455 70.5732C118.466 70.4555 118.486 70.3388 118.514 70.224C118.481 70.0394 118.5 69.7484 118.697 69.776C118.795 69.7896 118.787 70.1958 118.787 70.1958C118.787 70.251 118.78 70.6802 118.783 70.7654C118.803 70.6214 118.882 70.0071 119.036 70.0071C119.163 70.0071 119.174 70.1723 119.171 70.301C119.171 70.378 119.089 71.0435 119.085 71.1241C119.144 71.0229 119.216 70.4368 119.276 70.4368C119.525 70.4368 119.435 71.2704 119.343 71.4874C119.332 71.526 119.322 71.5652 119.315 71.6049C119.278 71.8218 119.206 72.0313 119.102 72.2252C118.945 72.4927 118.73 72.9183 118.697 72.9835C118.672 73.1164 118.597 73.5944 118.503 74.1958C118.463 74.4527 118.419 74.7348 118.373 75.027C118.364 75.0905 118.317 75.2916 118.138 76.0458C117.895 77.0782 117.87 77.1228 117.859 77.1416C117.754 77.328 115.339 80.6072 115.236 80.7472L115.177 80.8295L114.163 79.4585Z" fill="#F7A491"/>
<path d="M118.329 72.1405C118.329 72.1405 118.148 71.6755 117.824 71.6743C117.881 71.6566 117.941 71.6527 117.999 71.6629C118.058 71.6732 118.113 71.6972 118.16 71.7331C118.315 71.8548 118.329 72.1405 118.329 72.1405Z" fill="#F47458"/>
<path d="M113.623 71.2422L113.334 73.0647C113.334 73.0647 114.433 73.9465 115.073 73.7607C115.61 73.6049 115.242 72.9024 115.242 72.9024C115.242 72.9024 114.956 71.9289 115.043 71.4186C115.131 70.9083 113.623 71.2422 113.623 71.2422Z" fill="#F7A491"/>
<path d="M113.831 71.7931C114.226 71.9701 114.645 72.0889 115.075 72.1458C115.034 71.8901 115.011 71.6202 115.045 71.4209C115.086 71.1858 114.786 71.1299 114.452 71.1382C114.014 71.1752 113.624 71.244 113.624 71.244L113.566 71.5967C113.641 71.6779 113.731 71.7445 113.831 71.7931Z" fill="#FE875E"/>
<path d="M112.236 69.1387C112.19 69.1387 112.67 71.1758 113.411 71.5261C114.153 71.8765 115.26 71.6943 115.469 71.1452C115.699 70.5385 114.861 68.4603 113.817 68.1964C112.773 67.9324 112.236 69.1387 112.236 69.1387Z" fill="#F7A491"/>
<path d="M113.095 67.2669C112.673 67.5116 112.339 67.8815 112.138 68.3251C111.86 68.4574 111.523 68.7425 111.362 69.5126C111.163 70.4586 111.869 71.1881 112.618 71.4074C113.367 71.6267 113.483 72.1223 113.483 72.1223L113.568 71.5891C113.568 71.5891 113.401 71.1246 113.151 70.8918C112.901 70.659 113.269 70.321 113.302 70.0447C113.327 69.8319 113.17 69.4186 113.205 69.0694C113.205 69.0694 113.621 68.4386 114.031 68.2828C114.731 68.0159 113.855 66.8289 113.095 67.2669Z" fill="#13375B"/>
<path d="M113.41 70.398C113.507 70.6331 113.469 70.8683 113.322 70.92C113.174 70.9718 112.979 70.8248 112.882 70.5896C112.785 70.3545 112.823 70.1193 112.971 70.0676C113.118 70.0159 113.313 70.1628 113.41 70.398Z" fill="#F7A491"/>
<path d="M116.175 79.5085L120.496 78.803C120.496 78.803 120.004 77.5685 119.828 77.5685C119.652 77.5685 116.561 78.9206 116.561 78.9206L116.316 79.4138L116.175 79.5085Z" fill="#F8A492"/>
<path d="M113.962 82.4708C113.962 82.4708 113.531 84.5543 113.707 86.1345C113.882 87.7148 113.896 93.3261 113.896 93.3261L113.226 102.306L114.813 102.34C114.813 102.34 116.699 93.365 116.664 93.5954C116.628 93.8259 117.3 87.2762 117.3 87.2762L115.052 82.2733L113.962 82.4708Z" fill="#184655"/>
<path d="M114.384 82.3721C114.384 82.3721 114.103 84.248 114.454 85.0711C114.805 85.8941 117.467 93.9675 117.502 94.6254C117.537 95.2832 118.422 102.562 118.422 102.562L120.271 102.51L120.671 94.4208L119.834 84.2539L119.021 81.6831L114.384 82.3721Z" fill="#13375B"/>
<path d="M113.334 73.0653C113.334 73.0653 113.79 73.3645 114.216 73.3298C114.641 73.2951 115.243 72.903 115.243 72.903L115.159 72.6196C115.159 72.6196 114.059 72.4591 114.031 72.4768C114.003 72.4944 113.334 73.0653 113.334 73.0653Z" fill="#F7A491"/>
<path d="M118.194 77.5055C118.194 77.5055 119.828 79.0482 120.566 78.7848C121.304 78.5214 121.609 77.6214 119.809 76.3045C118.198 75.1258 118.194 77.5055 118.194 77.5055Z" fill="#F8A492"/>
<path d="M119.302 79.4097C119.059 78.0893 117.299 73.9794 117.159 73.2222C117.09 72.8542 116.141 72.846 115.237 72.8942C114.283 72.9447 113.334 73.0653 113.334 73.0653C113.334 73.0653 112.489 73.2046 112.117 73.5526C111.745 73.9006 111.647 74.8648 112.18 76.6943C112.603 78.1387 113.126 78.9318 113.385 79.9864C113.437 80.3392 113.482 80.6872 113.542 81.094C113.637 82.6672 113.542 84.7448 113.542 84.7448C113.542 84.7448 118.143 85.6995 119.865 84.2509C119.864 84.248 119.55 80.7618 119.302 79.4097Z" fill="#355389"/>
<path d="M120.474 76.5702C120.474 76.5702 118.669 78.0605 118.564 78.0605C118.496 78.0605 115.987 76.2151 115.408 74.699C115.088 73.8607 115.761 72.923 116.525 72.9259C117.057 72.9259 117.293 73.0652 118.347 73.9535C119.401 74.8418 120.474 76.5702 120.474 76.5702Z" fill="#466EB6"/>
<path d="M88.712 10.0392C89.006 9.32724 89.3088 8.61414 90.0765 8.25318C90.6979 7.95923 91.347 8.07152 91.899 8.48833C93.4633 9.6641 92.1 10.9604 93.8807 13.1914C94.4339 13.8845 95.1035 14.4442 95.4351 15.2561C95.8989 16.393 95.3463 16.9386 94.4604 17.4836C90.2223 20.0879 88.0007 14.7423 88.0818 13.5153C88.1406 12.6053 88.5216 10.4995 88.712 10.0392Z" fill="#13375B"/>
<path d="M84.3135 23.9045C84.4899 23.8762 84.9261 23.5653 85.0777 23.537C85.1953 23.5153 85.4534 23.4782 85.5627 23.46C85.6968 22.9591 86.3776 20.2308 86.4534 19.4306C86.5363 18.5641 87.1489 14.8152 87.1489 14.8152L88.7362 15.1038C88.7362 15.1038 88.0783 17.988 87.8961 19.3866C87.7397 20.5876 86.4222 23.2884 86.2547 23.5735C86.2547 23.5805 86.2547 23.587 86.2547 23.5941C86.2294 24.0179 86.0254 23.8768 86.0254 23.8768L85.6933 23.9615C85.6933 23.9615 84.5175 24.0744 84.4422 24.1026C84.367 24.1308 84.1348 23.9327 84.3135 23.9045Z" fill="#F7A491"/>
<path d="M88.5345 12.6259C87.4128 13.0062 86.775 16.0556 86.775 16.0556C86.775 16.0556 88.5345 16.5465 88.9854 16.2908C88.9854 16.2908 89.4975 14.0221 89.6809 14.1015L88.5345 12.6259Z" fill="#6A97CE"/>
<path d="M79.8573 29.1731C79.6275 29.7846 79.4478 30.4137 79.32 31.0543C79.3123 31.1055 79.3841 31.3483 79.3788 31.4071C78.6898 32.3477 77.6992 32.5523 76.8509 32.6122C77.283 32.1901 77.9185 31.7892 77.949 31.6557C78.1573 30.8432 78.3037 30.016 78.387 29.1813C78.9144 29.4241 79.2724 29.2301 79.8573 29.1731Z" fill="#F7A491"/>
<path d="M89.6197 19.0462L91.1388 23.316C91.1388 23.316 88.7026 23.7745 87.792 23.9415C86.8814 24.1085 81.7956 24.3307 81.6639 24.4212C81.5681 24.4882 80.5169 27.8897 80.0472 29.7622C79.5146 29.8797 78.6028 29.7386 78.1177 29.5717C78.3799 26.8892 79.3264 22.6399 79.6298 22.1773C80.1201 21.4242 89.6197 19.0462 89.6197 19.0462Z" fill="#256653"/>
<path d="M83.698 31.0449C83.5861 31.689 83.5271 32.3412 83.5216 32.9949C83.5216 33.0461 83.6392 33.2742 83.6433 33.3271C83.1424 34.3794 82.2083 34.7668 81.3858 34.9849C81.7315 34.4888 82.2806 33.9767 82.2859 33.8397C82.338 33.0023 82.3268 32.1622 82.2524 31.3265C82.8179 31.4676 83.1336 31.2107 83.698 31.0449Z" fill="#F7A491"/>
<path d="M91.3893 19.269L91.9772 20.2731C92.1871 20.6328 92.3166 21.0337 92.3567 21.4482C92.3968 21.8628 92.3465 22.2811 92.2093 22.6743C92.0721 23.0675 91.8513 23.4264 91.562 23.726C91.2728 24.0257 90.922 24.259 90.5339 24.41L90.5074 24.4206C89.6444 24.7551 84.6874 25.9274 84.578 26.0403C84.4963 26.1237 84.1013 29.6605 83.9902 31.5899C83.4887 31.8045 82.5669 31.8374 82.0589 31.7663C81.8138 29.0826 81.9472 24.731 82.1583 24.2196C82.504 23.3842 91.3893 19.269 91.3893 19.269Z" fill="#327F6B"/>
<path d="M83.4469 33.0255C83.5786 32.8797 84.0631 33.6822 84.1842 33.8533C84.3206 34.0455 84.2818 34.1907 84.2653 34.2207C84.2224 34.3 81.6674 35.8033 81.0443 35.9103C80.9785 35.9138 80.9133 35.8966 80.8579 35.8609C80.6145 35.6451 81.735 34.0531 82.2383 33.8444C82.5639 33.708 82.8532 33.6798 83.4469 33.0255Z" fill="#13375B"/>
<path d="M79.2389 31.0855C79.3958 30.9679 79.7209 31.8462 79.8079 32.0367C79.9055 32.2513 79.8403 32.3894 79.8185 32.4135C79.7597 32.4835 76.9702 33.4811 76.3382 33.4717C76.2719 33.4634 76.2101 33.4339 76.1619 33.3876C75.9632 33.1307 77.3623 31.7768 77.8961 31.6657C78.243 31.5905 78.5322 31.6175 79.2389 31.0855Z" fill="#13375B"/>
<path d="M89.598 12.6153C89.5595 12.6127 89.5215 12.6048 89.4851 12.5918C89.2764 12.5547 88.8214 12.5001 88.4669 12.6506C88.036 12.8328 87.3676 14.5318 87.4087 16.2755C87.4246 16.5424 87.441 16.781 87.4546 16.9474C87.5633 18.2649 87.9413 20.7369 87.9619 20.7505C88.4757 21.0814 91.578 19.7981 91.7914 19.5159C92.0048 19.2337 92.1306 15.8122 92.2341 15.6388L92.4381 12.6606C92.0795 12.553 90.1494 12.6112 89.598 12.6153Z" fill="#9BC1F9"/>
<path d="M90.8555 11.5183C90.8555 11.5183 90.6556 12.5518 90.6956 12.9592C90.7355 13.3666 90.5433 14.6799 89.6809 14.6835C88.8185 14.687 89.5169 13.0139 89.598 12.6147C89.6791 12.2155 89.6985 10.9798 89.6985 10.9798L90.8555 11.5183Z" fill="#F7A491"/>
<path d="M89.6809 11.6C89.6944 11.2614 89.6985 10.9798 89.6985 10.9798L90.8555 11.5183C90.8555 11.5183 90.8143 11.7293 90.7732 11.9986C90.267 12.1003 89.9002 11.9134 89.6809 11.6Z" fill="#F47458"/>
<path d="M91.2782 8.66705C91.5679 8.84768 91.7837 9.12577 91.8866 9.45129C92.0501 9.98744 91.8643 11.3701 90.7109 11.7041C89.5574 12.038 89.0607 10.9428 89.3 10.0868C89.5392 9.23083 90.053 8.145 91.2782 8.66705Z" fill="#F7A491"/>
<path d="M89.1559 9.75347C89.1782 9.98333 89.3052 10.1591 89.4393 10.1462C89.5733 10.1332 89.6632 9.93571 89.6409 9.70585C89.6186 9.47598 89.4916 9.3002 89.3575 9.31314C89.2235 9.32607 89.133 9.5236 89.1559 9.75347Z" fill="#F7A491"/>
<path d="M91.1429 8.59709C91.1429 8.59709 91.3516 10.1397 91.8484 10.4195C92.3452 10.6994 92.1382 11.3825 92.1382 11.3825C92.1382 11.3825 92.5909 9.7952 92.197 9.28256C91.8031 8.76993 91.1429 8.59709 91.1429 8.59709Z" fill="#13375B"/>
<path d="M91.5551 10.64C91.4199 10.841 91.4204 11.078 91.5551 11.1691C91.6897 11.2602 91.9078 11.1691 92.046 10.971C92.1841 10.7729 92.1812 10.533 92.046 10.4419C91.9107 10.3508 91.6903 10.4389 91.5551 10.64Z" fill="#F7A491"/>
<path d="M89.8778 10.7258L90.6891 10.9298C90.6891 10.9298 90.5915 11.2379 90.2323 11.1585C89.7938 11.0621 89.8778 10.7258 89.8778 10.7258Z" fill="white"/>
<path d="M93.9066 23.7757L97.4051 23.5994C97.4051 23.5994 95.9695 24.6311 95.9401 24.6311C95.9107 24.6311 94.7967 24.1914 94.7479 24.1914C94.6991 24.1914 93.9066 23.7757 93.9066 23.7757Z" fill="#50BFA5"/>
<path d="M163.95 102.004C163.95 102.004 164.018 103.217 164.019 103.22C164.044 103.374 164.144 103.755 164.144 103.895C164.144 104.424 161.809 103.448 162.332 103.215C162.379 103.194 162.626 103.034 162.643 102.855C162.668 102.579 162.728 102.021 162.728 102.021L163.95 102.004Z" fill="#F7A491"/>
<path d="M162.31 103.219C162.583 103.3 162.859 103.367 163.138 103.42C163.419 103.46 163.789 103.122 163.988 103.213C164.207 103.314 164.198 104.22 164.198 104.22C164.198 104.22 161.258 104.478 160.435 104.211C160.105 104.107 161.19 103.595 162.31 103.219Z" fill="#F7CC7F"/>
<path d="M167.837 101.941C167.837 101.941 167.906 103.154 167.907 103.157C167.931 103.311 168.031 103.692 168.031 103.832C168.031 104.358 165.696 103.385 166.22 103.152C166.267 103.131 166.589 102.852 166.604 102.673C166.628 102.397 166.616 101.958 166.616 101.958L167.837 101.941Z" fill="#F7A491"/>
<path d="M166.225 103.147C166.498 103.228 166.775 103.295 167.054 103.348C167.335 103.388 167.705 103.05 167.903 103.141C168.122 103.242 168.131 104.149 168.131 104.149C168.131 104.149 165.212 104.266 164.348 104.14C164.008 104.089 165.105 103.522 166.225 103.147Z" fill="#F7CC7F"/>
<path d="M167.145 82.6666C167.145 82.6666 167.541 84.7136 167.381 86.2662C167.22 87.8188 167.204 93.332 167.204 93.332L167.948 102.15L166.361 102.187C166.361 102.187 164.63 93.3691 164.662 93.596C164.693 93.8229 164.081 87.3873 164.081 87.3873L166.145 82.472L167.145 82.6666Z" fill="#355389"/>
<path d="M166.592 81.345C166.592 81.345 168.384 83.2327 167.717 85.2944C167.449 86.1228 164.954 94.0351 164.92 94.6818C164.885 95.3285 164.075 102.477 164.075 102.477L162.378 102.425L162.01 94.4778L162.495 83.7695L163.526 81.9635L166.592 81.345Z" fill="#466EB6"/>
<path d="M155.71 75.2004C156.298 74.5455 157.575 73.6132 157.575 73.6132C157.575 73.6132 158.339 72.9635 158.646 72.8566C159.103 72.699 159.884 72.2792 161.016 73.9935C161.825 75.2204 166.933 81.5725 167.772 81.7859L162.296 84.4067C162.146 83.1557 159.44 80.7918 159.051 80.3503C158.18 79.365 155.155 75.8236 155.71 75.2004Z" fill="#F47458"/>
<path d="M155.966 72.5391L157.671 73.5385C157.671 73.5385 157.719 74.9947 157.161 75.3727C156.691 75.6902 156.338 74.9283 156.338 74.9283C156.338 74.9283 155.704 74.0464 155.221 73.776C154.739 73.5056 155.966 72.5391 155.966 72.5391Z" fill="#F7A491"/>
<path d="M156.252 73.1781C156.167 73.5686 156.018 73.942 155.809 74.2828C155.622 74.0794 155.41 73.8801 155.221 73.7731C154.999 73.6467 155.141 73.3739 155.357 73.1164C155.663 72.7978 155.966 72.5373 155.966 72.5373L156.293 72.729C156.315 72.8554 156.277 73.0788 156.252 73.1781Z" fill="#F47458"/>
<path d="M155.077 70.0365C155.106 70.0012 156.508 71.7466 156.335 72.5644C156.163 73.3821 155.315 74.1299 154.726 73.9247C154.074 73.6972 152.863 71.6426 153.297 70.6449C153.732 69.6473 155.077 70.0365 155.077 70.0365Z" fill="#F7A491"/>
<path d="M153.542 69.4862C154.154 69.1458 155.151 69.0482 155.894 69.4386C156.81 69.9177 157.018 71.1246 156.732 71.8607C156.445 72.5967 156.773 73.0124 156.773 73.0124L156.287 72.729C156.287 72.729 156.003 72.2857 155.966 71.933C155.929 71.5802 155.414 71.6426 155.163 71.4821C154.969 71.3586 154.722 70.9583 154.409 70.7502C154.409 70.7502 153.621 70.6537 153.233 70.8713C152.573 71.2422 152.667 69.973 153.542 69.4862Z" fill="#13375B"/>
<path d="M155.559 71.7766C155.554 72.0382 155.676 72.2522 155.835 72.2551C155.994 72.2581 156.123 72.0476 156.129 71.7848C156.135 71.522 156.011 71.3086 155.853 71.3063C155.694 71.3039 155.564 71.5144 155.559 71.7766Z" fill="#F7A491"/>
<path d="M154.123 73.1658L154.865 72.6108C154.865 72.6108 155.061 72.9112 154.742 73.1646C154.352 73.472 154.123 73.1658 154.123 73.1658Z" fill="white"/>
<path d="M152.258 84.2074C152.444 83.9358 152.525 83.5437 152.783 83.2445C152.897 83.1221 153.024 83.0126 153.163 82.9182C154.397 82.1945 157.621 80.3315 157.748 80.1845C157.897 80.0129 160.096 76.3598 160.096 76.3598L158.121 75.9124L156.191 79.3221C156.03 79.4497 152.966 81.7142 152.966 81.7142C152.966 81.7142 152.357 82.1898 152.026 82.4126C151.875 82.4985 151.716 82.5693 151.552 82.6243C151.372 82.6866 151.03 82.8594 150.96 82.9182C150.88 82.9893 150.719 83.1404 150.623 83.2327C150.527 83.325 150.411 83.4297 150.367 83.4849C150.314 83.5304 150.254 83.5677 150.19 83.5954C150.17 83.6055 150.153 83.6216 150.141 83.6416C150.13 83.6616 150.125 83.6846 150.127 83.7074C150.129 83.7303 150.138 83.752 150.153 83.7697C150.167 83.7874 150.187 83.8002 150.209 83.8065C150.303 83.833 150.429 83.7742 150.508 83.7377C150.73 83.6331 151.001 83.3521 151.015 83.385C151.029 83.4179 150.754 84.0223 150.727 84.0934C150.7 84.1645 150.384 84.867 150.368 85.0234C150.351 85.1798 150.446 85.2162 150.517 85.1592C150.575 85.1098 151.085 84.1716 151.085 84.1716C151.085 84.1716 151.15 84.054 151.176 84.1204C151.201 84.1869 150.741 85.0416 150.696 85.1816C150.651 85.3215 150.687 85.4361 150.813 85.3873C150.971 85.3285 151.405 84.3879 151.405 84.3879C151.405 84.3879 151.464 84.2703 151.501 84.3115C151.537 84.3526 151.136 85.071 151.131 85.1539C151.127 85.2368 151.202 85.3185 151.308 85.2492C151.435 85.1674 151.816 84.325 151.816 84.325C151.816 84.325 151.863 84.2692 151.875 84.3085C151.887 84.3479 151.59 84.9852 151.612 85.0781C151.614 85.0882 151.617 85.0979 151.623 85.1066C151.628 85.1153 151.635 85.1228 151.644 85.1286C151.652 85.1345 151.661 85.1385 151.671 85.1405C151.681 85.1426 151.692 85.1425 151.702 85.1404C151.867 85.1392 152.073 84.479 152.258 84.2074Z" fill="#F8A492"/>
<path d="M159.553 78.2927C159.553 78.2927 158.91 78.0881 158.498 77.8988C158.221 77.7724 157.016 77.1728 157.016 77.1728C157.016 77.1728 157.536 74.9812 157.887 74.1928C159.176 71.301 160.64 73.2957 160.839 73.7607C161.284 74.7972 159.553 78.2927 159.553 78.2927Z" fill="#355389"/>
<path d="M114.631 70.7166L115.243 70.2587C115.243 70.2587 115.406 70.5062 115.142 70.7155C114.821 70.9706 114.631 70.7166 114.631 70.7166Z" fill="white"/>
<path d="M97.4845 23.5964C97.4698 23.5594 97.4375 23.5588 97.4045 23.5576C97.0834 23.5528 96.7628 23.5289 96.4445 23.4859C96.3916 23.4789 96.3397 23.4657 96.2899 23.4465C96.205 23.4132 96.1112 23.4099 96.0242 23.4371C95.9759 23.4489 95.9263 23.4541 95.8766 23.4524C95.7155 23.4524 95.2546 23.2948 95.0183 23.2537C94.9918 23.249 94.9673 23.2367 94.9477 23.2183C94.9281 23.2 94.9142 23.1763 94.9078 23.1502C94.6726 22.2296 94.1759 20.1643 94.1112 19.4847C94.0283 18.6164 93.4287 14.6999 93.4287 14.6999L91.8237 15.1479C91.8237 15.1479 92.4839 18.0385 92.6667 19.4395C92.8078 20.5218 93.8896 22.8186 94.2288 23.4788C94.394 23.9709 94.7661 23.9844 94.8519 23.995C94.9014 24.0008 94.9469 24.0249 94.9795 24.0626C95.0373 24.1315 95.1056 24.191 95.1817 24.239C95.2368 24.2748 95.2839 24.3216 95.3199 24.3765C95.3881 24.4759 95.4492 24.5799 95.5098 24.6846C95.5498 24.7534 95.5915 24.7757 95.6509 24.7592C95.6813 24.7513 95.7076 24.7324 95.7248 24.7061C95.742 24.6798 95.7487 24.648 95.7438 24.617C95.74 24.505 95.7069 24.396 95.6479 24.3007C95.6215 24.2677 95.6081 24.2262 95.6104 24.184C95.6127 24.1418 95.6304 24.1019 95.6603 24.072C95.6938 24.0227 95.7333 23.9777 95.7779 23.938C95.7995 23.9169 95.8253 23.9008 95.8537 23.8906C95.8822 23.8805 95.9124 23.8766 95.9425 23.8792C96.0584 23.909 96.1763 23.9308 96.2952 23.9444L96.3922 23.9644L96.4451 23.9756C96.4533 23.9756 96.6215 23.9962 96.6803 23.9962C96.7273 23.9962 96.8031 23.9997 96.8678 24.0026C96.9308 23.9991 96.9934 23.9898 97.0548 23.975C97.1103 23.9745 97.1636 23.9536 97.2047 23.9162C97.2217 23.9003 97.2388 23.8827 97.2299 23.8574C97.2261 23.8464 97.2191 23.8368 97.2098 23.8298C97.2005 23.8228 97.1893 23.8187 97.1776 23.818C97.1394 23.811 96.9425 23.7869 96.9425 23.7787C97.0013 23.7787 97.187 23.774 97.2464 23.7728C97.2848 23.7727 97.3227 23.7646 97.3578 23.7491C97.3929 23.7337 97.4244 23.7111 97.4504 23.6828C97.4739 23.657 97.4992 23.6334 97.4845 23.5964Z" fill="#F7A491"/>
<path d="M92.4563 12.6535C93.2482 12.5095 93.9019 16.0538 93.9019 16.0538C93.9019 16.0538 92.1418 16.5447 91.6909 16.289C91.6909 16.289 91.1788 14.0203 90.996 14.0997L92.4563 12.6535Z" fill="#9BC1F9"/>
<path d="M73.3041 76.3527C73.3565 76.2022 72.6257 76.0811 72.5869 75.9294C72.5481 75.7778 73.5093 75.7654 73.5434 75.632C73.6069 75.3862 72.4899 75.5802 72.5123 75.465C72.5346 75.3498 73.6763 75.0935 73.5528 74.8959C73.4294 74.6984 72.3964 75.2857 72.3653 75.1522C72.3341 75.0188 73.3747 74.6925 73.3559 74.3986C73.3459 74.2416 71.6475 75.1811 71.4505 75.0958C71.2536 75.0106 71.6628 74.2728 71.5058 74.1634C71.3488 74.0541 70.8985 75.6625 70.7903 75.716C70.6822 75.7695 68.3877 77.0793 67.5711 77.2874C67.4717 77.0141 67.2577 76.6455 67.1701 76.3868C66.7122 76.7125 66.3718 76.8765 65.8991 77.1734C66.2419 78.0317 66.7292 78.9717 66.9679 79.0799C67.6945 79.4079 70.5046 77.077 71.0655 76.6784C71.6263 76.2798 71.9473 76.4086 72.3283 76.2822C72.7092 76.1558 73.2512 76.5044 73.3041 76.3527Z" fill="#F7A491"/>
<path d="M65.801 77.5873C65.801 77.5873 65.1719 74.8095 65.2813 74.0012C65.3906 73.1928 66.3477 72.4444 67.0114 72.7225C67.6751 73.0006 67.9761 76.8818 67.9761 76.8818L65.801 77.5873Z" fill="#F7CC7F"/>
<path d="M150.966 8.51067H138.072C137.771 8.51067 137.481 8.63046 137.268 8.84368C137.055 9.0569 136.935 9.3461 136.935 9.64764V11.7828C136.935 11.8296 136.938 11.8764 136.945 11.9228H136.935L136.465 13.3337L138.052 12.9222H150.965C151.115 12.9222 151.263 12.8928 151.401 12.8356C151.539 12.7783 151.665 12.6944 151.77 12.5885C151.876 12.4827 151.96 12.3571 152.017 12.2188C152.074 12.0805 152.103 11.9324 152.103 11.7828V9.64764C152.103 9.3461 151.983 9.0569 151.77 8.84368C151.556 8.63046 151.267 8.51067 150.966 8.51067Z" fill="#D6D8D8"/>
<path d="M140.051 10.2344V10.2485L139.868 10.4301L139.332 9.90102V9.86281L139.868 9.33371L140.051 9.51537V9.52948L139.684 9.88221L140.051 10.2344Z" fill="black"/>
<path d="M147.37 9.56886H141.491C141.313 9.56886 141.168 9.71363 141.168 9.8922C141.168 10.0708 141.313 10.2155 141.491 10.2155H147.37C147.549 10.2155 147.693 10.0708 147.693 9.8922C147.693 9.71363 147.549 9.56886 147.37 9.56886Z" fill="black"/>
<path d="M149.188 11.5289L148.82 11.1761V11.162L149.004 10.9804L149.54 11.5095V11.5442L149.004 12.0733L148.82 11.8916V11.8775L149.188 11.5289Z" fill="black"/>
<path d="M141.499 11.8616H147.378C147.556 11.8616 147.701 11.7169 147.701 11.5383C147.701 11.3597 147.556 11.2149 147.378 11.2149H141.499C141.32 11.2149 141.176 11.3597 141.176 11.5383C141.176 11.7169 141.32 11.8616 141.499 11.8616Z" fill="black"/>
<rect x="0.2" y="0.2" width="229.6" height="109.6" stroke="#A6A6A6" stroke-width="0.4"/>
</svg>
