<svg width="230" height="110" viewBox="0 0 230 110" fill="none" xmlns="http://www.w3.org/2000/svg">
<rect x="0.2" y="0.2" width="229.6" height="109.6" fill="white"/>
<path d="M128.32 70.012L127.922 75.2845H99.0719L99.0473 89.9263L63.808 89.9509L63.706 103.317L65.3894 105H167.775V71.194L166.194 69.6132L128.32 70.012Z" fill="#23659B"/>
<path d="M62.2266 88.3695L65.3894 91.5323L65.3894 105L62.2266 101.838V88.3695Z" fill="#1D3F70"/>
<path d="M97.4905 73.7031L100.653 76.8659V91.5323L97.4905 88.3695V73.7031Z" fill="#1D3F70"/>
<path d="M126.34 68.0318L129.503 71.194V76.8659L126.34 73.7031V68.0318Z" fill="#1D3F70"/>
<path d="M164.613 68.0318L167.775 71.194H129.503L126.34 68.0318H164.613Z" fill="#3A72AA"/>
<path d="M97.4905 73.7031L100.653 76.8659H129.503L126.34 73.7031H97.4905Z" fill="#3A72AA"/>
<path d="M62.2266 88.3695L65.3894 91.5323H100.653L97.4905 88.3695H62.2266Z" fill="#3A72AA"/>
<path d="M133.18 41.2481C133.317 41.4589 132.91 41.7077 132.804 41.8846C133.05 41.8806 133.295 41.8534 133.536 41.8035C133.962 41.5877 134.378 41.3507 134.781 41.0933C135.494 41.0878 135.278 42.714 133.842 43.1736C133.326 43.3389 132.823 43.5422 131.978 43.4138C131.702 43.3708 131.625 42.5918 131.794 42.3755C132.091 42.1445 132.975 41.0509 133.18 41.2481Z" fill="#F99370"/>
<path d="M101.174 49.5189C101.266 49.7529 101.719 49.5281 101.938 49.5981C101.79 49.7974 101.616 49.9762 101.421 50.1302C100.998 50.3532 100.564 50.555 100.121 50.7347C99.7041 51.3134 101.156 52.0777 102.361 51.1727C102.791 50.8477 103.253 50.5584 103.635 49.7922C103.758 49.5416 103.369 48.9936 103.094 48.9936C102.664 48.9893 101.131 49.235 101.174 49.5189Z" fill="#E57D61"/>
<path d="M120.112 41.4232C122.1 42.3503 124.167 43.4114 126.386 43.552C127.683 43.5305 128.988 43.2178 130.236 42.8455C130.754 42.6901 131.274 42.5137 131.784 42.33C132.486 42.0573 133.006 43.0906 132.378 43.4931C130.64 44.6782 128.652 45.5869 126.553 45.8805C125.018 46.0335 123.517 45.6858 122.076 45.2483C120.957 44.8987 119.868 44.46 118.82 43.9366C117.152 43.0667 118.43 40.5723 120.112 41.4232Z" fill="#F99370"/>
<path d="M132.213 43.6043C132.213 43.6043 132.056 43.74 131.773 43.9532C130.761 44.7126 128.139 46.4476 125.335 46.4187C124.152 46.4061 122.971 46.2918 121.807 46.0771C121.662 46.0507 121.523 46.0231 121.389 45.9954C121.122 45.9401 120.876 45.8836 120.652 45.8283C120.455 45.7798 120.278 45.7325 120.12 45.687C119.557 45.5279 119.244 45.4056 119.244 45.4056C119.827 42.7865 119.429 41.2279 119.076 40.4562C118.892 40.0538 118.722 39.8658 118.707 39.8535H118.712L118.72 39.8572C118.762 39.8732 118.909 39.9328 119.137 40.0292C119.803 40.3118 121.161 40.9133 122.639 41.712C124.197 42.5549 126.576 43.7118 131.104 42.5266C131.267 42.4857 131.435 42.4404 131.607 42.3909C131.607 42.3909 131.521 43.098 132.213 43.6043Z" fill="#3A72AA"/>
<path d="M132.496 69.4578L128.492 69.6022C128.449 69.6036 128.406 69.5962 128.366 69.5805C128.326 69.5648 128.289 69.541 128.258 69.5107C128.227 69.4803 128.203 69.4441 128.186 69.404C128.17 69.364 128.162 69.321 128.163 69.2778C128.164 69.1736 128.172 69.0695 128.186 68.9663C128.232 68.6308 128.245 68.2918 128.226 67.9538C128.217 67.792 128.202 67.6306 128.18 67.4697L127.79 64.6718C127.784 64.6277 127.787 64.5828 127.799 64.54C127.812 64.4972 127.833 64.4574 127.861 64.4233C127.89 64.3891 127.925 64.3614 127.965 64.3419C128.006 64.3224 128.049 64.3115 128.094 64.3099L129.861 64.2485C129.906 64.2469 129.951 64.2548 129.992 64.2718C130.034 64.2889 130.072 64.3146 130.103 64.3473C130.134 64.38 130.158 64.419 130.173 64.4616C130.188 64.5042 130.193 64.5494 130.189 64.5944L129.96 67.1649C129.936 67.4368 130.013 67.708 130.176 67.927C130.339 68.146 130.576 68.2976 130.844 68.3531C131.237 68.4361 131.636 68.4803 131.923 68.543C131.959 68.5516 131.997 68.5596 132.032 68.5688C132.339 68.6437 132.589 68.747 132.74 68.9528C132.774 68.9994 132.794 69.0543 132.799 69.1116C132.804 69.1689 132.794 69.2264 132.769 69.2782C132.744 69.33 132.705 69.374 132.657 69.4056C132.609 69.4372 132.553 69.4552 132.496 69.4578Z" fill="#F99370"/>
<path d="M128.043 69.2022C128.061 69.3982 128.166 69.6181 128.393 69.6052L132.546 69.4553C132.595 69.4541 132.644 69.4407 132.688 69.4163C132.732 69.3919 132.769 69.3572 132.796 69.3153C132.823 69.2733 132.84 69.2254 132.844 69.1756C132.848 69.1258 132.841 69.0757 132.821 69.0296C132.644 68.5829 132.047 67.9286 130.081 67.8887C129.468 67.9921 128.844 68.0138 128.226 67.9532C128.033 68.3392 127.968 68.777 128.043 69.2022Z" fill="#EB5648"/>
<path d="M132.821 69.0302L128.043 69.2028C128.063 69.348 128.113 69.4875 128.188 69.6132L132.545 69.4559C132.595 69.4546 132.643 69.4415 132.686 69.4177C132.729 69.3939 132.766 69.36 132.793 69.319C132.821 69.278 132.838 69.231 132.843 69.182C132.848 69.133 132.842 69.0835 132.824 69.0375L132.821 69.0302Z" fill="#CE3932"/>
<path d="M131.505 66.0314C131.526 66.5727 131.529 66.8915 131.529 66.8915C131.529 66.8915 129.536 67.7621 127.482 67.2098C127.327 67.1686 127.173 67.1192 127.022 67.0617C126.965 66.8319 126.91 66.5702 126.857 66.2858C126.403 63.8664 126.026 59.7648 124.611 58.6872C123.144 57.6329 120.426 57.7773 118.747 57.6968L118.608 57.69C116.093 57.5438 114.123 55.7333 112.562 52.963C112.331 52.5557 115.265 52.1687 115.265 52.1687L122.042 51.604C123.786 52.039 126.866 52.6614 128.85 54.8129C130.971 57.1174 131.414 63.6728 131.505 66.0314Z" fill="#1D3F70"/>
<path d="M127.483 67.2116C127.327 67.1704 127.174 67.121 127.023 67.0635C126.478 64.8751 126.193 59.8932 124.611 58.689C123.144 57.6347 120.426 57.7791 118.747 57.6986L119.293 56.5147C119.293 56.5147 123.901 56.567 125.433 58.6128C126.965 60.6587 127.483 67.2116 127.483 67.2116Z" fill="#103663"/>
<path d="M118.18 76.3388L114.199 75.8921C114.156 75.8873 114.115 75.8738 114.077 75.8524C114.039 75.831 114.007 75.8021 113.981 75.7676C113.955 75.7331 113.936 75.6937 113.926 75.6517C113.915 75.6098 113.914 75.5661 113.921 75.5235C113.938 75.4198 113.961 75.3172 113.99 75.2163C114.084 74.8913 114.148 74.558 114.179 74.221C114.194 74.0594 114.229 72.4393 114.231 72.2753C114.231 72.2753 116.282 72.0701 116.237 72.2562L116.091 74.4422C116.276 74.9337 116.179 74.8022 116.706 74.9988C117.083 75.1389 117.471 75.2409 117.745 75.3453C117.781 75.3588 117.816 75.373 117.85 75.3871C118.139 75.5057 118.374 75.6451 118.493 75.8712C118.521 75.9222 118.534 75.9797 118.531 76.0374C118.528 76.0952 118.509 76.151 118.477 76.1991C118.445 76.2471 118.4 76.2855 118.348 76.3101C118.296 76.3347 118.238 76.3446 118.18 76.3388Z" fill="#F99370"/>
<path d="M113.813 75.4313C113.802 75.6273 113.875 75.8614 114.101 75.8811L118.23 76.3443C118.28 76.3504 118.33 76.3444 118.377 76.3267C118.423 76.309 118.465 76.2801 118.498 76.2426C118.531 76.2052 118.554 76.1602 118.566 76.1117C118.578 76.0631 118.578 76.0124 118.565 75.964C118.455 75.4959 117.961 74.7611 116.022 74.4324C115.402 74.4442 114.782 74.3737 114.179 74.2229C113.931 74.5759 113.802 74.9997 113.813 75.4313Z" fill="#EB5648"/>
<path d="M118.565 75.964L113.813 75.4313C113.811 75.5779 113.84 75.7232 113.897 75.8583L118.229 76.3443C118.278 76.3503 118.328 76.3444 118.374 76.3271C118.42 76.3099 118.461 76.2818 118.494 76.2452C118.527 76.2087 118.551 76.1647 118.564 76.117C118.576 76.0694 118.577 76.0194 118.566 75.9714L118.565 75.964Z" fill="#CE3932"/>
<path d="M118.711 39.8517C118.895 39.0087 118.895 37.7628 118.827 37.2449C118.717 36.2232 117.09 36.4462 117.251 37.4531C117.305 37.4267 117.28 39.2539 117.114 39.7448C116.122 39.9321 118.752 41.5879 119.507 41.2408C119.983 41.0214 118.711 39.8517 118.711 39.8517Z" fill="#F99370"/>
<path d="M117.244 37.3696C117.244 37.3813 117.244 37.3935 117.244 37.4052C117.244 37.4169 117.244 37.4372 117.249 37.4531C117.289 37.4329 117.287 38.4423 117.213 39.1672C117.862 39.5488 118.637 39.4916 118.779 39.4781C118.889 38.7144 118.869 37.7523 118.844 37.3892C118.834 37.3038 118.826 37.2541 118.825 37.2436C118.825 37.2203 118.818 37.1976 118.813 37.1748C118.788 37.0618 118.738 36.9557 118.667 36.864C118.597 36.7723 118.507 36.6972 118.404 36.644C118.259 36.5694 118.096 36.5408 117.935 36.5621C117.774 36.5834 117.623 36.6536 117.503 36.7632C117.498 36.7672 117.493 36.7715 117.488 36.7761C117.409 36.8526 117.346 36.945 117.304 37.0471C117.262 37.1493 117.242 37.2591 117.244 37.3696Z" fill="#E57D61"/>
<path d="M116.177 35.9793C116.177 35.9793 116.191 35.1191 116.459 34.5287L116.951 34.7695L116.177 35.9793Z" fill="#8E4A35"/>
<path d="M119.322 51.6194C119.485 55.8942 119.014 61.8924 118.668 64.6859C118.331 67.4162 117.75 71.0503 117.485 72.6728C117.399 73.1993 117.346 73.5127 117.346 73.5127C117.346 73.5127 115.275 74.5024 113.309 73.2669C113.309 73.2669 113.32 72.9561 113.333 72.4314C113.376 70.7554 113.447 66.8983 113.289 64.0218C113.134 61.216 111.246 56.3814 112.562 52.9698L119.322 51.6194Z" fill="#1D3F70"/>
<path d="M116.164 38.4908C116.93 39.2367 118.13 39.3509 118.997 38.8533C119.061 38.8132 119.123 38.7691 119.182 38.7212C121.92 35.9645 118.196 31.4489 116.5 35.3895C115.927 36.499 114.928 37.0943 116.164 38.4908Z" fill="#F99370"/>
<path d="M117.343 36.2539C117.334 36.2346 117.33 36.2129 117.332 36.1914C117.335 36.17 117.344 36.1498 117.358 36.1334C117.372 36.1169 117.391 36.1051 117.411 36.0992C117.432 36.0934 117.454 36.0938 117.475 36.1005C117.495 36.1072 117.513 36.1198 117.527 36.1367C117.54 36.1537 117.548 36.1742 117.55 36.1958C117.552 36.2173 117.547 36.2389 117.536 36.2577C117.526 36.2766 117.51 36.2919 117.491 36.3018C117.478 36.3084 117.464 36.3123 117.45 36.3135C117.435 36.3146 117.421 36.3129 117.407 36.3085C117.393 36.304 117.381 36.2969 117.37 36.2875C117.359 36.2782 117.35 36.2667 117.343 36.2539Z" fill="#C16256"/>
<path d="M116.419 36.0997C116.41 36.0804 116.406 36.0587 116.408 36.0372C116.411 36.0158 116.42 35.9955 116.434 35.9791C116.448 35.9627 116.466 35.9508 116.487 35.945C116.508 35.9391 116.53 35.9396 116.551 35.9463C116.571 35.9529 116.589 35.9656 116.603 35.9825C116.616 35.9995 116.624 36.02 116.626 36.0416C116.628 36.0631 116.623 36.0847 116.612 36.1035C116.602 36.1224 116.586 36.1377 116.567 36.1476C116.554 36.1542 116.54 36.1581 116.526 36.1593C116.511 36.1604 116.497 36.1587 116.483 36.1543C116.469 36.1498 116.457 36.1427 116.446 36.1333C116.435 36.124 116.426 36.1125 116.419 36.0997Z" fill="#C16256"/>
<path d="M116.706 37.0501C116.768 37.0586 116.831 37.054 116.891 37.0366C116.9 37.0325 116.908 37.025 116.912 37.0156C116.916 37.0061 116.917 36.9954 116.914 36.9855C116.911 36.9756 116.904 36.9673 116.895 36.9621C116.886 36.9568 116.876 36.9552 116.865 36.9573C116.726 37.0022 116.528 36.9328 116.501 36.8695C116.492 36.8474 116.521 36.8252 116.548 36.808C116.784 36.6802 116.942 36.2342 116.948 36.2152C116.95 36.21 116.95 36.2046 116.95 36.1992C116.95 36.1937 116.948 36.1884 116.946 36.1835C116.944 36.1786 116.941 36.1742 116.936 36.1705C116.932 36.1669 116.928 36.1641 116.923 36.1623C116.917 36.1604 116.912 36.1596 116.906 36.1598C116.901 36.1601 116.896 36.1615 116.891 36.1639C116.886 36.1663 116.881 36.1697 116.878 36.1739C116.874 36.178 116.871 36.1829 116.87 36.1881C116.87 36.1924 116.716 36.6225 116.508 36.7349C116.395 36.7964 116.413 36.8701 116.425 36.899C116.459 36.9782 116.58 37.0354 116.706 37.0501Z" fill="#C16256"/>
<path d="M116.628 35.1173C117.224 34.8027 118.304 35.0884 118.835 35.0835C118.835 35.0835 118.723 35.9909 119.639 36.6366C119.717 37.471 119.855 37.8353 118.995 38.8521C119.059 38.812 119.121 38.7679 119.179 38.72C121.821 36.0874 118.38 31.6024 116.628 35.1173Z" fill="#E57D61"/>
<path d="M116.177 33.3098C116.518 32.634 117.533 32.2654 118.409 33.1015C119.085 33.7429 119.811 33.7374 119.797 34.4132C121.149 35.0276 120.479 36.5174 120.479 36.5174L119.803 36.437C119.028 35.8109 119.051 34.8894 119.051 34.8894C118.878 34.9013 118.705 34.8878 118.536 34.8494C118.036 34.7222 117.298 34.6608 116.736 34.8685C116.174 35.0761 115.795 34.063 116.177 33.3098Z" fill="#8E4A35"/>
<path d="M120.576 37.0636C120.503 37.412 120.216 37.6467 119.936 37.5877C119.656 37.5287 119.487 37.1988 119.561 36.8504C119.634 36.5021 119.92 36.268 120.201 36.3264C120.482 36.3847 120.649 36.7153 120.576 37.0636Z" fill="#F99370"/>
<path d="M119.91 36.6028C119.921 36.5985 120.178 36.499 120.322 36.6329C120.361 36.6699 120.387 36.7174 120.398 36.7693C120.398 36.7749 120.398 36.7798 120.402 36.7853C120.42 36.927 120.403 37.0708 120.354 37.2049C120.351 37.2141 120.345 37.222 120.337 37.2273C120.329 37.2326 120.319 37.2348 120.31 37.2338H120.302C120.297 37.2322 120.292 37.2296 120.288 37.2261C120.284 37.2226 120.28 37.2183 120.278 37.2134C120.275 37.2086 120.273 37.2033 120.273 37.1978C120.272 37.1923 120.273 37.1868 120.275 37.1816C120.313 37.0714 120.33 36.9548 120.326 36.8381C120.086 36.8812 119.966 37.1496 119.964 37.1527C119.961 37.1609 119.955 37.1678 119.947 37.1723C119.939 37.1768 119.93 37.1788 119.921 37.1779L119.91 37.1748C119.9 37.1704 119.892 37.1622 119.887 37.152C119.883 37.1418 119.883 37.1303 119.888 37.1201C119.894 37.1066 120.024 36.8068 120.305 36.7546C120.297 36.7316 120.284 36.7107 120.267 36.6932C120.16 36.5955 119.943 36.679 119.941 36.6796C119.936 36.6816 119.93 36.6826 119.925 36.6824C119.919 36.6823 119.914 36.6811 119.909 36.6789C119.904 36.6766 119.899 36.6734 119.896 36.6695C119.892 36.6655 119.889 36.6608 119.887 36.6557C119.883 36.6456 119.883 36.6344 119.888 36.6245C119.892 36.6146 119.9 36.6068 119.91 36.6028Z" fill="#C16256"/>
<path d="M122.038 51.6059C122.038 51.6059 119.435 54.1138 112.562 52.9649C112.562 52.9649 112.653 50.4515 112.763 48.0179C112.772 47.8084 112.782 47.6002 112.791 47.3937C112.879 45.4972 112.975 43.7886 113.037 43.5453C113.691 41.0982 115.734 40.1711 116.654 39.8713C116.804 39.8214 116.957 39.7804 117.112 39.7484C117.112 40.3554 118.162 40.7523 118.525 40.4894C118.828 40.2707 118.717 39.8787 118.709 39.8572H118.714L118.721 39.8609C118.865 39.9225 119.005 39.9946 119.138 40.0765C120.066 40.646 120.674 41.6739 121.012 43.1484C121.138 43.7185 121.224 44.2968 121.268 44.8791C121.277 44.9897 121.285 45.1015 121.292 45.2158C121.312 45.4759 121.345 45.7349 121.391 45.9917C121.391 45.993 121.391 45.9942 121.391 45.9954C121.674 47.7365 122.435 50.1363 122.038 51.6059Z" fill="#3A72AA"/>
<path d="M117.908 36.1009C117.917 36.1019 117.926 36.1004 117.934 36.0966C117.94 36.0938 117.945 36.09 117.95 36.0852C117.954 36.0804 117.957 36.0748 117.959 36.0688C117.961 36.0627 117.962 36.0563 117.962 36.0499C117.962 36.0435 117.96 36.0372 117.957 36.0315C117.893 35.9147 117.803 35.8141 117.694 35.7376C117.585 35.6611 117.46 35.6108 117.329 35.5903C117.322 35.5886 117.315 35.5882 117.308 35.5892C117.302 35.5903 117.295 35.5927 117.289 35.5964C117.284 35.6001 117.279 35.6049 117.275 35.6106C117.271 35.6163 117.269 35.6227 117.267 35.6295C117.266 35.6362 117.266 35.6431 117.268 35.6498C117.27 35.6564 117.273 35.6626 117.277 35.668C117.281 35.6734 117.287 35.6779 117.293 35.6811C117.299 35.6843 117.305 35.6863 117.312 35.6868C117.428 35.7044 117.539 35.7485 117.636 35.8156C117.732 35.8827 117.812 35.971 117.869 36.0739C117.873 36.0813 117.878 36.0876 117.885 36.0923C117.892 36.0971 117.9 36.1 117.908 36.1009Z" fill="#C16256"/>
<path d="M116.383 35.755C116.391 35.7559 116.399 35.7549 116.406 35.7523C116.413 35.7496 116.42 35.7453 116.425 35.7396C116.548 35.6014 116.817 35.6168 116.82 35.6168C116.832 35.6163 116.844 35.6113 116.852 35.6027C116.861 35.5941 116.866 35.5826 116.867 35.5704C116.868 35.5582 116.864 35.5462 116.856 35.5367C116.848 35.5272 116.838 35.5209 116.825 35.5191C116.813 35.5191 116.51 35.5037 116.352 35.6764C116.348 35.6809 116.344 35.6862 116.342 35.6921C116.339 35.698 116.338 35.7044 116.338 35.7108C116.338 35.7172 116.339 35.7235 116.342 35.7294C116.344 35.7353 116.348 35.7407 116.352 35.7452C116.361 35.7518 116.372 35.7553 116.383 35.755Z" fill="#C16256"/>
<path d="M112.455 43.1982C110.903 44.7611 109.342 45.7122 107.929 46.568C106.819 47.2408 105.702 47.954 104.5 48.4548C104 48.6618 103.486 48.8541 102.974 49.0341C102.258 49.2657 102.508 50.3962 103.249 50.3108C105.345 50.1302 107.563 49.6835 109.363 48.5653C110.809 47.6671 112.578 46.7222 113.631 45.6421C114.619 44.6284 115.578 43.0077 116.058 41.9356C116.797 40.2098 113.976 40.893 112.455 43.1982Z" fill="#E57D61"/>
<path d="M117.114 39.7448C117.114 39.7448 117.06 39.9758 116.93 40.388C116.618 41.3569 115.872 43.3272 114.368 45.6581C113.936 46.3151 113.403 46.9002 112.79 47.3919C110.408 49.3444 106.83 50.242 104.188 50.2745C104.02 50.2745 103.852 50.2721 103.684 50.2672C103.684 50.2672 103.868 49.4199 103.323 48.9076C103.323 48.9076 103.476 48.8332 103.726 48.7042C104.631 48.2391 106.812 47.0718 107.726 46.1674C108.855 45.0493 111.911 40.0501 116.625 39.7583L116.712 39.7527C116.845 39.7466 116.98 39.7441 117.114 39.7448Z" fill="#3A72AA"/>
<path d="M131.505 66.0314C131.526 66.5727 131.529 66.8915 131.529 66.8915C131.529 66.8915 129.536 67.7621 127.482 67.2098C127.327 67.1686 127.173 67.1192 127.022 67.0617C126.965 66.8319 126.91 66.5702 126.857 66.2858C126.857 66.2858 129.21 66.9216 131.505 66.0296L131.505 66.0314Z" fill="#103663"/>
<path d="M117.485 72.6697C117.399 73.1963 117.346 73.5096 117.346 73.5096C117.346 73.5096 115.275 74.4994 113.309 73.2638C113.309 73.2638 113.32 72.953 113.333 72.4283C113.333 72.4264 114.775 73.4832 117.485 72.6697Z" fill="#103663"/>
<path d="M103.729 48.7048C103.478 48.8338 103.325 48.9082 103.325 48.9082C103.872 49.4206 103.686 50.2678 103.686 50.2678C103.854 50.2752 104.022 50.2776 104.191 50.2752C104.193 50.2561 104.318 49.2025 103.729 48.7048Z" fill="#23659B"/>
<path d="M132.213 43.6043C132.213 43.6043 132.056 43.7407 131.773 43.9532C130.964 43.3487 131.107 42.5482 131.107 42.5482V42.5285C131.271 42.4861 131.438 42.4406 131.61 42.3927C131.611 42.3921 131.521 43.098 132.213 43.6043Z" fill="#23659B"/>
<path d="M116.701 37.5004C116.636 37.5011 116.57 37.4941 116.507 37.4796C116.502 37.4782 116.497 37.4759 116.493 37.4727C116.489 37.4695 116.485 37.4656 116.483 37.461C116.48 37.4565 116.478 37.4516 116.478 37.4464C116.477 37.4412 116.478 37.436 116.479 37.431C116.48 37.426 116.482 37.4212 116.486 37.4171C116.489 37.4129 116.493 37.4094 116.497 37.4068C116.502 37.4043 116.507 37.4026 116.512 37.402C116.517 37.4014 116.522 37.4019 116.527 37.4034C116.548 37.4089 117.042 37.5367 117.297 37.0808C117.299 37.0763 117.303 37.0723 117.307 37.0691C117.311 37.0659 117.316 37.0635 117.321 37.0621C117.326 37.0608 117.331 37.0604 117.336 37.0611C117.341 37.0618 117.346 37.0635 117.351 37.0661C117.355 37.0686 117.359 37.0719 117.362 37.076C117.366 37.0801 117.368 37.0847 117.369 37.0897C117.371 37.0947 117.371 37.0999 117.37 37.105C117.37 37.1101 117.368 37.1151 117.366 37.1195C117.301 37.2386 117.205 37.3374 117.088 37.4047C116.97 37.472 116.837 37.5052 116.701 37.5004Z" fill="#C16256"/>
<path d="M115.339 44.0202C115.304 44.1037 114.233 46.6055 112.763 48.0179C112.772 47.8084 112.782 47.6002 112.791 47.3937C112.791 47.3937 114.326 45.781 115.339 44.0202Z" fill="#23659B"/>
<path d="M121.807 46.0771C121.662 46.0507 121.523 46.0231 121.389 45.9954C121.389 45.9942 121.389 45.993 121.389 45.9917C121.386 45.9475 121.35 45.523 121.271 44.8822C121.21 44.403 121.128 43.8021 121.016 43.149V43.1392C121.016 43.1392 121.391 44.3913 121.807 46.0771Z" fill="#23659B"/>
<path d="M119.142 40.0304C119.142 40.0446 119.142 40.0593 119.142 40.0741C119.143 40.204 119.122 40.3331 119.08 40.4562C118.978 40.745 118.725 40.9913 118.155 40.968C117.524 40.9409 117.152 40.6688 116.928 40.388C116.807 40.2332 116.715 40.0577 116.657 39.8701C116.637 39.8056 116.629 39.7638 116.628 39.7589L116.714 39.754C116.846 39.7472 116.98 39.7448 117.114 39.7454C117.114 40.3524 118.164 40.7493 118.527 40.4863C118.83 40.2676 118.719 39.8756 118.712 39.8541H118.717C118.749 39.8664 118.898 39.9272 119.142 40.0304Z" fill="#23659B"/>
<path d="M101.964 49.5637C101.964 49.5637 100.849 49.4973 100.17 50.0607C99.4903 50.6241 99.0473 51.5629 99.0473 51.5629C99.0473 51.5629 99.8128 51.7263 99.8816 52.1066C99.8816 52.1066 100.776 51.3601 101.088 50.8582C101.399 50.3562 101.964 49.5637 101.964 49.5637Z" fill="#F99370"/>
<path d="M87.3662 48.9751C87.3662 48.9751 85.6957 47.3003 83.3936 49.9071C81.0916 52.5139 82.5292 52.5102 78.9087 53.8391C75.8952 54.945 75.0062 58.3241 78.9922 59.3132C82.8014 60.2563 85.2275 57.201 87.5075 57.3571C89.7874 57.5131 90.0663 52.6264 89.3402 51.3976C88.614 50.1689 87.3662 48.9751 87.3662 48.9751Z" fill="#C92828"/>
<path d="M88.2761 59.2032C90.6918 59.4687 93.2728 59.1615 95.3844 57.8676C97.6889 56.3218 99.599 54.0585 100.46 51.4031C100.579 51.0579 100.221 50.7028 99.8779 50.8201C99.8675 50.833 99.4012 50.9497 99.4024 50.978C99.2543 51.1943 99.0952 51.4038 98.9318 51.6096C96.8097 54.2065 93.744 56.3513 90.2507 56.0828C89.7284 56.0718 89.2071 56.0331 88.6889 55.9667C86.5681 55.7388 86.162 58.8918 88.2761 59.2032Z" fill="#F99370"/>
<path d="M95.1509 57.9733C95.1345 58.1457 95.0831 58.3129 94.9998 58.4648C94.4727 59.288 92.4317 59.7549 90.5388 59.739C90.3391 59.739 90.1413 59.7304 89.9466 59.7175C89.6965 59.7009 89.452 59.6751 89.2179 59.6388C89.0987 58.7173 88.3842 56.4945 88.2675 55.584C88.9095 55.5072 90.0172 55.7566 91.0936 55.8297C92.1946 55.9907 93.0885 55.1766 93.8294 55.5459C93.8288 55.5477 93.7557 57.2895 95.1509 57.9733Z" fill="#9358E0"/>
<path d="M72.7533 79.0642C72.7533 79.0642 74.0244 78.8743 75.0559 78.5806L75.4295 80.8415L73.0217 80.7187C73.0217 80.7187 72.255 80.108 72.7533 79.0642Z" fill="#F99370"/>
<path d="M85.9414 88.3338L86.1411 86.855L88.1255 86.8735C88.1255 86.8735 87.8638 87.5198 87.6187 88.3523C87.6168 88.3523 86.7598 89.0785 85.9414 88.3338Z" fill="#F99370"/>
<path d="M87.3705 48.9997C89.5712 48.3472 89.506 51.9739 89.2916 52.686L87.3705 48.9997Z" fill="#C92828"/>
<path d="M71.5804 79.0396C71.4488 79.0761 71.3259 79.1387 71.2192 79.2239L71.8673 83.2173C71.8745 83.2625 71.8923 83.3054 71.9193 83.3423C71.9463 83.3793 71.9817 83.4092 72.0226 83.4297C72.0635 83.4502 72.1088 83.4606 72.1545 83.4601C72.2003 83.4596 72.2453 83.4482 72.2857 83.4268H72.2919C72.6863 83.2094 73.2257 82.5753 73.0217 80.7236C73.0217 80.7236 72.7342 80.1276 72.7533 79.0648C72.7533 79.0642 72.1119 78.8854 71.5804 79.0396Z" fill="#1D3F70"/>
<path d="M72.2919 83.4213L71.5804 79.0396C71.4488 79.0761 71.3259 79.1387 71.2192 79.2239L71.8673 83.2173C71.8745 83.2625 71.8923 83.3054 71.9193 83.3423C71.9463 83.3793 71.9817 83.4092 72.0226 83.4297C72.0635 83.4502 72.1088 83.4606 72.1545 83.4601C72.2003 83.4596 72.2453 83.4482 72.2857 83.4268L72.2919 83.4213Z" fill="#395B96"/>
<path d="M85.7154 89.4852C85.7279 89.6208 85.7678 89.7525 85.8327 89.8722L89.8765 89.9171C89.9223 89.9179 89.9675 89.9077 90.0085 89.8874C90.0496 89.8672 90.0851 89.8374 90.1124 89.8007C90.1396 89.7639 90.1576 89.7212 90.165 89.676C90.1724 89.6309 90.1689 89.5846 90.1548 89.5411V89.5343C90.0086 89.108 89.479 88.4678 87.6193 88.3523C87.6193 88.3523 86.9828 88.5366 85.9421 88.3338C85.9414 88.3338 85.6539 88.9353 85.7154 89.4852Z" fill="#1D3F70"/>
<path d="M90.1524 89.5343L85.7154 89.4852C85.7279 89.6208 85.7678 89.7525 85.8327 89.8722L89.8765 89.9171C89.9223 89.9179 89.9675 89.9077 90.0085 89.8874C90.0496 89.8672 90.0851 89.8374 90.1124 89.8007C90.1396 89.7639 90.1576 89.7212 90.165 89.676C90.1724 89.6309 90.1689 89.5846 90.1548 89.5411L90.1524 89.5343Z" fill="#395B96"/>
<path d="M74.0072 81.0547C74.1915 81.0934 74.401 81.1278 74.6271 81.1561C77.5042 81.5247 83.3955 81.0683 85.5077 78.8012C85.7922 78.5032 86.0589 78.1887 86.3064 77.8594C88.171 75.3908 88.8677 72.2513 89.1 69.1125C89.181 68.0251 89.2062 66.9382 89.2044 65.8784C88.7958 63.4762 86.5884 62.7734 84.8491 63.3595C83.4858 63.819 82.4082 65.0699 82.7074 66.9149V66.9075C83.2296 68.4023 83.3359 69.7951 83.1024 71.0613C82.4266 74.734 78.8952 77.3611 74.3973 78.4215C74.154 78.4789 73.9083 78.5317 73.6601 78.58C73.6601 78.58 73.3621 79.987 74.0072 81.0547Z" fill="#E8C0A6"/>
<path d="M85.7154 65.2088L88.8831 70.3554L88.9912 70.294C89.0403 69.87 89.0803 69.4365 89.111 68.9933C89.1325 68.7015 89.1491 68.4047 89.1632 68.1043C89.1927 67.458 89.2077 66.793 89.2081 66.1094L88.1237 65.8022L85.7154 65.2088Z" fill="#D1A68F"/>
<path d="M85.0856 79.1938C85.0856 79.1938 85.9003 78.5081 86.3101 77.8594C87.4694 76.0242 87.529 75.8817 88.1729 73.7627L87.4282 69.6513L83.0864 69.3755C83.1215 70.2632 83.2757 70.6491 82.9021 71.8796C82.9034 71.8796 85.1851 73.8278 85.0856 79.1938Z" fill="#D1A68F"/>
<path d="M81.9142 69.7269C82.3148 70.1969 82.7424 70.6134 83.1061 71.0619C84.8878 73.2546 85.8818 75.5174 86.3101 77.8594C86.8096 80.5823 86.5454 83.4127 85.8726 86.3691C85.8198 86.6005 85.7645 86.8329 85.7068 87.0664C85.7068 87.0664 87.357 87.6193 88.2755 87.2089C88.3729 87.0041 88.4682 86.7993 88.5611 86.5946C91.3074 80.5958 92.1178 75.9204 89.1036 69.1131C88.4416 67.6402 87.6947 66.2069 86.8667 64.8205C86.2333 64.0458 85.5384 63.5782 84.8528 63.3607C81.9836 62.449 79.0875 66.4142 81.9142 69.7269Z" fill="#E8C0A6"/>
<path d="M89.178 65.5123C89.2081 65.9282 89.2081 66.1266 89.2081 66.1266C83.863 67.2 80.9509 65.7009 80.9509 65.7009C80.9183 65.7126 80.922 65.5227 80.9552 65.1934C81.0209 64.533 81.2009 63.3097 81.4467 62.0128C81.4901 61.7818 81.5358 61.5494 81.5837 61.3155C81.9154 59.6837 82.3314 58.0734 82.7276 57.432C83.5294 55.1754 86.2677 54.7988 88.0039 55.5127C88.2748 55.6122 89.6013 57.937 89.8802 58.8414C90.3496 60.3681 88.7455 61.5238 88.9451 63.4529C89.0809 64.3923 89.1466 65.0724 89.178 65.5123Z" fill="#9358E0"/>
<path d="M86.0152 55.5631C86.0864 55.6325 86.1417 55.6921 86.0797 55.7984C85.9697 55.987 86.068 56.4693 86.334 56.5639C86.4012 56.5865 86.4741 56.5852 86.5405 56.5602C86.9582 56.4164 86.9705 56.5989 87.2906 56.938C87.6107 57.2772 87.9369 57.0953 88.061 56.8078C88.1851 56.5203 88.4592 56.7034 88.5366 56.3636C88.5541 56.2851 88.5541 56.2037 88.5366 56.1252C88.496 55.9293 88.2669 55.5821 88.2669 55.5821C88.1814 55.5531 88.0939 55.5305 88.0051 55.5145C87.3649 55.1527 86.5964 55.0845 85.8696 55.1975C85.8302 55.3929 85.9328 55.4851 86.0152 55.5631Z" fill="#7640CC"/>
<path d="M88.1618 54.3607L88.0014 55.517C88.0014 55.517 88.3455 56.3648 87.591 56.2997C86.5159 56.2082 86.3138 55.1545 86.3138 55.1545L86.4833 54.2182L88.1618 54.3607Z" fill="#F99370"/>
<path d="M86.4833 54.2182L86.4078 54.6366C87.0836 55.0452 87.924 55.0151 88.0727 55.0052L88.1618 54.3632L86.4833 54.2182Z" fill="#E57D61"/>
<path d="M89.4231 53.9331C88.8554 54.5739 87.9394 54.7933 87.1911 54.6704C86.8821 54.6296 86.5882 54.512 86.3365 54.3282C85.3185 53.4834 84.9326 51.6962 85.4493 50.5191C86.197 48.7988 88.3412 48.9567 88.9119 50.755C89.0361 51.0514 89.2235 51.3171 89.4612 51.5334C90.0958 52.1183 90.145 53.0742 89.4231 53.9331Z" fill="#F99370"/>
<path d="M88.9009 52.9827L87.8976 52.5324C87.8976 52.5324 87.8663 53.0687 88.2607 53.194C88.6373 53.3126 88.9009 52.9827 88.9009 52.9827Z" fill="#F9F8F3"/>
<path d="M85.7731 52.9987C85.7731 52.9987 85.8622 53.7212 86.5104 54.4449C86.4498 54.4106 86.3915 54.3724 86.3359 54.3306C85.3179 53.4859 84.932 51.6987 85.4487 50.5215C85.829 49.5139 87.0873 48.9082 88.1004 49.619C88.1004 49.619 88.6177 51.142 85.8573 52.4703L85.7731 52.9987Z" fill="#E57D61"/>
<path d="M88.0918 51.6925C88.1009 51.6721 88.1037 51.6494 88.1 51.6274C88.0962 51.6054 88.086 51.5849 88.0706 51.5687C88.0552 51.5525 88.0354 51.5411 88.0136 51.5362C87.9918 51.5312 87.969 51.5328 87.9481 51.5408C87.9272 51.5488 87.9092 51.5628 87.8963 51.5811C87.8834 51.5993 87.8761 51.621 87.8755 51.6433C87.8749 51.6657 87.881 51.6877 87.8929 51.7066C87.9048 51.7256 87.922 51.7405 87.9425 51.7496C87.9698 51.7619 88.0009 51.7627 88.0289 51.752C88.0569 51.7413 88.0795 51.7199 88.0918 51.6925Z" fill="#C16256"/>
<path d="M87.8085 49.4261C87.8085 49.4261 88.249 51.0321 85.7571 52.2153L85.1317 52.5975C84.8016 51.8546 84.7589 51.0157 85.0119 50.2432C85.4426 48.9696 87.4553 48.4695 87.8085 49.4261Z" fill="#C92828"/>
<path d="M89.033 51.4873C89.0421 51.4669 89.045 51.4442 89.0412 51.4222C89.0374 51.4002 89.0272 51.3797 89.0118 51.3635C88.9965 51.3473 88.9766 51.3359 88.9548 51.331C88.933 51.326 88.9102 51.3276 88.8894 51.3356C88.8685 51.3436 88.8504 51.3576 88.8375 51.3759C88.8246 51.3941 88.8174 51.4158 88.8168 51.4382C88.8161 51.4605 88.8222 51.4825 88.8341 51.5015C88.846 51.5204 88.8633 51.5353 88.8837 51.5444C88.9111 51.5567 88.9422 51.5575 88.9702 51.5468C88.9982 51.5361 89.0208 51.5147 89.033 51.4873Z" fill="#C16256"/>
<path d="M88.9083 53.0232C88.9001 53.026 88.8912 53.026 88.8831 53.0232L87.8798 52.5729C87.8746 52.5707 87.87 52.5674 87.8661 52.5633C87.8622 52.5592 87.8592 52.5544 87.8572 52.5492C87.8552 52.5439 87.8543 52.5383 87.8544 52.5327C87.8546 52.527 87.8559 52.5215 87.8583 52.5164C87.863 52.5061 87.8716 52.4981 87.8821 52.494C87.8927 52.49 87.9045 52.4903 87.9148 52.4949L88.9181 52.9452C88.9284 52.9499 88.9364 52.9585 88.9405 52.9691C88.9445 52.9796 88.9442 52.9914 88.9396 53.0017C88.9366 53.0076 88.9321 53.0127 88.9266 53.0165C88.9212 53.0202 88.9149 53.0225 88.9083 53.0232Z" fill="#C16256"/>
<path d="M88.7891 52.4801C88.7256 52.492 88.6603 52.4906 88.5974 52.4758C88.592 52.4744 88.5869 52.4719 88.5824 52.4685C88.578 52.4651 88.5742 52.4609 88.5714 52.456C88.5686 52.4512 88.5668 52.4458 88.5661 52.4402C88.5654 52.4347 88.5658 52.429 88.5673 52.4236C88.5703 52.4127 88.5774 52.4035 88.5872 52.3977C88.5969 52.392 88.6085 52.3903 88.6195 52.3929C88.7651 52.4316 88.9642 52.3499 88.9881 52.2835C88.9967 52.2602 88.9648 52.2393 88.9365 52.2258C88.6877 52.1066 88.5022 51.6563 88.4942 51.6372C88.491 51.6269 88.4917 51.6159 88.4963 51.6061C88.5009 51.5964 88.5089 51.5887 88.5189 51.5846C88.5288 51.5805 88.5399 51.5803 88.55 51.584C88.5601 51.5877 88.5685 51.5951 88.5734 51.6047C88.5734 51.6096 88.7547 52.0439 88.9734 52.1484C89.0926 52.2055 89.0797 52.2823 89.0686 52.313C89.0397 52.3929 88.9181 52.458 88.7891 52.4801Z" fill="#C16256"/>
<path d="M84.8141 52.7001C84.9081 53.0546 85.2153 53.2807 85.4997 53.2051C85.7842 53.1295 85.9402 52.7812 85.8462 52.4267C85.7522 52.0722 85.445 51.8461 85.16 51.9217C84.8749 51.9972 84.7201 52.3456 84.8141 52.7001Z" fill="#F99370"/>
<path d="M85.4733 52.1902C84.4989 51.8946 85.3019 53.6032 85.0598 52.4513C85.3086 52.482 85.4456 52.7548 85.4475 52.7585C85.6613 52.8629 85.3897 52.396 85.0752 52.3671C85.1317 52.1164 85.6207 52.38 85.4733 52.1902Z" fill="#C16256"/>
<path d="M85.3006 53.0675C85.3015 53.0866 85.308 53.1049 85.3194 53.1203C85.3307 53.1357 85.3463 53.1473 85.3643 53.1538C85.3823 53.1603 85.4018 53.1613 85.4203 53.1567C85.4388 53.1521 85.4556 53.1421 85.4684 53.1279C85.4812 53.1138 85.4896 53.0962 85.4924 53.0773C85.4952 53.0584 85.4924 53.0391 85.4842 53.0218C85.476 53.0046 85.4629 52.9901 85.4466 52.9803C85.4302 52.9705 85.4113 52.9658 85.3922 52.9667C85.3795 52.9673 85.3671 52.9703 85.3557 52.9757C85.3442 52.9811 85.3339 52.9887 85.3254 52.998C85.3169 53.0074 85.3103 53.0184 85.3061 53.0303C85.3018 53.0422 85.3 53.0548 85.3006 53.0675Z" fill="#F4D4BE"/>
<path d="M77.3457 69.4043C77.1092 69.4301 77.1399 68.8649 76.998 68.7003C76.8682 68.9263 76.7651 69.1667 76.6908 69.4166C76.6515 69.8894 76.6361 70.3639 76.6447 70.8383C76.289 71.4662 76.2964 69.6507 76.2644 69.4725H76.2577C76.1109 69.9477 75.9977 70.4326 75.9191 70.9237C75.4117 71.4871 75.8577 69.5106 75.8829 69.3263C75.6724 69.7519 75.5115 70.2003 75.4031 70.6626C74.8415 71.1854 75.4522 69.2157 75.5358 69.0443L75.5315 69.0406C75.3209 69.3531 75.1385 69.6837 74.9865 70.0285C74.3936 70.4402 75.1641 68.8115 75.2575 68.6628C75.2704 68.5282 75.6341 67.7652 76.0561 67.1459C76.2128 66.9167 77.1393 66.9579 77.2339 67.2135C77.323 67.4537 77.4182 68.2512 77.4336 68.3765C77.4993 68.6136 77.5859 69.2514 77.3457 69.4043Z" fill="#F99370"/>
<path d="M93.3465 55.9096C93.4755 56.3464 93.0682 56.3636 93.298 56.8066C93.5277 57.2495 93.9658 57.0382 94.1188 57.8455C94.2699 58.6442 94.9789 58.4703 94.9992 58.4648C95.0833 58.308 95.152 58.1434 95.2044 57.9733C93.8091 57.2901 93.8276 55.5256 93.8276 55.5256C93.6568 55.3898 93.438 55.4027 93.1843 55.4642C93.2365 55.5944 93.301 55.7554 93.3465 55.9096Z" fill="#7640CC"/>
<path d="M87.5529 51.4259C87.559 51.4252 87.5648 51.4233 87.5702 51.4203C87.7947 51.2977 87.9857 51.122 88.1268 50.9086C88.1312 50.9022 88.1343 50.8949 88.1358 50.8873C88.1374 50.8796 88.1374 50.8718 88.1358 50.8642C88.1342 50.8565 88.1311 50.8493 88.1267 50.8429C88.1223 50.8365 88.1166 50.831 88.11 50.8269C88.1034 50.8228 88.096 50.82 88.0883 50.8188C88.0806 50.8175 88.0728 50.8179 88.0652 50.8198C88.0577 50.8216 88.0506 50.8251 88.0444 50.8298C88.0382 50.8345 88.033 50.8404 88.0291 50.8471C87.8983 51.0426 87.7226 51.204 87.5167 51.3177C87.5041 51.3238 87.4941 51.3342 87.4887 51.347C87.4832 51.3599 87.4827 51.3743 87.4871 51.3876C87.4916 51.4008 87.5008 51.412 87.5129 51.4189C87.525 51.4259 87.5393 51.4281 87.5529 51.4253V51.4259Z" fill="#C16256"/>
<path d="M88.9666 50.9847C88.9804 50.982 88.9927 50.9743 89.0012 50.9631C89.0097 50.952 89.0138 50.9381 89.0129 50.9241C89.0119 50.9101 89.0058 50.8969 88.9959 50.8871C88.9859 50.8772 88.9726 50.8713 88.9586 50.8705C88.8047 50.8588 88.6571 50.8045 88.5323 50.7138C88.5264 50.7083 88.5194 50.7041 88.5117 50.7014C88.5041 50.6988 88.496 50.6978 88.4879 50.6984C88.4799 50.6991 88.472 50.7015 88.465 50.7054C88.4579 50.7093 88.4517 50.7146 88.4468 50.7211C88.4419 50.7275 88.4384 50.7349 88.4366 50.7428C88.4347 50.7507 88.4346 50.7588 88.4361 50.7668C88.4376 50.7747 88.4408 50.7823 88.4454 50.7889C88.45 50.7956 88.4559 50.8012 88.4628 50.8054C88.6063 50.9108 88.7767 50.9732 88.9543 50.9854L88.9666 50.9847Z" fill="#C16256"/>
<path d="M85.8726 86.3691C85.8198 86.6005 85.7645 86.8329 85.7068 87.0664C85.7068 87.0664 87.325 87.6507 88.2755 87.2089C88.3729 87.0041 88.4682 86.7993 88.5611 86.5946C88.5611 86.5946 87.7452 87.0468 85.8726 86.3691Z" fill="#D1A68F"/>
<path d="M74.0072 81.0547C74.1915 81.0934 74.401 81.1278 74.6271 81.1561C74.6271 81.1561 74.0643 80.2345 74.401 78.4221C74.1577 78.4795 73.912 78.5323 73.6638 78.5807C73.6638 78.5807 73.3621 79.987 74.0072 81.0547Z" fill="#D1A68F"/>
<path d="M84.7545 58.6866C81.6046 60.1611 80.248 61.8414 78.6642 64.853C78.1634 65.7789 77.6959 66.7343 77.2837 67.7037C76.9875 68.441 75.8153 68.049 76.023 67.2841C76.6012 64.9728 77.4881 62.7498 78.6599 60.6753C79.8026 58.7542 81.5474 57.2459 83.4913 56.175C85.1784 55.3118 86.4569 57.843 84.7545 58.6866Z" fill="#F99370"/>
<path d="M84.411 59.2438C83.334 59.5129 82.4223 60.9352 81.7268 61.4193C81.5252 61.5616 81.3061 61.6774 81.075 61.764C80.8885 61.839 80.6903 61.8806 80.4895 61.8869C80.0858 60.7558 78.7791 60.4799 78.7791 60.4799C78.6798 60.3845 78.6007 60.27 78.5466 60.1433C78.4924 60.0167 78.4643 59.8804 78.4639 59.7427C78.4442 58.7025 79.8223 57.4916 81.4983 56.2137C83.5484 54.6477 85.6957 55.2246 85.6957 55.2246C86.6652 57.0554 85.4874 58.9747 84.411 59.2438Z" fill="#9358E0"/>
<path d="M85.3885 58.0906C85.2841 58.2633 83.6633 61.0144 81.4098 62.2069C81.4534 61.9765 81.4903 61.7769 81.5376 61.5409C81.5401 61.5397 83.9656 60.1635 85.3885 58.0906Z" fill="#7640CC"/>
<path d="M90.5382 59.7408C90.3385 59.7408 90.1407 59.7322 89.9459 59.7193C89.9202 58.9995 89.7213 58.2964 89.366 57.6698C89.9902 58.3554 90.3545 59.2069 90.5382 59.7408Z" fill="#7640CC"/>
<path d="M81.075 61.764C80.8885 61.839 80.6903 61.8806 80.4895 61.8869C80.0858 60.7558 78.7791 60.4799 78.7791 60.4799C78.6798 60.3845 78.6007 60.27 78.5466 60.1433C78.4924 60.0167 78.4643 59.8804 78.4639 59.7427C78.8602 59.7138 78.9554 60.2784 79.3179 60.3189C79.6803 60.3595 79.8708 60.1961 80.1522 60.3841C80.4336 60.5721 80.2867 61.0052 80.5153 61.2608C80.7438 61.5164 81.0725 61.3321 81.075 61.764Z" fill="#7640CC"/>
<path d="M89.2081 66.1303C83.863 67.2036 80.9509 65.7046 80.9509 65.7046C80.9183 65.7162 80.922 65.5264 80.9552 65.1971C81.0935 65.1709 81.2358 65.1734 81.3732 65.2044C81.5105 65.2353 81.6401 65.2941 81.7539 65.3771C82.3867 65.8207 82.0881 65.9829 82.8634 65.9552C83.6388 65.9276 83.342 65.6192 83.8268 65.8207C84.3115 66.0222 84.3797 66.3859 84.8362 66.2784C85.2927 66.1709 85.2269 65.9829 85.5697 66.0363C85.9126 66.0898 86.1688 66.4252 86.6259 66.298C87.0829 66.1709 87.1413 65.8354 87.4626 65.8551C87.7839 65.8747 88.0659 66.1574 88.3486 66.1008C88.5943 66.0535 88.7651 65.602 89.1786 65.5104C89.2081 65.9282 89.2081 66.1303 89.2081 66.1303Z" fill="#7640CC"/>
<path d="M132.757 41.9197C132.757 41.9197 133.348 40.9723 134.201 40.7443C135.053 40.5164 136.221 40.7198 136.221 40.7198C136.221 40.7198 135.89 41.0024 136.017 41.924C136.017 41.924 134.911 41.9885 134.322 41.9522C133.733 41.916 132.757 41.9197 132.757 41.9197Z" fill="#E57D61"/>
<path d="M144.576 28.0679C144.576 28.0679 143.736 28.0483 143.274 28.944C142.725 30.0081 143.422 30.8136 143.212 31.5293C143.002 32.2451 142.645 32.7538 142.927 33.4714C143.209 34.189 142.743 34.6387 142.984 35.2266C143.226 35.8146 143.589 35.7968 143.574 36.5887C143.558 37.3806 144.249 38.0546 144.891 37.5852C145.532 37.1158 145.884 38.1449 146.904 37.5029C147.924 36.8609 147.966 36.104 149.151 35.8908C150.335 35.6776 149.865 34.0329 150.871 33.4216C151.877 32.8103 151.788 31.8457 150.948 31.1896C150.108 30.5334 149.562 30.3706 148.951 28.788C148.263 27.0069 145.697 26.2365 144.576 28.0679Z" fill="#662948"/>
<path d="M148.055 36.432C147.202 38.7482 145.809 41.2856 143.297 42.0886C140.901 42.6692 138.433 42.4062 136.057 41.9283C135.186 41.8951 135.13 40.6995 136.023 40.7087C138.158 40.8052 140.404 40.8058 142.451 40.1638C144.263 39.4929 145.076 37.3923 145.714 35.696C146.205 34.1288 148.551 34.8586 148.055 36.432Z" fill="#E57D61"/>
<path d="M147.513 39.703C147.396 39.9795 147.257 40.2465 147.099 40.5017C146.857 40.8909 146.57 41.25 146.244 41.5713C146.182 41.6327 146.121 41.6886 146.059 41.7446C144.757 42.9223 143.038 43.431 141.608 43.4593C140.019 43.4912 137.802 42.9678 136.778 42.4382C136.462 42.2735 136.259 42.1076 136.225 41.9577C136.081 41.3231 136.404 40.729 136.404 40.729C136.508 40.6061 136.734 40.5041 137.035 40.4218C138.104 40.1263 140.113 40.0495 140.926 39.8689C141.967 39.6354 143.581 39.0253 144.533 36.9438C145.103 35.6966 145.7 35.0817 146.088 34.7898C146.219 34.6824 146.368 34.5992 146.528 34.5441C146.98 35.1276 147.331 35.7825 147.568 36.4818C147.597 36.5691 147.625 36.6581 147.65 36.7497C147.896 37.6104 147.963 38.6456 147.513 39.703Z" fill="#3697FD"/>
<path d="M147.099 40.5011C146.813 40.9622 146.463 41.3806 146.06 41.7439C145.753 41.3556 145.168 40.49 145.089 39.4873C144.979 38.1228 145.979 36.5119 145.979 36.5119L147.099 40.5011Z" fill="#0C2135"/>
<path d="M161.788 68.5878L164.983 65.9657C164.897 65.7512 164.107 65.1055 163.903 64.7984C163.807 64.6755 162.797 63.5033 162.71 63.3736L161.519 62.2364L160.112 63.3927L162.348 65.5098C162.476 65.6317 162.558 65.7945 162.579 65.9701C162.6 66.1457 162.56 66.3234 162.465 66.4725C162.06 67.1797 161.304 67.6214 161.298 68.3924C161.304 68.4459 161.325 68.4965 161.358 68.5391C161.391 68.5817 161.435 68.6146 161.485 68.6346C161.535 68.6545 161.59 68.6607 161.643 68.6525C161.696 68.6442 161.746 68.6219 161.788 68.5878Z" fill="#F99370"/>
<path d="M164.827 65.5805C164.904 65.6975 164.957 65.829 164.983 65.9669L161.755 68.6143C161.719 68.6444 161.676 68.6655 161.63 68.6757C161.584 68.6859 161.536 68.685 161.491 68.6729C161.445 68.6609 161.403 68.6382 161.368 68.6066C161.333 68.575 161.306 68.5355 161.289 68.4914C161.127 68.0453 161.141 67.195 162.563 65.8969C162.563 65.8969 163.192 65.6321 163.899 64.799C163.901 64.7996 164.52 65.0988 164.827 65.5805Z" fill="#1D3F70"/>
<path d="M161.288 68.4846L164.827 65.5805C164.904 65.6975 164.957 65.829 164.983 65.9669L161.755 68.6143C161.719 68.6444 161.675 68.6653 161.629 68.6751C161.582 68.685 161.534 68.6834 161.488 68.6707C161.442 68.658 161.4 68.6345 161.366 68.6021C161.331 68.5697 161.304 68.5294 161.288 68.4846Z" fill="#395B96"/>
<path d="M146.239 33.8081L146.529 34.5453C146.529 34.5453 146.919 38.9031 147.662 38.9025C148.979 38.9025 148.109 34.2154 148.178 33.9573C148.178 33.9573 147.938 33.4658 147.856 33.2312L146.239 33.8081Z" fill="#F99370"/>
<path d="M145.926 69.5745L150.057 69.5813C150.128 69.3613 149.926 68.3624 149.966 67.9937C149.969 67.8389 150.02 66.9898 150.036 66.835L149.756 64.5004L147.935 64.4973L148.313 67.5526C148.335 67.7283 148.295 67.906 148.2 68.0552C148.104 68.2044 147.96 68.3158 147.792 68.3703C147.029 68.6591 146.165 68.5184 145.672 69.1076C145.642 69.1532 145.625 69.2061 145.623 69.2606C145.62 69.3152 145.633 69.3693 145.659 69.4172C145.685 69.4651 145.724 69.505 145.771 69.5327C145.818 69.5604 145.871 69.5749 145.926 69.5745Z" fill="#F99370"/>
<path d="M150.183 69.1838C150.168 69.3233 150.125 69.4585 150.057 69.5813L145.886 69.5745C145.839 69.5748 145.792 69.5637 145.75 69.5424C145.708 69.521 145.672 69.4898 145.644 69.4515C145.617 69.4132 145.599 69.3689 145.592 69.3222C145.585 69.2755 145.589 69.2279 145.604 69.1832C145.763 68.7365 146.314 68.089 148.237 67.9913C148.237 67.9913 148.89 68.1866 149.966 67.9913C149.966 67.9937 150.253 68.6179 150.183 69.1838Z" fill="#1D3F70"/>
<path d="M145.606 69.1764L150.183 69.1838C150.168 69.3233 150.125 69.4585 150.057 69.5813L145.886 69.5745C145.838 69.5748 145.791 69.5634 145.749 69.5415C145.706 69.5196 145.67 69.4877 145.642 69.4486C145.615 69.4094 145.597 69.3643 145.591 69.3169C145.585 69.2695 145.59 69.2213 145.606 69.1764Z" fill="#395B96"/>
<path d="M147.379 31.5146C147.386 31.5442 147.392 31.5741 147.396 31.6043C147.349 31.5938 147.631 32.6487 147.911 33.3811C147.34 33.9586 146.525 34.1269 146.375 34.1521C146.006 33.2268 145.761 32.3342 145.692 31.7499C145.627 30.7423 147.168 30.5291 147.379 31.5146Z" fill="#E57D61"/>
<path d="M148.034 30.3454C148.243 31.0968 148.371 31.9938 148.034 32.7108C147.106 34.7732 143.101 34.0833 143.844 31.6577C144.11 31.0163 143.859 30.2127 144.028 29.6162C144.708 27.3344 147.587 28.3893 148.034 30.3454Z" fill="#F99370"/>
<path d="M145.175 32.5295L145.7 32.0854C145.839 32.4349 145.516 32.7544 145.175 32.5295Z" fill="#F9F8F3"/>
<path d="M145.167 31.146C145.044 31.0538 145.194 30.8676 145.312 30.9616C145.429 31.0556 145.283 31.2412 145.167 31.146Z" fill="#C16256"/>
<path d="M144.207 31.4071C144.084 31.3149 144.234 31.1281 144.351 31.2228C144.469 31.3174 144.324 31.5023 144.207 31.4071Z" fill="#C16256"/>
<path d="M145.178 32.5566C145.194 32.5566 145.703 32.1118 145.717 32.1056C145.722 32.1006 145.725 32.0939 145.725 32.0869C145.725 32.0799 145.722 32.0732 145.717 32.0681C145.705 32.003 145.17 32.5129 145.154 32.5093C145.15 32.5131 145.146 32.5185 145.145 32.5245C145.144 32.5305 145.144 32.5368 145.147 32.5423C145.15 32.5478 145.154 32.5522 145.16 32.5548C145.165 32.5574 145.172 32.558 145.178 32.5566Z" fill="#C16256"/>
<path d="M146.5 65.7365C146.566 66.2225 146.61 66.4885 146.61 66.4885C148.352 67.0679 150.679 67.1944 152.231 66.6028C150.955 62.1793 151.475 50.1621 152.379 48.6802C152.379 48.6802 155.549 59.3015 158.732 65.2376C158.867 65.4883 159.001 65.7298 159.136 65.962C159.136 65.962 162.757 66.0038 164.621 62.785C164.621 62.785 164.423 62.5522 164.111 62.1289C163.174 60.8608 161.205 58.2755 160.425 54.7515C158.687 46.8985 156.66 43.3241 155.176 41.9491C153.123 40.0526 148.877 42.3178 147.507 45.0394C145.593 51.0781 145.751 60.7853 146.5 65.7365Z" fill="#1D3F70"/>
<path d="M144.905 32.1965C144.971 32.1671 145.125 32.1253 145.081 32.0387C145.072 32.0307 145.061 32.0262 145.05 32.0262C145.038 32.0262 145.027 32.0307 145.019 32.0387C144.905 32.1431 144.684 32.1615 144.63 32.1148C144.611 32.0976 144.63 32.0632 144.649 32.0374C144.821 31.8212 144.821 31.0544 144.684 31.2971C144.684 31.302 144.729 31.7843 144.579 31.9846C144.424 32.2414 144.714 32.2537 144.905 32.1965Z" fill="#C16256"/>
<path d="M148.034 30.3454C148.243 31.0968 148.371 31.9938 148.034 32.7108C148.165 32.1898 147.963 31.2516 147.963 31.2516L147.644 30.9401C144.854 31.2768 144.178 29.2377 144.178 29.2377C145.106 27.3528 147.614 28.5975 148.034 30.3454Z" fill="#E57D61"/>
<path d="M144.338 28.9391C144.338 28.9391 145.03 30.9518 147.568 30.7386L148.149 29.9485C148.221 28.1048 145.833 26.5504 144.338 28.9391Z" fill="#662948"/>
<path d="M148.641 30.4966C148.848 31.3604 147.755 31.6092 147.568 30.7423C147.361 29.8748 148.453 29.626 148.641 30.4966Z" fill="#F99370"/>
<path d="M148.46 30.7767C148.544 30.5279 148.32 30.2109 148.206 30.1906C147.989 30.1384 147.738 30.3368 147.796 30.4069C147.883 30.4628 147.966 30.2226 148.178 30.2748C148.391 30.3184 148.334 30.7534 148.46 30.7767Z" fill="#C16256"/>
<path d="M148.06 30.8928C148.14 30.8511 148.032 30.5396 148.332 30.362C148.338 30.3593 148.342 30.3555 148.346 30.3508C148.35 30.3462 148.353 30.3408 148.354 30.335C148.356 30.3293 148.356 30.3232 148.356 30.3173C148.355 30.3114 148.353 30.3057 148.35 30.3006C148.055 30.2379 147.918 30.9789 148.06 30.8928Z" fill="#C16256"/>
<path d="M148.372 31.0624C148.383 31.0863 148.384 31.1135 148.375 31.1382C148.371 31.1504 148.364 31.1616 148.355 31.1712C148.346 31.1807 148.336 31.1884 148.324 31.1939C148.3 31.2049 148.273 31.2059 148.248 31.1968C148.223 31.1877 148.203 31.1692 148.192 31.1453C148.181 31.1215 148.18 31.0942 148.189 31.0696C148.199 31.0449 148.217 31.0249 148.241 31.0139C148.265 31.0029 148.292 31.0018 148.317 31.0109C148.341 31.02 148.361 31.0385 148.372 31.0624Z" fill="#F4D4BE"/>
<path d="M155.175 41.9498C153.245 43.5527 150.288 45.2514 147.506 45.0395C147.506 45.0395 147.123 44.8373 147.152 44.2678C147.213 42.9598 146.73 42.2404 146.244 41.5707C145.584 40.6614 144.92 39.8351 145.61 37.737C145.78 37.2246 146.029 36.3473 146.235 35.5934C146.348 35.1769 146.464 34.8015 146.529 34.5428C146.933 36.1562 147.29 36.679 147.569 36.4806C147.876 36.2649 148.066 35.1904 148.066 33.7208C148.244 33.6915 148.424 33.6792 148.603 33.6839C150.77 33.7374 152.759 36.2379 154.312 39.1857C154.456 39.4585 154.596 39.7386 154.732 40.0145C154.82 40.1478 154.911 40.2879 154.993 40.4322C155.117 40.6397 155.212 40.8637 155.274 41.0976C155.352 41.3837 155.317 41.689 155.175 41.9498Z" fill="#3697FD"/>
<path d="M158.732 65.2376C158.867 65.4883 159.001 65.7298 159.136 65.962C159.136 65.962 162.757 66.0038 164.621 62.785C164.621 62.785 164.423 62.5522 164.111 62.1289C164.111 62.1289 162.478 64.8451 158.732 65.2376Z" fill="#163356"/>
<path d="M145.477 30.6735C145.469 30.6776 145.459 30.6793 145.449 30.6784C145.44 30.6775 145.431 30.6742 145.423 30.6686C145.151 30.4775 144.927 30.5181 144.925 30.5187C144.911 30.5204 144.897 30.517 144.886 30.509C144.875 30.5011 144.867 30.4892 144.865 30.4758C144.862 30.4625 144.864 30.4485 144.872 30.4369C144.879 30.4252 144.89 30.4167 144.903 30.413C144.914 30.413 145.173 30.3608 145.485 30.5807C145.491 30.5848 145.496 30.5899 145.499 30.5959C145.503 30.6019 145.506 30.6085 145.507 30.6155C145.508 30.6225 145.508 30.6296 145.506 30.6365C145.505 30.6434 145.502 30.6499 145.498 30.6557C145.493 30.6632 145.486 30.6693 145.477 30.6735Z" fill="#C16256"/>
<path d="M144.047 30.9715C144.035 30.9767 144.022 30.9778 144.01 30.9745C143.998 30.9712 143.987 30.9638 143.98 30.9536C143.973 30.9433 143.969 30.9308 143.97 30.9183C143.971 30.9057 143.976 30.8939 143.985 30.8849C144.113 30.7718 144.253 30.6731 144.403 30.5906C144.409 30.5868 144.416 30.5843 144.423 30.5832C144.43 30.5821 144.437 30.5824 144.444 30.5841C144.451 30.5859 144.457 30.5889 144.463 30.5932C144.468 30.5975 144.473 30.6029 144.477 30.609C144.484 30.6212 144.486 30.6358 144.483 30.6496C144.479 30.6634 144.47 30.6753 144.458 30.6827C144.317 30.7615 144.184 30.8548 144.061 30.961C144.057 30.9654 144.052 30.9689 144.047 30.9715Z" fill="#C16256"/>
<path d="M155.254 41.7734C155.254 41.7734 151.156 44.9798 147.381 44.9399C147.381 44.9399 147.349 45.0462 147.442 45.2471C147.442 45.2471 151.186 45.6384 155.34 42.104C155.357 42.0768 155.368 42.0466 155.373 42.015C155.378 41.9834 155.376 41.9511 155.368 41.9202C155.36 41.8893 155.346 41.8603 155.326 41.8351C155.307 41.8098 155.282 41.7889 155.254 41.7734Z" fill="#0C2135"/>
<path d="M151.391 66.8381C151.678 66.7854 151.959 66.7066 152.231 66.6028C151.578 63.0357 151.455 59.9983 151.474 57.3528C151.513 52.0151 152.379 48.6802 152.379 48.6802C152.379 48.6802 151.813 48.3823 151.593 47.868C151.593 47.868 149.132 58.0974 151.391 66.8381Z" fill="#163356"/>
<path d="M146.5 65.7365C146.566 66.2225 146.61 66.4885 146.61 66.4885C148.352 67.0679 150.679 67.1944 152.231 66.6028C152.19 66.3828 152.151 66.1645 152.115 65.9479C152.115 65.9479 149.2 66.5893 146.5 65.7365Z" fill="#163356"/>
<path d="M155.274 41.0976C154.838 40.5527 153.922 39.6268 152.375 38.9995C150.061 38.0626 149.411 36.064 149.411 36.064L154.312 39.1857C154.456 39.4585 154.596 39.7386 154.732 40.0145C154.951 40.345 155.182 40.7167 155.274 41.0976Z" fill="#0C2135"/>
<path d="M151.379 34.0704C153.11 35.234 154.828 36.4505 156.328 37.909C157.437 39.0892 158.237 40.5109 158.92 41.9602C159.104 42.6065 160.076 43.7278 159.179 44.172C158.569 44.3937 158.342 43.6743 158.069 43.2836C157.675 42.6637 157.253 42.0517 156.814 41.4681C156.212 40.6805 155.557 39.8996 154.796 39.2944C154.305 38.9178 153.7 38.5037 153.181 38.1535C152.178 37.4857 151.068 36.7779 150.048 36.1341C148.691 35.2408 150.001 33.1998 151.379 34.0704Z" fill="#F99370"/>
<path d="M158.291 45.3645C158.495 45.4259 158.496 44.8275 158.618 44.6733C158.748 44.891 158.852 45.1229 158.929 45.3645C158.976 45.8246 158.997 46.286 158.999 46.7486C158.995 46.8967 159.227 46.9127 159.244 46.7634C159.299 46.3155 159.335 45.8639 159.348 45.4118H159.354C159.505 45.8722 159.623 46.3425 159.709 46.8193C160.206 47.3925 159.744 45.4253 159.717 45.2637C159.93 45.6746 160.095 46.1085 160.208 46.557C160.761 47.0773 160.135 45.1365 160.052 44.9835L160.055 44.9792C160.266 45.28 160.45 45.5992 160.603 45.9328C161.183 46.3352 160.419 44.7728 160.333 44.6364C160.283 44.4644 160.006 43.9108 159.431 43.2608C159.252 43.0575 158.577 43.3997 158.489 43.6503C158.406 43.8856 158.384 44.2248 158.372 44.347C158.311 44.5455 158.055 45.2612 158.291 45.3645Z" fill="#F99370"/>
<path d="M159.308 42.7755C159.308 42.7755 158.806 43.5582 158.192 43.4482C158.131 43.4372 157.936 43.3536 157.675 43.1945C157.145 42.8705 156.676 42.4543 156.292 41.9657C155.957 41.5357 155.586 40.9993 154.992 40.4298C154.382 39.8461 153.687 38.9362 152.405 38.363C150.596 37.5545 149.812 36.9899 149.166 35.5836C148.909 35.0239 148.128 34.6006 148.065 33.7184C148.239 33.6545 148.417 33.6029 148.598 33.5641C149.437 33.3743 151.179 33.182 153.17 34.1374C155.574 35.2899 158.991 39.4824 159.379 41.8035C159.444 42.1869 159.426 42.5174 159.308 42.7755Z" fill="#3697FD"/>
<path d="M148.546 35.8539C148.501 36.4314 148.495 36.8523 148.28 36.9672C148.003 37.1152 147.749 36.8646 147.649 36.7484C147.632 36.7288 147.615 36.7083 147.6 36.687C147.6 36.687 147.465 37.5348 146.961 37.2117C146.572 36.9659 146.368 36.174 146.233 35.5959C146.129 35.1505 146.087 34.7886 146.087 34.7886C146.347 34.5772 146.527 34.5428 146.527 34.5428C146.93 36.1562 147.288 36.679 147.566 36.4806C147.874 36.2649 148.063 35.1904 148.064 33.7208C148.238 33.6569 148.416 33.6054 148.597 33.5666C148.597 33.5666 148.597 33.6084 148.597 33.6839C148.608 34.0243 148.613 35.0429 148.546 35.8539Z" fill="#0C2135"/>
<path d="M136.779 42.4376C136.463 42.2729 136.26 42.107 136.226 41.9571C136.082 41.3225 136.405 40.7284 136.405 40.7284C136.509 40.6055 136.736 40.5035 137.036 40.4212C137.036 40.4193 136.443 41.4613 136.779 42.4376Z" fill="#0C2135"/>
<path d="M159.308 42.7755C159.308 42.7755 158.806 43.5582 158.192 43.4482C158.131 43.4372 157.936 43.3536 157.675 43.1945C157.747 43.1189 158.706 42.934 159.379 41.806C159.444 42.1869 159.426 42.5174 159.308 42.7755Z" fill="#0C2135"/>
<path d="M116.827 9.58595L64.8497 29.3305L67.1647 35.4247L119.142 15.6802L116.827 9.58595Z" fill="#3697FD"/>
<path d="M130.654 7.2781L120.612 20.1149L114.516 5L130.654 7.2781Z" fill="#3697FD"/>
<rect x="0.2" y="0.2" width="229.6" height="109.6" stroke="#A6A6A6" stroke-width="0.4"/>
</svg>
