<svg width="230" height="110" viewBox="0 0 230 110" fill="none" xmlns="http://www.w3.org/2000/svg">
<rect x="0.2" y="0.2" width="229.6" height="109.6" fill="white"/>
<path d="M192.33 88.2506C192.048 89.6973 188.247 90.1823 188.396 90.562C188.545 90.9416 194.858 90.9781 194.858 90.9781L195.239 90.158C195.307 89.6829 195.199 89.1991 194.935 88.7983C194.641 88.3691 194.814 83.8142 195.441 80.1624C194.338 80.2636 193.602 80.4246 192.492 80.4762C192.515 84.124 192.488 87.4407 192.33 88.2506Z" fill="#F7A491"/>
<path d="M194.814 88.2142C195.213 88.1129 195.321 90.2025 195.336 90.644C195.351 91.138 194.899 91.0631 194.83 91.057C194.564 91.0327 188.516 91.3253 187.314 90.7675C186.976 90.6105 186.862 90.4384 186.844 90.3696C186.669 89.7105 190.691 88.3448 191.805 88.5614C192.531 88.6991 193.017 88.6718 194.814 88.2142Z" fill="#002A24"/>
<path d="M172.42 49.9559C172.42 49.9559 172.576 47.8794 173.938 47.7478C174.112 47.7316 175.059 47.358 175.059 47.358L184.635 42.9398L188.877 40.5181C189.544 41.401 190.371 42.2585 190.381 43.3276L185.631 45.6865L175.776 48.8513L174.924 50.0905L172.42 49.9559Z" fill="#F7A491"/>
<path d="M172.888 48.659L175.586 49.0032L172.6 49.3829L172.888 48.659Z" fill="#F47458"/>
<path d="M188.23 40.6163C188.23 40.6163 190.893 38.7444 191.865 38.1936C192.837 37.6429 194.326 36.6811 195.951 36.432C197.098 36.2569 195.227 41.0122 195.227 41.0122L190.131 43.6779C190.121 42.6088 188.897 41.4992 188.23 40.6163Z" fill="url(#paint0_linear_2728_1907)"/>
<path d="M124.393 88.3893L124.657 89.5769C124.725 89.9383 124.314 90.3058 123.985 90.3534C122.656 90.5437 119.517 89.4564 120.752 88.8803C120.863 88.8287 121.721 88.3002 121.896 87.9145C122.208 87.225 124.393 80.62 124.393 80.62L127.538 82.0698L124.393 88.3893Z" fill="#F7A491"/>
<path d="M124.912 90.7887C124.912 90.7887 124.991 88.687 124.459 88.3873C124.073 88.1706 123.33 88.8115 122.72 88.7315C122.111 88.6515 121.065 88.1585 121.065 88.1585C118.659 89.0696 114.99 90.5883 115.745 90.8009C117.772 91.3729 124.912 90.7887 124.912 90.7887Z" fill="#002A24"/>
<path d="M131.569 48.4059C132.075 48.0758 139.526 43.2932 139.842 43.0006L145.518 35.1321L149.84 35.8651C149.84 35.8651 143.321 45.5215 143.041 45.9052C142.762 46.2889 134.522 49.0022 133.371 49.7301C133.371 49.7301 132.847 50.5785 132.561 50.7223C132.044 50.9835 131.052 50.7962 130.243 50.6858C130.081 50.6639 129.92 50.6276 129.764 50.5775C129.664 50.5451 129.573 50.4898 129.498 50.4161C129.423 50.3424 129.367 50.2522 129.333 50.1528C129.3 50.0534 129.29 49.9475 129.304 49.8436C129.318 49.7396 129.357 49.6404 129.416 49.554L129.95 48.7734L131.569 48.4059Z" fill="#F8A492"/>
<path d="M142.512 38.8497C142.512 38.8497 144.045 39.8682 144.62 40.1506C145.317 40.4928 147.601 41.3473 147.601 41.3473C147.601 41.3473 148.787 37.7593 149.255 36.022C149.823 33.9141 151.039 30.9943 150.773 30.9852C150.017 30.9619 148.761 31.5187 147.963 32.1373C145.043 34.4001 142.512 38.8497 142.512 38.8497Z" fill="url(#paint1_linear_2728_1907)"/>
<path d="M165.069 82.0303L168.362 83.4983C168.68 83.6876 169.523 84.0886 169.779 84.3022C170.733 85.103 165.369 87.8213 165.754 86.5295C165.788 86.4131 165.713 85.8886 165.412 85.5879C164.949 85.1253 163.435 84.3457 163.435 84.3457L165.069 82.0303Z" fill="#F7A491"/>
<path d="M147.894 49.0022C147.894 49.0022 143.711 52.1326 143.665 52.168C137.819 56.7239 129.5 65.0622 128.889 66.0837C127.396 68.5763 123.042 84.1149 123.042 84.1149L126.348 85.3723L134.1 68.7616L152.375 56.3088L147.894 49.0022Z" fill="url(#paint2_linear_2728_1907)"/>
<path d="M143.413 49.5084L152.696 53.7282L152.78 57.7373L152.469 73.6323C152.469 73.6323 157.235 75.728 158.449 76.3749C160.326 77.3732 165.632 80.9207 165.632 80.9207C165.632 80.9207 163.761 84.7486 163.745 84.774C163.745 84.774 147.091 77.3317 146.556 76.8052C145.777 76.0408 142.547 53.6958 142.547 53.6958L143.413 49.5084Z" fill="url(#paint3_linear_2728_1907)"/>
<path d="M156.853 31.8164C156.853 31.8164 158.285 32.4107 158.836 32.9766C160.403 34.5884 158.919 37.8514 158.431 39.1352C156.139 45.1935 153.805 48.4089 153.369 50.7203C152.933 53.0316 152.851 56.6713 152.851 56.6713C152.851 56.6713 144.467 55.1951 141.512 53.0336C141.512 53.0336 143.035 47.7235 143.399 46.376C143.762 45.0284 146.294 36.2083 147.713 33.9415C148.112 33.3026 148.888 31.8336 150.471 31.0763C151.179 30.7361 152.554 30.6501 153.078 30.6714C154.766 30.7513 156.853 31.8164 156.853 31.8164Z" fill="#EDFDFC"/>
<path d="M156.321 27.5673L155.888 31.4803C155.888 31.4803 153.118 33.8017 151.958 33.0799C150.984 32.4724 152.149 30.2806 152.149 30.2806C152.149 30.2806 153.301 28.3063 153.415 27.1957C153.528 26.0851 156.321 27.5673 156.321 27.5673Z" fill="#F7A491"/>
<path d="M153.415 27.1957C153.528 26.0821 156.321 27.5673 156.321 27.5673L156.285 27.8923C156.158 28.065 156.001 28.2135 155.821 28.3306C154.965 28.8591 153.811 29.0079 152.902 28.8024C153.146 28.2517 153.368 27.6513 153.415 27.1957Z" fill="#F47458"/>
<path d="M157.153 21.7793C157.241 21.7499 157.744 26.2268 156.553 27.4265C155.363 28.6263 153.093 28.9745 152.301 27.9884C151.429 26.8981 151.592 22.1033 153.426 20.8833C155.259 19.6633 157.153 21.7793 157.153 21.7793Z" fill="#F7A491"/>
<path d="M154.175 18.5132C155.176 18.7483 156.08 19.2847 156.767 20.0501C157.399 20.1382 158.25 20.5026 159.104 21.9737C160.153 23.7788 159.299 25.7297 158.003 26.6672C157.227 27.2277 156.598 27.9675 156.17 28.8237L156.283 27.5804C156.145 27.139 156.324 27.2322 156.384 26.7705C156.415 26.4901 156.491 26.2166 156.61 25.9606C156.931 25.3217 155.978 24.8702 155.721 24.3265C155.518 23.9084 155.537 22.9618 155.225 22.2693L154.846 21.7388C154.846 21.7388 153.96 21.0301 153.072 21.2002C152.185 21.3703 152.394 18.1123 154.175 18.5132Z" fill="#473B1E"/>
<path d="M155.765 25.1192C155.742 25.6629 155.983 26.1145 156.302 26.1317C156.621 26.1489 156.899 25.7146 156.922 25.1699C156.944 24.6252 156.703 24.1747 156.384 24.1575C156.065 24.1402 155.787 24.5746 155.765 25.1192Z" fill="#F7A491"/>
<path d="M164.576 89.5222C164.815 88.8135 165.276 87.6745 165.75 86.5072C165.75 86.5072 166.887 85.7661 167.393 85.3227C167.899 84.8793 167.555 83.6016 168.001 83.3454C168.522 83.0417 170.194 84.3579 170.166 84.4156C168.172 88.9097 166.773 90.1965 166.088 90.7462C165.792 90.9851 164.388 90.8839 163.646 90.8556C163.568 90.8514 163.492 90.8244 163.428 90.7779C163.365 90.7314 163.316 90.6674 163.288 90.5937C163.261 90.52 163.255 90.4398 163.272 90.363C163.289 90.2862 163.329 90.216 163.385 90.161C163.697 89.8735 164.185 89.6811 164.576 89.5222Z" fill="#002A24"/>
<path d="M164.786 50.0814H135.15C134.983 50.0748 134.826 50.004 134.71 49.8839C134.595 49.7638 134.53 49.6036 134.53 49.437C134.53 49.2704 134.595 49.1103 134.71 48.9901C134.826 48.87 134.983 48.7992 135.15 48.7926H164.786C164.873 48.7892 164.96 48.8033 165.041 48.8341C165.122 48.865 165.196 48.9119 165.259 48.9721C165.321 49.0322 165.371 49.1044 165.405 49.1843C165.439 49.2642 165.457 49.3502 165.457 49.437C165.457 49.5239 165.439 49.6098 165.405 49.6897C165.371 49.7696 165.321 49.8418 165.259 49.902C165.196 49.9622 165.122 50.0091 165.041 50.0399C164.96 50.0707 164.873 50.0849 164.786 50.0814Z" fill="#184655"/>
<path d="M77.0662 48.4241C77.0784 48.5253 75.8817 49.0639 75.8513 48.8928C75.821 48.7217 75.827 48.4585 76.0204 48.4008C76.114 48.3843 76.1991 48.336 76.2614 48.2641C76.2614 48.2641 75.4059 48.3451 75.1163 48.1852C74.9493 48.0906 74.7639 48.0329 74.5727 48.0161L73.1715 47.1586C73.1715 47.1586 73.7354 46.8549 74.1616 46.8549C74.4815 46.8549 75.6397 47.1586 75.8534 47.2598C76.1255 47.4082 76.387 47.5753 76.636 47.76C76.8544 47.9226 77.0071 48.1583 77.0662 48.4241Z" fill="#F8A492"/>
<path d="M223.577 80.9136H223.549C223.402 80.9075 219.937 80.7324 218.223 78.5223C217.359 77.4086 217.098 76.0044 217.446 74.3481C217.864 72.3607 219.214 70.5222 220.52 68.7433C223.057 65.2869 225.453 62.0219 221.912 57.5055C219.033 53.8335 214.332 52.0101 210.896 51.1273C208.646 50.5452 206.342 50.1941 204.02 50.0794H119.206C119.04 50.0728 118.882 50.002 118.767 49.8819C118.651 49.7618 118.587 49.6016 118.587 49.435C118.587 49.2684 118.651 49.1082 118.767 48.9881C118.882 48.868 119.04 48.7972 119.206 48.7906H204.058C206.476 48.9046 208.876 49.269 211.219 49.8779C213.516 50.4692 215.599 51.2589 217.41 52.2257C219.695 53.4406 221.551 54.9542 222.928 56.7087C227.072 61.9925 224.143 65.9825 221.561 69.5026C220.279 71.2481 219.07 72.8963 218.709 74.6103C218.441 75.8799 218.621 76.9297 219.242 77.7306C220.595 79.4729 223.577 79.6228 223.607 79.6238C223.777 79.6274 223.94 79.6987 224.058 79.822C224.176 79.9454 224.241 80.1106 224.237 80.2814C224.233 80.4521 224.162 80.6145 224.039 80.7327C223.915 80.8508 223.75 80.9152 223.579 80.9116L223.577 80.9136Z" fill="url(#paint4_linear_2728_1907)"/>
<path d="M6.80849 66.7711C6.42579 66.7711 6.02386 66.756 5.59966 66.7225C5.51476 66.7167 5.43187 66.6941 5.35577 66.656C5.27967 66.6179 5.21187 66.5651 5.15629 66.5007C5.10071 66.4362 5.05846 66.3614 5.03198 66.2806C5.00549 66.1997 4.9953 66.1144 5.00199 66.0295C5.00868 65.9447 5.03212 65.862 5.07096 65.7863C5.10979 65.7106 5.16325 65.6433 5.22824 65.5884C5.29323 65.5335 5.36846 65.492 5.44959 65.4663C5.53072 65.4406 5.61614 65.4313 5.7009 65.4388C10.763 65.8276 12.0791 63.8331 13.8812 59.1891C15.5183 54.9582 12.5185 44.6528 12.4882 44.5496C12.4456 44.4045 12.4553 44.2492 12.5156 44.1106C12.5759 43.972 12.683 43.859 12.8182 43.7913L27.0022 36.7023C27.0997 36.6537 27.2079 36.6305 27.3167 36.6349C27.4256 36.6394 27.5316 36.6712 27.6248 36.7276L46.2027 48.0009L62.4206 48.335L87.7918 48.576H87.806L93.3813 48.6944C93.5521 48.6962 93.7152 48.7657 93.8347 48.8877C93.9542 49.0096 94.0204 49.1741 94.0187 49.3449C94.0169 49.5157 93.9474 49.6787 93.8254 49.7983C93.7034 49.9178 93.5389 49.984 93.3682 49.9822H93.354L87.7857 49.8638L62.4095 49.6228H62.4014L46.0083 49.2847C45.895 49.2824 45.7842 49.2503 45.6874 49.1915L27.2614 38.0124L13.8691 44.7085C14.4765 46.9358 16.6694 55.5505 15.084 59.6579C13.4327 63.9131 11.9192 66.7711 6.80849 66.7711Z" fill="url(#paint5_linear_2728_1907)"/>
<path d="M197.819 34.3039C197.974 33.6124 198.09 33.0323 198.09 33.0323L200.271 34.5762C200.271 34.5762 200.108 34.9974 199.922 35.536C198.84 35.5573 198.154 35.0328 197.819 34.3039Z" fill="#F47458"/>
<path d="M47.2353 24.7163C47.0809 24.709 46.932 24.6561 46.8075 24.5644C46.683 24.4726 46.5884 24.3461 46.5357 24.2007C46.4829 24.0553 46.4744 23.8975 46.5112 23.7473C46.548 23.5971 46.6284 23.4611 46.7423 23.3565C46.8562 23.2518 46.9985 23.1833 47.1513 23.1594C47.3041 23.1355 47.4606 23.1573 47.601 23.2222C47.7414 23.2871 47.8594 23.392 47.9403 23.5239C48.0212 23.6557 48.0612 23.8085 48.0554 23.9631C48.0511 24.0664 48.0265 24.1679 47.9829 24.2617C47.9394 24.3555 47.8777 24.4398 47.8016 24.5097C47.7254 24.5797 47.6362 24.634 47.539 24.6694C47.4419 24.7049 47.3387 24.7208 47.2353 24.7163Z" fill="#07345A"/>
<path d="M53.4668 49.4365C51.7507 49.1966 42.9731 48.3087 42.6096 47.599C42.1965 46.789 43.9561 38.3323 43.9855 38.392L48.1951 40.3754C48.1951 40.3754 46.4497 44.9849 46.8182 45.4719C46.963 45.6663 53.6622 47.2527 54.5369 47.5646C54.5369 47.5646 56.3309 47.1181 56.8918 47.3418C57.4527 47.5656 57.3727 47.93 57.3727 47.93L56.8665 47.9533C56.8006 47.9534 56.7358 47.9702 56.6782 48.0021C56.6206 48.0341 56.572 48.0802 56.5371 48.136C56.5022 48.1919 56.482 48.2557 56.4786 48.3215C56.4751 48.3873 56.4884 48.4529 56.5172 48.5122C56.7096 48.8888 57.1479 49.3221 58.1371 49.2796C58.1371 49.2796 57.8111 49.9144 57.5397 49.965C57.2684 50.0156 57.3767 50.0662 57.068 50.1887C56.7592 50.3112 56.09 50.3082 56.09 50.3082C56.09 50.3082 55.5098 50.5107 55.275 50.5309C55.0401 50.5512 53.7169 49.5712 53.7169 49.5712L53.4668 49.4365Z" fill="#F8A492"/>
<path d="M42.971 40.6427C43.7075 41.246 44.5093 41.7649 45.3614 42.1896C46.3363 42.6655 47.7183 42.8821 47.7183 42.8821C47.7183 42.8821 49.5568 39.693 50.4366 38.2685C51.5381 36.4847 46.9002 31.8903 46.8769 31.9024C44.7377 33.006 42.971 40.6427 42.971 40.6427Z" fill="url(#paint6_linear_2728_1907)"/>
<path d="M51.2941 81.5292C51.2941 81.5292 49.898 85.7469 49.1751 88.282C48.92 89.1759 48.7489 89.8614 48.7519 90.077C48.7702 91.2686 54.6057 89.1274 53.4091 88.6171C53.1337 88.5007 52.2671 88.0613 52.2002 88.0036C51.8449 87.6998 53.7654 83.2128 53.7654 83.2128L51.2941 81.5292Z" fill="#F7A491"/>
<path d="M55.8358 89.1608L52.3622 88.0471C52.3622 88.0471 51.1666 88.691 49.1741 88.286C48.8113 88.8037 48.5767 89.4002 48.4897 90.0264C48.4543 90.3109 48.6102 90.8697 48.8947 90.9112C49.655 91.0226 51.2982 90.9264 53.2633 90.972C53.2633 90.972 55.279 91.1856 57.0619 90.5974C58.8448 90.0092 55.8358 89.1608 55.8358 89.1608Z" fill="#002A24"/>
<path d="M79.6813 81.5595C79.6813 81.5595 84.3384 87.2544 84.3556 88.0826C84.3749 89.2742 89.8845 88.9472 88.6878 88.4369C88.4124 88.3195 87.5458 87.8811 87.4789 87.8234C87.1226 87.5196 83.4505 80.3315 83.4505 80.3315L79.6813 81.5595Z" fill="#F7A491"/>
<path d="M91.1156 88.9806L87.5721 87.878C87.5721 87.878 86.3481 88.5017 84.3567 88.0967C84.0183 88.6868 83.8111 89.3429 83.7492 90.0203C83.734 90.2086 83.6409 90.7675 83.8282 90.7968C84.5055 90.8981 86.3815 90.8566 88.4964 90.9052C88.4964 90.9052 91.3464 90.9386 93.1283 90.3504C94.9101 89.7621 91.1156 88.9806 91.1156 88.9806Z" fill="#002A24"/>
<path d="M53.9294 52.245L53.1691 55.1071L53.4344 56.3756C53.4344 56.3756 56.3704 68.23 56.1679 69.0511C55.9148 70.101 49.5092 85.1485 49.5092 85.1485C49.5092 85.1485 50.0053 85.8704 51.2941 86.0597C51.9486 86.1622 52.6137 86.1785 53.2724 86.1083C53.2724 86.1083 62.211 71.5123 62.5735 69.9198C62.8073 68.8922 61.9093 51.1657 61.9093 51.1657L53.9294 52.245Z" fill="#473B1E"/>
<path d="M62.6717 49.1318C62.6717 49.1318 75.8331 64.1662 76.6744 65.3305C77.1948 66.0523 85.7356 84.3821 85.7356 84.3821C84.8598 84.9501 83.1225 85.7611 82.0079 86.0466C79.8139 83.2573 74.1667 74.6953 73.7668 73.7507C73.2919 72.627 72.6804 70.9889 72.0841 70.2073C71.4878 69.4257 53.4101 56.3432 53.4101 56.3432L53.1651 55.105L53.7482 50.5492L62.6717 49.1318Z" fill="#473B1E"/>
<path d="M50.6472 19.4811C50.6472 19.4811 49.0304 18.3877 48.347 20.3012C48.347 20.3012 47.4358 20.0237 47.043 20.9623C47.043 20.9623 45.4768 20.8448 45.6054 23.1187C45.6054 23.1187 44.8187 23.143 44.9169 24.0633C44.9699 24.6026 45.2136 25.1052 45.6043 25.4807C45.6043 25.4807 45.25 25.8927 45.6246 26.6753C45.9435 27.3415 46.5489 27.3202 46.5489 27.3202C46.5489 27.3202 46.9671 28.4683 47.5613 28.7113C48.1556 28.9543 48.8137 28.6293 48.8137 28.6293C48.8137 28.6293 49.1407 29.2297 49.7249 29.0403C50.309 28.851 50.9266 28.117 51.6535 28.2304C52.3805 28.3438 54.059 27.6837 54.059 27.6837C54.059 27.6837 55.8207 26.3827 54.7951 24.5158C54.7951 24.5158 55.6172 23.3627 54.4731 22.4495C54.4731 22.4495 54.7444 20.5654 53.2208 19.8253C51.6971 19.0852 50.6472 19.4811 50.6472 19.4811Z" fill="#473B1E"/>
<path d="M52.589 28.9492L53.2552 30.7655C53.2552 30.7655 54.4164 33.3391 53.8039 34.0194C53.1914 34.6998 49.9831 31.4084 49.9831 31.4084L49.1853 26.6075L52.589 28.9492Z" fill="#F7A491"/>
<path d="M49.4505 28.1636C50.4093 29.6488 52.0605 30.3281 53.161 30.4922L52.589 28.9492L49.1883 26.6075L49.4505 28.1636Z" fill="#F47458"/>
<path d="M46.801 21.0716C46.8921 21.4867 47.4672 21.7135 48.0838 21.5778C48.7003 21.4421 49.1266 20.9947 49.0344 20.5796C48.9423 20.1645 48.3682 19.9377 47.7517 20.0734C47.1351 20.209 46.7089 20.6565 46.801 21.0716Z" fill="#473B1E"/>
<path d="M49.8423 21.677C50.1437 21.4951 50.4813 21.3813 50.8314 21.3438C51.1814 21.3063 51.5355 21.3459 51.8686 21.4598C52.2017 21.5738 52.5058 21.7594 52.7595 22.0034C53.0133 22.2475 53.2104 22.5442 53.3372 22.8727C53.614 23.5963 53.8443 24.3369 54.0267 25.0899C54.5187 27.139 53.896 29.3765 52.9616 29.583C52.0271 29.7895 49.1518 29.0272 48.4138 26.1276C47.9572 24.3377 48.4958 22.5001 49.8423 21.677Z" fill="#F7A491"/>
<path d="M49.1529 26.2066C49.2541 26.6601 49.0334 27.0945 48.6618 27.1765C48.2903 27.2585 47.9096 26.9568 47.8094 26.5032C47.7092 26.0497 47.9289 25.6153 48.2994 25.5333C48.6699 25.4513 49.0526 25.753 49.1529 26.2066Z" fill="#F7A491"/>
<path d="M50.4984 24.689C49.6803 25.6477 48.4735 25.9504 47.8155 25.3653C47.1574 24.7801 47.2779 23.5277 48.0959 22.568C48.9139 21.6082 50.1157 21.3065 50.7788 21.8927C51.4419 22.4789 51.3174 23.7302 50.4984 24.689Z" fill="#473B1E"/>
<path d="M49.4181 22.9132C48.9484 22.5538 49.001 21.6983 49.5366 20.9947C50.0721 20.291 50.8871 20.0197 51.3589 20.3791C51.8307 20.7385 51.776 21.594 51.2405 22.2966C50.7049 22.9992 49.8879 23.2726 49.4181 22.9132Z" fill="#473B1E"/>
<path d="M46.6866 32.0229C45.0667 33.5952 46.6006 36.7813 47.1017 38.0326C49.4647 43.9462 52.4878 47.1302 52.9363 49.3869C53.3848 51.6436 52.8553 55.1486 52.8553 55.1486C52.8553 55.1486 61.8435 53.6826 64.8899 51.5717C64.8899 51.5717 62.9754 46.4155 62.6008 45.1003C62.2262 43.7852 59.6142 35.1786 58.1522 32.9635C57.7412 32.3408 56.9373 30.9072 55.3084 30.1672C55.1675 30.0925 55.0147 30.0428 54.8568 30.0204C53.975 29.9444 47.2546 31.4701 46.6866 32.0229Z" fill="url(#paint7_linear_2728_1907)"/>
<path d="M74.8966 47.8045C74.4026 47.5008 67.0555 43.035 66.7436 42.7627L61.15 35.4226L56.8908 36.106C56.8908 36.106 63.3156 45.1165 63.591 45.4719C63.8663 45.8272 70.8166 48.0151 71.9515 48.6934C71.9515 48.6934 73.3011 49.9822 73.4701 50.1553C73.948 50.6332 75.3704 50.3214 76.1733 50.2697C76.7807 50.2303 77.5137 49.7382 77.5137 49.7382C77.5137 49.7382 76.6866 49.4477 76.4355 49.1014L76.2047 48.1902L74.8966 47.8045Z" fill="#F8A492"/>
<path d="M63.5231 37.7542C63.5231 37.7542 61.9417 38.7484 61.3495 39.0238C60.6296 39.3579 58.2747 40.1921 58.2747 40.1921C58.2747 40.1921 56.6215 36.8198 55.8925 35.2151C55.0067 33.2611 54.6017 30.0305 54.8801 30.0214C55.6597 29.9981 57.0842 30.5995 57.9062 31.2029C60.9081 33.412 63.5231 37.7542 63.5231 37.7542Z" fill="url(#paint8_linear_2728_1907)"/>
<path d="M177.673 87.1268C176.883 88.3701 173.167 87.4305 173.167 87.8355C173.167 88.2405 179.03 90.5852 179.03 90.5852L179.681 89.9586C179.919 89.5418 179.996 89.0525 179.899 88.5827C179.781 88.0765 181.934 84.0612 183.855 80.8883C182.789 80.5846 181.72 80.2971 180.668 79.9397C179.355 83.3535 178.117 86.4303 177.673 87.1268Z" fill="#F7A491"/>
<path d="M190.852 52.5122L190.087 58.0805L184.123 69.8651L178.506 84.3538L181.189 85.9585C181.189 85.9585 185.961 78.8169 188.893 72.303C189.373 71.2369 196.63 60.7948 196.63 60.7948L190.852 52.5122Z" fill="#473B1E"/>
<path d="M190.852 52.5122L192.371 60.2208C192.371 60.2208 190.561 71.1863 190.561 72.2686C190.561 73.4511 192.08 86.1296 192.08 86.1296L195.156 86.3463C195.156 86.3463 195.763 79.9488 195.864 75.9244C195.9 74.5718 195.72 73.5118 195.841 71.9436C195.924 70.8603 201.342 61.5207 200.039 57.3648C199.356 55.185 198.52 53.1126 198.52 53.1126L197.567 51.9706L190.852 52.5122Z" fill="#847D3D"/>
<path d="M203.464 34.9883C205.721 34.2178 206.825 30.5954 205.414 28.7781C204.563 27.6847 203.762 27.0277 201.914 26.8545C200.472 26.7199 199.193 27.2372 198.405 28.44C197.432 29.9272 197.679 31.5319 197.933 33.1275C197.989 33.4879 198.228 34.2351 198.551 35.127C200.235 35.6545 201.707 35.4459 203.464 34.9883Z" fill="#002A24"/>
<path d="M197.264 36.3662C197.006 36.4057 196.049 36.4269 196.031 36.429C196.014 36.431 193.748 38.4174 192.272 40.1192C191.26 41.3939 191.607 44.0403 191.522 44.911C191.251 47.6678 190.589 52.9486 190.625 52.983C191.562 53.8588 198.291 53.6917 198.816 53.1673C198.835 53.147 198.86 51.0048 199.393 48.9334C200.032 46.4458 202.038 42.4195 202.19 42.2514L203.101 37.5285C202.402 37.169 198.411 36.1961 197.264 36.3662Z" fill="url(#paint9_linear_2728_1907)"/>
<path d="M200.271 34.5762C200.271 34.5762 199.472 36.6315 199.401 37.4869C199.33 38.3424 197.905 39.7538 196.125 39.4389C194.344 39.124 196.95 37.1589 197.268 36.3652C197.585 35.5715 198.09 33.0313 198.09 33.0313L200.271 34.5762Z" fill="#F7A491"/>
<path d="M197.734 34.6775C198.152 34.964 198.712 35.1118 199.426 35.0389C199.675 35.0139 199.921 34.9605 200.158 34.88C200.227 34.6937 200.271 34.5762 200.271 34.5762L198.09 33.0313C198.09 33.0313 197.931 33.8331 197.734 34.6775Z" fill="#F47458"/>
<path d="M202.214 28.8581C202.744 29.3386 203.085 29.9924 203.175 30.7017C203.31 31.868 202.408 34.6502 199.909 34.9043C197.41 35.1584 196.793 32.7154 197.603 31.0389C198.413 29.3623 199.885 27.3213 202.214 28.8581Z" fill="#F7A491"/>
<path d="M197.431 30.3008C197.391 30.7837 197.586 31.1938 197.868 31.212C198.149 31.2302 198.409 30.8637 198.449 30.3808C198.49 29.8979 198.293 29.4878 198.012 29.4696C197.73 29.4514 197.471 29.8179 197.431 30.3008Z" fill="#F7A491"/>
<path d="M202.196 28.6627C202.196 28.6627 202.047 31.9227 202.971 32.684C203.894 33.4454 203.206 34.7787 203.206 34.7787C203.206 34.7787 204.736 31.6716 204.118 30.4719C203.499 29.2722 202.196 28.6627 202.196 28.6627Z" fill="#002A24"/>
<path d="M202.278 33.0293C201.924 33.3927 201.836 33.8817 202.082 34.1217C202.328 34.3616 202.814 34.2604 203.168 33.8969C203.522 33.5335 203.61 33.0445 203.37 32.8045C203.13 32.5646 202.629 32.6658 202.278 33.0293Z" fill="#F7A491"/>
<path d="M204.233 28.7781C204.233 28.7781 205.825 26.161 207.517 26.5721C209.21 26.9831 209.417 29.1375 210.802 28.7781C212.187 28.4187 212.701 26.726 214.907 26.7776C217.113 26.8292 216.96 29.2914 218.397 29.7531C219.833 30.2148 219.474 31.1907 218.397 33.499C217.32 35.8074 210.34 36.7833 209.467 34.9357C208.595 33.088 208.544 32.678 207.467 33.0364C206.389 33.3948 206.286 29.8037 205.465 29.7521C204.644 29.7004 204.233 28.7781 204.233 28.7781Z" fill="#002A24"/>
<path d="M174.889 50.2272C174.889 50.2272 174.811 49.0032 174.512 48.9394C174.365 48.908 174.359 49.962 174.278 50.0065C174.086 50.1077 174.525 48.7916 174.223 48.6732C173.921 48.5547 173.834 49.9974 173.77 49.9984C173.707 49.9994 173.747 48.8402 173.457 48.6823C173.166 48.5243 173.28 49.642 173.199 49.7656C173.118 49.8891 172.957 48.5871 172.762 48.7369C172.567 48.8868 172.615 49.8 172.615 49.8C172.635 49.9361 172.672 50.0694 172.724 50.1968C172.772 50.2981 173.034 50.454 173.305 50.5714C173.575 50.6889 174.678 50.5117 174.889 50.2272Z" fill="#F7A491"/>
<path d="M178.065 49.0032L177.113 48.7946C177.113 48.7946 178.212 47.8997 179.422 47.929C179.954 47.9737 180.49 47.8832 180.978 47.6658C183.737 46.462 188.994 44.419 190.056 43.9543C190.556 43.7356 193.065 42.1481 194.771 40.995C195.42 42.4225 196.17 43.5918 195.975 45.1074C194.243 45.5428 190.784 47.2315 190.784 47.2315C190.784 47.2315 182.28 49.0943 181.866 49.3697C180.678 50.1493 180.632 50.4287 180.252 50.6929C179.872 50.9572 177.012 50.7162 176.743 50.0753C176.742 50.0662 178.635 49.3849 178.065 49.0032Z" fill="#F7A491"/>
<path d="M203.945 38.5915C204.179 39.4784 203.789 40.5333 203.338 41.2673C202.635 42.4012 201.296 43.0471 200.084 43.6151C198.529 44.3641 196.92 44.993 195.269 45.4962C194.792 44.1294 194.358 42.9915 193.633 41.6034C193.633 41.5974 198.949 38.2493 199.596 37.9446C201.358 37.1073 203.439 36.7023 203.945 38.5915Z" fill="url(#paint10_linear_2728_1907)"/>
<path d="M18.9666 44.7328L18.1223 45.9629L19.16 48.7369L21.8378 45.2147L18.9666 44.7328Z" fill="#F7A491"/>
<path d="M18.4361 45.1429C18.4361 45.1429 19.5498 43.4774 20.1248 42.2959C20.6138 41.2967 21.0998 40.1395 22.4979 39.2739C23.483 38.6664 23.6258 43.771 23.6258 43.771L21.5726 47.5352C21.1443 46.5511 19.3959 45.6926 18.4361 45.1429Z" fill="url(#paint11_linear_2728_1907)"/>
<path d="M17.8773 42.1957L18.261 41.4931C18.261 41.4931 16.7282 41.3402 16.3799 41.3311C15.818 41.3159 16.5247 42.8497 16.5247 42.8497L16.0721 43.5007C16.0721 43.5007 16.307 49.1824 17.7932 50.3042C19.2795 51.4259 19.9193 50.5816 20.3243 49.6775C20.6887 48.8351 18.2913 45.8424 17.8773 42.1957Z" fill="#F48C7F"/>
<path d="M38.8819 22.1529C38.0102 18.0273 31.8253 18.7825 30.9567 21.9352C30.088 25.0879 29.9797 24.3235 24.4438 25.7348C18.9079 27.1461 19.078 32.2477 19.078 32.2477L19.7664 33.6833L25.0512 35.5401C25.0512 35.5401 36.9826 35.6838 37.2114 28.7366C37.3015 25.9201 39.7505 26.2744 38.8819 22.1529Z" fill="url(#paint12_linear_2728_1907)"/>
<path d="M18.7905 74.2914L20.6978 87.7626L20.8831 88.4713L16.0984 88.8763C16.0984 88.8763 18.022 87.71 18.0028 87.4984C17.8438 85.7439 14.4452 73.4005 14.4452 73.4005L18.7905 74.2914Z" fill="#F7A491"/>
<path d="M26.8604 35.3264C28.3497 33.4636 27.3322 29.8159 25.1646 29.0434C23.8596 28.5777 22.83 28.4552 21.1798 29.3046C19.8879 29.9667 19.0922 31.0905 19.078 32.5291C19.0567 34.3059 20.1279 35.5259 21.2041 36.7337C21.446 37.0071 22.4716 37.0607 24.0874 36.8916C25.7842 36.43 25.6263 36.6578 26.8604 35.3264Z" fill="url(#paint13_linear_2728_1907)"/>
<path d="M26.9576 55.8806L33.8097 62.114C33.8097 62.114 29.9918 64.8668 28.5623 65.8883C27.1328 66.9098 19.6854 73.3114 19.5214 73.5705C19.402 73.7629 19.8089 80.1513 20.2018 83.7514C19.3777 84.3832 17.5189 84.5036 16.4224 84.5209C15.169 79.7007 13.9845 72.1795 13.9845 71.3463C13.9845 69.616 26.9576 55.8806 26.9576 55.8806Z" fill="url(#paint14_linear_2728_1907)"/>
<path d="M44.2497 86.1326C44.0179 85.8765 40.8834 84.1179 39.1957 83.4315C39.8032 82.5385 40.5119 82.0141 40.9361 81.0017C42.071 81.8501 44.8177 83.5246 45.4808 83.6785C47.0521 84.043 47.2728 84.4105 47.2728 84.4105C47.2728 84.4105 45.2814 89.6518 44.765 89.9909C44.2487 90.3301 45.1812 87.1602 44.2497 86.1326Z" fill="#F7A491"/>
<path d="M45.1315 83.6066C45.1457 83.1946 46.9903 83.7079 47.4156 83.8203C47.8934 83.9448 48.1931 84.3609 48.2073 84.4277C48.2468 84.617 45.8686 90.3119 45.1153 91.2817C45.0436 91.36 44.9615 91.4282 44.8713 91.4842C43.8326 91.9904 43.8184 87.1217 44.2892 86.4384C44.7083 85.8309 45.0678 85.4594 45.1315 83.6066Z" fill="#473B1E"/>
<path d="M43.0935 81.3024C39.955 78.2975 36.0805 75.9639 35.6017 75.5397C35.6796 74.3784 35.9155 63.1234 35.5196 60.2016C34.9294 55.839 32.3639 55.3693 32.1868 52.8879C32.1868 52.8666 32.1665 52.6024 32.1939 52.5953L25.2234 54.0359C25.2234 54.0359 26.0495 56.5731 26.418 57.79C26.4119 57.79 28.7628 76.3618 29.8744 77.7164C30.2976 78.1781 35.384 81.4542 41.1446 84.532C41.4761 84.2609 41.7705 83.9474 42.0204 83.5996C42.642 82.7056 43.2565 81.4573 43.0935 81.3024Z" fill="url(#paint15_linear_2728_1907)"/>
<path d="M22.3795 39.8216C22.1831 39.9927 21.7174 40.4624 21.3822 40.5303C21.3752 40.5303 20.5905 42.9783 19.9082 45.726C19.8069 45.9285 21.7386 49.3373 22.1355 50.1179C23.3909 52.5872 25.8298 56.8504 25.8814 56.8596C27.1409 57.0944 32.5634 53.877 32.7254 53.1541C32.7315 53.1278 31.6006 51.3075 30.9354 49.2745C30.1366 46.8336 28.9572 39.6059 28.9936 39.3802L27.9235 37.6641C27.1389 37.737 23.2502 39.0613 22.3795 39.8216Z" fill="url(#paint16_linear_2728_1907)"/>
<path d="M23.9497 36.7023C23.9497 36.7023 24.38 38.8648 24.7809 39.6231C25.1819 40.3815 24.7394 42.3395 23.0689 43.032C21.3984 43.7245 22.5384 40.6649 22.3795 39.8256C22.2205 38.9863 21.278 36.5727 21.278 36.5727L23.9497 36.7023Z" fill="#F7A491"/>
<path d="M21.7356 37.7866C21.4936 37.1194 21.278 36.5717 21.278 36.5717L23.9497 36.7023C23.9497 36.7023 24.0378 37.1437 24.1715 37.6985C23.2694 38.2938 22.4088 38.2209 21.7356 37.7866Z" fill="#F47458"/>
<path d="M22.5101 30.8303C23.215 30.9504 23.854 31.318 24.3122 31.867C25.0533 32.7782 25.7883 35.6079 23.8191 37.168C21.85 38.7282 20.0145 36.998 19.7958 35.1493C19.5771 33.3006 19.7198 30.7888 22.5101 30.8303Z" fill="#F7A491"/>
<path d="M19.2541 34.6208C19.4799 35.049 19.8616 35.289 20.1147 35.1574C20.3678 35.0258 20.383 34.5722 20.1572 34.145C19.9314 33.7177 19.5498 33.4757 19.2967 33.6074C19.0436 33.739 19.0274 34.1925 19.2541 34.6208Z" fill="#F7A491"/>
<path d="M20.6685 87.7586C21.0623 87.6371 21.3336 89.7105 21.3691 90.1479C21.4086 90.6409 20.9297 90.7553 20.8679 90.7887C20.7059 90.89 14.6547 90.9912 13.2748 90.8252C13.1513 90.81 12.8202 90.652 12.799 90.5832C12.5894 89.9342 16.4811 87.7849 17.612 87.9449C18.347 88.0481 18.8978 88.3073 20.6685 87.7586Z" fill="#473B1E"/>
<path d="M22.1932 30.8019C22.1932 30.8019 23.8212 33.6296 25.0087 33.7754C26.1963 33.9212 26.334 35.4135 26.334 35.4135C26.334 35.4135 25.9533 31.9713 24.783 31.294C23.6126 30.6167 22.1932 30.8019 22.1932 30.8019Z" fill="url(#paint17_linear_2728_1907)"/>
<path d="M24.6108 34.4386C24.5096 34.9357 24.6969 35.3953 25.033 35.4651C25.3691 35.535 25.7255 35.1888 25.8278 34.6917C25.93 34.1946 25.7427 33.7349 25.4066 33.6651C25.0705 33.5952 24.7141 33.9415 24.6108 34.4386Z" fill="#F7A491"/>
<path d="M6.80849 66.7711C6.42579 66.7711 6.02386 66.756 5.59966 66.7225C5.51476 66.7167 5.43187 66.6941 5.35577 66.656C5.27967 66.6179 5.21187 66.5651 5.15629 66.5007C5.10071 66.4362 5.05846 66.3614 5.03198 66.2806C5.00549 66.1997 4.9953 66.1144 5.00199 66.0295C5.00868 65.9447 5.03212 65.862 5.07096 65.7863C5.10979 65.7106 5.16325 65.6433 5.22824 65.5884C5.29323 65.5335 5.36846 65.492 5.44959 65.4663C5.53072 65.4406 5.61614 65.4313 5.7009 65.4388C10.763 65.8286 12.0791 63.8331 13.8812 59.1891C15.5183 54.9582 12.5185 44.6528 12.4882 44.5496L12.3363 44.0322L27.0022 36.7023C27.1548 36.6254 27.3318 36.6123 27.4941 36.6658C27.6564 36.7193 27.7909 36.8352 27.8678 36.9878C27.9447 37.1405 27.9579 37.3174 27.9043 37.4798C27.8508 37.6421 27.7349 37.7765 27.5823 37.8534L13.8691 44.7085C14.4765 46.9358 16.6694 55.5505 15.084 59.6579C13.4327 63.9131 11.9192 66.7711 6.80849 66.7711Z" fill="url(#paint18_linear_2728_1907)"/>
<path d="M180.032 88.0167C180.437 88.0684 179.747 90.0365 179.598 90.4465C179.432 90.9112 178.95 90.815 178.878 90.8231C178.69 90.8444 173.038 88.2658 172.106 87.3253C172.021 87.2161 171.972 87.0829 171.967 86.9446C172.044 86.2683 176.11 86.6044 177.075 87.2169C177.698 87.6168 178.194 87.7859 180.032 88.0167Z" fill="#002A24"/>
<path d="M22.4655 43.7437C21.686 45.2421 19.811 47.4583 19.0031 48.4595C17.7092 47.1353 16.2351 46.6888 15.2055 45.6956C14.6284 45.1378 14.9655 44.3795 14.8653 44.1294L14.2579 44.26C13.5117 44.3886 13.3973 43.5108 13.3973 43.5108C11.9131 43.4147 11.4737 45.3555 11.8493 45.6005C12.2249 45.8455 12.3444 45.7331 13.4935 46.5177C13.8984 46.7951 18.343 52.5011 19.404 52.5851C19.9811 52.6317 23.5458 48.9496 24.3982 47.0725C23.8444 45.646 23.7169 44.6883 22.4655 43.7437Z" fill="#F7A491"/>
<path d="M28.3214 37.9577C28.9501 38.6259 29.109 39.7386 29.0594 40.6011C28.9825 41.9335 28.1128 43.1393 27.317 44.2165C26.3078 45.6161 25.1925 46.9361 23.9811 48.1649C22.911 47.19 21.9897 46.3942 20.6867 45.5225C20.6867 45.5225 23.7624 40.0393 24.1856 39.4632C25.3448 37.8848 26.985 36.5363 28.3214 37.9577Z" fill="url(#paint19_linear_2728_1907)"/>
<path d="M17.8995 41.2582C17.8995 41.2582 17.7163 42.9003 17.3022 42.9054C17.0997 42.9054 17.3589 41.6713 17.287 41.649C17.0936 41.5872 17.2273 42.8295 16.9408 42.9226C16.6543 43.0158 16.793 41.8009 16.7383 41.7968C16.6836 41.7928 16.6654 42.9165 16.388 43.0451C16.1106 43.1737 16.2716 42.2635 16.2027 42.1451C16.1339 42.0266 15.9182 43.1079 15.7441 42.955C15.57 42.8021 15.6621 41.9598 15.6621 41.9598C15.6876 41.8338 15.7284 41.7114 15.7836 41.5953C15.9336 41.4032 16.1301 41.2523 16.3546 41.157C16.6117 41.0628 17.7224 40.9838 17.8995 41.2582Z" fill="#F7A491"/>
<path d="M151.997 50.2768C153.739 50.0197 162.66 49.1996 163.033 48.4383C163.453 47.5716 160.833 38.6614 160.805 38.7251L155.992 40.7874C155.992 40.7874 159.138 45.6359 158.769 46.1593C158.623 46.3618 151.825 48.0677 150.937 48.4018C150.937 48.4018 149.115 47.924 148.547 48.1629C147.979 48.4018 148.056 48.7946 148.056 48.7946C148.056 48.7946 149.151 48.9485 148.926 49.4183C148.732 49.8233 148.186 50.1209 147.179 50.0794C147.179 50.0794 147.609 50.9207 147.888 50.9754C148.166 51.0301 148.054 51.0857 148.366 51.2153C148.678 51.3449 149.359 51.3439 149.359 51.3439C149.359 51.3439 149.947 51.5646 150.186 51.5828C150.425 51.6011 151.767 50.5532 151.767 50.5532L151.997 50.2768Z" fill="#F8A492"/>
<path d="M162.043 41.9102C162.043 41.9102 161.528 42.7586 160.22 43.4288C159.275 43.9168 157.696 44.176 157.696 44.176C157.696 44.176 156.151 40.8715 155.299 39.4126C154.23 37.5841 157.956 32.4269 158.829 32.926C160.782 34.0427 162.043 41.9102 162.043 41.9102Z" fill="url(#paint20_linear_2728_1907)"/>
<path d="M129.894 50.126C129.894 50.126 131.155 49.1196 131.53 49.0822C131.906 49.0447 131.916 49.2604 131.898 49.4021C131.88 49.5438 131.23 49.9569 131.23 49.9569C131.23 49.9569 132.141 49.2482 132.424 49.1946C132.708 49.1409 132.857 49.3262 132.829 49.4487C132.802 49.5712 132.162 50.1351 132.162 50.1351C132.162 50.1351 133.121 49.1946 133.384 49.2887C133.647 49.3829 132.971 50.6342 132.372 50.7942C131.772 50.9541 129.692 50.618 129.578 50.4904C129.465 50.3629 129.894 50.126 129.894 50.126Z" fill="#F8A492"/>
<path d="M129.081 49.2502C129.069 49.3626 130.255 49.8364 130.296 49.6481C130.338 49.4598 130.376 49.2877 130.176 49.2249C130.077 49.2055 129.988 49.1521 129.925 49.0741C129.925 49.0741 130.539 48.9617 130.836 48.7855C131.132 48.6094 131.932 48.5831 131.932 48.5831L132.528 47.8926C132.127 47.8238 131.721 47.7818 131.314 47.767C130.97 47.767 130.528 47.9624 130.373 48.0434C130.282 48.09 129.802 48.3016 129.533 48.5193C129.301 48.7022 129.141 48.9611 129.081 49.2502Z" fill="#F8A492"/>
<path d="M171.816 48.8939C171.623 49.147 171.358 49.558 171.587 49.5813C171.815 49.6046 172.685 48.9668 172.685 48.9668L174.001 47.76C174.001 47.76 173.337 47.7124 172.794 48.0252C172.423 48.259 172.092 48.5525 171.816 48.8939Z" fill="#F7A491"/>
<path d="M121.539 29.831L118.73 31.1583L119.116 33.0961L116.525 34.4355L116.762 37.2025L117.815 37.1124L117.639 35.049L120.308 33.6691L119.927 31.7617L121.99 30.7858L121.539 29.831Z" fill="url(#paint21_linear_2728_1907)"/>
<path d="M93.7681 37.3563L90.8088 36.4087L90.9374 34.4375L88.1947 33.4484L88.0662 30.6744L89.1221 30.6258L89.2173 32.6942L92.044 33.7127L91.9174 35.6545L94.09 36.351L93.7681 37.3563Z" fill="url(#paint22_linear_2728_1907)"/>
<path d="M91.9184 59.0434L90.8574 61.9632L88.8923 61.7587L87.7989 64.4618L85.0218 64.4831L85.0137 63.4261L87.0851 63.4109L88.2109 60.6258L90.1457 60.8272L90.9252 58.6819L91.9184 59.0434Z" fill="url(#paint23_linear_2728_1907)"/>
<path d="M118.945 74.2772L115.93 73.5311L115.925 71.5558L113.121 70.755L112.807 67.9962L113.856 67.8757L114.09 69.9329L116.98 70.758L116.985 72.7039L119.199 73.2516L118.945 74.2772Z" fill="url(#paint24_linear_2728_1907)"/>
<path d="M126.323 60.5296L123.33 61.3608L122.356 59.6427L119.52 60.322L117.89 58.0735L118.745 57.4539L119.96 59.1304L122.882 58.4298L123.842 60.1226L126.041 59.5121L126.323 60.5296Z" fill="url(#paint25_linear_2728_1907)"/>
<path d="M104.049 55.4584V61.9115L91.7696 49.7352V49.1389L104.049 36.9645V43.4157L97.7722 49.4568L104.049 55.4584Z" fill="#3697FD"/>
<path d="M114.494 49.4588L108.217 43.4177V36.9645L120.499 49.1389V49.7352L108.214 61.9115V55.4584L114.494 49.4588Z" fill="#3697FD"/>
<rect x="0.2" y="0.2" width="229.6" height="109.6" stroke="#A6A6A6" stroke-width="0.4"/>
<defs>
<linearGradient id="paint0_linear_2728_1907" x1="550.431" y1="-71.9083" x2="410.811" y2="231.902" gradientUnits="userSpaceOnUse">
<stop stop-color="#FB9A2B"/>
<stop offset="1" stop-color="#E65925"/>
</linearGradient>
<linearGradient id="paint1_linear_2728_1907" x1="574.213" y1="-12.2009" x2="416.956" y2="356.295" gradientUnits="userSpaceOnUse">
<stop stop-color="#C7A44F"/>
<stop offset="1" stop-color="#609A3F"/>
</linearGradient>
<linearGradient id="paint2_linear_2728_1907" x1="5" y1="55" x2="225" y2="55" gradientUnits="userSpaceOnUse">
<stop stop-color="#00503E"/>
<stop offset="1" stop-color="#023222"/>
</linearGradient>
<linearGradient id="paint3_linear_2728_1907" x1="298886" y1="35124.7" x2="349048" y2="35124.7" gradientUnits="userSpaceOnUse">
<stop stop-color="#00503E"/>
<stop offset="1" stop-color="#023222"/>
</linearGradient>
<linearGradient id="paint4_linear_2728_1907" x1="4.94509" y1="55.0035" x2="224.995" y2="55.0035" gradientUnits="userSpaceOnUse">
<stop stop-color="#3697FD"/>
<stop offset="1" stop-color="#034987"/>
</linearGradient>
<linearGradient id="paint5_linear_2728_1907" x1="128305" y1="13785.4" x2="111115" y2="58289.9" gradientUnits="userSpaceOnUse">
<stop stop-color="#3697FD"/>
<stop offset="1" stop-color="#034987"/>
</linearGradient>
<linearGradient id="paint6_linear_2728_1907" x1="476.211" y1="-50.845" x2="445.457" y2="123.503" gradientUnits="userSpaceOnUse">
<stop stop-color="#53CD9F"/>
<stop offset="1" stop-color="#0D7A5C"/>
</linearGradient>
<linearGradient id="paint7_linear_2728_1907" x1="134465" y1="6351.96" x2="129819" y2="24664.4" gradientUnits="userSpaceOnUse">
<stop stop-color="#53CD9F"/>
<stop offset="1" stop-color="#0D7A5C"/>
</linearGradient>
<linearGradient id="paint8_linear_2728_1907" x1="130859" y1="5437.47" x2="126212" y2="23754.6" gradientUnits="userSpaceOnUse">
<stop stop-color="#53CD9F"/>
<stop offset="1" stop-color="#0D7A5C"/>
</linearGradient>
<linearGradient id="paint9_linear_2728_1907" x1="450866" y1="10245.1" x2="441589" y2="32778.6" gradientUnits="userSpaceOnUse">
<stop stop-color="#FB9A2B"/>
<stop offset="1" stop-color="#E65925"/>
</linearGradient>
<linearGradient id="paint10_linear_2728_1907" x1="448339" y1="9204.24" x2="439060" y2="31738.9" gradientUnits="userSpaceOnUse">
<stop stop-color="#FB9A2B"/>
<stop offset="1" stop-color="#E65925"/>
</linearGradient>
<linearGradient id="paint11_linear_2728_1907" x1="15367.6" y1="31255.6" x2="17999.3" y2="15926.6" gradientUnits="userSpaceOnUse">
<stop stop-color="#C7A44F"/>
<stop offset="1" stop-color="#609A3F"/>
</linearGradient>
<linearGradient id="paint12_linear_2728_1907" x1="80322.6" y1="-1852.13" x2="73417.4" y2="19610.9" gradientUnits="userSpaceOnUse">
<stop stop-color="#FB9A2B"/>
<stop offset="1" stop-color="#E65925"/>
</linearGradient>
<linearGradient id="paint13_linear_2728_1907" x1="77876.2" y1="-2639.52" x2="70971" y2="18823.5" gradientUnits="userSpaceOnUse">
<stop stop-color="#FB9A2B"/>
<stop offset="1" stop-color="#E65925"/>
</linearGradient>
<linearGradient id="paint14_linear_2728_1907" x1="19516.8" y1="37334.2" x2="62597.2" y2="37334.2" gradientUnits="userSpaceOnUse">
<stop stop-color="#00503E"/>
<stop offset="1" stop-color="#023222"/>
</linearGradient>
<linearGradient id="paint15_linear_2728_1907" x1="43936.8" y1="36153.1" x2="82828.4" y2="36153.1" gradientUnits="userSpaceOnUse">
<stop stop-color="#00503E"/>
<stop offset="1" stop-color="#023222"/>
</linearGradient>
<linearGradient id="paint16_linear_2728_1907" x1="61288.2" y1="14282.1" x2="57510.4" y2="30198.4" gradientUnits="userSpaceOnUse">
<stop stop-color="#C7A44F"/>
<stop offset="1" stop-color="#609A3F"/>
</linearGradient>
<linearGradient id="paint17_linear_2728_1907" x1="79185.2" y1="-2218.07" x2="72280" y2="19245" gradientUnits="userSpaceOnUse">
<stop stop-color="#FB9A2B"/>
<stop offset="1" stop-color="#E65925"/>
</linearGradient>
<linearGradient id="paint18_linear_2728_1907" x1="98644.2" y1="2329.53" x2="81453.6" y2="46833.8" gradientUnits="userSpaceOnUse">
<stop stop-color="#3697FD"/>
<stop offset="1" stop-color="#034987"/>
</linearGradient>
<linearGradient id="paint19_linear_2728_1907" x1="63514.6" y1="29840.8" x2="61612.3" y2="19149.1" gradientUnits="userSpaceOnUse">
<stop stop-color="#C7A44F"/>
<stop offset="1" stop-color="#609A3F"/>
</linearGradient>
<linearGradient id="paint20_linear_2728_1907" x1="353926" y1="10408" x2="335420" y2="45133.7" gradientUnits="userSpaceOnUse">
<stop stop-color="#C7A44F"/>
<stop offset="1" stop-color="#609A3F"/>
</linearGradient>
<linearGradient id="paint21_linear_2728_1907" x1="18245.4" y1="-65234" x2="-4665.81" y2="-5186.09" gradientUnits="userSpaceOnUse">
<stop stop-color="#3697FD"/>
<stop offset="1" stop-color="#034987"/>
</linearGradient>
<linearGradient id="paint22_linear_2728_1907" x1="222066" y1="-9490.87" x2="213561" y2="35701.2" gradientUnits="userSpaceOnUse">
<stop stop-color="#3697FD"/>
<stop offset="1" stop-color="#034987"/>
</linearGradient>
<linearGradient id="paint23_linear_2728_1907" x1="238109" y1="-1990.91" x2="229604" y2="43201.1" gradientUnits="userSpaceOnUse">
<stop stop-color="#3697FD"/>
<stop offset="1" stop-color="#034987"/>
</linearGradient>
<linearGradient id="paint24_linear_2728_1907" x1="286801" y1="11141.3" x2="278296" y2="56333.4" gradientUnits="userSpaceOnUse">
<stop stop-color="#3697FD"/>
<stop offset="1" stop-color="#034987"/>
</linearGradient>
<linearGradient id="paint25_linear_2728_1907" x1="294050" y1="6286.95" x2="285545" y2="51479" gradientUnits="userSpaceOnUse">
<stop stop-color="#3697FD"/>
<stop offset="1" stop-color="#034987"/>
</linearGradient>
</defs>
</svg>
