<svg width="230" height="110" viewBox="0 0 230 110" fill="none" xmlns="http://www.w3.org/2000/svg">
<rect x="0.2" y="0.2" width="229.6" height="109.6" fill="white"/>
<path d="M95.7942 96.1126C95.7942 96.1126 95.477 97.8163 95.3151 99.5047C95.3003 99.6612 95.3173 99.819 95.3652 99.9688C95.4131 100.118 95.4909 100.257 95.5938 100.376C95.6967 100.495 95.8226 100.591 95.9639 100.66C96.1053 100.729 96.2591 100.768 96.4161 100.776C98.665 100.891 103.476 101.12 105.204 101.059C105.264 101.056 105.322 101.038 105.374 101.008C105.426 100.978 105.47 100.937 105.503 100.886C105.536 100.836 105.557 100.779 105.563 100.72C105.57 100.66 105.563 100.6 105.542 100.543C105.463 100.34 105.31 100.175 105.113 100.082L97.198 96.3531L95.7942 96.1126Z" fill="url(#paint0_linear_2728_1916)"/>
<path d="M95.5575 95.1075L95.7798 97.1513C95.7798 97.1513 97.1664 97.8135 98.1246 97.0919L97.5698 94.8114L95.5575 95.1075Z" fill="url(#paint1_linear_2728_1916)"/>
<path d="M96.1056 56.7304C95.9954 57.2622 95.2902 83.3283 97.9655 95.0375C97.9871 95.1298 97.975 95.2268 97.9314 95.3109C97.8879 95.3951 97.8157 95.4609 97.7279 95.4965C97.0002 95.7704 96.2314 95.9191 95.454 95.9363C95.303 95.9393 95.1552 95.8921 95.0339 95.8021C94.9125 95.7121 94.8244 95.5844 94.7833 95.439C94.0167 92.7216 90.3257 79.1035 89.9511 66.1256C89.5333 51.6241 89.9559 65.6321 89.9559 65.6321L90.3679 56.6748L96.1056 56.7304Z" fill="url(#paint2_linear_2728_1916)"/>
<path d="M86.6414 96.9156C86.6414 96.9156 86.1537 97.778 85.6669 100.058C85.646 100.155 85.6456 100.255 85.666 100.353C85.6863 100.45 85.7269 100.542 85.7851 100.623C85.8432 100.704 85.9177 100.771 86.0036 100.822C86.0896 100.872 86.1851 100.903 86.284 100.914C87.0266 100.995 88.1688 101.099 89.0849 101.106C89.1846 101.107 89.2833 101.086 89.3746 101.046C89.4659 101.006 89.5477 100.947 89.6146 100.873C89.6815 100.799 89.7321 100.712 89.763 100.617C89.7939 100.522 89.8045 100.422 89.7939 100.323C89.6981 99.4855 89.3972 98.1115 88.4304 97.0335L86.6414 96.9156Z" fill="url(#paint3_linear_2728_1916)"/>
<path d="M86.2457 94.2863L86.7823 97.3784C86.7823 97.3784 87.3371 97.8 88.4477 97.5088L88.2091 94.1847L86.2457 94.2863Z" fill="url(#paint4_linear_2728_1916)"/>
<path d="M85.0681 57.4261C82.6572 71.1581 85.2338 91.4261 86.1355 95.3969C86.1622 95.5156 86.2234 95.6239 86.3113 95.7081C86.3993 95.7923 86.5101 95.8487 86.6299 95.8702C87.2212 95.9814 87.8296 95.9631 88.4132 95.8166C88.5275 95.7843 88.6289 95.7169 88.7028 95.6239C88.7768 95.5308 88.8196 95.4169 88.8252 95.2982C88.9814 92.0968 88.9431 72.4316 91.1412 64.6816C91.2523 64.2889 91.4961 63.9469 91.8311 63.7138L95.9811 60.8229L96.3423 56.0894L85.0681 57.4261Z" fill="url(#paint5_linear_2728_1916)"/>
<path d="M99.8398 31.5009C93.0106 31.3226 85.4561 33.1576 85.4561 33.1576C83.3069 45.0173 84.8553 58.7359 84.8553 58.7359C90.1303 60.1732 96.1162 57.9952 96.1162 57.9952C97.0428 53.0384 101.276 39.1033 101.276 39.1033C104.617 38.72 107.376 37.7848 109.652 36.5333C107.944 34.5144 107.155 31.9598 106.815 30.4507C104.398 31.1779 101.946 31.5545 99.8398 31.5009Z" fill="url(#paint6_linear_2728_1916)"/>
<path d="M120.113 21.6333C119.449 20.8159 118.597 21.1915 118.597 21.1915C117.55 25.4278 112.248 28.8198 106.817 30.4507C107.157 31.9598 107.946 34.5144 109.654 36.5334C118.686 31.566 120.113 21.6333 120.113 21.6333Z" fill="url(#paint7_linear_2728_1916)"/>
<path d="M119.946 21.8374C120.014 22.0616 119.197 22.3931 118.727 21.4761C118.714 21.0382 118.466 19.1621 118.732 18.8075C120.142 16.9227 122.864 14.5694 122.864 14.5694C122.99 14.6795 123.068 14.8345 123.081 15.0013C123.094 15.1681 123.042 15.3336 122.935 15.4624L121.613 16.8144C121.882 17.3118 122.213 17.7324 122.363 18.3332C122.475 18.7905 122.406 19.2732 122.172 19.6814C121.91 20.1505 121.625 20.6063 121.318 21.0468C121.164 21.274 120.961 21.4633 120.723 21.6002C120.485 21.7372 120.219 21.8183 119.946 21.8374Z" fill="url(#paint8_linear_2728_1916)"/>
<path d="M121.032 17.6941L119.825 18.6935L119.442 19.6977L120.496 20.8878C120.496 20.8878 120.872 18.8928 121.143 18.4626C121.413 18.0323 121.279 17.8225 121.032 17.6941Z" fill="url(#paint9_linear_2728_1916)"/>
<path d="M88.0126 39.7951L85.4562 33.1566C85.4562 33.1566 79.0362 37.4302 77.9333 42.916C79.1377 43.0166 81.3282 43.351 83.465 44.4558C83.9613 41.8658 88.0126 39.7951 88.0126 39.7951Z" fill="url(#paint10_linear_2728_1916)"/>
<path d="M93.5281 46.0723C93.5281 46.0723 86.3271 50.0517 83.946 46.5725C83.4506 45.85 83.3375 45.1352 83.4669 44.4567C81.3301 43.3519 79.1396 43.0194 77.9352 42.9169C77.563 44.6897 77.838 46.5372 78.7104 48.1248C82.868 55.9102 94.4594 47.844 94.4594 47.844L93.5281 46.0723Z" fill="url(#paint11_linear_2728_1916)"/>
<path d="M92.9742 25.8896L90.7406 32.1544C90.722 32.2039 90.7213 32.2584 90.7389 32.3083C90.7564 32.3583 90.7909 32.4004 90.8365 32.4274C91.4258 32.7609 93.5511 33.7277 96.1392 32.1218C96.2727 32.0399 96.3865 31.9296 96.4726 31.7988C96.5587 31.668 96.615 31.5198 96.6374 31.3648L97.3925 25.9318L92.9742 25.8896Z" fill="url(#paint12_linear_2728_1916)"/>
<path d="M97.7585 20.1155C97.7585 20.1155 100.101 24.6305 99.7784 26.4396C99.4555 28.2487 96.4985 28.0935 93.9334 26.5948L92.1751 21.7272L97.7585 20.1155Z" fill="url(#paint13_linear_2728_1916)"/>
<path d="M94.0675 24.2156C94.0922 24.205 94.1143 24.1891 94.1322 24.1691C94.1502 24.1491 94.1636 24.1254 94.1715 24.0997C94.1794 24.074 94.1817 24.047 94.1781 24.0203C94.1746 23.9937 94.1653 23.9681 94.1509 23.9454C93.9592 23.6512 93.6095 23.0524 93.5003 22.5292C93.5003 22.5292 93.0739 22.2503 94.5984 21.9006C96.1229 21.5509 98.3957 21.0085 98.8854 19.7178C99.3645 18.4606 98.1706 15.2746 96.2024 17.7851C96.1851 17.8076 96.1629 17.8258 96.1375 17.8383C96.1121 17.8508 96.0841 17.8573 96.0558 17.8573C96.0275 17.8573 95.9995 17.8508 95.9741 17.8383C95.9487 17.8258 95.9265 17.8076 95.9092 17.7851C95.593 17.3664 94.7593 16.4954 93.5913 17.007C92.4951 17.4861 92.3648 18.2853 92.3763 18.6877C92.3771 18.7155 92.3717 18.743 92.3604 18.7684C92.3491 18.7937 92.3322 18.8162 92.311 18.8342C92.2899 18.8521 92.2649 18.8651 92.2381 18.8721C92.2112 18.8791 92.1831 18.8799 92.1559 18.8746C91.6059 18.7644 90.2826 18.6609 89.6521 20.0129C89.1318 21.1264 89.4605 21.7626 89.7556 22.075C89.7776 22.0981 89.7933 22.1264 89.8011 22.1573C89.809 22.1882 89.8088 22.2207 89.8005 22.2514C89.7922 22.2822 89.7762 22.3104 89.7539 22.3332C89.7316 22.356 89.7038 22.3727 89.6732 22.3816C89.31 22.4889 88.8386 22.7917 88.8779 23.6417C88.9306 24.8164 90.2452 24.7254 90.6189 24.6756C90.649 24.6712 90.6797 24.6744 90.7083 24.6847C90.7369 24.6951 90.7625 24.7124 90.7828 24.735C91.1 25.0924 92.5296 26.6121 94.0905 26.8085C94.1217 26.8123 94.1534 26.8081 94.1825 26.7963C94.2117 26.7845 94.2374 26.7655 94.2572 26.7411C94.277 26.7167 94.2903 26.6877 94.2958 26.6567C94.3014 26.6258 94.299 26.5939 94.2889 26.5642L93.6315 24.5912C93.6169 24.5472 93.6194 24.4992 93.6383 24.4568C93.6573 24.4144 93.6915 24.3807 93.7341 24.3622L94.0675 24.2156Z" fill="url(#paint14_linear_2728_1916)"/>
<path d="M94.3368 24.4973C94.3368 24.4973 92.6484 23.3149 92.5162 24.2961C92.384 25.2773 94.033 25.7334 94.8561 25.3741L94.3368 24.4973Z" fill="url(#paint15_linear_2728_1916)"/>
<path d="M92.0563 52.3619L95.9792 38.6596C96.0009 38.5837 96.0446 38.5159 96.1048 38.4647C96.165 38.4136 96.239 38.3814 96.3174 38.3722C97.0284 38.2898 99.0876 38.0569 101.466 37.8557C104.33 37.6133 107.656 37.4168 109.644 37.5845C109.709 37.5895 109.772 37.6105 109.827 37.6454C109.882 37.6804 109.928 37.7283 109.961 37.785C109.993 37.8418 110.011 37.9056 110.013 37.9708C110.015 38.0361 110.001 38.1009 109.972 38.1594C108.841 40.4467 104.192 49.7537 101.863 52.796C101.826 52.8458 101.777 52.8862 101.72 52.9138C101.664 52.9414 101.602 52.9555 101.54 52.9551L92.4367 52.8698C92.3754 52.8689 92.3151 52.8541 92.2605 52.8263C92.2058 52.7984 92.1583 52.7585 92.1216 52.7094C92.0848 52.6604 92.0598 52.6035 92.0485 52.5433C92.0372 52.483 92.0398 52.421 92.0563 52.3619Z" fill="url(#paint16_linear_2728_1916)"/>
<path d="M93.0039 49.0523C93.0039 49.0523 92.4578 46.8053 92.6781 46.0081C92.8985 45.2109 93.3259 44.1875 94.7498 44.4136C96.1737 44.6398 97.8524 45.2406 97.8524 45.2406C97.8524 45.2406 97.7672 46.2793 96.6853 45.9439L97.3561 46.4632C97.3561 46.4632 97.2603 47.295 96.3471 46.8465L96.9709 47.5355C96.9709 47.5355 96.578 48.2177 95.9054 47.7798C95.2327 47.3419 94.9117 49.3225 93.0039 49.0523Z" fill="url(#paint17_linear_2728_1916)"/>
<path d="M101.204 41.9472C101.204 42.1746 101.272 42.3969 101.398 42.586C101.524 42.7751 101.704 42.9225 101.914 43.0095C102.124 43.0966 102.355 43.1193 102.578 43.075C102.801 43.0306 103.006 42.9211 103.167 42.7603C103.328 42.5995 103.437 42.3946 103.482 42.1715C103.526 41.9485 103.503 41.7173 103.416 41.5072C103.329 41.2971 103.182 41.1175 102.993 40.9911C102.804 40.8648 102.582 40.7974 102.354 40.7974C102.049 40.7974 101.757 40.9185 101.541 41.1341C101.325 41.3498 101.204 41.6423 101.204 41.9472Z" fill="#7D97F4"/>
<path d="M96.3797 42.6937L96.1737 42.6323L96.9728 39.9235C97.0322 39.7165 97.1468 39.5296 97.3043 39.3828C97.4618 39.2359 97.6562 39.1347 97.8668 39.0898C100.395 38.5628 107.272 38.4517 107.341 38.4507V38.6654C107.272 38.6654 100.416 38.7765 97.908 39.2997C97.7354 39.3369 97.5761 39.4201 97.4471 39.5406C97.318 39.6611 97.224 39.8142 97.175 39.9839L96.3797 42.6937Z" fill="#7D97F4"/>
<path d="M49.9958 81.0458C49.5781 81.6687 47.9156 95.6747 47.6559 100.849C47.6519 100.932 47.6647 101.015 47.6937 101.093C47.7227 101.17 47.7671 101.241 47.8244 101.301C47.8816 101.361 47.9505 101.409 48.0268 101.442C48.1031 101.474 48.1852 101.491 48.2682 101.491C48.4145 101.491 48.5559 101.439 48.6671 101.344C48.7783 101.249 48.8519 101.117 48.8747 100.973L51.9142 81.4914L49.9958 81.0458Z" fill="#7D97F4"/>
<path d="M63.359 81.0458C63.7767 81.6648 65.4392 95.6747 65.6989 100.849C65.7029 100.932 65.6901 101.015 65.6611 101.093C65.6321 101.17 65.5877 101.241 65.5304 101.301C65.4731 101.361 65.4043 101.409 65.328 101.442C65.2517 101.474 65.1696 101.491 65.0866 101.491C64.9403 101.491 64.7989 101.439 64.6877 101.344C64.5765 101.249 64.5029 101.117 64.4801 100.973L61.4406 81.4914L63.359 81.0458Z" fill="#7D97F4"/>
<path d="M47.4805 79.9525V80.1049C47.471 81.2039 48.4177 82.1056 49.603 82.1257L63.6541 82.3653C64.8231 82.3844 65.7966 81.5403 65.858 80.4584L65.8656 80.3185C65.925 79.1898 64.9668 78.2392 63.748 78.2172L49.6844 77.9652C48.4828 77.9441 47.492 78.8372 47.4805 79.9525Z" fill="#7D97F4"/>
<path d="M77.0814 100.34C74.5834 100.34 73.4786 100.126 72.9841 99.9311C73.0324 100.14 73.1499 100.326 73.3175 100.459C73.485 100.592 73.6928 100.665 73.9069 100.665H82.7425C82.8086 100.665 82.8739 100.65 82.9331 100.62C82.9924 100.591 83.0441 100.549 83.0842 100.496C83.1244 100.443 83.1518 100.382 83.1645 100.317C83.1772 100.253 83.1748 100.186 83.1574 100.122C82.1503 100.203 80.0116 100.34 77.0814 100.34Z" fill="url(#paint18_linear_2728_1916)"/>
<path d="M83.1584 100.122C83.1446 100.067 83.1198 100.016 83.0855 99.9713C82.4148 99.1089 81.0608 97.7675 79.2211 97.7885C76.5266 97.8259 75.5866 98.1191 73.4929 97.8048L72.9995 99.4424C72.9511 99.601 72.9458 99.7697 72.9841 99.9311C73.4786 100.123 74.5834 100.34 77.0814 100.34C80.0116 100.34 82.1503 100.203 83.1584 100.122Z" fill="url(#paint19_linear_2728_1916)"/>
<path d="M74.0995 96.0417L73.4929 98.1038C73.4929 98.1038 74.8344 98.7151 76.0178 98.2245L76.2497 96.4375L74.0995 96.0417Z" fill="url(#paint20_linear_2728_1916)"/>
<path d="M92.4137 99.0419C90.4666 100.606 89.472 101.132 88.9641 101.29C89.1323 101.422 89.3403 101.493 89.554 101.491C89.7677 101.49 89.9746 101.416 90.1408 101.281L97.0293 95.7466C97.0809 95.7056 97.1222 95.6532 97.1502 95.5935C97.1781 95.5338 97.1919 95.4685 97.1904 95.4026C97.1889 95.3368 97.1722 95.2721 97.1416 95.2138C97.111 95.1554 97.0673 95.105 97.014 95.0663C96.28 95.76 94.698 97.206 92.4137 99.0419Z" fill="url(#paint21_linear_2728_1916)"/>
<path d="M97.0198 95.0663C96.9751 95.0322 96.9239 95.0077 96.8693 94.9944C95.8095 94.7491 93.9142 94.5498 92.4961 95.7217C90.4197 97.4388 89.8687 98.2542 88.0414 99.3217L88.6767 100.902C88.7393 101.053 88.8404 101.185 88.9699 101.285C89.4768 101.127 90.4714 100.601 92.4194 99.0371C94.698 97.206 96.28 95.76 97.0198 95.0663Z" fill="url(#paint22_linear_2728_1916)"/>
<path d="M61.1283 72.5446C61.1283 72.5446 76.083 73.7663 79.1511 75.2104C82.2193 76.6544 76.6474 96.8945 76.6474 96.8945C76.6474 96.8945 75.8118 97.297 73.9538 96.7192C73.9538 96.7192 75.8597 81.7827 74.4416 78.543L58.2479 75.8945L61.1283 72.5446Z" fill="url(#paint23_linear_2728_1916)"/>
<path d="M86.5504 96.4787C86.6893 96.6052 88.0366 99.3217 88.0366 99.3217C88.0366 99.3217 89.5362 98.9978 89.8418 98.0482L88.4917 95.5962L86.5504 96.4787Z" fill="url(#paint24_linear_2728_1916)"/>
<path d="M52.1221 72.4201C51.7993 73.2944 51.6408 74.2209 51.6545 75.1529C51.6813 77.3079 53.4147 79.0566 55.5668 79.1639L73.2457 79.9698C73.4271 79.9783 73.601 80.0448 73.7417 80.1595C73.8825 80.2742 73.9827 80.431 74.0276 80.607C74.4435 82.2139 76.4739 87.1486 86.4 96.9923C86.5286 97.1194 86.6964 97.1992 86.8761 97.2187C87.0559 97.2381 87.2369 97.1962 87.3898 97.0996L88.8031 96.2075C88.8744 96.1623 88.9253 96.0911 88.9451 96.0091C88.965 95.927 88.9522 95.8405 88.9095 95.7677L78.6165 78.1913C78.0756 77.2998 77.2065 76.656 76.196 76.3985L61.1283 72.5465L52.1221 72.4201Z" fill="url(#paint25_linear_2728_1916)"/>
<path d="M69.5432 44.9627C69.5432 44.9627 67.6498 48.3107 65.719 49.9329L69.7109 52.1559C69.7109 52.1559 70.6107 48.6106 72.6651 47.5728L69.5432 44.9627Z" fill="url(#paint26_linear_2728_1916)"/>
<path d="M51.8001 72.5446C51.8001 72.5446 56.5729 73.7079 61.1283 72.5446C61.1283 72.5446 67.5032 63.9764 69.9687 61.6441C69.9687 61.6441 73.9031 67.8513 82.6582 68.7348L83.1469 67.6434C83.1469 67.6434 76.1759 64.4296 74.0305 59.4929C71.8851 54.5562 71.0227 52.4501 69.0699 51.1623C67.8549 50.3603 67.1266 49.8122 66.7501 49.5122C66.65 49.4322 66.5276 49.385 66.3998 49.3769C66.2719 49.3689 66.1446 49.4004 66.0352 49.4672C63.9617 50.7253 54.2148 57.4021 51.8001 72.5446Z" fill="url(#paint27_linear_2728_1916)"/>
<path d="M69.7109 61.6978C69.6365 61.6978 69.5632 61.6804 69.4966 61.6472C69.4301 61.6139 69.3723 61.5656 69.3276 61.5061C68.3374 60.1826 67.5219 58.7369 66.9014 57.2047C66.8558 57.0857 66.8594 56.9533 66.9113 56.8369C66.9632 56.7205 67.0593 56.6294 67.1784 56.5838C67.2974 56.5382 67.4297 56.5417 67.5462 56.5937C67.6626 56.6456 67.7537 56.7417 67.7993 56.8607C67.8079 56.8818 68.6435 59.0339 70.0904 60.9216C70.1457 60.9927 70.1799 61.078 70.1889 61.1677C70.1979 61.2574 70.1815 61.3478 70.1415 61.4286C70.1015 61.5093 70.0395 61.5772 69.9626 61.6243C69.8858 61.6714 69.7972 61.6958 69.7071 61.6949L69.7109 61.6978Z" fill="url(#paint28_linear_2728_1916)"/>
<path d="M82.1321 67.0694L83.1171 66.8069L86.1096 66.1141C86.2883 66.0723 86.4735 66.0664 86.6544 66.0969C86.8354 66.1273 87.0085 66.1934 87.1637 66.2914L89.7374 67.9098L82.6323 67.8983L82.1321 67.0694Z" fill="url(#paint29_linear_2728_1916)"/>
<path d="M72.551 39.9417C72.551 39.9417 74.3908 43.0012 74.7108 44.6915C75.0309 46.3818 75.5425 47.4396 73.6175 48.0452C71.6925 48.6508 69.9025 47.8823 68.7824 46.3042C68.7824 46.3042 67.0289 43.8751 67.2042 42.7588C67.3796 41.6425 72.551 39.9417 72.551 39.9417Z" fill="url(#paint30_linear_2728_1916)"/>
<path d="M69.295 44.9953L69.5432 44.9627C69.5432 44.9627 68.2401 42.9936 69.0929 42.5049C69.9457 42.0162 73.4211 40.8175 74.0247 39.4492C74.6064 38.1297 73.7373 36.6388 72.6833 36.3283C72.6507 36.3194 72.616 36.3231 72.5862 36.3387C72.5563 36.3544 72.5334 36.3808 72.5223 36.4126L72.461 36.5784C72.4516 36.6035 72.4349 36.6253 72.4131 36.641C72.3913 36.6567 72.3653 36.6654 72.3385 36.6663C72.3116 36.6671 72.2852 36.6599 72.2624 36.6456C72.2397 36.6313 72.2218 36.6106 72.2109 36.5861C72.2006 36.5624 72.1838 36.5421 72.1624 36.5277C72.141 36.5133 72.1159 36.5053 72.0901 36.5047C72.0642 36.5041 72.0388 36.5109 72.0167 36.5243C71.9947 36.5377 71.9769 36.5571 71.9656 36.5803C71.7797 36.9904 71.223 37.6909 69.5518 38.2332C67.1803 38.9998 65.7027 40.1966 65.8848 41.8821C65.8874 41.9059 65.8836 41.93 65.8738 41.9519C65.864 41.9738 65.8486 41.9927 65.8291 42.0066C65.8096 42.0206 65.7867 42.0291 65.7628 42.0313C65.7389 42.0335 65.7149 42.0293 65.6932 42.0191C65.5015 41.9328 65.2054 41.9233 64.8643 42.2931C64.2712 42.9418 64.7359 44.3609 66.3562 45.3661C66.3745 45.3767 66.3899 45.3915 66.4014 45.4093C66.4128 45.4271 66.4199 45.4473 66.422 45.4683C66.4242 45.4893 66.4213 45.5105 66.4137 45.5302C66.4061 45.5499 66.394 45.5676 66.3783 45.5817C66.1358 45.7887 65.7947 46.2524 66.8909 46.6645C68.013 47.0861 68.6253 46.9433 68.8514 46.8561C68.8808 46.8444 68.9052 46.8227 68.9202 46.7949C68.9353 46.767 68.9401 46.7348 68.9338 46.7037L68.6463 45.2281C68.6428 45.21 68.643 45.1913 68.6469 45.1733C68.6508 45.1552 68.6584 45.1382 68.6692 45.1232C68.68 45.1082 68.6937 45.0956 68.7095 45.0861C68.7254 45.0766 68.743 45.0705 68.7613 45.0681L69.295 44.9953Z" fill="url(#paint31_linear_2728_1916)"/>
<path d="M69.3966 45.299C69.3966 45.299 68.585 43.2964 67.7322 43.9997C66.8794 44.703 68.5199 46.2591 69.2778 46.239L69.3966 45.299Z" fill="url(#paint32_linear_2728_1916)"/>
<path d="M79.3888 69.3078H79.4233L94.6022 69.2925C94.7821 69.2925 94.9547 69.221 95.0819 69.0938C95.2091 68.9665 95.2806 68.794 95.2806 68.6141C95.2806 68.4341 95.2091 68.2616 95.0819 68.1343C94.9547 68.0071 94.7821 67.9357 94.6022 67.9357L79.4242 67.951C79.2443 67.9463 79.0699 68.0133 78.9393 68.1372C78.8088 68.2611 78.7328 68.4317 78.7281 68.6117C78.7234 68.7916 78.7904 68.966 78.9143 69.0966C79.0382 69.2271 79.2089 69.3031 79.3888 69.3078Z" fill="url(#paint33_linear_2728_1916)"/>
<path d="M100.479 54.4393C100.473 54.4489 100.468 54.4595 100.463 54.47L94.0762 68.2404C94.0005 68.4037 93.9929 68.5903 94.0549 68.7592C94.1169 68.9281 94.2435 69.0655 94.4067 69.1411C94.57 69.2167 94.7566 69.2243 94.9256 69.1623C95.0945 69.1003 95.2318 68.9738 95.3074 68.8105L101.694 55.0411C101.766 54.881 101.773 54.6993 101.714 54.5341C101.654 54.3689 101.533 54.2331 101.376 54.1552C101.219 54.0773 101.038 54.0634 100.87 54.1164C100.703 54.1694 100.563 54.2851 100.479 54.4393Z" fill="url(#paint34_linear_2728_1916)"/>
<path d="M140.225 83.1424H138.623V100.468H140.225V83.1424Z" fill="#7D97F4"/>
<path d="M146.44 100.801H132.408C132.408 100.525 132.519 100.259 132.714 100.064C132.91 99.8684 133.175 99.7586 133.452 99.7586H145.398C145.674 99.7586 145.939 99.8684 146.135 100.064C146.33 100.259 146.44 100.525 146.44 100.801Z" fill="#7D97F4"/>
<path d="M146.799 79.2597H132.604C131.652 79.2597 130.881 80.0311 130.881 80.9826V82.5406C130.881 83.4921 131.652 84.2635 132.604 84.2635H146.799C147.751 84.2635 148.522 83.4921 148.522 82.5406V80.9826C148.522 80.0311 147.751 79.2597 146.799 79.2597Z" fill="#7D97F4"/>
<path d="M127.597 71.5903C127.597 71.5903 125.217 71.9592 122.541 73.7481C122.334 73.8849 122.169 74.0767 122.065 74.302C121.96 74.5273 121.921 74.7772 121.951 75.0235C122.272 77.5627 123.59 85.7794 127.935 93.8043C128.162 94.2289 128.23 94.7206 128.127 95.1908L127.372 98.7036L125.972 100.016H129.58L131.981 93.5188L130.955 93.1949C130.566 93.072 130.226 92.8301 129.983 92.5034C129.739 92.1767 129.605 91.7817 129.598 91.3743L129.477 84.4043C129.58 81.2988 127.573 79.1562 127.573 79.1562L133.332 78.8764L127.597 71.5903Z" fill="url(#paint35_linear_2728_1916)"/>
<path d="M124.566 100.651C124.238 101.08 128.1 101.647 130.052 100.707C130.052 100.707 132.758 96.0005 132.758 93.5763C132.758 93.5763 132.543 93.0828 130.955 93.193C130.955 93.193 130.046 98.7659 129.087 99.3906C128.128 100.015 126.404 99.4539 126.404 99.4539C126.404 99.4539 125.05 100.016 124.566 100.651Z" fill="url(#paint36_linear_2728_1916)"/>
<path d="M132.604 79.2597C132.573 79.207 126.403 78.5181 126.403 78.5181C126.403 78.5181 126.605 80.3942 125.974 82.9766C125.342 85.559 116.284 96.747 116.284 96.747L117.234 99.7586C114.297 100.781 111.409 100.945 108.566 100.28L114.452 96.747C114.452 96.747 119.961 77.9738 123.336 74.6249L129.52 72.4852L132.604 79.2597Z" fill="url(#paint37_linear_2728_1916)"/>
<path d="M146.44 68.3362C146.44 68.3362 149.995 73.6236 150.286 76.0354C150.578 78.4472 149.313 79.4274 145.583 79.5884C141.852 79.7494 131.898 79.7522 131.898 79.7522L123.4 72.49C123.4 72.49 129.593 70.2804 131.203 69.6547C132.813 69.029 146.44 68.3362 146.44 68.3362Z" fill="url(#paint38_linear_2728_1916)"/>
<path d="M116.876 98.7439C116.876 98.7439 117.898 99.7347 117.207 100.837C117.207 100.837 109.107 102.274 106.907 101.621C106.907 101.621 107.364 100.579 109.841 99.3926L109.658 99.5325C109.608 99.5707 109.571 99.6239 109.554 99.6842C109.536 99.7445 109.538 99.8089 109.559 99.868C109.581 99.9271 109.62 99.9779 109.672 100.013C109.724 100.048 109.786 100.066 109.849 100.063C111.489 99.9704 114.862 99.6714 116.876 98.7439Z" fill="url(#paint39_linear_2728_1916)"/>
<path d="M131.043 34.8067C138.309 33.5715 141.73 39.4971 141.48 40.7428C141.473 40.781 141.476 40.8204 141.489 40.8572C141.501 40.8941 141.523 40.9271 141.552 40.9532C141.58 40.9793 141.615 40.9977 141.653 41.0064C141.691 41.0152 141.731 41.0142 141.768 41.0034C142.602 40.7792 144.445 40.4965 145.587 41.9281C146.596 43.1919 145.842 44.3839 145.228 45.0393C145.196 45.0735 145.176 45.1165 145.169 45.1626C145.163 45.2086 145.171 45.2556 145.191 45.2972C145.212 45.3389 145.245 45.3732 145.286 45.3956C145.327 45.418 145.373 45.4274 145.42 45.4226C146.953 45.231 150.286 45.1831 150.832 48.3049C151.34 51.2159 149.314 52.0371 148.112 52.268C148.067 52.2772 148.027 52.2995 147.995 52.3321C147.963 52.3648 147.941 52.4062 147.933 52.4511C147.925 52.496 147.93 52.5423 147.948 52.5842C147.967 52.626 147.997 52.6614 148.036 52.6858C148.635 53.0691 149.33 53.852 149.049 55.4033C148.61 57.8343 143.843 57.635 143.286 57.6072C143.252 57.6051 143.219 57.5949 143.19 57.5775L135.555 53.2234C135.526 53.2066 135.5 53.1836 135.481 53.1559C135.462 53.1283 135.449 53.0966 135.443 53.0634L133.901 44.1616C133.895 44.1262 133.897 44.0899 133.908 44.0556C133.919 44.0212 133.937 43.9899 133.962 43.9642L128.979 36.9396C127.172 36.6742 130.957 34.821 131.043 34.8067Z" fill="url(#paint40_linear_2728_1916)"/>
<path d="M136.826 67.6367C136.826 67.6367 132.687 63.6946 130.65 61.0845C130.108 60.3887 129.74 59.5735 129.577 58.7068C129.414 57.8401 129.46 56.947 129.712 56.1018C130.642 52.9685 132.299 49.7221 132.447 49.2171C132.677 48.4419 137.319 48.4745 137.319 48.4745C137.319 48.4745 146.452 54.402 150.04 64.443L146.01 65.6973C146.01 65.6973 143.626 61.6939 141.27 59.1508C141.27 59.1508 145.347 64.5369 145.486 66.7417L136.826 67.6367Z" fill="url(#paint41_linear_2728_1916)"/>
<path d="M131.885 44.886C131.933 45.047 133.145 49.0628 133.24 49.1462C133.335 49.2296 135.896 49.3676 137.102 48.5435L134.111 42.6927L131.885 44.886Z" fill="url(#paint42_linear_2728_1916)"/>
<path d="M127.029 39.7251C127.029 39.7251 126.443 42.0248 128.063 45.1208C129.682 48.2167 131.512 48.212 132.518 47.2212C133.524 46.2304 134.757 44.5497 134.464 41.5582C134.17 38.5667 127.874 36.7988 127.029 39.7251Z" fill="url(#paint43_linear_2728_1916)"/>
<path d="M132.222 41.7211C132.222 41.7211 129.539 37.6123 127.015 40.8462L126.969 42.022C126.969 42.022 124.018 41.6713 124.535 38.9653C125.051 36.2593 127.601 34.5671 130.887 35.74C134.172 36.9128 136.054 38.1144 136.266 40.4677C136.478 42.8211 134.605 42.3065 134.605 42.3065C134.605 42.3065 133.994 40.6488 133.126 40.4764C132.258 40.3039 132.483 41.5965 132.483 41.5965L132.222 41.7211Z" fill="url(#paint44_linear_2728_1916)"/>
<path d="M133.199 42.3363C133.199 42.3363 131.805 40.233 133.232 39.9187C134.66 39.6044 134.44 41.9693 134.286 42.8431L133.199 42.3363Z" fill="url(#paint45_linear_2728_1916)"/>
<path d="M128.394 67.929L131.436 64.9959L135.642 66.7734C135.642 66.7734 139.83 67.4221 142.227 66.7734L144.622 66.1247L150.038 64.4382L150.889 66.8423C150.994 67.1394 150.999 67.4625 150.903 67.7627C150.808 68.0628 150.617 68.3237 150.36 68.5058C149.892 68.8383 149.343 69.2043 148.993 69.3577C148.279 69.67 131.409 69.1421 131.409 69.1421L128.394 67.929Z" fill="url(#paint46_linear_2728_1916)"/>
<path d="M139.903 69.3078L122.221 69.2934C122.016 69.2863 121.822 69.1999 121.679 69.0526C121.537 68.9052 121.458 68.7083 121.458 68.5034C121.458 68.2985 121.537 68.1016 121.679 67.9542C121.822 67.8068 122.016 67.7205 122.221 67.7133L139.862 67.7325C140.066 67.7361 140.26 67.8183 140.405 67.9619C140.55 68.1055 140.633 68.2995 140.638 68.5033C140.643 68.707 140.57 68.9049 140.432 69.0555C140.295 69.2062 140.105 69.2979 139.901 69.3116L139.903 69.3078Z" fill="url(#paint47_linear_2728_1916)"/>
<path d="M106.361 53.2933H121.053C121.584 53.2933 122.104 53.4443 122.553 53.7287C123.001 54.013 123.36 54.419 123.586 54.8993L130.379 69.302H112.12C111.779 69.302 111.445 69.1994 111.163 69.0075C110.881 68.8156 110.663 68.5433 110.537 68.226L105.267 54.8983C105.197 54.7201 105.171 54.5274 105.192 54.337C105.213 54.1465 105.281 53.9642 105.389 53.8059C105.497 53.6476 105.642 53.5181 105.811 53.4288C105.981 53.3394 106.17 53.2929 106.361 53.2933Z" fill="url(#paint48_linear_2728_1916)"/>
<path d="M116.712 60.6782C117.03 61.6671 116.795 62.6282 116.187 62.8236C115.578 63.0191 114.827 62.3762 114.508 61.3863C114.189 60.3965 114.426 59.4383 115.034 59.2467C115.642 59.055 116.394 59.6893 116.712 60.6782Z" fill="#7D97F4"/>
<path d="M160.017 98.6174C160.142 99.362 160.228 100.113 160.275 100.866C160.289 101.117 160.206 101.363 160.042 101.553C159.879 101.743 159.649 101.863 159.399 101.887C157.594 102.061 153.483 102.385 150.858 102.007C150.776 101.995 150.698 101.961 150.635 101.907C150.571 101.854 150.523 101.783 150.498 101.704C150.473 101.625 150.47 101.54 150.491 101.459C150.512 101.379 150.555 101.306 150.616 101.249C151.699 100.24 154.312 98.2782 158.614 97.8499L160.017 98.6174Z" fill="url(#paint49_linear_2728_1916)"/>
<path d="M160.914 96.2995L160.002 98.5379C159.941 98.6875 159.834 98.8135 159.695 98.897C159.557 98.9804 159.396 99.0168 159.235 99.0007C158.982 98.9758 158.732 98.9273 158.489 98.856C158.241 98.7801 158.034 98.6093 157.912 98.3809C157.789 98.1526 157.763 97.8852 157.837 97.6372L158.526 95.3374L160.914 96.2995Z" fill="url(#paint50_linear_2728_1916)"/>
<path d="M176.523 100.4C176.523 100.4 174.695 101.933 173.983 103.891C173.939 104.017 173.926 104.152 173.945 104.284C173.964 104.416 174.015 104.542 174.092 104.651C174.17 104.759 174.272 104.848 174.391 104.909C174.51 104.969 174.642 105.001 174.775 105H178.537C178.667 105 178.795 104.972 178.912 104.918C179.03 104.864 179.134 104.784 179.217 104.685C179.301 104.586 179.362 104.47 179.396 104.346C179.43 104.221 179.436 104.09 179.414 103.962C179.174 102.607 178.483 100.405 176.523 100.4Z" fill="url(#paint51_linear_2728_1916)"/>
<path d="M178.788 98.4085C178.788 98.4085 178.419 100.043 178.135 101.124C178.122 101.17 178.1 101.213 178.07 101.25C178.04 101.288 178.003 101.318 177.961 101.34C177.918 101.362 177.872 101.375 177.824 101.379C177.776 101.382 177.728 101.375 177.683 101.359C177.114 101.156 176.65 101.066 176.314 101.111C176.277 101.115 176.239 101.111 176.204 101.099C176.168 101.087 176.136 101.068 176.108 101.043C176.08 101.018 176.058 100.988 176.043 100.954C176.028 100.92 176.02 100.883 176.02 100.845L175.984 98.1297L178.788 98.4085Z" fill="url(#paint52_linear_2728_1916)"/>
<path d="M169.064 61.6288L157.949 95.5492C157.949 95.5492 160.082 96.9463 161.099 96.8907L174.307 69.6269C174.307 69.6269 176.618 86.4261 175.498 98.4861L179.282 98.7736C179.282 98.7736 185.433 67.952 180.774 57.3954L169.064 61.6288Z" fill="url(#paint53_linear_2728_1916)"/>
<path d="M174.23 69.3356H174.244C174.259 69.3341 174.272 69.3297 174.285 69.3228C174.298 69.3159 174.309 69.3065 174.318 69.2953C174.326 69.284 174.333 69.2711 174.337 69.2573C174.341 69.2435 174.342 69.2291 174.34 69.2149L173.909 65.7902C173.905 65.7619 173.891 65.7361 173.868 65.7186C173.846 65.7011 173.817 65.6933 173.789 65.6968C173.76 65.7004 173.735 65.715 173.717 65.7376C173.7 65.7601 173.692 65.7887 173.695 65.8171L174.127 69.2417C174.13 69.2671 174.142 69.2904 174.161 69.3076C174.18 69.3248 174.204 69.3347 174.23 69.3356Z" fill="url(#paint54_linear_2728_1916)"/>
<path d="M166.98 31.7768C166.98 31.7768 175.987 32.5769 174.715 38.9959C174.715 38.9959 179.698 48.3682 182.024 59.4057C182.042 59.4912 182.042 59.5793 182.025 59.6648C182.008 59.7503 181.973 59.8315 181.924 59.9036C181.875 59.9756 181.812 60.037 181.739 60.0842C181.665 60.1313 181.583 60.1633 181.497 60.178L166.49 62.7499C166.29 62.7835 166.085 62.7411 165.915 62.6312C165.745 62.5212 165.623 62.3516 165.572 62.1558L161.986 48.3011L160.593 54.7431L156.154 53.5865L159.891 34.6581C159.891 34.6581 160.412 31.8956 166.98 31.7768Z" fill="url(#paint55_linear_2728_1916)"/>
<path d="M161.913 47.6811C161.921 47.682 161.929 47.682 161.937 47.6811C161.966 47.6747 161.991 47.6571 162.007 47.6321C162.023 47.6072 162.029 47.5769 162.022 47.5479L160.772 41.8073C160.766 41.7784 160.748 41.7532 160.723 41.7372C160.698 41.7212 160.668 41.7158 160.639 41.722C160.61 41.7287 160.585 41.7463 160.569 41.7712C160.553 41.7961 160.548 41.8263 160.554 41.8552L161.799 47.5977C161.806 47.6226 161.821 47.6445 161.841 47.6596C161.862 47.6748 161.888 47.6824 161.913 47.6811Z" fill="#7D97F4"/>
<path d="M162.819 64.7697C163.292 64.5101 163.845 64.4383 164.368 64.5685L165.413 64.8282C165.465 64.8403 165.519 64.8413 165.572 64.8312C165.624 64.821 165.674 64.8 165.718 64.7694C165.762 64.7388 165.799 64.6993 165.827 64.6535C165.855 64.6076 165.872 64.5565 165.879 64.5034L166.96 54.8878C168.31 55.5298 170.259 55.4531 170.902 55.4062L168.411 66.7417H159.71L162.819 64.7697Z" fill="url(#paint56_linear_2728_1916)"/>
<path d="M139.702 43.9154L139.965 43.0415C140.039 42.793 140.169 42.5646 140.344 42.3731C140.519 42.1817 140.735 42.0322 140.976 41.9357L145.731 40.0193C145.731 40.0193 145.803 39.4099 144.727 38.995C143.651 38.5801 143.901 37.3747 143.901 37.3747C143.901 37.3747 145.373 38.0454 147.526 39.11C148.758 39.7184 149.449 40.7935 149.815 41.6013L160.593 54.7431L159.327 55.6131C158.935 55.8828 158.489 56.0664 158.021 56.152C157.553 56.2375 157.071 56.223 156.609 56.1095C156.146 55.9959 155.713 55.7858 155.338 55.4931C154.962 55.2003 154.653 54.8314 154.43 54.4106L148.59 43.214C145.659 44.0946 142.693 44.2622 139.702 43.9154Z" fill="url(#paint57_linear_2728_1916)"/>
<path d="M164.062 25.6472L166.833 33.4029C166.833 33.4029 164.379 35.3193 162.588 34.6725L161.192 30.2264C161.192 30.2264 162.258 24.7934 164.062 25.6472Z" fill="url(#paint58_linear_2728_1916)"/>
<path d="M159.665 20.2257C159.591 20.3311 157.332 28.517 157.332 28.517L162.033 29.7081L165.327 22.2666C165.327 22.2666 160.903 18.4683 159.665 20.2257Z" fill="url(#paint59_linear_2728_1916)"/>
<path d="M163.559 23.3983L162.131 27.4515C162.113 27.5029 162.088 27.5516 162.056 27.5962C161.864 27.8721 161.126 28.7728 160.251 27.9632C159.456 27.2282 158.718 26.569 158.041 26.4502C157.894 26.4241 157.743 26.4538 157.616 26.5336C157.49 26.6133 157.398 26.7374 157.359 26.8814C157.154 27.6249 156.723 29.3094 156.571 30.8301C156.557 30.9791 156.6 31.1279 156.69 31.2473C156.78 31.3666 156.912 31.4479 157.059 31.475C157.977 31.6494 159.924 31.9608 161.549 31.8449C161.657 31.8378 161.761 31.8016 161.85 31.7402C161.939 31.6788 162.009 31.5944 162.054 31.4961C162.502 30.5177 163.875 27.5473 164.382 26.7788C164.861 26.0573 166.034 26.0765 166.526 26.1196C166.606 26.1266 166.686 26.1175 166.762 26.0926C166.838 26.0677 166.909 26.0277 166.969 25.9749C167.399 25.5916 168.214 24.6334 167.065 23.4788C167.008 23.4218 166.963 23.354 166.933 23.2795C166.903 23.205 166.888 23.1251 166.889 23.0447C166.891 22.9644 166.908 22.885 166.94 22.8115C166.973 22.7379 167.02 22.6716 167.078 22.6164C167.573 22.1497 168.102 21.3238 167.276 20.2994C166.437 19.2588 165.329 19.4256 164.651 19.6737C164.518 19.7212 164.373 19.7205 164.241 19.6718C164.109 19.6231 163.998 19.5295 163.928 19.4074C163.88 19.3239 163.807 19.2574 163.719 19.2166C163.632 19.1759 163.534 19.1628 163.439 19.1793C163.356 19.1849 163.274 19.1733 163.196 19.1452C163.119 19.117 163.048 19.073 162.989 19.0159C162.929 18.9587 162.882 18.8898 162.851 18.8135C162.82 18.7372 162.805 18.6552 162.807 18.5728C162.819 17.902 162.579 17.0636 161.422 16.7043C159.367 16.067 158.089 18.0515 157.963 19.5319C157.836 21.0123 160.103 21.5767 161.436 21.4761C162.449 21.3995 163.201 22.4027 163.504 22.8885C163.55 22.9641 163.579 23.0491 163.589 23.1372C163.598 23.2254 163.588 23.3146 163.559 23.3983Z" fill="url(#paint60_linear_2728_1916)"/>
<path d="M163.847 28.2487C163.847 28.2487 164.177 25.6788 165.246 25.5523C166.315 25.4258 167.354 26.3036 166.294 27.7466C164.973 29.5423 163.847 28.2487 163.847 28.2487Z" fill="url(#paint61_linear_2728_1916)"/>
<path d="M170.027 55.5499C170.395 55.5516 170.763 55.5344 171.129 55.4982L171.209 55.4895L174.49 40.1937C174.496 40.1647 174.49 40.1346 174.474 40.1098C174.458 40.0851 174.432 40.0677 174.403 40.0615C174.389 40.0582 174.374 40.0579 174.36 40.0604C174.346 40.063 174.332 40.0684 174.319 40.0763C174.307 40.0843 174.297 40.0946 174.288 40.1067C174.28 40.1188 174.274 40.1324 174.271 40.1467L171.025 55.2864C170.536 55.3295 167.929 55.5029 166.553 54.5275L169.395 41.2324L168.802 40.1151C168.787 40.0917 168.763 40.0747 168.736 40.0677C168.709 40.0607 168.68 40.064 168.655 40.0771C168.631 40.0902 168.612 40.1121 168.602 40.1385C168.593 40.1648 168.594 40.1938 168.604 40.2196L169.159 41.2659L166.305 54.6185L166.361 54.6616C167.352 55.4138 168.958 55.5499 170.027 55.5499Z" fill="#7D97F4"/>
<path d="M71.6781 102.184C71.5999 102.184 71.5227 102.166 71.452 102.133C71.3088 102.059 71.1987 101.933 71.1433 101.781C71.088 101.63 71.0914 101.463 71.153 101.314L83.1411 70.8965C83.166 70.8236 83.2058 70.7567 83.2579 70.7001C83.3101 70.6435 83.3735 70.5983 83.4441 70.5676C83.5147 70.5368 83.591 70.5211 83.668 70.5215C83.745 70.5219 83.8211 70.5383 83.8914 70.5698C84.0346 70.6443 84.1448 70.7696 84.2003 70.9212C84.2558 71.0728 84.2526 71.2397 84.1913 71.389L72.2022 101.806C72.1627 101.914 72.0917 102.008 71.9982 102.076C71.9048 102.143 71.7932 102.181 71.6781 102.184Z" fill="#7D97F4"/>
<path d="M85.1831 102.184C85.0676 102.181 84.9557 102.143 84.8618 102.076C84.768 102.009 84.6966 101.915 84.657 101.806L72.6689 71.389C72.6076 71.2397 72.6044 71.0728 72.6599 70.9212C72.7154 70.7696 72.8256 70.6443 72.9688 70.5698C73.0391 70.5383 73.1152 70.5219 73.1922 70.5215C73.2692 70.5211 73.3454 70.5368 73.416 70.5676C73.4866 70.5983 73.5501 70.6435 73.6022 70.7001C73.6544 70.7567 73.6942 70.8236 73.7191 70.8965L85.7072 101.312C85.7688 101.461 85.7722 101.628 85.7169 101.78C85.6615 101.931 85.5514 102.057 85.4082 102.131C85.338 102.165 85.2611 102.183 85.1831 102.184Z" fill="#7D97F4"/>
<path d="M153.036 102.184C152.959 102.184 152.882 102.166 152.811 102.133C152.668 102.059 152.558 101.933 152.503 101.781C152.447 101.63 152.451 101.463 152.512 101.314L164.5 70.8965C164.525 70.8236 164.565 70.7567 164.617 70.7001C164.669 70.6435 164.733 70.5983 164.803 70.5676C164.874 70.5368 164.95 70.5211 165.027 70.5215C165.104 70.5219 165.18 70.5383 165.251 70.5698C165.394 70.6443 165.504 70.7696 165.56 70.9212C165.615 71.0728 165.612 71.2397 165.551 71.389L153.562 101.806C153.523 101.915 153.451 102.009 153.358 102.076C153.264 102.143 153.152 102.181 153.036 102.184Z" fill="#7D97F4"/>
<path d="M166.541 102.184C166.426 102.181 166.314 102.143 166.221 102.076C166.127 102.009 166.056 101.915 166.016 101.806L154.033 71.389C153.972 71.2397 153.969 71.0728 154.024 70.9212C154.08 70.7696 154.19 70.6443 154.333 70.5698C154.403 70.5383 154.479 70.5219 154.556 70.5215C154.633 70.5211 154.71 70.5368 154.78 70.5676C154.851 70.5983 154.914 70.6435 154.966 70.7001C155.019 70.7567 155.058 70.8236 155.083 70.8965L167.065 101.312C167.126 101.461 167.129 101.628 167.074 101.779C167.019 101.931 166.909 102.056 166.766 102.131C166.696 102.165 166.619 102.183 166.541 102.184Z" fill="#7D97F4"/>
<path d="M151.297 68.7482H168.66V66.9564H151.297C151.669 66.9564 151.669 68.7482 151.297 68.7482Z" fill="#BDD0FB"/>
<path d="M168.564 68.7482C168.59 68.7482 168.614 68.7381 168.632 68.7201C168.65 68.7022 168.66 68.6778 168.66 68.6524V67.0522C168.66 67.0268 168.65 67.0024 168.632 66.9844C168.614 66.9665 168.59 66.9564 168.564 66.9564H150.864C150.839 66.9564 150.814 66.9463 150.796 66.9283C150.778 66.9103 150.768 66.886 150.768 66.8606V66.6469C150.768 66.6215 150.778 66.5971 150.796 66.5791C150.814 66.5611 150.839 66.5511 150.864 66.5511H169.652C169.85 66.5511 170.041 66.63 170.182 66.7705C170.322 66.911 170.401 67.1016 170.401 67.3004V68.4502C170.401 68.6376 170.327 68.8173 170.194 68.9499C170.062 69.0825 169.882 69.1571 169.695 69.1574H150.864C150.839 69.1574 150.814 69.1473 150.796 69.1293C150.778 69.1113 150.768 69.087 150.768 69.0615V68.8479C150.768 68.8224 150.778 68.7981 150.796 68.7801C150.814 68.7621 150.839 68.752 150.864 68.752L168.564 68.7482Z" fill="url(#paint62_linear_2728_1916)"/>
<path d="M171.177 69.9556C171.236 69.7553 171.156 69.5493 170.961 69.3921C170.731 69.224 170.452 69.1368 170.167 69.144H66.1301C65.7267 69.144 65.3501 69.28 65.1326 69.5062C65.0293 69.5999 64.9642 69.7286 64.9499 69.8674C64.9355 70.0062 64.973 70.1454 65.055 70.2583L66.1828 71.8768C66.4406 72.2476 67.0001 72.4852 67.6201 72.4852H169.453C170.028 72.4852 170.518 72.216 170.626 71.8432L171.177 69.9556Z" fill="#7D97F4"/>
<path d="M68.5256 28.6857C68.4345 28.6869 68.3449 28.6622 68.2673 28.6143C68.1897 28.5665 68.1274 28.4975 68.0877 28.4154L67.6134 27.4572C67.1162 27.3881 66.6297 27.2565 66.1655 27.0653L65.2725 27.6517C65.1881 27.7074 65.0883 27.7352 64.9872 27.7313C64.8862 27.7273 64.7889 27.6918 64.7091 27.6297L63.4998 26.6964C63.4196 26.6346 63.3607 26.5494 63.3313 26.4525C63.3019 26.3556 63.3036 26.2519 63.336 26.156L63.6742 25.1441C63.3708 24.7435 63.1197 24.3059 62.9268 23.8419L61.8814 23.6254C61.7826 23.6048 61.6926 23.554 61.6239 23.48C61.5553 23.406 61.5113 23.3125 61.4981 23.2124L61.3065 21.6955C61.2928 21.5953 61.3112 21.4933 61.359 21.4041C61.4069 21.3149 61.4817 21.2432 61.5729 21.1992L62.5311 20.7201C62.6007 20.2225 62.733 19.7357 62.9249 19.2713L62.3327 18.383C62.2772 18.2986 62.2494 18.1989 62.2532 18.0979C62.2569 17.997 62.2921 17.8997 62.3538 17.8196L63.2909 16.6065C63.3529 16.5269 63.4381 16.4684 63.5348 16.4393C63.6314 16.4101 63.7347 16.4116 63.8304 16.4436L64.8432 16.7857C65.2438 16.4823 65.6814 16.2312 66.1454 16.0383L66.362 14.9929C66.3826 14.8941 66.4334 14.8041 66.5074 14.7354C66.5814 14.6668 66.6749 14.6228 66.775 14.6096L68.2918 14.418C68.3918 14.4048 68.4934 14.4233 68.5823 14.4707C68.6713 14.5181 68.7433 14.5921 68.7882 14.6824L69.2673 15.6406C69.7635 15.7092 70.2491 15.8406 70.7122 16.0316L71.6053 15.4452C71.6896 15.3899 71.789 15.3621 71.8897 15.3657C71.9905 15.3693 72.0876 15.4041 72.1677 15.4653L73.378 16.4005C73.458 16.4622 73.5168 16.5473 73.5461 16.644C73.5755 16.7407 73.574 16.8442 73.5418 16.94L73.1997 17.9528C73.5031 18.3534 73.7543 18.791 73.9471 19.255L74.9925 19.4715C75.0914 19.4921 75.1813 19.543 75.25 19.617C75.3187 19.6909 75.3626 19.7845 75.3758 19.8845L75.5675 21.4014C75.5804 21.5016 75.5617 21.6033 75.5139 21.6923C75.4662 21.7813 75.3917 21.8532 75.3011 21.8977L74.3429 22.372C74.2732 22.8697 74.1409 23.3565 73.9491 23.8208L74.5355 24.7139C74.5909 24.7984 74.6186 24.898 74.6148 24.999C74.611 25.0999 74.5759 25.1972 74.5144 25.2773L73.5801 26.4866C73.5184 26.5666 73.4333 26.6254 73.3366 26.6548C73.2399 26.6841 73.1365 26.6826 73.0407 26.6504L72.0278 26.3083C71.6272 26.6117 71.1897 26.8629 70.7256 27.0557L70.5139 28.105C70.4933 28.2038 70.4425 28.2938 70.3685 28.3624C70.2945 28.4311 70.201 28.4751 70.1009 28.4883L68.5841 28.6799C68.5647 28.6833 68.5452 28.6852 68.5256 28.6857ZM66.0946 26.2001L66.2863 26.2873C66.7975 26.5211 67.3435 26.6697 67.9028 26.7271L68.1126 26.7482L68.6875 27.898L69.8067 27.7572L70.0674 26.4962L70.259 26.4233C70.7855 26.226 71.2764 25.9444 71.7126 25.5897L71.8755 25.4565L73.0953 25.8685L73.789 24.9697L73.0819 23.8937L73.1691 23.702C73.4026 23.1904 73.5512 22.644 73.6089 22.0846L73.6395 21.8766L74.7894 21.3017L74.6447 20.1758L73.3837 19.9152L73.3109 19.7236C73.1136 19.1971 72.832 18.7062 72.4772 18.27L72.3441 18.1071L72.7561 16.8873L71.8582 16.1935L70.7812 16.8997L70.5896 16.8135C70.0781 16.5795 69.5317 16.4309 68.9721 16.3737L68.7632 16.3526L68.1883 15.2027L67.0624 15.3474L66.8075 16.6065L66.6159 16.6803C66.0892 16.8772 65.5983 17.1588 65.1623 17.5139L64.9994 17.6471L63.7796 17.2351L63.0859 18.1329L63.793 19.21L63.7058 19.4016C63.4707 19.9113 63.3205 20.4561 63.2612 21.0143L63.2401 21.2241L62.0903 21.799L62.235 22.924L63.495 23.1856L63.5688 23.3772C63.7658 23.9039 64.0473 24.3948 64.4024 24.8308L64.5356 24.9937L64.1236 26.2135L65.0157 26.9072L66.0946 26.2001ZM68.4298 25.6031C67.6463 25.6067 66.8784 25.384 66.2184 24.9618C65.5584 24.5396 65.0343 23.9358 64.7091 23.2231C64.3838 22.5103 64.2712 21.7187 64.3848 20.9435C64.4985 20.1683 64.8334 19.4424 65.3495 18.8529C65.8657 18.2634 66.541 17.8355 67.2944 17.6204C68.0478 17.4054 68.8472 17.4124 69.5968 17.6406C70.3463 17.8689 71.014 18.3086 71.5197 18.907C72.0254 19.5055 72.3475 20.2372 72.4475 21.0143C72.484 21.3003 72.4901 21.5893 72.4657 21.8766C72.4464 21.968 72.3943 22.0492 72.3193 22.1049C72.2443 22.1606 72.1515 22.187 72.0584 22.1791C71.9653 22.1712 71.8783 22.1296 71.8138 22.0621C71.7492 21.9946 71.7115 21.9058 71.7078 21.8124C71.7273 21.5778 71.7218 21.3417 71.6915 21.1082C71.5982 20.3843 71.268 19.7117 70.7524 19.1951C70.2368 18.6786 69.5647 18.3472 68.841 18.2527C68.1173 18.1582 67.3826 18.3058 66.7516 18.6726C66.1206 19.0393 65.6287 19.6046 65.3526 20.2802C65.0766 20.9558 65.0318 21.7038 65.2254 22.4075C65.419 23.1112 65.84 23.7311 66.4228 24.1704C67.0056 24.6098 67.7174 24.8439 68.4472 24.8363C69.177 24.8287 69.8838 24.5798 70.4573 24.1284C70.5374 24.0792 70.6327 24.061 70.7253 24.0775C70.8178 24.0939 70.9011 24.1437 70.9592 24.2175C71.0174 24.2913 71.0465 24.3839 71.0409 24.4777C71.0352 24.5715 70.9954 24.66 70.9288 24.7263C70.3507 25.1819 69.6599 25.472 68.93 25.5657C68.7648 25.5879 68.5984 25.6 68.4317 25.6021L68.4298 25.6031Z" fill="#7D97F4"/>
<path d="M68.4499 23.289C68.1334 23.291 67.8225 23.2066 67.5505 23.0448C67.2785 22.883 67.0558 22.65 66.9065 22.371C66.7572 22.092 66.6869 21.7775 66.7032 21.4615C66.7195 21.1454 66.8217 20.8398 66.9989 20.5776C67.1761 20.3154 67.4215 20.1066 67.7087 19.9736C67.9959 19.8406 68.3139 19.7886 68.6285 19.8231C68.943 19.8575 69.2422 19.9772 69.4938 20.1693C69.7453 20.3613 69.9397 20.6183 70.0559 20.9127C70.1591 21.1754 70.1968 21.4594 70.1659 21.74C70.1349 22.0206 70.0361 22.2894 69.878 22.5233C69.7199 22.7572 69.5073 22.9492 69.2585 23.0826C69.0097 23.216 68.7322 23.2868 68.4499 23.289ZM68.4317 20.5725C68.2233 20.5739 68.0207 20.6419 67.8537 20.7667C67.6867 20.8915 67.5641 21.0664 67.5036 21.2659C67.4432 21.4654 67.4482 21.679 67.5179 21.8755C67.5876 22.0719 67.7184 22.2409 67.8911 22.3577C68.0637 22.4745 68.2692 22.5329 68.4775 22.5245C68.6858 22.5161 68.8859 22.4413 69.0486 22.311C69.2113 22.1806 69.328 22.0017 69.3816 21.8003C69.4353 21.5988 69.4231 21.3855 69.3468 21.1915C69.3 21.0722 69.2301 20.9633 69.1412 20.8711C69.0522 20.7788 68.9459 20.705 68.8284 20.654C68.7032 20.5997 68.5681 20.572 68.4317 20.5725Z" fill="#7D97F4"/>
<path d="M57.5465 18.8813C57.5049 18.8819 57.4635 18.8744 57.4248 18.8593L56.7378 18.5986C56.6725 18.5738 56.6166 18.5293 56.5778 18.4712C56.539 18.4132 56.5192 18.3445 56.5212 18.2747L56.5356 17.8139C56.3646 17.6842 56.2081 17.5364 56.0689 17.3731L55.6109 17.4143C55.5419 17.4209 55.4726 17.406 55.4124 17.3717C55.3522 17.3374 55.3041 17.2853 55.2746 17.2226L54.9727 16.5519C54.9443 16.4879 54.9364 16.4167 54.9501 16.3481C54.9638 16.2794 54.9985 16.2167 55.0494 16.1686L55.3848 15.8543C55.3549 15.6426 55.3485 15.4283 55.3656 15.2152L55.012 14.9201C54.959 14.8748 54.9213 14.8142 54.9041 14.7465C54.887 14.6789 54.8912 14.6077 54.9162 14.5425L55.1768 13.8555C55.2017 13.7904 55.2459 13.7345 55.3034 13.6953C55.361 13.6561 55.4292 13.6354 55.4988 13.6361L55.9587 13.6505C56.0873 13.4797 56.2341 13.3235 56.3966 13.1848L56.3554 12.7258C56.3495 12.6563 56.3653 12.5867 56.4007 12.5267C56.4361 12.4666 56.4892 12.419 56.5528 12.3904L57.2236 12.0886C57.2876 12.0598 57.3589 12.0518 57.4277 12.0657C57.4965 12.0797 57.5591 12.1148 57.6069 12.1662L57.9211 12.5006C58.1328 12.4708 58.3472 12.4643 58.5603 12.4814L58.8554 12.1279C58.9006 12.0747 58.9612 12.0369 59.0289 12.0197C59.0965 12.0026 59.1678 12.0069 59.2329 12.032L59.92 12.2927C59.9853 12.3174 60.0413 12.3619 60.0801 12.4199C60.1189 12.478 60.1386 12.5467 60.1365 12.6165L60.1221 13.0774C60.2929 13.206 60.4491 13.3528 60.5878 13.5153L61.0459 13.4741C61.1159 13.4678 61.1861 13.4836 61.2468 13.5191C61.3074 13.5547 61.3554 13.6083 61.3841 13.6725L61.685 14.3432C61.7136 14.4071 61.7216 14.4783 61.7081 14.5469C61.6945 14.6156 61.66 14.6783 61.6093 14.7265L61.273 15.0418C61.3028 15.2538 61.3092 15.4684 61.2921 15.6818L61.6457 15.976C61.6989 16.0214 61.7368 16.0822 61.7539 16.15C61.7711 16.2178 61.7668 16.2893 61.7415 16.3545L61.4809 17.0406C61.4562 17.1059 61.4117 17.1619 61.3536 17.2007C61.2956 17.2395 61.2268 17.2593 61.157 17.2571L60.6961 17.2437C60.5671 17.4141 60.4203 17.5702 60.2582 17.7094L60.2994 18.1674C60.3058 18.237 60.2902 18.3067 60.255 18.367C60.2198 18.4273 60.1667 18.4751 60.103 18.5038L59.4322 18.8056C59.3682 18.8342 59.2969 18.8421 59.2282 18.8282C59.1594 18.8143 59.0968 18.7793 59.049 18.728L58.7347 18.3936C58.5227 18.4234 58.308 18.4298 58.0946 18.4127L57.8004 18.7663C57.7688 18.8025 57.7297 18.8315 57.6859 18.8513C57.6421 18.8712 57.5946 18.8814 57.5465 18.8813ZM57.0923 18.1243L57.466 18.2661L57.8493 17.8033L58.0055 17.8234C58.2624 17.8588 58.5233 17.8513 58.7778 17.8014L58.9321 17.7707L59.345 18.2096L59.7092 18.0457L59.6555 17.4459L59.7801 17.3501C59.9863 17.1929 60.1653 17.0029 60.31 16.7876L60.3981 16.6573L61.0008 16.6755L61.1426 16.3018L60.6798 15.9185L60.6999 15.7623C60.7348 15.5054 60.7274 15.2445 60.6779 14.99L60.6472 14.8358L61.0861 14.4228L60.9222 14.0586L60.3224 14.1123L60.2266 13.9877C60.0694 13.7815 59.8794 13.6025 59.6641 13.4579L59.5338 13.3697L59.552 12.767L59.1783 12.6252L58.795 13.088L58.6436 13.0612C58.3867 13.0268 58.1259 13.0342 57.8713 13.0832L57.7171 13.1139L57.3041 12.6779L56.939 12.8417L56.9936 13.4416L56.871 13.5403C56.6647 13.6975 56.4857 13.8875 56.3411 14.1027L56.2529 14.233L55.6483 14.211L55.5065 14.5847L55.9693 14.968L55.9492 15.1242C55.9148 15.3811 55.9222 15.6419 55.9712 15.8965L56.0019 16.0508L55.563 16.4637L55.7269 16.8288L56.3267 16.7742L56.4225 16.8988C56.5797 17.105 56.7697 17.284 56.985 17.4287L57.1153 17.5168L57.0923 18.1243ZM58.3236 17.5015C57.9528 17.5032 57.5885 17.4048 57.269 17.2167C56.9495 17.0286 56.6867 16.7578 56.5083 16.4328C56.3298 16.1078 56.2424 15.7407 56.2552 15.3701C56.2681 14.9996 56.3806 14.6394 56.5811 14.3275C56.7816 14.0156 57.0625 13.7636 57.3942 13.598C57.7259 13.4325 58.0962 13.3595 58.466 13.3868C58.8357 13.4141 59.1912 13.5407 59.495 13.7532C59.7988 13.9658 60.0397 14.2563 60.1921 14.5943C60.2524 14.7279 60.2981 14.8676 60.3282 15.0111C60.3348 15.0813 60.3154 15.1515 60.2737 15.2084C60.232 15.2652 60.1708 15.3048 60.1018 15.3194C60.0328 15.3341 59.9608 15.3229 59.8996 15.288C59.8383 15.253 59.792 15.1968 59.7695 15.1299C59.7484 15.0265 59.7163 14.9256 59.6737 14.829C59.539 14.5297 59.3089 14.2833 59.0195 14.1284C58.7301 13.9735 58.3975 13.9187 58.0737 13.9725C57.7499 14.0264 57.4529 14.1858 57.2292 14.4261C57.0055 14.6664 56.8676 14.9739 56.837 15.3007C56.8064 15.6276 56.8847 15.9554 57.0599 16.233C57.2351 16.5107 57.4972 16.7226 57.8054 16.8356C58.1136 16.9487 58.4505 16.9566 58.7637 16.8582C59.0769 16.7597 59.3487 16.5604 59.5367 16.2913C59.5557 16.2553 59.5821 16.2238 59.6142 16.1988C59.6463 16.1738 59.6834 16.1559 59.7229 16.1463C59.7625 16.1366 59.8036 16.1355 59.8436 16.143C59.8836 16.1505 59.9215 16.1663 59.9549 16.1896C59.9883 16.2128 60.0164 16.2428 60.0374 16.2777C60.0583 16.3126 60.0716 16.3516 60.0763 16.392C60.0811 16.4324 60.0772 16.4734 60.065 16.5122C60.0527 16.551 60.0323 16.5867 60.0052 16.6171C59.8169 16.8871 59.5667 17.1081 59.2755 17.2617C58.9842 17.4152 58.6605 17.4968 58.3313 17.4996L58.3236 17.5015Z" fill="#7D97F4"/>
<path d="M127.058 11.0729V26.0209H130.236L133.142 28.9271L136.048 26.0209H148.33V11.0729H127.058Z" fill="#DDDDDD"/>
<path d="M131.293 13.8469V13.867L131.027 14.1296L130.254 13.363V13.3122L131.027 12.5456L131.293 12.8082V12.8283L130.762 13.339L131.293 13.8469Z" fill="black"/>
<path d="M133 11.8155L131.877 14.6709H131.451L132.569 11.8155H133Z" fill="black"/>
<path d="M133.683 13.339L133.152 12.8283V12.8082L133.417 12.5456L134.19 13.3122V13.363L133.417 14.1296L133.152 13.867V13.8469L133.683 13.339Z" fill="black"/>
<path d="M131.293 23.6187V23.6388L131.027 23.9013L130.254 23.1348V23.0849L131.027 22.3184L131.293 22.58V22.601L130.762 23.1118L131.293 23.6187Z" fill="black"/>
<path d="M133 21.5892L131.877 24.4398H131.451L132.569 21.5892H133Z" fill="black"/>
<path d="M133.683 23.1108L133.152 22.6001V22.579L133.417 22.3174L134.19 23.084V23.1338L133.417 23.9004L133.152 23.6378V23.6177L133.683 23.1108Z" fill="black"/>
<path d="M140.229 15.5563H130.734C130.589 15.5563 130.471 15.6743 130.471 15.8198C130.471 15.9654 130.589 16.0833 130.734 16.0833H140.229C140.375 16.0833 140.493 15.9654 140.493 15.8198C140.493 15.6743 140.375 15.5563 140.229 15.5563Z" fill="black"/>
<path d="M134.691 18.7213H134.295C134.149 18.7213 134.031 18.8393 134.031 18.9848C134.031 19.1303 134.149 19.2483 134.295 19.2483H134.691C134.836 19.2483 134.954 19.1303 134.954 18.9848C134.954 18.8393 134.836 18.7213 134.691 18.7213Z" fill="black"/>
<path d="M143.262 20.4355H142.866C142.721 20.4355 142.603 20.5535 142.603 20.699C142.603 20.8445 142.721 20.9625 142.866 20.9625H143.262C143.407 20.9625 143.525 20.8445 143.525 20.699C143.525 20.5535 143.407 20.4355 143.262 20.4355Z" fill="black"/>
<path d="M141.283 18.7213H136.404C136.258 18.7213 136.14 18.8393 136.14 18.9848C136.14 19.1303 136.258 19.2483 136.404 19.2483H141.283C141.429 19.2483 141.547 19.1303 141.547 18.9848C141.547 18.8393 141.429 18.7213 141.283 18.7213Z" fill="black"/>
<path d="M144.713 17.1393H130.734C130.589 17.1393 130.471 17.2573 130.471 17.4028C130.471 17.5483 130.589 17.6663 130.734 17.6663H144.713C144.858 17.6663 144.976 17.5483 144.976 17.4028C144.976 17.2573 144.858 17.1393 144.713 17.1393Z" fill="black"/>
<path d="M141.284 20.4355H130.734C130.589 20.4355 130.471 20.5535 130.471 20.699C130.471 20.8445 130.589 20.9625 130.734 20.9625H141.284C141.43 20.9625 141.548 20.8445 141.548 20.699C141.548 20.5535 141.43 20.4355 141.284 20.4355Z" fill="black"/>
<path d="M143.79 15.5563H141.811C141.666 15.5563 141.548 15.6743 141.548 15.8198C141.548 15.9654 141.666 16.0833 141.811 16.0833H143.79C143.935 16.0833 144.053 15.9654 144.053 15.8198C144.053 15.6743 143.935 15.5563 143.79 15.5563Z" fill="black"/>
<path d="M132.713 18.7213H130.734C130.589 18.7213 130.471 18.8393 130.471 18.9848C130.471 19.1303 130.589 19.2483 130.734 19.2483H132.713C132.858 19.2483 132.976 19.1303 132.976 18.9848C132.976 18.8393 132.858 18.7213 132.713 18.7213Z" fill="black"/>
<path d="M177.245 9.10665C177.247 8.4359 177.076 7.77587 176.748 7.1908C176.42 6.60574 175.946 6.11555 175.373 5.76795C174.799 5.42034 174.145 5.22716 173.475 5.20721C172.804 5.18725 172.14 5.3412 171.547 5.65407C170.953 5.96693 170.451 6.42807 170.089 6.99259C169.727 7.55711 169.517 8.2058 169.48 8.87552C169.442 9.54524 169.579 10.2132 169.877 10.8144C170.174 11.4155 170.622 11.9294 171.177 12.3061C171.361 12.4337 171.511 12.6049 171.612 12.8044C171.714 13.0039 171.765 13.2254 171.76 13.4492H174.959C174.956 13.2284 175.007 13.01 175.107 12.8132C175.207 12.6163 175.354 12.4468 175.534 12.3195C176.061 11.9655 176.493 11.4873 176.791 10.9269C177.089 10.3666 177.245 9.74143 177.245 9.10665Z" fill="#EDBF4F"/>
<path d="M174.959 15.7345V17.3338L174.16 16.8767L173.357 17.3338L172.56 16.8767L171.76 17.3338V15.7345H174.959Z" fill="#6773BA"/>
<path d="M174.959 17.3338L174.015 18.292C173.847 18.118 173.615 18.0183 173.373 18.0147C173.131 18.0111 172.897 18.104 172.723 18.2728L171.765 17.329L172.565 16.8719L173.365 17.329L174.167 16.8719L174.959 17.3338Z" fill="#9CA8DB"/>
<path d="M175.645 15.1625C175.645 15.3137 175.586 15.4587 175.48 15.5663C175.373 15.6739 175.229 15.7354 175.078 15.7374H171.646C171.505 15.7221 171.375 15.6553 171.28 15.5498C171.185 15.4443 171.133 15.3076 171.133 15.1659C171.133 15.0241 171.185 14.8874 171.28 14.7819C171.375 14.6764 171.505 14.6096 171.646 14.5943H175.074C175.225 14.5953 175.369 14.6554 175.476 14.7616C175.583 14.8679 175.644 15.0118 175.645 15.1625Z" fill="#6773BA"/>
<path d="M171.646 13.4492H175.074C175.227 13.4492 175.373 13.5098 175.481 13.6176C175.589 13.7254 175.649 13.8717 175.649 14.0242C175.649 14.1766 175.589 14.3229 175.481 14.4307C175.373 14.5385 175.227 14.5991 175.074 14.5991H171.646C171.493 14.5991 171.347 14.5385 171.239 14.4307C171.131 14.3229 171.071 14.1766 171.071 14.0242C171.071 13.8717 171.131 13.7254 171.239 13.6176C171.347 13.5098 171.493 13.4492 171.646 13.4492Z" fill="#6773BA"/>
<path d="M174.015 18.2958L173.39 18.934L172.719 18.2776C172.893 18.1087 173.127 18.0156 173.369 18.0189C173.612 18.0221 173.843 18.1214 174.013 18.2949L174.015 18.2958Z" fill="#EDBF4F"/>
<path d="M173.389 19.1621C173.359 19.1621 173.33 19.1563 173.302 19.1449C173.275 19.1336 173.25 19.1169 173.229 19.0959L171.6 17.4957C171.578 17.4746 171.561 17.4494 171.549 17.4216C171.538 17.3938 171.532 17.364 171.532 17.3338V15.7345C171.532 15.674 171.556 15.6159 171.598 15.573C171.641 15.53 171.699 15.5058 171.76 15.5055H174.959C175.02 15.5055 175.078 15.5297 175.121 15.5726C175.164 15.6156 175.188 15.6738 175.188 15.7345V15.9626C175.19 15.9939 175.186 16.0252 175.175 16.0547C175.165 16.0842 175.148 16.1112 175.127 16.134C175.105 16.1569 175.079 16.1751 175.051 16.1875C175.022 16.2 174.991 16.2064 174.96 16.2064C174.928 16.2064 174.897 16.2 174.869 16.1875C174.84 16.1751 174.814 16.1569 174.793 16.134C174.771 16.1112 174.755 16.0842 174.744 16.0547C174.734 16.0252 174.729 15.9939 174.731 15.9626H171.989V17.238L173.389 18.6092L174.73 17.238V16.8767C174.734 16.8187 174.76 16.7642 174.802 16.7244C174.845 16.6847 174.901 16.6625 174.959 16.6625C175.017 16.6625 175.073 16.6847 175.115 16.7244C175.158 16.7642 175.184 16.8187 175.187 16.8767V17.3338C175.187 17.3635 175.181 17.3929 175.17 17.4204C175.159 17.4478 175.142 17.4728 175.121 17.4938L173.552 19.0978C173.509 19.1408 173.452 19.1652 173.392 19.1659L173.389 19.1621Z" fill="#383E6D"/>
<path d="M171.76 17.5647C171.709 17.5654 171.659 17.5492 171.619 17.5185C171.578 17.4879 171.549 17.4446 171.536 17.3955C171.523 17.3464 171.527 17.2944 171.547 17.2476C171.566 17.2008 171.601 17.162 171.646 17.1374L172.446 16.6803C172.48 16.6601 172.52 16.6494 172.56 16.6494C172.6 16.6494 172.639 16.6601 172.674 16.6803L173.36 17.0732L174.045 16.6803C174.08 16.6601 174.119 16.6495 174.16 16.6495C174.2 16.6495 174.239 16.6601 174.274 16.6803L175.076 17.1374C175.102 17.1523 175.125 17.1723 175.144 17.1961C175.162 17.22 175.175 17.2472 175.183 17.2762C175.191 17.3053 175.193 17.3356 175.189 17.3654C175.186 17.3953 175.176 17.4241 175.161 17.4502C175.146 17.4763 175.126 17.4992 175.102 17.5176C175.078 17.536 175.051 17.5495 175.022 17.5574C174.993 17.5653 174.963 17.5674 174.933 17.5635C174.903 17.5597 174.874 17.55 174.848 17.535L174.162 17.1412L173.477 17.535C173.442 17.5548 173.403 17.5653 173.362 17.5653C173.322 17.5653 173.283 17.5548 173.248 17.535L172.562 17.1412L171.877 17.535C171.841 17.5549 171.801 17.5651 171.76 17.5647ZM173.389 19.164C173.359 19.164 173.33 19.1582 173.302 19.1468C173.275 19.1355 173.25 19.1188 173.229 19.0978L172.558 18.4424C172.536 18.421 172.519 18.3954 172.507 18.3673C172.496 18.3392 172.49 18.309 172.49 18.2786C172.49 18.2481 172.496 18.218 172.507 18.1898C172.519 18.1617 172.536 18.1362 172.558 18.1147C172.775 17.9034 173.067 17.7869 173.371 17.7909C173.674 17.7948 173.963 17.9189 174.174 18.1358C174.216 18.1785 174.24 18.236 174.24 18.2958C174.24 18.3557 174.216 18.4132 174.174 18.4558L173.552 19.0978C173.509 19.1408 173.452 19.1652 173.392 19.1659L173.389 19.164ZM173.078 18.3092L173.386 18.613L173.673 18.3255C173.582 18.2794 173.481 18.2538 173.378 18.2507C173.276 18.2475 173.174 18.2669 173.079 18.3073L173.078 18.3092ZM174.958 13.6792H171.76C171.699 13.6789 171.642 13.6548 171.599 13.6121C171.556 13.5694 171.532 13.5115 171.532 13.4511C171.535 13.267 171.493 13.0848 171.409 12.9206C171.326 12.7564 171.203 12.6152 171.053 12.5092C170.458 12.1122 169.979 11.5658 169.662 10.9248C169.346 10.2838 169.203 9.57088 169.249 8.85751C169.255 8.79873 169.283 8.7443 169.327 8.70557C169.372 8.66685 169.429 8.64682 169.488 8.64966C169.547 8.6525 169.603 8.678 169.644 8.72083C169.684 8.76366 169.707 8.82052 169.706 8.87955C169.664 9.5133 169.79 10.1469 170.071 10.7167C170.352 11.2864 170.777 11.7721 171.306 12.125C171.489 12.25 171.643 12.4124 171.759 12.6015C171.874 12.7907 171.949 13.0022 171.976 13.2221H174.755C174.779 13.0437 174.833 12.8706 174.915 12.7105C175.034 12.479 175.209 12.2812 175.424 12.1355C175.9 11.8119 176.293 11.3805 176.571 10.8765C176.849 10.3724 177.004 9.80983 177.023 9.23456C177.042 8.6593 176.926 8.08757 176.683 7.56585C176.44 7.04413 176.077 6.58717 175.624 6.23211C175.171 5.87706 174.64 5.63394 174.076 5.52253C173.511 5.41112 172.928 5.43457 172.374 5.59096C171.82 5.74735 171.311 6.03227 170.888 6.42256C170.465 6.81284 170.14 7.29747 169.939 7.83702C169.918 7.89395 169.875 7.94011 169.82 7.96536C169.764 7.99061 169.701 7.99287 169.645 7.97165C169.588 7.95043 169.541 7.90746 169.516 7.85221C169.491 7.79695 169.489 7.73393 169.51 7.677C169.779 6.96538 170.238 6.3415 170.838 5.87381C171.438 5.40611 172.155 5.11266 172.911 5.02565C173.824 4.92315 174.745 5.12971 175.528 5.61234C176.31 6.09496 176.908 6.82581 177.226 7.68813C177.544 8.55045 177.564 9.49449 177.282 10.3694C177.001 11.2444 176.434 11.9998 175.673 12.515C175.524 12.6182 175.403 12.7572 175.321 12.9193C175.239 13.0859 175.196 13.2692 175.196 13.455C175.195 13.4851 175.188 13.5148 175.176 13.5423C175.163 13.5699 175.146 13.5947 175.124 13.6153C175.102 13.636 175.076 13.6521 175.048 13.6627C175.019 13.6734 174.989 13.6783 174.959 13.6773L174.958 13.6792Z" fill="#383E6D"/>
<path d="M168.332 9.56371H167.189C167.131 9.55995 167.077 9.53424 167.037 9.49179C166.997 9.44935 166.975 9.39335 166.975 9.33518C166.975 9.277 166.997 9.22101 167.037 9.17856C167.077 9.13612 167.131 9.11041 167.189 9.10665H168.332C168.39 9.11041 168.445 9.13612 168.485 9.17856C168.524 9.22101 168.546 9.277 168.546 9.33518C168.546 9.39335 168.524 9.44935 168.485 9.49179C168.445 9.53424 168.39 9.55995 168.332 9.56371ZM179.531 9.56371H178.388C178.33 9.55995 178.275 9.53424 178.235 9.49179C178.196 9.44935 178.173 9.39335 178.173 9.33518C178.173 9.277 178.196 9.22101 178.235 9.17856C178.275 9.13612 178.33 9.11041 178.388 9.10665H179.531C179.589 9.11041 179.643 9.13612 179.683 9.17856C179.723 9.22101 179.745 9.277 179.745 9.33518C179.745 9.39335 179.723 9.44935 179.683 9.49179C179.643 9.53424 179.589 9.55995 179.531 9.56371ZM168.017 12.6491C167.966 12.6501 167.916 12.634 167.876 12.6034C167.835 12.5728 167.806 12.5295 167.793 12.4804C167.779 12.4312 167.783 12.3791 167.803 12.3322C167.823 12.2854 167.858 12.2465 167.902 12.2218L168.892 11.6468C168.945 11.6165 169.007 11.6083 169.066 11.6241C169.125 11.6399 169.175 11.6784 169.205 11.7312C169.236 11.7839 169.244 11.8465 169.228 11.9053C169.212 11.9641 169.174 12.0141 169.121 12.0445L168.131 12.6194C168.096 12.6386 168.057 12.6488 168.017 12.6491ZM177.713 7.04938C177.653 7.04964 177.595 7.02601 177.552 6.98366C177.508 6.9413 177.484 6.88365 177.483 6.82324C177.483 6.78245 177.494 6.74234 177.514 6.70699C177.534 6.67165 177.564 6.64233 177.599 6.62202L178.589 6.04709C178.615 6.03212 178.644 6.02244 178.674 6.01859C178.704 6.01475 178.734 6.01683 178.763 6.0247C178.792 6.03258 178.819 6.0461 178.843 6.06449C178.867 6.08288 178.887 6.10579 178.902 6.1319C178.917 6.15801 178.926 6.18681 178.93 6.21666C178.934 6.24652 178.932 6.27683 178.924 6.30589C178.916 6.33494 178.903 6.36215 178.884 6.38598C178.866 6.40981 178.843 6.42978 178.817 6.44475L177.828 7.01967C177.793 7.03986 177.753 7.05014 177.713 7.04938ZM169.017 7.04938C168.977 7.05026 168.938 7.03997 168.903 7.01967L167.902 6.44475C167.849 6.41438 167.811 6.36431 167.795 6.30555C167.779 6.24679 167.787 6.18415 167.818 6.13142C167.848 6.07868 167.898 6.04018 167.957 6.02436C168.016 6.00855 168.078 6.01673 168.131 6.04709L169.121 6.62202C169.164 6.6467 169.198 6.68465 169.217 6.73017C169.237 6.7757 169.241 6.82635 169.229 6.87451C169.218 6.92267 169.191 6.96575 169.153 6.99728C169.114 7.02881 169.067 7.04709 169.017 7.04938ZM178.703 12.6491C178.663 12.6491 178.624 12.6389 178.589 12.6194L177.599 12.0445C177.546 12.0141 177.508 11.9641 177.492 11.9053C177.476 11.8465 177.484 11.7839 177.515 11.7312C177.545 11.6784 177.595 11.6399 177.654 11.6241C177.713 11.6083 177.775 11.6165 177.828 11.6468L178.817 12.2218C178.861 12.2464 178.896 12.2852 178.916 12.332C178.936 12.3788 178.94 12.4308 178.927 12.4799C178.913 12.529 178.884 12.5723 178.844 12.6029C178.803 12.6336 178.754 12.6498 178.703 12.6491Z" fill="#EDBF4F"/>
<path d="M173.817 13.6773C173.756 13.6773 173.698 13.6533 173.655 13.6105C173.613 13.5678 173.588 13.5098 173.588 13.4492V13.3323C173.59 12.7877 173.681 12.2471 173.858 11.7321C173.867 11.7027 173.883 11.6755 173.902 11.652C173.922 11.6286 173.947 11.6093 173.974 11.5955C174.002 11.5817 174.032 11.5735 174.063 11.5715C174.093 11.5695 174.124 11.5737 174.153 11.5839C174.182 11.594 174.209 11.6099 174.232 11.6306C174.255 11.6513 174.273 11.6763 174.286 11.7043C174.299 11.7322 174.306 11.7625 174.307 11.7933C174.309 11.8241 174.303 11.8548 174.292 11.8835C174.13 12.3492 174.046 12.839 174.045 13.3323V13.4492C174.045 13.5097 174.021 13.5677 173.978 13.6105C173.936 13.6533 173.878 13.6773 173.817 13.6773Z" fill="#6773BA"/>
<path d="M172.903 13.6773C172.842 13.6773 172.784 13.6533 172.741 13.6105C172.698 13.5678 172.674 13.5098 172.674 13.4492V13.3323C172.675 12.7477 172.56 12.1687 172.336 11.6287C172.112 11.0888 171.784 10.5986 171.369 10.1865C171.348 10.1654 171.331 10.1402 171.319 10.1125C171.308 10.0848 171.302 10.0551 171.302 10.0251C171.302 9.99509 171.308 9.96539 171.319 9.93768C171.331 9.90998 171.348 9.88481 171.369 9.86363L172.284 8.9495C172.305 8.92819 172.33 8.91129 172.358 8.89978C172.386 8.88827 172.416 8.88237 172.446 8.88242C172.476 8.88242 172.506 8.88835 172.533 8.89986C172.561 8.91136 172.587 8.92823 172.608 8.9495L173.36 9.70361L174.114 8.9495C174.135 8.92826 174.16 8.91141 174.188 8.89992C174.216 8.88842 174.246 8.8825 174.276 8.8825C174.306 8.8825 174.335 8.88842 174.363 8.89992C174.391 8.91141 174.416 8.92826 174.437 8.9495L175.351 9.86363C175.372 9.88481 175.389 9.90998 175.401 9.93768C175.412 9.96539 175.418 9.99509 175.418 10.0251C175.418 10.0551 175.412 10.0848 175.401 10.1125C175.389 10.1402 175.372 10.1654 175.351 10.1865C175.079 10.459 174.845 10.7664 174.654 11.1007C174.639 11.1268 174.619 11.1497 174.595 11.1681C174.571 11.1865 174.544 11.2 174.515 11.2079C174.486 11.2157 174.455 11.2178 174.425 11.214C174.396 11.2101 174.367 11.2004 174.341 11.1855C174.315 11.1705 174.292 11.1505 174.273 11.1267C174.255 11.1029 174.241 11.0757 174.234 11.0466C174.226 11.0176 174.224 10.9872 174.227 10.9574C174.231 10.9275 174.241 10.8987 174.256 10.8726C174.428 10.5687 174.633 10.2844 174.866 10.0246L174.272 9.43243L173.52 10.1865C173.477 10.2286 173.42 10.2523 173.36 10.2527C173.33 10.2532 173.3 10.2477 173.272 10.2363C173.244 10.2249 173.218 10.208 173.197 10.1865L172.445 9.43531L171.851 10.0246C172.679 10.9281 173.136 12.1107 173.13 13.3362V13.4531C173.129 13.5127 173.105 13.5696 173.062 13.6115C173.02 13.6534 172.963 13.677 172.903 13.6773Z" fill="#6773BA"/>
<path d="M176.33 9.3347C176.27 9.3347 176.212 9.31067 176.169 9.2679C176.126 9.22513 176.102 9.16713 176.102 9.10664C176.103 9.00517 176.097 8.90375 176.086 8.80289C176.08 8.74282 176.099 8.68293 176.137 8.63612C176.175 8.58931 176.23 8.55935 176.29 8.55269C176.35 8.54602 176.41 8.5632 176.457 8.6005C176.505 8.63781 176.535 8.69226 176.543 8.75211C176.555 8.86988 176.561 8.98825 176.559 9.10664C176.559 9.13667 176.553 9.16641 176.542 9.19414C176.53 9.22187 176.514 9.24705 176.492 9.26824C176.471 9.28943 176.446 9.30621 176.418 9.31761C176.39 9.32902 176.36 9.33482 176.33 9.3347ZM175.995 7.9635C175.953 7.96378 175.912 7.95247 175.876 7.93082C175.84 7.90918 175.811 7.87804 175.792 7.84085C175.56 7.39578 175.211 7.02274 174.782 6.76238C174.354 6.50202 173.862 6.36431 173.36 6.36426C173.329 6.36629 173.297 6.36188 173.268 6.35131C173.238 6.34074 173.211 6.32424 173.189 6.30282C173.166 6.2814 173.147 6.25552 173.135 6.22678C173.123 6.19804 173.116 6.16705 173.116 6.13573C173.116 6.10441 173.123 6.07342 173.135 6.04468C173.147 6.01594 173.166 5.99006 173.189 5.96864C173.211 5.94722 173.238 5.93072 173.268 5.92015C173.297 5.90958 173.329 5.90517 173.36 5.9072C173.946 5.9074 174.52 6.06834 175.02 6.37247C175.521 6.6766 175.928 7.11226 176.198 7.63197C176.226 7.68562 176.232 7.74819 176.214 7.80601C176.196 7.86383 176.156 7.91219 176.102 7.94051C176.069 7.95618 176.032 7.96404 175.995 7.9635Z" fill="#D9E2FF"/>
<path d="M175.074 15.9626H171.646C171.538 15.9663 171.431 15.9484 171.331 15.9099C171.231 15.8714 171.139 15.8131 171.062 15.7384C170.985 15.6638 170.924 15.5744 170.882 15.4756C170.84 15.3767 170.818 15.2704 170.818 15.163C170.818 15.0556 170.84 14.9493 170.882 14.8504C170.924 14.7515 170.985 14.6621 171.062 14.5875C171.139 14.5129 171.231 14.4546 171.331 14.4161C171.431 14.3776 171.538 14.3596 171.646 14.3634H171.76C171.791 14.3613 171.822 14.3657 171.852 14.3763C171.881 14.3869 171.908 14.4034 171.931 14.4248C171.954 14.4462 171.972 14.4721 171.985 14.5008C171.997 14.5296 172.004 14.5606 172.004 14.5919C172.004 14.6232 171.997 14.6542 171.985 14.6829C171.972 14.7117 171.954 14.7376 171.931 14.759C171.908 14.7804 171.881 14.7969 171.852 14.8075C171.822 14.818 171.791 14.8224 171.76 14.8204H171.646C171.599 14.818 171.553 14.825 171.509 14.8411C171.465 14.8572 171.425 14.882 171.392 14.9141C171.358 14.9461 171.331 14.9847 171.312 15.0275C171.294 15.0703 171.285 15.1164 171.285 15.163C171.285 15.2096 171.294 15.2556 171.312 15.2984C171.331 15.3412 171.358 15.3798 171.392 15.4119C171.425 15.4439 171.465 15.4688 171.509 15.4849C171.553 15.501 171.599 15.508 171.646 15.5055H175.074C175.162 15.5009 175.245 15.4628 175.305 15.3991C175.365 15.3353 175.399 15.2508 175.399 15.163C175.399 15.0751 175.365 14.9906 175.305 14.9269C175.245 14.8632 175.162 14.8251 175.074 14.8204H172.679C172.621 14.8167 172.566 14.7909 172.526 14.7485C172.487 14.7061 172.464 14.6501 172.464 14.5919C172.464 14.5337 172.487 14.4777 172.526 14.4353C172.566 14.3928 172.621 14.3671 172.679 14.3634H175.074C175.281 14.3705 175.478 14.4579 175.622 14.6071C175.766 14.7563 175.847 14.9556 175.847 15.163C175.847 15.3704 175.766 15.5697 175.622 15.7189C175.478 15.868 175.281 15.9554 175.074 15.9626Z" fill="#383E6D"/>
<path d="M175.074 14.8204H172.679C172.621 14.8167 172.566 14.7909 172.526 14.7485C172.487 14.7061 172.464 14.6501 172.464 14.5919C172.464 14.5337 172.487 14.4777 172.526 14.4353C172.566 14.3928 172.621 14.3671 172.679 14.3634H175.074C175.165 14.3634 175.252 14.3272 175.317 14.2629C175.381 14.1986 175.417 14.1113 175.417 14.0203C175.417 13.9293 175.381 13.8421 175.317 13.7778C175.252 13.7134 175.165 13.6773 175.074 13.6773H171.646C171.555 13.6773 171.468 13.7134 171.403 13.7778C171.339 13.8421 171.303 13.9293 171.303 14.0203C171.303 14.1113 171.339 14.1986 171.403 14.2629C171.468 14.3272 171.555 14.3634 171.646 14.3634H171.76C171.791 14.3613 171.822 14.3657 171.852 14.3763C171.881 14.3869 171.908 14.4034 171.931 14.4248C171.954 14.4462 171.972 14.4721 171.985 14.5008C171.997 14.5296 172.004 14.5606 172.004 14.5919C172.004 14.6232 171.997 14.6542 171.985 14.6829C171.972 14.7117 171.954 14.7376 171.931 14.759C171.908 14.7804 171.881 14.7969 171.852 14.8075C171.822 14.818 171.791 14.8224 171.76 14.8204H171.646C171.434 14.8204 171.23 14.7361 171.08 14.5861C170.93 14.436 170.846 14.2325 170.846 14.0203C170.846 13.8081 170.93 13.6046 171.08 13.4546C171.23 13.3045 171.434 13.2202 171.646 13.2202H175.074C175.286 13.2202 175.49 13.3045 175.64 13.4546C175.79 13.6046 175.874 13.8081 175.874 14.0203C175.874 14.2325 175.79 14.436 175.64 14.5861C175.49 14.7361 175.286 14.8204 175.074 14.8204Z" fill="#383E6D"/>
<rect x="0.2" y="0.2" width="229.6" height="109.6" stroke="#A6A6A6" stroke-width="0.4"/>
<defs>
<linearGradient id="paint0_linear_2728_1916" x1="175.08" y1="-41.7038" x2="-382.597" y2="346.761" gradientUnits="userSpaceOnUse">
<stop stop-color="#09005D"/>
<stop offset="1" stop-color="#1A0F91"/>
</linearGradient>
<linearGradient id="paint1_linear_2728_1916" x1="46.0994" y1="52.6699" x2="182.078" y2="54.4344" gradientUnits="userSpaceOnUse">
<stop stop-color="#FF928E"/>
<stop offset="1" stop-color="#FEB3B1"/>
</linearGradient>
<linearGradient id="paint2_linear_2728_1916" x1="759149" y1="58750" x2="736381" y2="100420" gradientUnits="userSpaceOnUse">
<stop stop-color="#09005D"/>
<stop offset="1" stop-color="#1A0F91"/>
</linearGradient>
<linearGradient id="paint3_linear_2728_1916" x1="746714" y1="89854" x2="718349" y2="131518" gradientUnits="userSpaceOnUse">
<stop stop-color="#09005D"/>
<stop offset="1" stop-color="#1A0F91"/>
</linearGradient>
<linearGradient id="paint4_linear_2728_1916" x1="729469" y1="98436" x2="732614" y2="98436" gradientUnits="userSpaceOnUse">
<stop stop-color="#FF928E"/>
<stop offset="1" stop-color="#FEB3B1"/>
</linearGradient>
<linearGradient id="paint5_linear_2728_1916" x1="752927" y1="55350" x2="730160" y2="97020.9" gradientUnits="userSpaceOnUse">
<stop stop-color="#09005D"/>
<stop offset="1" stop-color="#1A0F91"/>
</linearGradient>
<linearGradient id="paint6_linear_2728_1916" x1="92.8424" y1="5.48283" x2="128.832" y2="217.989" gradientUnits="userSpaceOnUse">
<stop stop-color="#4042E2"/>
<stop offset="1" stop-color="#4F52FF"/>
</linearGradient>
<linearGradient id="paint7_linear_2728_1916" x1="757600" y1="28175" x2="776217" y2="28175" gradientUnits="userSpaceOnUse">
<stop stop-color="#FF928E"/>
<stop offset="1" stop-color="#FEB3B1"/>
</linearGradient>
<linearGradient id="paint8_linear_2728_1916" x1="-316516" y1="24380.6" x2="-324089" y2="47167.2" gradientUnits="userSpaceOnUse">
<stop stop-color="#FF928E"/>
<stop offset="1" stop-color="#FEB3B1"/>
</linearGradient>
<linearGradient id="paint9_linear_2728_1916" x1="776128" y1="18855" x2="779429" y2="11999.7" gradientUnits="userSpaceOnUse">
<stop stop-color="#FF928E"/>
<stop offset="1" stop-color="#FEB3B1"/>
</linearGradient>
<linearGradient id="paint10_linear_2728_1916" x1="657012" y1="33411" x2="644836" y2="96716" gradientUnits="userSpaceOnUse">
<stop stop-color="#4042E2"/>
<stop offset="1" stop-color="#4F52FF"/>
</linearGradient>
<linearGradient id="paint11_linear_2728_1916" x1="716862" y1="47701" x2="740422" y2="47701" gradientUnits="userSpaceOnUse">
<stop stop-color="#FF928E"/>
<stop offset="1" stop-color="#FEB3B1"/>
</linearGradient>
<linearGradient id="paint12_linear_2728_1916" x1="67586.4" y1="24753" x2="64990.2" y2="37848.5" gradientUnits="userSpaceOnUse">
<stop stop-color="#FF928E"/>
<stop offset="1" stop-color="#FEB3B1"/>
</linearGradient>
<linearGradient id="paint13_linear_2728_1916" x1="628960" y1="272861" x2="614116" y2="270567" gradientUnits="userSpaceOnUse">
<stop stop-color="#FF928E"/>
<stop offset="1" stop-color="#FEB3B1"/>
</linearGradient>
<linearGradient id="paint14_linear_2728_1916" x1="-55434.4" y1="210198" x2="-45512.3" y2="220829" gradientUnits="userSpaceOnUse">
<stop stop-color="#09005D"/>
<stop offset="1" stop-color="#1A0F91"/>
</linearGradient>
<linearGradient id="paint15_linear_2728_1916" x1="483416" y1="210756" x2="472030" y2="207535" gradientUnits="userSpaceOnUse">
<stop stop-color="#FF928E"/>
<stop offset="1" stop-color="#FEB3B1"/>
</linearGradient>
<linearGradient id="paint16_linear_2728_1916" x1="704629" y1="36430" x2="711938" y2="77553.5" gradientUnits="userSpaceOnUse">
<stop stop-color="#09005D"/>
<stop offset="1" stop-color="#1A0F91"/>
</linearGradient>
<linearGradient id="paint17_linear_2728_1916" x1="687461" y1="47042" x2="694826" y2="47042" gradientUnits="userSpaceOnUse">
<stop stop-color="#FF928E"/>
<stop offset="1" stop-color="#FEB3B1"/>
</linearGradient>
<linearGradient id="paint18_linear_2728_1916" x1="35989" y1="102947" x2="50347.6" y2="102947" gradientUnits="userSpaceOnUse">
<stop stop-color="#4042E2"/>
<stop offset="1" stop-color="#4F52FF"/>
</linearGradient>
<linearGradient id="paint19_linear_2728_1916" x1="47052.6" y1="82500" x2="44880.5" y2="102761" gradientUnits="userSpaceOnUse">
<stop stop-color="#09005D"/>
<stop offset="1" stop-color="#1A0F91"/>
</linearGradient>
<linearGradient id="paint20_linear_2728_1916" x1="36706.1" y1="99742" x2="40591.1" y2="99742" gradientUnits="userSpaceOnUse">
<stop stop-color="#FF928E"/>
<stop offset="1" stop-color="#FEB3B1"/>
</linearGradient>
<linearGradient id="paint21_linear_2728_1916" x1="58510.6" y1="100839" x2="70103.5" y2="100839" gradientUnits="userSpaceOnUse">
<stop stop-color="#4042E2"/>
<stop offset="1" stop-color="#4F52FF"/>
</linearGradient>
<linearGradient id="paint22_linear_2728_1916" x1="66484.5" y1="84583" x2="64313.1" y2="104844" gradientUnits="userSpaceOnUse">
<stop stop-color="#09005D"/>
<stop offset="1" stop-color="#1A0F91"/>
</linearGradient>
<linearGradient id="paint23_linear_2728_1916" x1="39676.9" y1="71343" x2="30891.4" y2="95180.1" gradientUnits="userSpaceOnUse">
<stop stop-color="#09005D"/>
<stop offset="1" stop-color="#1A0F91"/>
</linearGradient>
<linearGradient id="paint24_linear_2728_1916" x1="55107.6" y1="99984" x2="59746.2" y2="99984" gradientUnits="userSpaceOnUse">
<stop stop-color="#FF928E"/>
<stop offset="1" stop-color="#FEB3B1"/>
</linearGradient>
<linearGradient id="paint25_linear_2728_1916" x1="52649.9" y1="62853" x2="48134.4" y2="72402.1" gradientUnits="userSpaceOnUse">
<stop stop-color="#09005D"/>
<stop offset="1" stop-color="#1A0F91"/>
</linearGradient>
<linearGradient id="paint26_linear_2728_1916" x1="35166.7" y1="45315" x2="28523.8" y2="56589.7" gradientUnits="userSpaceOnUse">
<stop stop-color="#FF928E"/>
<stop offset="1" stop-color="#FEB3B1"/>
</linearGradient>
<linearGradient id="paint27_linear_2728_1916" x1="89.514" y1="51.4602" x2="164.26" y2="176.663" gradientUnits="userSpaceOnUse">
<stop stop-color="#FE7062"/>
<stop offset="1" stop-color="#FF928E"/>
</linearGradient>
<linearGradient id="paint28_linear_2728_1916" x1="705.111" y1="-1708.08" x2="647.023" y2="-948.601" gradientUnits="userSpaceOnUse">
<stop stop-color="#E1473D"/>
<stop offset="1" stop-color="#E9605A"/>
</linearGradient>
<linearGradient id="paint29_linear_2728_1916" x1="48881" y1="68190" x2="59593.6" y2="68190" gradientUnits="userSpaceOnUse">
<stop stop-color="#FF928E"/>
<stop offset="1" stop-color="#FEB3B1"/>
</linearGradient>
<linearGradient id="paint30_linear_2728_1916" x1="245021" y1="386.068" x2="252589" y2="16650.1" gradientUnits="userSpaceOnUse">
<stop stop-color="#FF928E"/>
<stop offset="1" stop-color="#FEB3B1"/>
</linearGradient>
<linearGradient id="paint31_linear_2728_1916" x1="298938" y1="63847.8" x2="307608" y2="75440" gradientUnits="userSpaceOnUse">
<stop stop-color="#09005D"/>
<stop offset="1" stop-color="#1A0F91"/>
</linearGradient>
<linearGradient id="paint32_linear_2728_1916" x1="232381" y1="4626.9" x2="239944" y2="21216.8" gradientUnits="userSpaceOnUse">
<stop stop-color="#FF928E"/>
<stop offset="1" stop-color="#FEB3B1"/>
</linearGradient>
<linearGradient id="paint33_linear_2728_1916" x1="-1.33216e+06" y1="-2.2944e+06" x2="-1.31529e+06" y2="-2.2408e+06" gradientUnits="userSpaceOnUse">
<stop stop-color="#09005D"/>
<stop offset="1" stop-color="#1A0F91"/>
</linearGradient>
<linearGradient id="paint34_linear_2728_1916" x1="4.28947e+06" y1="485377" x2="4.27103e+06" y2="520470" gradientUnits="userSpaceOnUse">
<stop stop-color="#09005D"/>
<stop offset="1" stop-color="#1A0F91"/>
</linearGradient>
<linearGradient id="paint35_linear_2728_1916" x1="123362" y1="84623" x2="89229.3" y2="105429" gradientUnits="userSpaceOnUse">
<stop stop-color="#FF928E"/>
<stop offset="1" stop-color="#FEB3B1"/>
</linearGradient>
<linearGradient id="paint36_linear_2728_1916" x1="114805" y1="95566" x2="113508" y2="122428" gradientUnits="userSpaceOnUse">
<stop stop-color="#09005D"/>
<stop offset="1" stop-color="#1A0F91"/>
</linearGradient>
<linearGradient id="paint37_linear_2728_1916" x1="76453" y1="58755" x2="82529.3" y2="72202.6" gradientUnits="userSpaceOnUse">
<stop stop-color="#FF928E"/>
<stop offset="1" stop-color="#FEB3B1"/>
</linearGradient>
<linearGradient id="paint38_linear_2728_1916" x1="107036" y1="75546" x2="144986" y2="75546" gradientUnits="userSpaceOnUse">
<stop stop-color="#09005D"/>
<stop offset="1" stop-color="#1A0F91"/>
</linearGradient>
<linearGradient id="paint39_linear_2728_1916" x1="92020.1" y1="94466" x2="90723.2" y2="121327" gradientUnits="userSpaceOnUse">
<stop stop-color="#09005D"/>
<stop offset="1" stop-color="#1A0F91"/>
</linearGradient>
<linearGradient id="paint40_linear_2728_1916" x1="133768" y1="28607" x2="130654" y2="50695.9" gradientUnits="userSpaceOnUse">
<stop stop-color="#09005D"/>
<stop offset="1" stop-color="#1A0F91"/>
</linearGradient>
<linearGradient id="paint41_linear_2728_1916" x1="123748" y1="52276" x2="134463" y2="83767" gradientUnits="userSpaceOnUse">
<stop stop-color="#FE7062"/>
<stop offset="1" stop-color="#FF928E"/>
</linearGradient>
<linearGradient id="paint42_linear_2728_1916" x1="119371" y1="42479" x2="123155" y2="53461.9" gradientUnits="userSpaceOnUse">
<stop stop-color="#FF928E"/>
<stop offset="1" stop-color="#FEB3B1"/>
</linearGradient>
<linearGradient id="paint43_linear_2728_1916" x1="601767" y1="389196" x2="589011" y2="377890" gradientUnits="userSpaceOnUse">
<stop stop-color="#FF928E"/>
<stop offset="1" stop-color="#FEB3B1"/>
</linearGradient>
<linearGradient id="paint44_linear_2728_1916" x1="160026" y1="429481" x2="175672" y2="441394" gradientUnits="userSpaceOnUse">
<stop stop-color="#09005D"/>
<stop offset="1" stop-color="#1A0F91"/>
</linearGradient>
<linearGradient id="paint45_linear_2728_1916" x1="799642" y1="360230" x2="785600" y2="346002" gradientUnits="userSpaceOnUse">
<stop stop-color="#FF928E"/>
<stop offset="1" stop-color="#FEB3B1"/>
</linearGradient>
<linearGradient id="paint46_linear_2728_1916" x1="121635" y1="38538" x2="122993" y2="47500.5" gradientUnits="userSpaceOnUse">
<stop stop-color="#FF928E"/>
<stop offset="1" stop-color="#FEB3B1"/>
</linearGradient>
<linearGradient id="paint47_linear_2728_1916" x1="125559" y1="25945.7" x2="104124" y2="35562.7" gradientUnits="userSpaceOnUse">
<stop stop-color="#09005D"/>
<stop offset="1" stop-color="#1A0F91"/>
</linearGradient>
<linearGradient id="paint48_linear_2728_1916" x1="107402" y1="56134" x2="97493.6" y2="70275.7" gradientUnits="userSpaceOnUse">
<stop stop-color="#09005D"/>
<stop offset="1" stop-color="#1A0F91"/>
</linearGradient>
<linearGradient id="paint49_linear_2728_1916" x1="1.36244e+06" y1="120623" x2="1.36233e+06" y2="137099" gradientUnits="userSpaceOnUse">
<stop stop-color="#09005D"/>
<stop offset="1" stop-color="#1A0F91"/>
</linearGradient>
<linearGradient id="paint50_linear_2728_1916" x1="1.33542e+06" y1="102225" x2="1.33605e+06" y2="95492" gradientUnits="userSpaceOnUse">
<stop stop-color="#FF928E"/>
<stop offset="1" stop-color="#FEB3B1"/>
</linearGradient>
<linearGradient id="paint51_linear_2728_1916" x1="1.37972e+06" y1="120833" x2="1.3796e+06" y2="137309" gradientUnits="userSpaceOnUse">
<stop stop-color="#09005D"/>
<stop offset="1" stop-color="#1A0F91"/>
</linearGradient>
<linearGradient id="paint52_linear_2728_1916" x1="1.3536e+06" y1="104515" x2="1.35422e+06" y2="97955.3" gradientUnits="userSpaceOnUse">
<stop stop-color="#FF928E"/>
<stop offset="1" stop-color="#FEB3B1"/>
</linearGradient>
<linearGradient id="paint53_linear_2728_1916" x1="1.40972e+06" y1="79768" x2="1.3751e+06" y2="79768" gradientUnits="userSpaceOnUse">
<stop stop-color="#09005D"/>
<stop offset="1" stop-color="#1A0F91"/>
</linearGradient>
<linearGradient id="paint54_linear_2728_1916" x1="8.6278" y1="65.7727" x2="-119.409" y2="821.316" gradientUnits="userSpaceOnUse">
<stop stop-color="#020039"/>
<stop offset="1" stop-color="#090056"/>
</linearGradient>
<linearGradient id="paint55_linear_2728_1916" x1="1.38214e+06" y1="36659" x2="1.39457e+06" y2="86509" gradientUnits="userSpaceOnUse">
<stop stop-color="#4042E2"/>
<stop offset="1" stop-color="#4F52FF"/>
</linearGradient>
<linearGradient id="paint56_linear_2728_1916" x1="1.38616e+06" y1="61741" x2="1.37039e+06" y2="61741" gradientUnits="userSpaceOnUse">
<stop stop-color="#FF928E"/>
<stop offset="1" stop-color="#FEB3B1"/>
</linearGradient>
<linearGradient id="paint57_linear_2728_1916" x1="1.37801e+06" y1="47106" x2="1.34857e+06" y2="47106" gradientUnits="userSpaceOnUse">
<stop stop-color="#FF928E"/>
<stop offset="1" stop-color="#FEB3B1"/>
</linearGradient>
<linearGradient id="paint58_linear_2728_1916" x1="1.36917e+06" y1="34878" x2="1.36196e+06" y2="24897" gradientUnits="userSpaceOnUse">
<stop stop-color="#FF928E"/>
<stop offset="1" stop-color="#FEB3B1"/>
</linearGradient>
<linearGradient id="paint59_linear_2728_1916" x1="207509" y1="17024" x2="122230" y2="40338.4" gradientUnits="userSpaceOnUse">
<stop stop-color="#FF928E"/>
<stop offset="1" stop-color="#FEB3B1"/>
</linearGradient>
<linearGradient id="paint60_linear_2728_1916" x1="931938" y1="364297" x2="924517" y2="354568" gradientUnits="userSpaceOnUse">
<stop stop-color="#09005D"/>
<stop offset="1" stop-color="#1A0F91"/>
</linearGradient>
<linearGradient id="paint61_linear_2728_1916" x1="907984" y1="453553" x2="906430" y2="442321" gradientUnits="userSpaceOnUse">
<stop stop-color="#FF928E"/>
<stop offset="1" stop-color="#FEB3B1"/>
</linearGradient>
<linearGradient id="paint62_linear_2728_1916" x1="863045" y1="79403" x2="863102" y2="74742.4" gradientUnits="userSpaceOnUse">
<stop stop-color="#4042E2"/>
<stop offset="1" stop-color="#4F52FF"/>
</linearGradient>
</defs>
</svg>
