<svg width="165" height="22" viewBox="0 0 165 22" fill="none" xmlns="http://www.w3.org/2000/svg">
<path d="M44.6899 20.7836C45.9157 20.7836 47.0197 20.4575 48.0021 19.8053C48.9846 19.1531 49.7687 18.2529 50.3545 17.1048C50.9403 15.9566 51.2333 14.6293 51.2333 13.1228C51.2333 11.6165 50.9403 10.2937 50.3545 9.1547C49.7687 8.01573 48.9755 7.12015 47.9751 6.46797C46.9747 5.8158 45.8435 5.48972 44.5817 5.48972C43.9508 5.48972 43.3515 5.59994 42.7837 5.8204C42.2159 6.04085 41.7157 6.32101 41.2831 6.66087C40.8505 7.00073 40.508 7.34059 40.2557 7.68046L40.3367 7.57614V1.79715C40.3367 1.36293 40.2101 0.993234 39.9569 0.688065L39.877 0.598449C39.5706 0.276957 39.1831 0.116211 38.7144 0.116211C38.2457 0.116211 37.8582 0.276957 37.5517 0.598449C37.2453 0.919941 37.0921 1.31951 37.0921 1.79715V19.1026C37.0921 19.5987 37.2453 20.0028 37.5517 20.3151C37.8582 20.6274 38.2457 20.7836 38.7144 20.7836C39.1831 20.7836 39.5706 20.6228 39.877 20.3013C40.1835 19.9798 40.3367 19.5802 40.3367 19.1026V18.9334L40.4263 19.0233C40.5535 19.1472 40.6928 19.2705 40.844 19.3933L40.9992 19.516C41.4769 19.8834 42.0311 20.1865 42.662 20.4254C43.2929 20.6642 43.9689 20.7836 44.6899 20.7836ZM44.1762 17.7523C43.383 17.7523 42.689 17.5502 42.0942 17.1461C41.4994 16.742 41.0352 16.1862 40.7017 15.4789C40.3683 14.7716 40.2015 13.9863 40.2015 13.1228C40.2015 12.2411 40.3683 11.4557 40.7017 10.7668C41.0352 10.0779 41.4994 9.53132 42.0942 9.12717C42.689 8.72303 43.383 8.52096 44.1762 8.52096C44.9693 8.52096 45.6588 8.72303 46.2447 9.12717C46.8305 9.53132 47.2902 10.0779 47.6236 10.7668C47.957 11.4557 48.1238 12.2411 48.1238 13.1228C48.1238 13.9863 47.957 14.7716 47.6236 15.4789C47.2902 16.1862 46.8305 16.742 46.2447 17.1461C45.6588 17.5502 44.9693 17.7523 44.1762 17.7523ZM55.8028 20.508C56.2714 20.508 56.6634 20.3473 56.979 20.0257C57.2943 19.7043 57.4521 19.3047 57.4521 18.827V1.79715C57.4521 1.31951 57.3034 0.919941 57.006 0.598449C56.7085 0.276957 56.3255 0.116211 55.8568 0.116211C55.3882 0.116211 54.9961 0.276957 54.6806 0.598449C54.3652 0.919941 54.2075 1.31951 54.2075 1.79715V18.827C54.2075 19.3047 54.3607 19.7043 54.6672 20.0257C54.9736 20.3473 55.3521 20.508 55.8028 20.508ZM62.6435 3.97412C63.2564 3.97412 63.698 3.87767 63.9684 3.68478C64.2387 3.49187 64.3739 3.12905 64.3739 2.59629V2.07272C64.3739 1.55833 64.2478 1.2001 63.9954 0.99802C63.743 0.795937 63.3014 0.694897 62.6705 0.694897C62.0937 0.694897 61.6656 0.791345 61.3862 0.984239C61.1068 1.17713 60.9671 1.53997 60.9671 2.07272V2.59629C60.9671 3.11068 61.0933 3.46891 61.3456 3.67099C61.598 3.87307 62.0306 3.97412 62.6435 3.97412ZM62.6705 20.508C63.1392 20.508 63.5268 20.3473 63.8332 20.0257C64.1396 19.7043 64.2929 19.3047 64.2929 18.827V7.44623C64.2929 6.96858 64.1396 6.56902 63.8332 6.24753C63.5268 5.92603 63.1392 5.76528 62.6705 5.76528C62.2019 5.76528 61.8143 5.92603 61.5079 6.24753C61.2015 6.56902 61.0483 6.96858 61.0483 7.44623V18.827C61.0483 19.3047 61.2015 19.7043 61.5079 20.0257C61.8143 20.3473 62.2019 20.508 62.6705 20.508ZM78.5962 20.508C79.0649 20.508 79.4524 20.3473 79.7589 20.0257C80.0653 19.7043 80.2185 19.3047 80.2185 18.827V11.7726C80.2185 10.6152 80.0878 9.56345 79.8264 8.61735C79.5651 7.67127 79.0874 6.91348 78.3934 6.34397C77.6994 5.77447 76.6855 5.48972 75.3516 5.48972C74.7387 5.48972 74.1709 5.58617 73.6481 5.77906C73.1254 5.97196 72.6568 6.22456 72.2422 6.53687C71.8276 6.84917 71.467 7.18444 71.1606 7.54267C71.0731 7.64503 70.9914 7.74551 70.9156 7.84411L70.8632 7.91469V7.44623C70.8632 7.01201 70.7366 6.64231 70.4833 6.33714L70.4035 6.24753C70.0971 5.92603 69.7095 5.76528 69.2409 5.76528C68.7722 5.76528 68.3847 5.92603 68.0783 6.24753C67.7718 6.56902 67.6186 6.96858 67.6186 7.44623V18.827C67.6186 19.3047 67.7718 19.7043 68.0783 20.0257C68.3847 20.3473 68.7722 20.508 69.2409 20.508C69.7095 20.508 70.0971 20.3473 70.4035 20.0257C70.71 19.7043 70.8632 19.3047 70.8632 18.827V11.7726C70.8632 11.1664 70.9939 10.6198 71.2552 10.133C71.5166 9.64612 71.8952 9.25578 72.3909 8.96183C72.8866 8.66789 73.4949 8.52096 74.216 8.52096C74.955 8.52096 75.5229 8.66789 75.9194 8.96183C76.316 9.25578 76.5909 9.64612 76.7441 10.133C76.8973 10.6198 76.9739 11.1664 76.9739 11.7726V18.827C76.9739 19.3047 77.1271 19.7043 77.4335 20.0257C77.7399 20.3473 78.1275 20.508 78.5962 20.508ZM85.6265 20.508C86.0951 20.508 86.4825 20.3473 86.7887 20.0257C87.095 19.7043 87.2489 19.3047 87.2489 18.827V15.928L88.5793 14.6801L93.4399 19.9293C93.7378 20.2661 94.0959 20.4485 94.5143 20.4766L94.6298 20.4804C94.9904 20.4804 95.3552 20.3289 95.7251 20.0257C96.0949 19.7227 96.279 19.3322 96.279 18.8546C96.279 18.3953 96.1083 17.982 95.7661 17.6146L91.041 12.3709L95.1168 8.54849C95.5159 8.19237 95.7309 7.81278 95.7619 7.4097L95.7661 7.30845C95.7661 6.97777 95.6121 6.6379 95.3059 6.28886C94.9996 5.93981 94.639 5.76528 94.2248 5.76528C93.7738 5.76528 93.3772 5.93981 93.035 6.28886L87.2489 11.9801V1.79715C87.2489 1.36293 87.1217 0.993234 86.8691 0.688065L86.7887 0.598449C86.4825 0.276957 86.0951 0.116211 85.6265 0.116211C85.1579 0.116211 84.7697 0.276957 84.4634 0.598449C84.1571 0.919941 84.0039 1.31951 84.0039 1.79715V18.827C84.0039 19.3047 84.1571 19.7043 84.4634 20.0257C84.7697 20.3473 85.1579 20.508 85.6265 20.508ZM104.121 20.7836C104.968 20.7836 105.797 20.6136 106.608 20.2737C107.419 19.9339 108.095 19.4333 108.636 18.772C109.176 18.1106 109.448 17.3114 109.448 16.3746C109.448 15.5662 109.303 14.9002 109.015 14.3767C108.726 13.8531 108.347 13.426 107.879 13.0953C107.41 12.7646 106.896 12.4982 106.337 12.2961C105.779 12.0941 105.23 11.9195 104.688 11.7726C104.165 11.6257 103.674 11.474 103.215 11.3179C102.755 11.1618 102.39 10.9597 102.119 10.7117C101.849 10.4637 101.714 10.1284 101.714 9.70586C101.714 9.24658 101.832 8.9113 102.066 8.70002C102.3 8.48875 102.575 8.351 102.89 8.2867C103.205 8.2224 103.498 8.19026 103.769 8.19026C104.436 8.19026 105.026 8.30967 105.54 8.54849C106.054 8.78729 106.464 9.10877 106.77 9.51299C107.005 9.73339 107.302 9.85739 107.663 9.885C108.023 9.91253 108.339 9.81606 108.609 9.59566C108.987 9.28331 109.159 8.93431 109.123 8.54849C109.087 8.16269 108.97 7.83202 108.771 7.55646C108.392 7.06044 107.924 6.66087 107.365 6.35775C106.807 6.05463 106.22 5.83418 105.608 5.69639C104.994 5.55861 104.409 5.48972 103.85 5.48972C102.967 5.48972 102.124 5.66425 101.322 6.01329C100.52 6.36234 99.8669 6.85836 99.3615 7.50134C98.857 8.14433 98.6051 8.9251 98.6051 9.84367C98.6051 10.652 98.7582 11.3225 99.0645 11.8553C99.3707 12.388 99.7673 12.8152 100.254 13.1366C100.74 13.4581 101.277 13.7199 101.863 13.922C102.449 14.1241 103.021 14.3078 103.579 14.4732C104.121 14.6201 104.612 14.7762 105.053 14.9416C105.495 15.1069 105.851 15.309 106.121 15.5479C106.392 15.7867 106.527 16.1081 106.527 16.5123C106.527 16.99 106.405 17.3436 106.162 17.5733C105.919 17.8029 105.635 17.9499 105.31 18.0141C104.986 18.0784 104.688 18.1197 104.418 18.1381C103.553 18.1381 102.831 17.9912 102.255 17.6973C101.678 17.4033 101.129 16.99 100.606 16.4572C100.299 16.1449 99.984 15.9749 99.6594 15.9474C99.3347 15.9199 99.0285 15.9979 98.7398 16.1816C98.2896 16.4755 98.0545 16.8246 98.037 17.2288C98.0185 17.6329 98.0997 17.9636 98.2804 18.2208C98.9833 19.1761 99.8669 19.8421 100.93 20.2187C101.994 20.5953 103.057 20.7836 104.121 20.7836ZM117.532 20.508C118.163 20.508 118.753 20.3427 119.303 20.012C119.852 19.6813 120.128 19.2588 120.128 18.7444C120.128 18.3219 120.024 17.9912 119.816 17.7523C119.609 17.5135 119.38 17.3941 119.127 17.3941C118.893 17.3941 118.685 17.4354 118.505 17.5181C118.324 17.6008 118.126 17.6421 117.91 17.6421C117.712 17.6421 117.527 17.6054 117.355 17.5319C117.185 17.4584 117.049 17.339 116.951 17.1736C116.851 17.0083 116.802 16.797 116.802 16.5399V9.07203H118.721C119.111 9.07203 119.441 8.95673 119.714 8.72613L119.803 8.64496C120.092 8.36019 120.236 8.00654 120.236 7.58401C120.236 7.14311 120.092 6.77569 119.803 6.48175C119.514 6.18782 119.154 6.04085 118.721 6.04085H116.802V4.27723C116.802 3.84301 116.679 3.47332 116.433 3.16814L116.356 3.07853C116.058 2.75704 115.675 2.59629 115.207 2.59629C114.737 2.59629 114.346 2.75704 114.03 3.07853C113.715 3.40003 113.557 3.79959 113.557 4.27723V6.04085H112.313C111.924 6.04085 111.593 6.15617 111.32 6.38682L111.231 6.46797C110.944 6.75272 110.799 7.10637 110.799 7.5289C110.799 7.9698 110.944 8.33722 111.231 8.63116C111.52 8.9251 111.881 9.07203 112.313 9.07203H113.557V16.6776C113.557 17.5086 113.672 18.1751 113.902 18.6773L113.963 18.7995C114.233 19.3139 114.571 19.695 114.977 19.9431C115.382 20.1911 115.815 20.3473 116.274 20.4115C116.734 20.4758 117.153 20.508 117.532 20.508ZM129.753 20.7836C131.123 20.7836 132.362 20.4621 133.471 19.8191C134.58 19.1761 135.462 18.2805 136.121 17.1323C136.779 15.9841 137.107 14.6568 137.107 13.1504C137.107 11.644 136.779 10.3167 136.121 9.16851C135.462 8.02032 134.58 7.12015 133.471 6.46797C132.362 5.8158 131.123 5.48972 129.753 5.48972C128.383 5.48972 127.144 5.8158 126.035 6.46797C124.926 7.12015 124.044 8.02032 123.386 9.16851C122.727 10.3167 122.398 11.644 122.398 13.1504C122.398 14.6568 122.727 15.9841 123.386 17.1323C124.044 18.2805 124.926 19.1761 126.035 19.8191C127.144 20.4621 128.383 20.7836 129.753 20.7836ZM129.753 17.7523C128.996 17.7523 128.307 17.5595 127.685 17.1736C127.062 16.7879 126.567 16.2505 126.197 15.5616C125.828 14.8727 125.643 14.0689 125.643 13.1504C125.643 12.2135 125.828 11.4006 126.197 10.7117C126.567 10.0227 127.062 9.48538 127.685 9.09965C128.307 8.71383 128.996 8.52096 129.753 8.52096C130.51 8.52096 131.199 8.71383 131.822 9.09965C132.443 9.48538 132.939 10.0227 133.309 10.7117C133.678 11.4006 133.863 12.2135 133.863 13.1504C133.863 14.0689 133.678 14.8727 133.309 15.5616C132.939 16.2505 132.443 16.7879 131.822 17.1736C131.199 17.5595 130.51 17.7523 129.753 17.7523ZM141.433 20.508C141.902 20.508 142.29 20.3473 142.596 20.0257C142.903 19.7043 143.056 19.3047 143.056 18.827V12.2961C143.056 11.6348 143.142 11.0607 143.313 10.5739C143.484 10.0871 143.709 9.67833 143.989 9.34765C144.268 9.01698 144.574 8.77357 144.908 8.61735C145.241 8.46122 145.57 8.38315 145.895 8.38315C146.255 8.38315 146.575 8.44744 146.855 8.57602L146.977 8.62722C147.224 8.72169 147.494 8.76897 147.788 8.76897C148.148 8.76897 148.482 8.63576 148.788 8.36937C149.094 8.10299 149.248 7.66668 149.248 7.06044C149.248 6.63791 149.063 6.27049 148.694 5.95818C148.324 5.64587 147.869 5.48972 147.328 5.48972C146.877 5.48972 146.427 5.54484 145.976 5.65506C145.526 5.76528 145.102 5.93521 144.705 6.16486C144.308 6.39449 143.953 6.67924 143.637 7.0191C143.457 7.21331 143.296 7.42402 143.154 7.65122L143.056 7.81627V7.44623C143.056 7.01201 142.929 6.64231 142.676 6.33714L142.596 6.24753C142.29 5.92603 141.902 5.76528 141.433 5.76528C140.965 5.76528 140.577 5.92603 140.271 6.24753C139.965 6.56902 139.812 6.96858 139.812 7.44623V18.827C139.812 19.3047 139.965 19.7043 140.271 20.0257C140.577 20.3473 140.965 20.508 141.433 20.508ZM158.225 20.7836C159.126 20.7836 160.001 20.632 160.847 20.3289C161.695 20.0257 162.353 19.6721 162.821 19.268C163.326 18.8638 163.578 18.4137 163.578 17.9177C163.578 17.5502 163.448 17.2288 163.186 16.9532C162.925 16.6776 162.596 16.5399 162.199 16.5399C161.911 16.5399 161.605 16.6226 161.28 16.7879C161.082 16.8981 160.861 17.0313 160.617 17.1874C160.375 17.3436 160.054 17.4768 159.657 17.587C159.261 17.6973 158.729 17.7523 158.063 17.7523C157.341 17.7523 156.661 17.5733 156.021 17.215C155.381 16.8568 154.858 16.3332 154.453 15.6442C154.221 15.2506 154.055 14.8074 153.956 14.3148L153.95 14.2808L162.876 14.2802C163.265 14.2802 163.61 14.1687 163.912 13.9454L164.011 13.8669C164.336 13.5913 164.506 13.2331 164.525 12.7922C164.525 11.8001 164.34 10.8632 163.97 9.9814C163.601 9.09965 163.101 8.32344 162.47 7.65291C161.839 6.98236 161.113 6.4542 160.293 6.06841C159.473 5.68261 158.603 5.48972 157.684 5.48972C156.494 5.48972 155.368 5.80202 154.304 6.42664C153.241 7.05125 152.38 7.94684 151.722 9.11337C151.064 10.2799 150.734 11.6899 150.734 13.3433C150.734 14.7579 151.037 16.0255 151.641 17.1461C152.245 18.2667 153.11 19.1531 154.236 19.8053C155.363 20.4575 156.692 20.7836 158.225 20.7836ZM161.064 11.5246H153.978L154.012 11.361C154.036 11.25 154.064 11.1433 154.094 11.041L154.142 10.8908C154.34 10.303 154.61 9.83447 154.953 9.48538C155.296 9.13638 155.701 8.88837 156.17 8.74135C156.639 8.59442 157.143 8.52096 157.684 8.52096C158.243 8.52096 158.77 8.64496 159.266 8.89297C159.761 9.14098 160.176 9.47626 160.509 9.89873C160.843 10.3213 161.027 10.799 161.064 11.3317V11.5246ZM8.76988 15.1394C9.41521 14.7067 10.2934 14.8725 10.7316 15.5097C12.0117 17.3713 14.2535 18.5334 16.7259 18.5334C19.1624 18.5334 21.3761 17.4051 22.6662 15.5869C23.1139 14.9562 23.9946 14.8032 24.6333 15.2451C25.2721 15.6871 25.4271 16.5568 24.9795 17.1875C23.1587 19.7535 20.0802 21.3225 16.7259 21.3225C13.3214 21.3225 10.2028 19.7058 8.39482 17.0765C7.95667 16.4393 8.12459 15.572 8.76988 15.1394ZM4.68329 0.952946C6.471 0.952946 8.05369 2.053 8.51011 3.66155C8.72054 4.40318 8.28228 5.17284 7.53121 5.38063C6.78014 5.58842 6.00069 5.15566 5.79026 4.41402C5.6871 4.05047 5.24339 3.74206 4.68329 3.74206C4.12507 3.74206 3.68211 4.04851 3.57722 4.41091C3.36287 5.15145 2.58114 5.58019 1.83119 5.36853C1.08123 5.15687 0.64703 4.38496 0.861381 3.64443C1.32444 2.04463 2.9024 0.952946 4.68329 0.952946Z" fill="#FF5955"/>
</svg>
