<svg width="158" height="51" viewBox="0 0 158 51" fill="none" xmlns="http://www.w3.org/2000/svg">
<path d="M74.1233 19.105C74.4542 19.4251 74.6224 19.7886 74.6224 20.1901C74.6224 20.5753 74.4705 20.9225 74.1721 21.2263C73.89 21.5085 73.5536 21.655 73.1521 21.655C72.7344 21.655 72.3492 21.4759 72.0074 21.1233L63.6957 13.2565V20.0653C63.6957 20.5536 63.5493 20.9497 63.2454 21.248C62.9633 21.5519 62.5781 21.7038 62.079 21.7038C61.5907 21.7038 61.2001 21.5519 60.9071 21.248C60.6196 20.9497 60.4785 20.5536 60.4785 20.0653V5.26497C60.4785 4.78212 60.6196 4.39149 60.9071 4.10938C61.2001 3.80556 61.5907 3.65365 62.079 3.65365C62.5781 3.65365 62.9633 3.80556 63.2454 4.10938C63.5493 4.39149 63.6957 4.78212 63.6957 5.26497V11.7483L71.7307 4.13108C72.0237 3.83268 72.3655 3.68077 72.7507 3.68077C73.1359 3.68077 73.4668 3.83268 73.7489 4.13108C74.0473 4.41862 74.1992 4.75499 74.1992 5.14019C74.1992 5.52539 74.031 5.87804 73.6947 6.19813L66.9889 12.3993L74.1233 19.105ZM83.482 8.97049C83.916 8.93793 84.2578 9.03017 84.502 9.25261C84.7515 9.46962 84.8763 9.79514 84.8763 10.2346C84.8763 10.6849 84.7678 11.0213 84.5508 11.2437C84.3392 11.4607 83.9486 11.6018 83.3789 11.6723L82.6356 11.7483C81.6482 11.8459 80.9321 12.1823 80.4601 12.752C80.0098 13.327 79.7873 14.0378 79.7873 14.895V20.1901C79.7873 20.6784 79.6408 21.0582 79.3424 21.324C79.0386 21.579 78.6643 21.7038 78.214 21.7038C77.7691 21.7038 77.3947 21.579 77.0964 21.324C76.8088 21.0582 76.6678 20.6784 76.6678 20.1901V10.4353C76.6678 9.96332 76.8088 9.60525 77.0964 9.35026C77.3947 9.1007 77.7637 8.97049 78.1977 8.97049C78.6263 8.97049 78.9735 9.1007 79.2394 9.35026C79.5106 9.58898 79.6408 9.93077 79.6408 10.3865V11.3956C79.9555 10.6523 80.4221 10.0827 81.0406 9.68121C81.6645 9.27431 82.3698 9.04644 83.1293 8.99761L83.482 8.97049ZM87.7626 21.7038C87.3177 21.7038 86.9434 21.579 86.645 21.324C86.3574 21.0582 86.2164 20.6784 86.2164 20.1901V10.4625C86.2164 9.97418 86.3574 9.60525 86.645 9.35026C86.9434 9.1007 87.3177 8.97049 87.7626 8.97049C88.2129 8.97049 88.5927 9.1007 88.8911 9.35026C89.184 9.60525 89.3359 9.97418 89.3359 10.4625V20.1901C89.3359 20.6784 89.184 21.0582 88.8911 21.324C88.5927 21.579 88.2129 21.7038 87.7626 21.7038ZM87.7626 6.72982C87.2038 6.72982 86.7535 6.57791 86.4171 6.27409C86.0862 5.95399 85.9234 5.54167 85.9234 5.04254C85.9234 4.53798 86.0862 4.13108 86.4171 3.83268C86.7535 3.52886 87.2038 3.37695 87.7626 3.37695C88.316 3.37695 88.7554 3.52886 89.0864 3.83268C89.4336 4.13108 89.6126 4.53798 89.6126 5.04254C89.6126 5.54167 89.4444 5.95399 89.1081 6.27409C88.7826 6.57791 88.3322 6.72982 87.7626 6.72982ZM96.964 21.7526C95.1573 21.7526 93.6871 21.3945 92.5749 20.673C92.0486 20.3529 91.7828 19.8971 91.7828 19.3112C91.7828 18.9748 91.875 18.7036 92.054 18.5028C92.2331 18.2858 92.4609 18.1719 92.7268 18.1719C93.0089 18.1719 93.405 18.3075 93.8987 18.5788C94.4303 18.8283 94.9132 19.0237 95.3418 19.1593C95.7921 19.2895 96.3618 19.36 97.0399 19.36C97.7398 19.36 98.2823 19.2407 98.6621 19.0074C99.0636 18.7687 99.2643 18.4431 99.2643 18.0254C99.2643 17.7378 99.1775 17.51 99.0148 17.3418C98.8628 17.1736 98.5807 17.0217 98.1684 16.8915C97.7669 16.7396 97.1484 16.5714 96.3184 16.3869C94.8427 16.0831 93.7739 15.6545 93.1283 15.1011C92.4935 14.5423 92.1734 13.7773 92.1734 12.8062C92.1734 12.0629 92.3904 11.401 92.8244 10.8151C93.2585 10.2075 93.8498 9.74631 94.5985 9.42622C95.3581 9.08984 96.2261 8.92166 97.1918 8.92166C97.8917 8.92166 98.5645 9.01389 99.2101 9.19835C99.8557 9.36654 100.442 9.62153 100.957 9.9579C101.489 10.2943 101.755 10.7392 101.755 11.2925C101.755 11.6289 101.662 11.9165 101.478 12.1497C101.299 12.3668 101.076 12.4753 100.811 12.4753C100.626 12.4753 100.442 12.4427 100.257 12.3776C100.089 12.2908 99.872 12.1769 99.6115 12.025C99.1287 11.77 98.7109 11.5855 98.3637 11.4661C98.0165 11.3359 97.5825 11.2654 97.0671 11.2654C96.454 11.2654 95.9603 11.3956 95.5968 11.6452C95.2441 11.8947 95.076 12.242 95.076 12.6814C95.076 13.0992 95.2496 13.4193 95.6185 13.6363C95.9874 13.8533 96.6981 14.0757 97.7398 14.2928C98.852 14.526 99.7309 14.7973 100.36 15.1011C100.995 15.3995 101.44 15.7793 101.706 16.235C101.988 16.6853 102.129 17.2658 102.129 17.9711C102.129 19.1159 101.657 20.0328 100.707 20.7218C99.7797 21.4108 98.5265 21.7526 96.964 21.7526ZM111.791 8.92166C114.651 8.92166 116.083 10.6089 116.083 13.9889V20.1901C116.083 20.6621 115.942 21.031 115.654 21.3023C115.388 21.5681 115.02 21.7038 114.537 21.7038C114.054 21.7038 113.674 21.5681 113.392 21.3023C113.104 21.031 112.963 20.6621 112.963 20.1901V13.9889C112.963 13.0992 112.779 12.4536 112.415 12.0467C112.068 11.6289 111.509 11.4173 110.744 11.4173C109.844 11.4173 109.122 11.7049 108.574 12.2745C108.043 12.8442 107.777 13.6092 107.777 14.5694V20.1901C107.777 20.6621 107.63 21.031 107.354 21.3023C107.071 21.5681 106.686 21.7038 106.203 21.7038C105.726 21.7038 105.341 21.5681 105.059 21.3023C104.787 21.031 104.657 20.6621 104.657 20.1901V5.11306C104.657 4.67904 104.798 4.32639 105.08 4.05512C105.384 3.78928 105.764 3.65365 106.225 3.65365C106.697 3.65365 107.071 3.77843 107.354 4.03342C107.63 4.28299 107.777 4.63021 107.777 5.06424V10.9399C108.189 10.2834 108.742 9.78971 109.421 9.45334C110.12 9.1007 110.907 8.92166 111.791 8.92166ZM120.798 21.7038C120.347 21.7038 119.967 21.579 119.674 21.324C119.392 21.0582 119.251 20.6784 119.251 20.1901V10.4625C119.251 9.97418 119.392 9.60525 119.674 9.35026C119.967 9.1007 120.347 8.97049 120.798 8.97049C121.248 8.97049 121.617 9.1007 121.915 9.35026C122.219 9.60525 122.365 9.97418 122.365 10.4625V20.1901C122.365 20.6784 122.219 21.0582 121.915 21.324C121.617 21.579 121.248 21.7038 120.798 21.7038ZM120.798 6.72982C120.228 6.72982 119.783 6.57791 119.447 6.27409C119.116 5.95399 118.947 5.54167 118.947 5.04254C118.947 4.53798 119.116 4.13108 119.447 3.83268C119.783 3.52886 120.228 3.37695 120.798 3.37695C121.345 3.37695 121.785 3.52886 122.116 3.83268C122.469 4.13108 122.642 4.53798 122.642 5.04254C122.642 5.54167 122.474 5.95399 122.143 6.27409C121.807 6.57791 121.362 6.72982 120.798 6.72982ZM73.7977 28.8652C74.2643 28.8652 74.6332 29.0171 74.8991 29.3155C75.1758 29.6031 75.3168 29.9883 75.3168 30.4766V45.2769C75.3168 45.7652 75.1758 46.1558 74.8991 46.4596C74.617 46.7635 74.248 46.9154 73.7977 46.9154C73.2661 46.9154 72.8592 46.7201 72.577 46.3349L63.4733 34.3611V45.2769C63.4733 45.7652 63.3377 46.1558 63.0718 46.4596C62.806 46.7635 62.4425 46.9154 61.9759 46.9154C61.5093 46.9154 61.1458 46.7635 60.88 46.4596C60.6141 46.1558 60.4785 45.7652 60.4785 45.2769V30.4766C60.4785 29.9883 60.6196 29.6031 60.9071 29.3155C61.1838 29.0171 61.5582 28.8652 62.0247 28.8652C62.5456 28.8652 62.9362 29.0551 63.2237 29.4457L72.3003 41.3652V30.4766C72.3003 29.9883 72.436 29.6031 72.7018 29.3155C72.9839 29.0171 73.3529 28.8652 73.7977 28.8652ZM88.495 43.3835C88.7771 43.3835 88.9996 43.492 89.1623 43.7144C89.3468 43.9314 89.439 44.2244 89.439 44.5933C89.439 45.1142 89.1298 45.5536 88.5167 45.9063C87.9525 46.2263 87.3123 46.4868 86.5961 46.6875C85.8854 46.872 85.2018 46.9642 84.5508 46.9642C82.5922 46.9642 81.0352 46.3945 79.885 45.2498C78.7402 44.105 78.1706 42.5425 78.1706 40.5623C78.1706 39.2982 78.4147 38.1806 78.9138 37.2094C79.413 36.2329 80.1074 35.4787 81.008 34.9416C81.9249 34.3991 82.9503 34.1333 84.1059 34.1333C85.2018 34.1333 86.1513 34.3774 86.9705 34.8657C87.7843 35.3485 88.4191 36.0375 88.8694 36.9327C89.3142 37.8225 89.5367 38.8696 89.5367 40.0794C89.5367 40.8064 89.222 41.1645 88.5927 41.1645H81.2359C81.3281 42.3255 81.6536 43.1827 82.207 43.7361C82.755 44.2732 83.5525 44.5445 84.5996 44.5445C85.1313 44.5445 85.5979 44.4794 85.9939 44.3438C86.4117 44.2081 86.8783 44.0237 87.3991 43.7904C87.8928 43.5191 88.2563 43.3835 88.495 43.3835ZM84.1764 36.3522C83.3301 36.3522 82.6465 36.6181 82.1311 37.1552C81.6319 37.6977 81.3281 38.4681 81.2359 39.4772H86.8728C86.8403 38.4518 86.5853 37.6814 86.1187 37.1552C85.6576 36.6181 85.0065 36.3522 84.1764 36.3522ZM98.2552 44.5716C99.0853 44.6204 99.503 45.0002 99.503 45.7055C99.503 46.107 99.3349 46.4162 99.0039 46.6387C98.6838 46.8394 98.2335 46.9208 97.6313 46.8882L96.9531 46.8394C94.1645 46.6387 92.7648 45.125 92.7648 42.2984V36.8025H91.5224C91.072 36.8025 90.7194 36.7049 90.4753 36.5041C90.242 36.298 90.1226 36.005 90.1226 35.6198C90.1226 35.2346 90.242 34.9416 90.4753 34.7355C90.7194 34.5347 91.072 34.4371 91.5224 34.4371H92.7648V32.115C92.7648 31.6593 92.9112 31.3012 93.1934 31.03C93.4755 30.7641 93.8552 30.6285 94.3381 30.6285C94.8047 30.6285 95.179 30.7641 95.4612 31.03C95.7433 31.3012 95.8843 31.6593 95.8843 32.115V34.4371H98.0056C98.4505 34.4371 98.7923 34.5347 99.0256 34.7355C99.2752 34.9416 99.4054 35.2346 99.4054 35.6198C99.4054 36.005 99.2752 36.298 99.0256 36.5041C98.7923 36.7049 98.4505 36.8025 98.0056 36.8025H95.8843V42.5263C95.8843 43.7687 96.454 44.436 97.5825 44.5174L98.2552 44.5716ZM117.808 35.1152C117.928 34.8114 118.09 34.589 118.307 34.4371C118.535 34.2852 118.79 34.2092 119.056 34.2092C119.441 34.2092 119.783 34.3448 120.076 34.6107C120.391 34.8657 120.553 35.1803 120.553 35.571C120.553 35.788 120.51 35.9833 120.429 36.1515L116.311 45.9063C116.181 46.2263 115.969 46.4705 115.687 46.6387C115.421 46.8069 115.123 46.8882 114.792 46.8882C114.472 46.8882 114.173 46.8069 113.891 46.6387C113.631 46.4705 113.43 46.2263 113.294 45.9063L110.327 38.696L107.462 45.9063C107.326 46.2263 107.115 46.4705 106.833 46.6387C106.567 46.8069 106.268 46.8882 105.938 46.8882C105.623 46.8882 105.319 46.8069 105.037 46.6387C104.755 46.4705 104.543 46.2263 104.418 45.9063L100.322 36.1515C100.241 35.929 100.197 35.7446 100.197 35.5927C100.197 35.2075 100.366 34.8819 100.697 34.6107C101.033 34.3231 101.391 34.1821 101.793 34.1821C102.08 34.1821 102.335 34.258 102.568 34.4099C102.802 34.5619 102.975 34.7897 103.089 35.0881L106.035 42.7813L109.057 35.1641C109.182 34.8494 109.377 34.6107 109.627 34.4588C109.876 34.2906 110.153 34.2092 110.451 34.2092C110.744 34.2092 111.021 34.2906 111.271 34.4588C111.526 34.6107 111.715 34.8494 111.846 35.1641L114.889 42.803L117.808 35.1152ZM128.051 46.9642C126.803 46.9642 125.707 46.7038 124.758 46.1829C123.825 45.6621 123.103 44.9134 122.588 43.9369C122.072 42.9657 121.812 41.8318 121.812 40.5352C121.812 39.2439 122.072 38.1155 122.588 37.1552C123.103 36.184 123.825 35.4353 124.758 34.9145C125.707 34.3937 126.803 34.1333 128.051 34.1333C129.294 34.1333 130.39 34.3937 131.317 34.9145C132.267 35.4353 132.988 36.184 133.487 37.1552C134.003 38.1155 134.258 39.2439 134.258 40.5352C134.258 41.8318 134.003 42.9657 133.487 43.9369C132.988 44.9134 132.267 45.6621 131.317 46.1829C130.39 46.7038 129.294 46.9642 128.051 46.9642ZM128.024 44.5174C129.044 44.5174 129.814 44.181 130.346 43.5083C130.872 42.8409 131.144 41.8481 131.144 40.5352C131.144 39.2439 130.872 38.2565 130.346 37.5838C129.814 36.8948 129.049 36.553 128.051 36.553C127.053 36.553 126.277 36.8948 125.729 37.5838C125.197 38.2565 124.932 39.2439 124.932 40.5352C124.932 41.8481 125.197 42.8409 125.729 43.5083C126.261 44.181 127.026 44.5174 128.024 44.5174ZM143.644 34.1821C144.078 34.1495 144.419 34.2418 144.669 34.4588C144.913 34.6812 145.038 35.0067 145.038 35.4408C145.038 35.8965 144.929 36.2329 144.712 36.4499C144.501 36.6723 144.11 36.8134 143.541 36.8785L142.797 36.9544C141.815 37.0575 141.094 37.3939 140.627 37.9635C140.177 38.5332 139.954 39.2494 139.954 40.1066V45.4017C139.954 45.89 139.803 46.2643 139.504 46.5356C139.206 46.7906 138.831 46.9154 138.381 46.9154C137.931 46.9154 137.556 46.7906 137.258 46.5356C136.976 46.2643 136.835 45.89 136.835 45.4017V35.6469C136.835 35.1749 136.976 34.8114 137.258 34.5619C137.556 34.3069 137.925 34.1821 138.359 34.1821C138.788 34.1821 139.135 34.3069 139.406 34.5619C139.672 34.7951 139.803 35.1424 139.803 35.5927V36.6018C140.117 35.8639 140.584 35.2943 141.202 34.8874C141.832 34.4859 142.531 34.258 143.291 34.2092L143.644 34.1821ZM157.229 44.3166C157.565 44.6367 157.733 45.0002 157.733 45.4017C157.733 45.7869 157.592 46.1341 157.305 46.4325C157.044 46.7363 156.73 46.8882 156.361 46.8882C155.992 46.8882 155.65 46.7363 155.341 46.4325L149.498 41.0885V45.4017C149.498 45.89 149.351 46.2589 149.053 46.5085C148.754 46.7635 148.38 46.8882 147.93 46.8882C147.485 46.8882 147.105 46.7635 146.807 46.5085C146.525 46.2589 146.383 45.89 146.383 45.4017V30.3518C146.383 29.8635 146.525 29.4946 146.807 29.2396C147.105 28.99 147.485 28.8652 147.93 28.8652C148.38 28.8652 148.754 28.99 149.053 29.2396C149.351 29.4946 149.498 29.8635 149.498 30.3518V39.8299L154.842 34.6595C155.14 34.3611 155.482 34.2092 155.862 34.2092C156.241 34.2092 156.578 34.3503 156.86 34.6378C157.142 34.9199 157.283 35.2563 157.283 35.6469C157.283 36.0321 157.12 36.3848 156.811 36.7049L152.894 40.3833L157.229 44.3166Z" fill="#14746F"/>
<path d="M10.7989 42.2006C10.7989 42.2006 -16.8975 19.7777 17.5318 0.360352C17.5318 0.360352 19.6151 4.39138 21.6605 9.26877C23.8523 14.5042 20.6839 19.284 16.7342 30.1292C13.2132 35.1857 12.0196 42.2006 12.0196 42.2006C12.0196 42.2006 6.19279 30.1292 11.6615 16.3217C6.97947 25.3929 7.56541 34.0897 10.7989 42.2006Z" fill="#14746F"/>
<path d="M12.0092 42.5534C12.0092 42.5534 8.40133 26.3587 16.0945 17.0977C22.4964 9.38824 26.229 8.28689 47.5181 7.42969C47.5181 7.42969 44.3443 10.0935 42.2609 17.5805C37.9152 33.1675 28.1333 32.3917 22.1329 37.8876C20.2232 38.2782 15.0962 41.4032 12.6168 44.1756C12.6168 44.1756 15.7744 31.1602 27.1079 19.9948C19.7674 26.5866 15.1505 31.6973 12.0092 42.5534Z" fill="#95BA02"/>
<path d="M12.6445 44.1374C12.6445 44.1374 16.2795 39.2762 19.1495 36.1784C24.5803 30.3081 30.0436 26.3422 42.2941 27.9047C46.3034 28.4147 50.4267 29.592 52.4557 27.7745C52.4557 27.7745 51.2893 32.6031 49.7268 36.4822C45.3214 47.4685 29.0237 56.3661 12.6445 45.2441C12.6445 45.2441 23.8533 45.2441 37.8073 37.5618C37.8073 37.5618 26.1319 42.8027 12.6445 44.1374Z" fill="#14746F"/>
</svg>
