<svg width="110" height="66" viewBox="0 0 110 66" fill="none" xmlns="http://www.w3.org/2000/svg">
<mask id="mask0_3008_1583" style="mask-type:luminance" maskUnits="userSpaceOnUse" x="0" y="0" width="110" height="66">
<path d="M110 0H0V65.0386H110V0Z" fill="white"/>
</mask>
<g mask="url(#mask0_3008_1583)">
<path d="M11.3724 49.7233V53.277H9.04883V42.9613H12.6879C15.2872 42.9613 16.5868 44.0572 16.5868 46.2489C16.6024 46.7252 16.5098 47.1989 16.3161 47.6344C16.1223 48.0698 15.8324 48.4557 15.4681 48.763C14.7224 49.404 13.726 49.7245 12.4792 49.7245L11.3724 49.7233ZM11.3724 44.7465V47.9608H12.2861C13.5233 47.9608 14.1419 47.4189 14.1419 46.3351C14.1419 45.2753 13.5233 44.7453 12.2861 44.7453L11.3724 44.7465ZM27.5379 48.8091C27.5379 51.9072 26.0944 53.4563 23.2074 53.4563C20.4068 53.4563 19.0065 51.9432 19.0065 48.9171V42.9613H21.3372V48.9463C21.3372 50.6152 21.9893 51.4497 23.2937 51.4497C24.5741 51.4497 25.2143 50.644 25.2143 49.0325V42.9613H27.5379V48.8091ZM30.3374 52.8811V50.5793C30.7399 50.9209 31.2004 51.1878 31.697 51.3671C32.172 51.5397 32.6733 51.6286 33.1787 51.6298C33.4363 51.6335 33.6934 51.607 33.9447 51.5506C34.1378 51.5081 34.3225 51.434 34.4913 51.3312C34.626 51.2495 34.7383 51.1359 34.8185 51.0004C34.8902 50.8743 34.9275 50.7316 34.9265 50.5867C34.929 50.3928 34.8683 50.2035 34.7538 50.0471C34.6235 49.8745 34.464 49.726 34.2827 49.6082C34.0575 49.4595 33.8205 49.3296 33.574 49.2197C33.3007 49.0951 33.0057 48.968 32.6892 48.8385C31.9971 48.5819 31.3784 48.1596 30.8874 47.6085C30.4875 47.1123 30.2771 46.4902 30.2935 45.8533C30.2801 45.3712 30.3917 44.8939 30.6173 44.4677C30.8307 44.0841 31.1329 43.7573 31.4984 43.5144C31.8925 43.2554 32.3298 43.069 32.7896 42.9641C33.2988 42.8444 33.8204 42.7852 34.3435 42.788C34.8212 42.7837 35.2986 42.8162 35.7715 42.885C36.1634 42.9437 36.5481 43.0438 36.919 43.1836V45.3344C36.7408 45.2115 36.5514 45.1055 36.3534 45.0179C36.1495 44.9269 35.9391 44.8513 35.724 44.7917C35.5126 44.7327 35.2975 44.6882 35.0801 44.6585C34.8786 44.6306 34.6755 44.6161 34.4721 44.6153C34.2302 44.6129 33.9889 44.6382 33.7527 44.6908C33.5604 44.7319 33.3759 44.8035 33.2061 44.9028C33.0677 44.9842 32.9496 45.0961 32.8609 45.23C32.7792 45.3577 32.7367 45.5066 32.7387 45.6581C32.7371 45.8235 32.7857 45.9855 32.8781 46.1227C32.9837 46.2741 33.1153 46.4056 33.2666 46.5113C33.4597 46.6485 33.6643 46.7689 33.878 46.871C34.1178 46.9884 34.3888 47.1095 34.691 47.2343C35.0736 47.3922 35.4449 47.576 35.8023 47.7846C36.1126 47.9647 36.397 48.1861 36.6475 48.4429C36.8805 48.6843 37.0638 48.9691 37.1871 49.2811C37.3181 49.6316 37.3815 50.0038 37.374 50.378C37.3909 50.8812 37.2782 51.3803 37.0468 51.8275C36.8338 52.2127 36.5285 52.539 36.1583 52.777C35.7588 53.0295 35.3162 53.2062 34.8527 53.2985C34.3358 53.4061 33.8091 53.4592 33.2811 53.4568C32.7395 53.459 32.1988 53.4108 31.6661 53.3129C31.2051 53.2334 30.7578 53.088 30.3382 52.8811H30.3374ZM49.0289 53.277H46.6982V49.0761H42.4249V53.277H40.1013V42.9613H42.4249V47.076H46.698V42.9613H49.0286L49.0289 53.277ZM54.741 49.7233V53.277H52.418V42.9613H56.0579C58.6571 42.9613 59.9568 44.0572 59.9568 46.2489C59.9724 46.7252 59.8798 47.1989 59.6861 47.6344C59.4923 48.0698 59.2024 48.4557 58.8381 48.763C58.0923 49.404 57.096 49.7245 55.8492 49.7245L54.741 49.7233ZM54.741 44.7465V47.9608H55.6546C56.8919 47.9608 57.5105 47.4189 57.5105 46.3351C57.5105 45.2753 56.8919 44.7453 55.6546 44.7453L54.741 44.7465ZM69.0806 53.277H66.5483L65.8145 50.9823H62.1455L61.4193 53.277H58.9026L62.6576 42.9613H65.4127L69.0806 53.277ZM65.2823 49.1982L64.1744 45.7308C64.0845 45.4283 64.0266 45.1173 64.0016 44.8027H63.945C63.9204 45.1085 63.86 45.4103 63.7652 45.702L62.6432 49.1979L65.2823 49.1982ZM79.9734 53.277H77.0382L74.0314 48.7953C73.9264 48.6128 73.8351 48.4228 73.758 48.2269H73.722V53.277H71.3985V42.9613H73.722V47.8386H73.758C73.8155 47.7044 73.9114 47.5126 74.0458 47.2632L76.8945 42.9613H79.664L76.0671 47.8816L79.9734 53.277ZM82.7805 53.4568C82.4357 53.4678 82.1003 53.3439 81.8454 53.1116C81.7255 53.0055 81.6301 52.8747 81.5655 52.7283C81.5009 52.5819 81.4688 52.4232 81.4712 52.2632C81.4672 52.102 81.4997 51.9419 81.5664 51.7949C81.633 51.648 81.7321 51.5181 81.8561 51.4149C82.1248 51.1898 82.4672 51.072 82.8175 51.0841C83.1663 51.0699 83.5073 51.1895 83.7708 51.4186C83.8906 51.5238 83.9859 51.654 84.0499 51.8C84.1139 51.9461 84.1451 52.1044 84.1412 52.2638C84.1459 52.4261 84.1144 52.5875 84.049 52.7361C83.9837 52.8848 83.8861 53.0171 83.7634 53.1234C83.4893 53.3541 83.1384 53.4731 82.7805 53.4568ZM96.0831 53.277H93.5509L92.8171 50.9823H89.1486L88.4222 53.277H85.9055L89.6596 42.9613H92.4147L96.0831 53.277ZM92.2849 49.1982L91.177 45.7308C91.0871 45.4283 91.0292 45.1173 91.0042 44.8027H90.9476C90.923 45.1085 90.8626 45.4103 90.7678 45.702L89.6455 49.1979L92.2849 49.1982ZM100.725 53.277H98.4013V42.9613H100.725V53.277Z" fill="#0360AE"/>
<path d="M13.6593 62.6051V58.9502H11.9779V58.1765H16.1141V58.9502H14.4327V62.6051H13.6593Z" fill="#010101"/>
<path d="M20.9385 62.6049L19.8175 61.3867H18.1608V60.708H20.0053C20.121 60.7166 20.2372 60.7007 20.3464 60.6613C20.4555 60.6219 20.5551 60.56 20.6387 60.4796C20.794 60.2959 20.8706 60.0585 20.8519 59.8187C20.8617 59.702 20.847 59.5845 20.8087 59.4738C20.7704 59.3632 20.7095 59.2617 20.6297 59.176C20.4608 59.0309 20.243 58.9558 20.0206 58.9658H17.5944V62.6207H16.8269V58.1763H20.0053C20.2357 58.1721 20.4649 58.2105 20.6814 58.2894C20.8713 58.3592 21.0438 58.4694 21.187 58.6124C21.3231 58.7588 21.4269 58.9322 21.4916 59.1214C21.5739 59.3363 21.6172 59.5642 21.6194 59.7944C21.6283 60.1157 21.5448 60.4328 21.3788 60.708C21.2196 60.9567 20.9831 61.1462 20.7057 61.2473L22.0399 62.5936L20.9385 62.6049Z" fill="#010101"/>
<path d="M27.2554 62.6051L26.5915 61.4904H24.4958L24.8615 60.8629H26.2188L25.2319 59.2061L23.2216 62.6054H22.3397L24.8846 58.3657C24.925 58.2951 24.9788 58.233 25.043 58.183C25.1067 58.1369 25.1839 58.1133 25.2624 58.116C25.3401 58.1129 25.4165 58.1366 25.4788 58.183C25.5412 58.234 25.5938 58.2959 25.634 58.3657L28.1863 62.6054L27.2554 62.6051Z" fill="#010101"/>
<path d="M29.5827 59.3643V62.605H28.8455V58.5754C28.8388 58.4531 28.8766 58.3325 28.9521 58.2361C28.9894 58.1927 29.0364 58.1587 29.0894 58.137C29.1423 58.1153 29.1996 58.1064 29.2566 58.1111C29.3135 58.1108 29.3698 58.1232 29.4212 58.1476C29.4826 58.1786 29.5382 58.2198 29.5858 58.2694L32.7108 61.3701V58.1399H33.4491V62.1969C33.4559 62.3197 33.4181 62.4409 33.3425 62.5379C33.3085 62.5779 33.2659 62.6096 33.2179 62.6307C33.1699 62.6518 33.1178 62.6617 33.0654 62.6598C32.9984 62.6576 32.9326 62.6419 32.872 62.6136C32.8113 62.5853 32.7569 62.5451 32.7122 62.4952L29.5827 59.3643Z" fill="#010101"/>
<path d="M34.3828 62.6049V61.8312H37.7026C37.8765 61.8429 38.0482 61.7861 38.1808 61.6729C38.2368 61.6186 38.2807 61.5531 38.3095 61.4807C38.3384 61.4083 38.3516 61.3306 38.3482 61.2527C38.3546 61.1731 38.3429 61.093 38.3139 61.0186C38.2849 60.9442 38.2394 60.8773 38.1808 60.8231C38.0435 60.7201 37.8739 60.6694 37.7026 60.68H35.6666C35.4745 60.6832 35.2835 60.6512 35.103 60.5856C34.9443 60.5288 34.7991 60.4396 34.6766 60.3237C34.5605 60.2108 34.4692 60.0749 34.4085 59.9247C34.3439 59.7641 34.3118 59.5923 34.3141 59.4191C34.3128 59.2496 34.3427 59.0813 34.4023 58.9226C34.4585 58.7734 34.5481 58.6391 34.6642 58.5298C34.7884 58.4154 34.9345 58.3273 35.0937 58.2708C35.2814 58.2045 35.4795 58.1725 35.6785 58.1763H38.86V58.95H35.6802C35.6051 58.9453 35.5298 58.9555 35.4587 58.9801C35.3876 59.0047 35.3221 59.0431 35.2659 59.0931C35.2153 59.1459 35.1762 59.2086 35.1511 59.2773C35.1259 59.346 35.1152 59.4191 35.1197 59.4921C35.1151 59.5649 35.1261 59.6378 35.1518 59.7061C35.1775 59.7743 35.2175 59.8363 35.269 59.888C35.3803 59.9865 35.5258 60.0373 35.6742 60.0294H37.7029C38.071 60.0001 38.4368 60.1087 38.7293 60.3339C38.854 60.4592 38.9499 60.61 39.0104 60.7761C39.0709 60.9421 39.0945 61.1193 39.0797 61.2954C39.082 61.4716 39.0533 61.6468 38.9949 61.8131C38.9396 61.9712 38.8492 62.1148 38.7305 62.233C38.6118 62.3511 38.4678 62.4409 38.3094 62.4955C38.1138 62.5639 37.9075 62.5969 37.7003 62.593L34.3828 62.6049Z" fill="#010101"/>
<path d="M39.9445 62.6051V58.1765H43.7028V58.9502H40.7119V62.6051H39.9445ZM41.2786 60.7775V60.0988H43.5204V60.7749L41.2786 60.7775Z" fill="#010101"/>
<path d="M46.4614 62.6055C46.1743 62.6082 45.8897 62.552 45.6252 62.4404C45.3607 62.3288 45.1218 62.1643 44.9233 61.9568C44.7268 61.7507 44.5735 61.5074 44.4726 61.2411C44.3638 60.9552 44.3091 60.6515 44.3111 60.3456C44.3077 60.0415 44.3625 59.7396 44.4726 59.4562C44.5732 59.1988 44.7268 58.9654 44.9233 58.7711C45.1188 58.5802 45.3509 58.431 45.6057 58.3325C45.8786 58.227 46.1691 58.1743 46.4616 58.1772H47.5399C47.8407 58.1731 48.1396 58.2268 48.4201 58.3356C48.6776 58.4341 48.9114 58.5857 49.1063 58.7806C49.3011 58.9755 49.4528 59.2093 49.5513 59.4667C49.66 59.7472 49.7138 60.0461 49.7096 60.347C49.7116 60.6529 49.6569 60.9566 49.5481 61.2425C49.4472 61.5088 49.2939 61.7522 49.0974 61.9582C48.903 62.1609 48.67 62.3225 48.4119 62.4333C48.1368 62.5512 47.84 62.6103 47.5407 62.6069L46.4614 62.6055ZM47.5396 61.8318C47.7319 61.834 47.9227 61.7967 48.1 61.7221C48.2676 61.6521 48.4189 61.5483 48.5447 61.4173C48.6704 61.2863 48.7679 61.1308 48.831 60.9606C48.9015 60.7759 48.9366 60.5797 48.9345 60.382C48.9369 60.1853 48.9018 59.9899 48.831 59.8063C48.7622 59.6359 48.6585 59.4818 48.5265 59.3539C48.4013 59.2236 48.251 59.12 48.0848 59.0493C47.9068 58.9772 47.7163 58.941 47.5243 58.9427H46.4461C46.257 58.9412 46.0696 58.9775 45.8947 59.0493C45.7303 59.1201 45.5821 59.2237 45.4592 59.3539C45.3352 59.4839 45.238 59.6371 45.173 59.8046C45.1017 59.9891 45.0666 60.1856 45.0695 60.3834C45.0674 60.5811 45.1025 60.7774 45.173 60.962C45.2372 61.1326 45.3345 61.2889 45.4592 61.4218C45.5824 61.5516 45.7305 61.6552 45.8947 61.7264C46.0689 61.8006 46.2567 61.838 46.4461 61.8361L47.5396 61.8318Z" fill="#010101"/>
<path d="M54.6498 62.6049L53.5288 61.3867H51.872V60.708H53.7177C53.8334 60.7166 53.9496 60.7007 54.0588 60.6613C54.1679 60.6219 54.2676 60.56 54.3511 60.4796C54.5064 60.2959 54.583 60.0585 54.5644 59.8187C54.5741 59.702 54.5594 59.5845 54.5211 59.4738C54.4828 59.3632 54.4219 59.2617 54.3421 59.176C54.1693 59.0272 53.9453 58.9518 53.7177 58.9658H51.3054V62.6207H50.5379V58.1763H53.7177C53.9481 58.1721 54.1773 58.2105 54.3938 58.2894C54.5838 58.3592 54.7563 58.4694 54.8994 58.6124C55.0355 58.7588 55.1393 58.9322 55.204 59.1214C55.2798 59.3365 55.317 59.5634 55.3137 59.7916C55.3226 60.1129 55.2391 60.43 55.0731 60.7052C54.9139 60.9538 54.6774 61.1432 54.4001 61.2442L55.7342 62.5905L54.6498 62.6049Z" fill="#010101"/>
<path d="M61.8622 62.6052L61.0155 59.4893L59.7606 62.3705C59.7236 62.4538 59.6684 62.5277 59.5991 62.5869C59.5325 62.6393 59.4494 62.6663 59.3647 62.6629C59.2746 62.6621 59.1871 62.632 59.1157 62.577C59.0442 62.5221 58.9927 62.4453 58.9688 62.3584L57.7198 59.4763L56.8731 62.5891H56.1116L57.2569 58.4377C57.2722 58.3486 57.3198 58.2684 57.3906 58.2122C57.4614 58.156 57.5504 58.1279 57.6406 58.1331C57.7217 58.1323 57.8013 58.1556 57.8691 58.2002C57.9414 58.2473 57.9977 58.3152 58.0306 58.395L59.3879 61.514L60.7523 58.3828C60.7778 58.305 60.8277 58.2375 60.8947 58.1903C60.9616 58.1432 61.042 58.1188 61.1238 58.121C61.2116 58.1202 61.297 58.1502 61.3649 58.2059C61.4328 58.2615 61.479 58.3393 61.4954 58.4255L62.6285 62.5922L61.8622 62.6052Z" fill="#010101"/>
<path d="M63.385 62.6051V58.1765H64.1587V62.6051H63.385Z" fill="#010101"/>
<path d="M65.8887 59.3643V62.605H65.1515V58.5754C65.1433 58.4529 65.1813 58.3318 65.2581 58.2361C65.2954 58.1927 65.3424 58.1587 65.3954 58.137C65.4483 58.1153 65.5056 58.1064 65.5626 58.1111C65.6195 58.1112 65.6756 58.1236 65.7272 58.1476C65.7886 58.1786 65.8442 58.2198 65.8918 58.2694L69.0168 61.3701V58.1399H69.7446V62.1969C69.7515 62.3197 69.7136 62.4409 69.638 62.5379C69.604 62.5779 69.5614 62.6096 69.5134 62.6307C69.4654 62.6518 69.4133 62.6617 69.3609 62.6598C69.2939 62.658 69.228 62.6424 69.1673 62.6141C69.1065 62.5858 69.0522 62.5454 69.0077 62.4952L65.8887 59.3643Z" fill="#010101"/>
<path d="M72.7111 62.6049C72.424 62.6076 72.1395 62.5514 71.8749 62.4398C71.6104 62.3282 71.3716 62.1637 71.1731 61.9562C70.9766 61.7501 70.8233 61.5068 70.7224 61.2405C70.6136 60.9546 70.5588 60.6509 70.5609 60.345C70.5574 60.0409 70.6123 59.739 70.7224 59.4556C70.823 59.1982 70.9765 58.9648 71.1731 58.7705C71.3685 58.5796 71.6007 58.4304 71.8554 58.3319C72.1284 58.2264 72.4188 58.1737 72.7114 58.1766H75.1116V58.9503H72.7114C72.5223 58.9486 72.3348 58.9849 72.16 59.0569C71.9952 59.1269 71.8468 59.2307 71.7245 59.3615C71.5995 59.4907 71.5021 59.6441 71.4383 59.8122C71.367 59.9967 71.3319 60.1932 71.3348 60.3911C71.3327 60.5888 71.3678 60.7852 71.4383 60.9699C71.5014 61.1411 71.5989 61.2976 71.7248 61.4297C71.8474 61.5602 71.9957 61.6638 72.1603 61.7342C72.3344 61.8088 72.5222 61.8461 72.7117 61.844H74.6184V60.6928H72.6082V60.041H75.3859V62.6176L72.7111 62.6049Z" fill="#010101"/>
<path d="M78.2912 62.6052V58.1767H80.8557C81.1515 58.1733 81.4452 58.2271 81.7207 58.335C81.9758 58.4358 82.2079 58.5871 82.4031 58.7798C82.5951 58.9772 82.7471 59.21 82.8507 59.4653C82.9605 59.7456 83.0153 60.0445 83.0122 60.3456C83.0142 60.6515 82.9594 60.9551 82.8507 61.2411C82.7484 61.506 82.5965 61.7489 82.4031 61.9568C82.2035 62.1653 81.9631 62.3305 81.6969 62.4421C81.4306 62.5537 81.1443 62.6093 80.8557 62.6055L78.2912 62.6052ZM80.8557 61.8315C81.1329 61.8365 81.4047 61.7553 81.6338 61.5993C81.8629 61.4433 82.038 61.22 82.135 60.9603C82.2041 60.7753 82.2391 60.5793 82.2385 60.3818C82.2394 60.1851 82.2043 59.99 82.135 59.806C82.0716 59.6378 81.9742 59.4845 81.849 59.3556C81.7238 59.2267 81.5734 59.1249 81.4071 59.0567C81.2321 58.9851 81.0447 58.9489 80.8557 58.9501H79.0587V61.8313L80.8557 61.8315Z" fill="#010101"/>
<path d="M87.8731 62.6053L87.2092 61.4906H85.1135L85.4791 60.8631H86.8365L85.8496 59.2063L83.8396 62.6053H82.9573L85.5023 58.3656C85.5417 58.2943 85.5957 58.2321 85.6607 58.1829C85.7243 58.1368 85.8016 58.1132 85.8801 58.1159C85.9577 58.1132 86.0339 58.1368 86.0964 58.1829C86.1588 58.2339 86.2114 58.2958 86.2517 58.3656L88.804 62.6053H87.8731Z" fill="#010101"/>
<path d="M90.115 62.6051V58.9502H88.4336V58.1765H92.5698V58.9502H90.8884V62.6051H90.115Z" fill="#010101"/>
<path d="M97.0653 62.6055L96.4014 61.4908H94.306L94.6716 60.8633H96.0289L95.0421 59.2065L93.0318 62.6058H92.1495L94.6945 58.3661C94.7339 58.2948 94.7879 58.2326 94.8529 58.1834C94.9165 58.1373 94.9938 58.1137 95.0723 58.1164C95.1499 58.1137 95.2262 58.1373 95.2886 58.1834C95.351 58.2344 95.4036 58.2963 95.4439 58.3661L97.9962 62.6058L97.0653 62.6055Z" fill="#010101"/>
<path d="M54.8463 32.5538L54.8969 32.5255L54.889 32.5068L54.8463 32.5094V32.5538Z" fill="#0360AE"/>
<path d="M54.8573 32.5253L54.9194 32.485L54.8951 32.4473L54.8224 32.4581V32.4796L54.8573 32.5253Z" fill="#0360AE"/>
<path d="M54.5082 32.4849L55.2805 31.9392L54.7373 31.918L54.6841 32.0594L54.5537 32.3308L54.4845 32.3874L54.4633 32.4487L54.5082 32.4849Z" fill="#0360AE"/>
<path d="M62.765 3.32078C54.1886 2.74306 46.7499 9.11995 46.1796 17.5368C46.1067 18.6204 46.1522 19.7088 46.3153 20.7825C47.0369 20.5933 48.012 20.8543 49.0712 21.4694C48.7737 20.2393 48.6659 18.971 48.7517 17.7084C49.2256 10.7109 55.4348 5.40965 62.5976 5.8915C69.7603 6.37335 75.1944 12.4643 74.723 19.4724C74.2516 26.4804 68.0399 31.7703 60.8774 31.2896C59.9129 31.2239 58.9585 31.0533 58.031 30.7806L55.3684 32.5353C57.0557 33.2896 58.8629 33.7403 60.7069 33.8666C69.294 34.4338 76.72 28.0566 77.2819 19.6429C77.8437 11.2292 71.3416 3.90132 62.765 3.32078Z" fill="#E67A31"/>
<path d="M62.8156 2.58585C58.5132 2.28228 54.2645 3.68671 50.9907 6.49467C48.9389 8.23615 47.3663 10.4732 46.4221 12.9934C45.478 15.5136 45.1937 18.2332 45.5962 20.8942L45.7186 21.693L46.5175 21.4855C47.0208 21.3523 47.8222 21.576 48.7169 22.0952L49.0339 22.279C49.3192 22.107 49.6303 21.9821 49.9552 21.9088L49.8033 21.2867C49.524 20.1306 49.4225 18.9387 49.5025 17.752C49.9498 11.1565 55.805 6.1641 62.5495 6.61937C65.7871 6.82515 68.8136 8.29719 70.9742 10.7171C72.0382 11.8893 72.8546 13.2643 73.3745 14.7596C73.8944 16.2548 74.1071 17.8397 74 19.4191C73.8929 20.9986 73.468 22.5401 72.7509 23.9515C72.0338 25.3628 71.0392 26.6149 69.8267 27.6328C67.3598 29.7409 64.1622 30.7931 60.9255 30.5618C60.0153 30.4996 59.1146 30.3389 58.2391 30.0825L56.431 29.55L57.0461 30.5618L53.8507 32.6707L55.0836 33.2165C56.8516 34.0032 58.7444 34.4723 60.6752 34.6021C61.0559 34.6286 61.4368 34.6394 61.8148 34.6394C65.7322 34.6427 69.5205 33.2385 72.4894 30.6828C74.1029 29.3155 75.4252 27.638 76.378 25.7499C77.3307 23.8618 77.8945 21.8015 78.0357 19.6913C78.6132 10.8559 71.7965 3.19297 62.8156 2.58585ZM76.5548 19.5895C76.4256 21.5039 75.9133 23.373 75.0484 25.0858C74.1835 26.7987 72.9836 28.3204 71.5197 29.561C69.5423 31.2471 67.1615 32.3915 64.6096 32.8825C62.0578 33.3734 59.4223 33.1942 56.9604 32.3622L58.1585 31.5634C59.0299 31.7953 59.9215 31.9433 60.8212 32.0053C64.4417 32.2648 68.0186 31.0872 70.7769 28.7277C72.1345 27.5823 73.2477 26.1753 74.0502 24.5906C74.8526 23.0059 75.3279 21.2759 75.4477 19.5036C75.5674 17.7314 75.3293 15.9531 74.7473 14.2749C74.1654 12.5966 73.2516 11.0527 72.0604 9.735C69.6419 7.03149 66.2573 5.38751 62.6371 5.15798C55.0726 4.64899 48.5119 10.257 48.0111 17.6725C47.9533 18.5233 47.9783 19.3776 48.0858 20.2235C47.7198 20.0971 47.3381 20.0218 46.9515 19.9998C46.7152 17.6869 47.0464 15.3512 47.9163 13.1952C48.7862 11.0391 50.1687 9.12762 51.944 7.62634C54.9241 5.0624 58.7962 3.77912 62.7177 4.05572C70.8914 4.6094 77.0952 11.575 76.5548 19.5895Z" fill="#E67A31"/>
<path d="M47.3483 23.2319C49.3616 23.2319 50.9936 21.5999 50.9936 19.5867C50.9936 17.5734 49.3616 15.9414 47.3483 15.9414C45.3351 15.9414 43.7031 17.5734 43.7031 19.5867C43.7031 21.5999 45.3351 23.2319 47.3483 23.2319Z" fill="#E67A31"/>
<path d="M63.4365 16.8469C63.5996 17.9207 63.6451 19.009 63.5722 20.0926C63.0024 28.5092 55.5629 34.8863 46.9865 34.3086C38.4102 33.7309 31.884 26.4084 32.4518 17.9924C33.0197 9.57645 40.4598 3.19814 49.0361 3.77529C50.9526 3.90322 52.8295 4.38057 54.5743 5.1838C54.1269 5.78809 54.0817 6.78149 54.3879 7.97424C52.6886 7.03178 50.802 6.47664 48.863 6.34855C41.706 5.86784 35.4965 11.1654 35.0172 18.1655C34.5379 25.1656 39.9856 31.2524 47.1429 31.745C54.3003 32.2376 60.5095 26.9282 60.9888 19.928C61.0746 18.6654 60.9668 17.3971 60.6692 16.1671C61.7291 16.7748 62.7035 17.0358 63.4365 16.8469Z" fill="#0360AE"/>
<path d="M64.1551 16.7378L64.0326 15.9389L63.2338 16.1465C62.7333 16.2797 61.9291 16.056 61.0344 15.5368L59.9694 14.9243C59.952 14.9477 59.9331 14.9699 59.9129 14.9908L59.7958 15.0813L59.7079 15.1158L59.6705 15.1316L59.9581 16.3243C60.4695 18.4463 60.3795 20.6688 59.6984 22.7425C59.0173 24.8162 57.7719 26.6592 56.1019 28.0647C53.6359 30.1726 50.4391 31.2249 47.2032 30.9937C40.448 30.5356 35.3173 24.8009 35.7539 18.2122C36.1905 11.6235 42.0564 6.62173 48.8009 7.07954C50.633 7.19768 52.4159 7.7225 54.0198 8.61587L54.2542 8.74623C54.3318 8.64684 54.4212 8.55738 54.5206 8.47985C54.708 8.29519 54.9333 8.15345 55.1809 8.06445L55.1091 7.79808C54.856 6.81826 54.88 6.02733 55.173 5.6306L55.7054 4.90103L54.8826 4.52296C53.0562 3.68232 51.0917 3.18237 49.0856 3.04772C40.1047 2.44342 32.3111 9.12741 31.7144 17.9585C31.5749 20.0663 31.8596 22.1807 32.5516 24.1766C33.2436 26.1724 34.3288 28.0093 35.7431 29.5784C38.6057 32.8015 42.6245 34.765 46.9264 35.0422C47.307 35.0662 47.6879 35.0795 48.066 35.0795C51.9857 35.0883 55.778 33.6877 58.7512 31.1334C60.8047 29.3937 62.3794 27.1579 63.3257 24.6383C64.2719 22.1188 64.5583 19.3991 64.1576 16.7378H64.1551Z" fill="#0360AE"/>
<path d="M47.9579 4.46558C40.2362 4.46558 33.706 10.3581 33.1854 18.0318C33.0559 19.9461 33.312 21.867 33.9386 23.6805C34.5652 25.494 35.5495 27.1632 36.8332 28.5892C39.4473 31.5176 43.1031 33.3075 47.0193 33.5761C50.9355 33.8448 54.8014 32.5711 57.7909 30.0271C59.5664 28.526 60.949 26.6146 61.8189 24.4585C62.6889 22.3024 63.0199 19.9666 62.7833 17.6537C62.3968 17.6317 62.0151 17.5564 61.6491 17.43C61.7552 18.2769 61.7802 19.1319 61.7238 19.9835C61.6018 21.754 61.1248 23.4819 60.3211 25.0642C59.5173 26.6464 58.4034 28.0508 57.0455 29.1935C54.286 31.5508 50.71 32.7281 47.0898 32.4712C39.5278 31.9599 33.7764 25.5191 34.2801 18.1141C34.7837 10.709 41.3441 5.10635 48.9061 5.6128C50.4709 5.71445 52.007 6.08194 53.4483 6.69951C53.4354 6.31596 53.4803 5.93264 53.5815 5.56247C52.1126 4.97236 50.5599 4.61746 48.9805 4.51082C48.6423 4.48678 48.299 4.46558 47.9579 4.46558Z" fill="#0360AE"/>
<path d="M62.1047 20.9448C64.1179 20.9448 65.75 19.3128 65.75 17.2996C65.75 15.2863 64.1179 13.6543 62.1047 13.6543C60.0915 13.6543 58.4594 15.2863 58.4594 17.2996C58.4594 19.3128 60.0915 20.9448 62.1047 20.9448Z" fill="#0360AE"/>
<path d="M49.9019 7.50374C49.9019 7.50374 54.1803 4.02361 55.0515 3.97837C55.9227 3.93312 56.367 6.53975 56.367 6.53975L55.2565 8.3877L53.9464 9.29032L50.9908 9.4795L49.9019 7.61572V7.50374Z" fill="#E67A31"/>
</g>
</svg>
