<svg width="130" height="10" viewBox="0 0 130 10" fill="none" xmlns="http://www.w3.org/2000/svg">
<g clip-path="url(#clip0_2170_1106)">
<path d="M5.06322 8.23023C5.06322 9.06509 6.29722 8.66635 6.29722 8.97786C6.29722 9.12739 6.17262 9.15271 5.97325 9.15271C5.3876 9.15271 5.06322 9.12739 4.31558 9.12739C3.56795 9.12739 3.24397 9.15271 2.65792 9.15271C2.45855 9.15271 2.33394 9.12739 2.33394 8.97786C2.33394 8.66635 3.56755 9.06509 3.56755 8.23023L3.55549 0.97694C2.29696 0.97694 1.21249 2.08594 0.726123 3.09565C0.589056 3.38224 0.526753 3.54423 0.451989 3.54423C0.364765 3.54423 0.339844 3.49439 0.339844 3.44454C0.339844 3.29502 0.414607 2.99596 0.46445 2.75921L0.86319 0.715267C0.87565 0.640102 0.888111 0.478516 1.00026 0.478516C1.07502 0.478516 1.09994 0.528358 1.16224 0.578201C1.23741 0.628043 1.34956 0.677886 1.61123 0.677886H7.00748C7.26915 0.677886 7.3817 0.628043 7.45606 0.578201C7.51836 0.528358 7.54329 0.478516 7.61805 0.478516C7.73019 0.478516 7.74266 0.640504 7.75512 0.715267L8.15386 2.75921C8.2037 2.99596 8.27886 3.29502 8.27886 3.44454C8.27886 3.49439 8.25354 3.54423 8.16672 3.54423C8.09195 3.54423 8.02965 3.38224 7.89258 3.09565C7.40662 2.08594 6.32214 0.97694 5.06322 0.97694V8.23023Z" fill="black"/>
<path d="M11.5045 4.81597V8.23098C11.5045 9.06584 12.5387 8.6671 12.5387 8.97862C12.5387 9.12815 12.464 9.15347 12.2646 9.15347C11.8285 9.15347 11.5045 9.12815 10.7569 9.12815C10.0092 9.12815 9.68486 9.15347 9.24874 9.15347C9.04937 9.15347 8.97461 9.12815 8.97461 8.97862C8.97461 8.6671 10.0092 9.06584 10.0092 8.23098V1.57541C10.0092 0.740143 8.97461 1.13928 8.97461 0.827769C8.97461 0.678242 9.04937 0.65332 9.24874 0.65332C9.68486 0.65332 10.0092 0.678242 10.7569 0.678242C11.5045 0.678242 11.8285 0.65332 12.2646 0.65332C12.464 0.65332 12.5387 0.678242 12.5387 0.827769C12.5387 1.13928 11.5045 0.740545 11.5045 1.57541V4.51651H15.106V1.57541C15.106 0.740143 14.0714 1.13928 14.0714 0.827769C14.0714 0.678242 14.1466 0.65332 14.3459 0.65332C14.7821 0.65332 15.106 0.678242 15.8537 0.678242C16.6013 0.678242 16.9257 0.65332 17.3614 0.65332C17.5608 0.65332 17.6359 0.678242 17.6359 0.827769C17.6359 1.13928 16.6013 0.740545 16.6013 1.57541V8.23058C16.6013 9.06544 17.6359 8.6667 17.6359 8.97822C17.6359 9.12775 17.5608 9.15307 17.3614 9.15307C16.9253 9.15307 16.6013 9.12775 15.8537 9.12775C15.106 9.12775 14.7817 9.15307 14.3459 9.15307C14.1466 9.15307 14.0714 9.12775 14.0714 8.97822C14.0714 8.6667 15.106 9.06544 15.106 8.23058V4.81557H11.5045V4.81597Z" fill="black"/>
<path d="M19.5038 1.57541C19.5038 0.740143 18.4692 1.13928 18.4692 0.827769C18.4692 0.678242 18.5443 0.65332 18.7437 0.65332C19.1798 0.65332 19.5038 0.678242 20.2514 0.678242C23.0056 0.678242 23.9281 0.65332 24.8253 0.65332L25.4234 2.98386C25.4608 3.14585 25.4981 3.24553 25.4981 3.30824C25.4981 3.39546 25.4732 3.43284 25.3985 3.43284C25.2489 3.43284 25.2863 3.12133 24.6757 2.24908C23.9152 1.16501 22.8561 0.952777 21.3729 0.952777H20.9991V4.617H21.2732C22.3452 4.617 23.1551 4.19334 23.1551 2.93442C23.1551 2.74751 23.2174 2.69767 23.3047 2.69767C23.4044 2.69767 23.4542 2.74751 23.4542 2.93442V6.66095C23.4542 6.84786 23.4044 6.88524 23.3047 6.88524C23.2174 6.88524 23.1551 6.84786 23.1551 6.66095C23.1551 5.35218 22.3452 4.91606 21.2732 4.91606H20.9991V8.15662C20.9991 8.63013 21.2981 8.85442 22.0457 8.85442C24.3514 8.85442 25.3362 7.33382 25.6971 6.09982C25.7594 5.9125 25.7968 5.8506 25.884 5.8506C25.9712 5.8506 25.9962 5.91251 25.9962 5.97521C25.9962 6.05038 25.9962 6.16252 25.9588 6.33657L25.4354 9.15347C24.4008 9.15347 23.3417 9.12815 20.251 9.12815C19.5034 9.12815 19.179 9.15347 18.7433 9.15347C18.5439 9.15347 18.4688 9.12815 18.4688 8.97862C18.4688 8.6671 19.5034 9.06584 19.5034 8.23098V1.57541H19.5038Z" fill="black"/>
<path d="M34.9441 8.23023C34.9441 9.06509 36.1781 8.66635 36.1781 8.97786C36.1781 9.12739 36.0535 9.15271 35.8541 9.15271C35.2685 9.15271 34.9441 9.12739 34.1964 9.12739C33.4488 9.12739 33.1248 9.15271 32.5388 9.15271C32.3394 9.15271 32.2148 9.12739 32.2148 8.97786C32.2148 8.66635 33.4484 9.06509 33.4484 8.23023L33.4363 0.97694C32.1778 0.97694 31.0934 2.08594 30.607 3.09565C30.4699 3.38224 30.4076 3.54423 30.3328 3.54423C30.2456 3.54423 30.2207 3.49439 30.2207 3.44454C30.2207 3.29502 30.2955 2.99596 30.3453 2.75921L30.744 0.715267C30.7565 0.640102 30.769 0.478516 30.8811 0.478516C30.9559 0.478516 30.9808 0.528358 31.0431 0.578201C31.1179 0.628043 31.23 0.677886 31.4917 0.677886H36.8879C37.1496 0.677886 37.2622 0.628043 37.3365 0.578201C37.3988 0.528358 37.4237 0.478516 37.4985 0.478516C37.6107 0.478516 37.6231 0.640504 37.6356 0.715267L38.0343 2.75921C38.0842 2.99596 38.1593 3.29502 38.1593 3.44454C38.1593 3.49439 38.134 3.54423 38.0472 3.54423C37.9724 3.54423 37.9101 3.38224 37.773 3.09565C37.2871 2.08594 36.2026 0.97694 34.9437 0.97694V8.23023H34.9441Z" fill="black"/>
<path d="M40.0147 1.57541C40.0147 0.740143 38.9805 1.13928 38.9805 0.827769C38.9805 0.678242 39.0552 0.65332 39.2546 0.65332C39.6907 0.65332 40.0147 0.678242 40.7623 0.678242C41.51 0.678242 41.8344 0.65332 42.2705 0.65332C42.4698 0.65332 42.5446 0.678242 42.5446 0.827769C42.5446 1.13928 41.51 0.740545 41.51 1.57541V8.23058C41.51 9.06544 42.5446 8.6667 42.5446 8.97822C42.5446 9.12774 42.4698 9.15307 42.2705 9.15307C41.8344 9.15307 41.51 9.12775 40.7623 9.12775C40.0147 9.12775 39.6907 9.15307 39.2546 9.15307C39.0552 9.15307 38.9805 9.12774 38.9805 8.97822C38.9805 8.6667 40.0147 9.06544 40.0147 8.23058V1.57541Z" fill="black"/>
<path d="M48.5251 7.04682L51.2046 0.678242H51.7782C52.5258 0.678242 52.8498 0.65332 53.2859 0.65332C53.4853 0.65332 53.56 0.678242 53.56 0.827769C53.56 1.13928 52.5258 0.740545 52.5258 1.57541V8.23058C52.5258 9.06544 53.56 8.6667 53.56 8.97822C53.56 9.12774 53.4853 9.15307 53.2859 9.15307C52.8498 9.15307 52.5258 9.12775 51.7782 9.12775C51.0305 9.12775 50.7062 9.15307 50.27 9.15307C50.0707 9.15307 49.9959 9.12774 49.9959 8.97822C49.9959 8.6667 51.0305 9.06544 51.0305 8.23058V1.74985H51.0052L48.1015 8.86607C48.0516 8.97822 48.0018 9.12775 47.9146 9.12775C47.8523 9.12775 47.8024 9.00274 47.7526 8.86607L44.9112 1.84954H44.8863V7.07134C44.8863 8.1309 45.2476 8.64178 45.7211 8.79131C46.0455 8.89099 46.195 8.84115 46.195 9.0156C46.195 9.12774 46.1199 9.15307 45.9205 9.15307C45.5716 9.15307 45.2351 9.12775 44.7367 9.12775C43.9642 9.12775 43.6398 9.15307 43.4155 9.15307C43.2411 9.15307 43.1289 9.14061 43.1289 9.02806C43.1289 8.82869 43.266 8.89099 43.5899 8.79131C44.4746 8.5421 44.5868 7.56977 44.5868 6.06203V1.84954C44.5868 0.740143 43.3034 1.13888 43.3034 0.827769C43.3034 0.678242 43.3781 0.65332 43.5775 0.65332C44.0136 0.65332 44.338 0.678242 45.0856 0.678242H45.8831L48.5251 7.04682Z" fill="black"/>
<path d="M55.3788 1.57541C55.3788 0.740143 54.3441 1.13928 54.3441 0.827769C54.3441 0.678242 54.4193 0.65332 54.6187 0.65332C55.0548 0.65332 55.3788 0.678242 56.1264 0.678242C58.8806 0.678242 59.8031 0.65332 60.7003 0.65332L61.2984 2.98386C61.3358 3.14585 61.3731 3.24553 61.3731 3.30824C61.3731 3.39546 61.3482 3.43284 61.2735 3.43284C61.1239 3.43284 61.1613 3.12133 60.5507 2.24908C59.7902 1.16501 58.7311 0.952777 57.2479 0.952777H56.8741V4.617H57.1482C58.2202 4.617 59.0301 4.19334 59.0301 2.93442C59.0301 2.74751 59.0924 2.69767 59.1797 2.69767C59.2794 2.69767 59.3292 2.74751 59.3292 2.93442V6.66095C59.3292 6.84786 59.2794 6.88524 59.1797 6.88524C59.0924 6.88524 59.0301 6.84786 59.0301 6.66095C59.0301 5.35218 58.2202 4.91606 57.1482 4.91606H56.8741V8.15662C56.8741 8.63013 57.1731 8.85442 57.9208 8.85442C60.2264 8.85442 61.2112 7.33382 61.5721 6.09982C61.6344 5.9125 61.6718 5.8506 61.759 5.8506C61.8462 5.8506 61.8712 5.91251 61.8712 5.97521C61.8712 6.05038 61.8712 6.16252 61.8338 6.33657L61.3104 9.15347C60.2758 9.15347 59.2167 9.12815 56.126 9.12815C55.3784 9.12815 55.054 9.15347 54.6183 9.15347C54.4189 9.15347 54.3438 9.12815 54.3438 8.97862C54.3438 8.6671 55.3784 9.06584 55.3784 8.23098V1.57541H55.3788Z" fill="black"/>
<path d="M62.9668 5.70032C62.9668 5.58817 63.0291 5.55079 63.0914 5.55079C63.2035 5.55079 63.2285 5.65048 63.2659 5.92461C63.4777 7.45767 64.1381 9.0281 65.7833 9.0281C67.0302 9.0281 67.5905 8.28047 67.5905 7.43274C67.5905 4.9153 62.9668 5.93707 62.9668 2.87136C62.9668 1.57505 64.1634 0.478516 65.5839 0.478516C66.6933 0.478516 67.117 0.97694 67.6029 0.97694C67.9643 0.97694 67.8023 0.578201 68.0391 0.578201C68.1267 0.578201 68.1512 0.628043 68.1641 0.76511C68.3261 2.51 68.3755 3.36978 68.3755 3.53177C68.3755 3.65678 68.3136 3.70662 68.2384 3.70662C68.1388 3.70662 68.1138 3.54463 68.0765 3.40756C67.6528 1.98665 66.9795 0.777972 65.5719 0.777972C64.6249 0.777972 64.0637 1.3387 64.0637 2.12412C64.0637 4.41728 68.6874 3.64472 68.6874 6.67305C68.6874 7.99428 67.7404 9.32756 65.7089 9.32756C64.7989 9.32756 63.964 8.85406 63.6401 8.85406C63.1292 8.85406 63.3161 9.27772 63.0793 9.27772C63.0295 9.27772 62.9672 9.2528 62.9672 9.12819V5.70032H62.9668Z" fill="black"/>
<path d="M82.1573 4.90284C82.1573 7.69442 79.7894 9.32716 77.6832 9.32716C75.5769 9.32716 73.209 7.69442 73.209 4.90284C73.209 2.11126 75.5769 0.478516 77.6832 0.478516C79.7894 0.478516 82.1573 2.11126 82.1573 4.90284ZM77.6832 0.77757C76.0504 0.77757 74.8542 2.08594 74.8542 4.90284C74.8542 7.71934 76.0508 9.02811 77.6832 9.02811C79.3155 9.02811 80.5121 7.71934 80.5121 4.90284C80.5121 2.08594 79.3159 0.77757 77.6832 0.77757Z" fill="black"/>
<path d="M84.1108 1.57541C84.1108 0.740143 83.0766 1.13928 83.0766 0.827769C83.0766 0.678242 83.1517 0.65332 83.3511 0.65332C83.7872 0.65332 84.1112 0.678242 84.8592 0.678242C87.6134 0.678242 88.5355 0.65332 89.3334 0.65332L89.9315 2.98386C89.9689 3.14585 90.0063 3.24553 90.0063 3.30824C90.0063 3.39546 89.9814 3.43284 89.9066 3.43284C89.7571 3.43284 89.7944 3.12133 89.1839 2.24908C88.4234 1.16501 87.3642 0.952777 85.881 0.952777H85.6065V4.617H85.881C86.953 4.617 87.763 4.19334 87.763 2.93442C87.763 2.74751 87.8253 2.69767 87.9125 2.69767C88.0122 2.69767 88.062 2.74751 88.062 2.93442V6.66095C88.062 6.84786 88.0122 6.88524 87.9125 6.88524C87.8253 6.88524 87.763 6.84786 87.763 6.66095C87.763 5.35218 86.953 4.91606 85.881 4.91606H85.6065V8.23138C85.6065 9.06625 86.6411 8.66751 86.6411 8.97902C86.6411 9.12855 86.5659 9.15387 86.3666 9.15387C85.9305 9.15387 85.6061 9.12855 84.8588 9.12855C84.1108 9.12855 83.7868 9.15387 83.3507 9.15387C83.1513 9.15387 83.0762 9.12855 83.0762 8.97902C83.0762 8.66751 84.1104 9.06625 84.1104 8.23138V1.57541H84.1108Z" fill="black"/>
<path d="M95.3877 1.57541C95.3877 0.740143 94.3535 1.13928 94.3535 0.827769C94.3535 0.678242 94.4283 0.65332 94.6277 0.65332C95.0638 0.65332 95.3881 0.678242 96.1358 0.678242C96.8834 0.678242 97.2074 0.65332 97.6439 0.65332C97.8433 0.65332 97.918 0.678242 97.918 0.827769C97.918 1.13928 96.8838 0.740545 96.8838 1.57541V8.23058C96.8838 9.06544 97.918 8.6667 97.918 8.97822C97.918 9.12774 97.8433 9.15307 97.6439 9.15307C97.2074 9.15307 96.8834 9.12775 96.1358 9.12775C95.3881 9.12775 95.0638 9.15307 94.6277 9.15307C94.4283 9.15307 94.3535 9.12774 94.3535 8.97822C94.3535 8.6667 95.3877 9.06544 95.3877 8.23058V1.57541Z" fill="black"/>
<path d="M105.508 2.73464C105.508 1.67549 105.047 1.16461 104.573 1.01508C104.249 0.915395 104.1 0.965238 104.1 0.790387C104.1 0.678242 104.174 0.65332 104.374 0.65332C104.822 0.65332 105.159 0.678242 105.683 0.678242C106.206 0.678242 106.542 0.65332 106.991 0.65332C107.191 0.65332 107.265 0.678242 107.265 0.790387C107.265 0.965238 107.116 0.915395 106.792 1.01508C106.318 1.16461 105.857 1.67549 105.857 2.73464V9.15347C105.857 9.24069 105.807 9.32792 105.707 9.32792C105.62 9.32792 105.521 9.29054 105.458 9.20291L100.173 2.17392H100.148V7.07174C100.148 8.1313 100.609 8.64218 101.083 8.79171C101.407 8.89139 101.556 8.84155 101.556 9.016C101.556 9.12815 101.482 9.15347 101.282 9.15347C100.834 9.15347 100.497 9.12815 99.9735 9.12815C99.4502 9.12815 99.1137 9.15347 98.6648 9.15347C98.4654 9.15347 98.3906 9.12815 98.3906 9.016C98.3906 8.84155 98.5402 8.89139 98.8641 8.79171C99.338 8.64218 99.7991 8.1309 99.7991 7.07174V1.7378C99.076 0.703565 98.4031 1.06492 98.4031 0.828171C98.4031 0.691104 98.4903 0.653722 98.6772 0.653722C98.9763 0.653722 99.2255 0.678643 99.6242 0.678643H100.783L105.482 6.98492H105.507V2.73464H105.508Z" fill="black"/>
<path d="M108.685 1.57541C108.685 0.740143 107.65 1.13928 107.65 0.827769C107.65 0.678242 107.726 0.65332 107.925 0.65332C108.361 0.65332 108.685 0.678242 109.433 0.678242C109.944 0.678242 110.517 0.65332 111.202 0.65332C114.156 0.65332 115.964 2.38575 115.964 4.94058C115.964 7.27111 114.53 9.15307 111.726 9.15307C110.891 9.15307 110.168 9.12775 109.433 9.12775C108.685 9.12775 108.361 9.15307 107.925 9.15307C107.726 9.15307 107.65 9.12774 107.65 8.97822C107.65 8.6667 108.685 9.06544 108.685 8.23058V1.57541ZM110.181 7.73216C110.181 8.52964 110.641 8.85401 111.539 8.85401C112.96 8.85401 114.318 8.20566 114.318 5.0274C114.318 2.64702 113.371 0.951973 111.464 0.951973H110.181V7.73216Z" fill="black"/>
<path d="M118.005 1.57541C118.005 0.740143 116.971 1.13928 116.971 0.827769C116.971 0.678242 117.046 0.65332 117.245 0.65332C117.681 0.65332 118.006 0.678242 118.753 0.678242C119.501 0.678242 119.825 0.65332 120.261 0.65332C120.46 0.65332 120.536 0.678242 120.536 0.827769C120.536 1.13928 119.501 0.740545 119.501 1.57541V8.23058C119.501 9.06544 120.536 8.6667 120.536 8.97822C120.536 9.12774 120.46 9.15307 120.261 9.15307C119.825 9.15307 119.501 9.12775 118.753 9.12775C118.006 9.12775 117.681 9.15307 117.245 9.15307C117.046 9.15307 116.971 9.12774 116.971 8.97822C116.971 8.6667 118.005 9.06544 118.005 8.23058V1.57541Z" fill="black"/>
<path d="M123.35 6.08721C123.014 7.04708 122.852 7.40803 122.852 7.76979C122.852 9.01626 123.886 8.7168 123.886 9.01626C123.886 9.15373 123.823 9.15373 123.686 9.15373C123.425 9.15373 123.125 9.1284 122.278 9.1284C121.867 9.1284 121.468 9.15373 121.019 9.15373C120.894 9.15373 120.857 9.10348 120.857 9.0038C120.857 8.77951 121.343 8.90411 121.692 8.60506C122.017 8.33092 122.427 7.67051 122.764 6.82279C124.26 3.0838 124.472 2.62276 124.472 2.52307C124.472 2.43585 124.173 2.19909 124.173 2.04957C124.173 1.86266 124.384 1.88758 124.733 1.1524C124.995 0.604136 124.933 0.429688 125.095 0.429688C125.257 0.429688 125.244 0.840888 125.992 2.48609L128.647 8.35625C128.983 9.09142 129.569 8.73007 129.569 9.0038C129.569 9.14127 129.481 9.15373 129.357 9.15373C128.859 9.15373 128.36 9.1284 127.862 9.1284C127.363 9.1284 126.877 9.15373 126.366 9.15373C126.241 9.15373 126.166 9.11594 126.166 9.0038C126.166 8.69268 127.039 9.05404 127.039 8.38077C127.039 8.26862 126.914 7.8948 126.827 7.70749L126.116 6.08761H123.35V6.08721ZM124.646 2.72244L123.475 5.78815H125.992L124.646 2.72244Z" fill="black"/>
</g>
<defs>
<clipPath id="clip0_2170_1106">
<rect width="130" height="9.11514" fill="white" transform="translate(0 0.162109)"/>
</clipPath>
</defs>
</svg>
