<svg width="88" height="46" viewBox="0 0 88 46" fill="none" xmlns="http://www.w3.org/2000/svg">
<path d="M15.8289 6.15063H14.9705C14.7401 5.47809 14.3685 4.75751 13.8557 3.9889C13.3503 3.22028 12.8821 2.80641 12.451 2.74729C12.2132 2.71773 11.9196 2.69186 11.5703 2.66969C11.221 2.64752 10.92 2.63643 10.6673 2.63643H10.1433V14.9749C10.1433 15.241 10.1916 15.4775 10.2882 15.6844C10.3848 15.884 10.5744 16.0429 10.8568 16.1611C11.0277 16.2276 11.2916 16.2978 11.6483 16.3717C12.0125 16.4383 12.3209 16.4863 12.5736 16.5159V17.3805H3.75531V16.5159C3.97084 16.4937 4.27185 16.4641 4.65832 16.4272C5.05223 16.3828 5.31979 16.3311 5.461 16.272C5.75086 16.1537 5.9441 15.9948 6.04071 15.7953C6.13733 15.5957 6.18564 15.3592 6.18564 15.0858V2.63643H5.66167C5.40898 2.63643 5.10797 2.64752 4.75866 2.66969C4.40934 2.69186 4.11577 2.71773 3.87794 2.74729C3.44687 2.80641 2.97493 3.22028 2.4621 3.9889C1.95671 4.75751 1.58882 5.47809 1.35842 6.15063H0.5V1.64979H15.8289V6.15063Z" fill="black"/>
<path d="M23.6774 17.3805H16.6316V16.5713C16.8249 16.5565 17.0144 16.538 17.2002 16.5159C17.386 16.4937 17.5458 16.4567 17.6796 16.405C17.9174 16.3163 18.0846 16.1907 18.1812 16.0281C18.2779 15.8581 18.3262 15.6364 18.3262 15.3629V8.91099C18.3262 8.65233 18.2667 8.42692 18.1478 8.23476C18.0289 8.03522 17.8802 7.87632 17.7019 7.75807C17.5681 7.66938 17.3637 7.58439 17.0887 7.5031C16.8211 7.4218 16.5759 7.37007 16.3529 7.3479V6.53863L21.8156 6.2504L21.9828 6.41669V15.2188C21.9828 15.4775 22.0386 15.6992 22.15 15.884C22.2615 16.0613 22.4213 16.1944 22.6294 16.2831C22.7781 16.3496 22.9416 16.4087 23.1199 16.4604C23.2983 16.5122 23.4841 16.5491 23.6774 16.5713V17.3805ZM22.0497 2.25951C22.0497 2.82119 21.8305 3.30158 21.392 3.70067C20.9609 4.09237 20.4481 4.28822 19.8535 4.28822C19.2515 4.28822 18.7312 4.09237 18.2927 3.70067C17.8616 3.30158 17.6461 2.82119 17.6461 2.25951C17.6461 1.69783 17.8616 1.21745 18.2927 0.81836C18.7312 0.419271 19.2515 0.219727 19.8535 0.219727C20.4555 0.219727 20.972 0.419271 21.4031 0.81836C21.8342 1.21745 22.0497 1.69783 22.0497 2.25951Z" fill="black"/>
<path d="M32.9973 16.8706C32.5217 17.0775 32.0126 17.2623 31.47 17.4249C30.9275 17.5949 30.266 17.6799 29.4856 17.6799C28.3262 17.6799 27.4641 17.399 26.8992 16.8373C26.3418 16.2757 26.0631 15.4738 26.0631 14.4317V7.62504H24.0564V6.42778H26.1077V3.06878H29.7309V6.42778H32.8524V7.62504H29.7532V13.7001C29.7532 14.5648 29.8721 15.1782 30.1099 15.5403C30.3552 15.9024 30.79 16.0835 31.4143 16.0835C31.615 16.0835 31.8937 16.0687 32.2504 16.0392C32.6072 16.0096 32.8561 15.9763 32.9973 15.9394V16.8706Z" fill="black"/>
<path d="M42.0721 16.8706C41.5964 17.0775 41.0873 17.2623 40.5448 17.4249C40.0022 17.5949 39.3407 17.6799 38.5604 17.6799C37.4009 17.6799 36.5388 17.399 35.974 16.8373C35.4165 16.2757 35.1378 15.4738 35.1378 14.4317V7.62504H33.1311V6.42778H35.1824V3.06878H38.8056V6.42778H41.9272V7.62504H38.8279V13.7001C38.8279 14.5648 38.9468 15.1782 39.1847 15.5403C39.4299 15.9024 39.8647 16.0835 40.489 16.0835C40.6897 16.0835 40.9684 16.0687 41.3251 16.0392C41.6819 16.0096 41.9309 15.9763 42.0721 15.9394V16.8706Z" fill="black"/>
<path d="M49.6418 17.3805H42.6518V16.5713C42.845 16.5565 43.0308 16.538 43.2092 16.5159C43.395 16.4937 43.5585 16.4567 43.6997 16.405C43.9376 16.3163 44.0974 16.1907 44.1791 16.0281C44.2683 15.8581 44.3129 15.6364 44.3129 15.3629V3.07986C44.3129 2.79902 44.2534 2.54035 44.1345 2.30386C44.023 2.05997 43.8707 1.87521 43.6774 1.74957C43.5288 1.65349 43.3021 1.56111 42.9974 1.47242C42.7001 1.38374 42.4363 1.332 42.2059 1.31722V0.507957L47.8135 0.219727L47.9807 0.397099V15.2188C47.9807 15.4923 48.029 15.714 48.1256 15.884C48.2222 16.0539 48.3783 16.187 48.5939 16.2831C48.7425 16.3496 48.8986 16.4087 49.0621 16.4604C49.2256 16.5122 49.4188 16.5491 49.6418 16.5713V17.3805Z" fill="black"/>
<path d="M62.7076 14.731C62.4475 15.1523 62.1316 15.5514 61.76 15.9283C61.3958 16.2978 60.9796 16.6156 60.5114 16.8817C60.0134 17.1625 59.5081 17.3732 58.9952 17.5136C58.4898 17.6614 57.9064 17.7353 57.2449 17.7353C56.145 17.7353 55.1937 17.5801 54.391 17.2697C53.5957 16.9593 52.938 16.5417 52.4177 16.017C51.8975 15.4923 51.5073 14.8752 51.2471 14.1657C50.9945 13.4488 50.8681 12.6728 50.8681 11.8376C50.8681 11.0838 51.0056 10.3632 51.2806 9.67592C51.563 8.9812 51.9606 8.3641 52.4735 7.82459C52.9789 7.29986 53.6143 6.8749 54.3798 6.54972C55.1528 6.22454 56.0149 6.06194 56.9662 6.06194C58.0067 6.06194 58.8615 6.18758 59.5304 6.43886C60.1992 6.69014 60.753 7.03749 61.1915 7.48093C61.6151 7.90219 61.9235 8.40105 62.1168 8.97751C62.31 9.54658 62.4066 10.1452 62.4066 10.7734V11.494H54.8704C54.8704 13.009 55.1639 14.162 55.7511 14.9528C56.3382 15.7435 57.271 16.1389 58.5493 16.1389C59.2479 16.1389 59.8759 15.9505 60.4334 15.5736C60.9908 15.1893 61.4664 14.7052 61.8603 14.1213L62.7076 14.731ZM58.449 10.5184C58.449 10.075 58.4267 9.62049 58.3821 9.15488C58.3375 8.68928 58.2594 8.30867 58.148 8.01305C58.0216 7.66569 57.847 7.40333 57.624 7.22595C57.4085 7.04858 57.1335 6.95989 56.799 6.95989C56.2267 6.95989 55.7697 7.24813 55.4278 7.82459C55.0859 8.40105 54.9001 9.31378 54.8704 10.5628L58.449 10.5184Z" fill="black"/>
<path d="M1.95386 24.5497V41.1355L5.80938 41.2189V28.6337L11.7603 28.8004L6.81517 34.0511L10.7545 36.0514L17.7112 28.717L15.6996 24.4664L1.95386 24.5497Z" fill="black"/>
<path d="M18.4643 24.2999V41.0524L22.4036 40.9691L22.3198 28.3839L28.3545 28.4672L23.3256 33.718L34.2216 45.2197L34.1378 38.9688L29.2765 33.8014L34.1378 28.4672L32.1262 24.2166L18.4643 24.2999Z" fill="black"/>
<path d="M35.7954 24.285V28.5282H50.6121L52.3901 24.6386L35.7954 24.285Z" fill="black"/>
<path d="M35.7954 30.7677V34.7753H50.6121L52.3901 30.7677H35.7954Z" fill="black"/>
<path d="M35.7954 36.779L35.6769 41.0223L50.4935 41.1402L52.5086 37.1326L35.7954 36.779Z" fill="black"/>
<path d="M52.4549 41.2715L65.1949 41.4381L69.2181 37.3542L69.1343 31.0199L57.4001 31.1033L59.244 28.9363H68.1285L70.1401 24.769L57.4839 24.9357L53.4607 29.0196V35.1039L65.3626 35.2706L63.351 37.4376L54.5503 37.3542L52.4549 41.2715Z" fill="black"/>
<path d="M69.8149 41.5846L82.5549 41.7513L86.578 37.6674L86.4942 31.3331L74.76 31.4165L76.604 29.2495H85.4884L87.5 25.0822L74.8438 25.2489L70.8207 29.3328V35.417L82.7225 35.5837L80.7109 37.7507L71.9103 37.6674L69.8149 41.5846Z" fill="black"/>
</svg>
